<svg xmlns="http://www.w3.org/2000/svg" viewBox="0 0 960 960"><g vector-effect="non-scaling-stroke" stroke-width="2" fill="none"><path stroke="#845f50" d="M447.7 930.4q-4.1-1.5-8 2"/><path stroke="#6c6ea2" d="M672.8 400.8q-3.2 40.3-.4 80.6c1 15.6 3.7 34.3 5.7 48.6a.2.2 0 0 0 .4 0q9-38 22.4-81.5l14-44.4"/><path stroke="#6a84a2" d="M714.9 404q8.7-27.3 18.4-54.4 19.8-55.2 40.1-105.2a250 250 0 0 1 17.2-35.8Q798 196 814 169.9a.8.8 0 0 1 1.5.2q.1.4-.2 1.2-8 21.4-11 32.7l-8.2 29.4c-5.7 20-12 36.8-19.5 59.1q-4.9 14.5-9.7 30.2l-17.8 57"/><path stroke="#6c6ea2" d="M749 379.7q-2.9 10-5.7 20.4c-7.9 28.8-15.4 49.7-22.1 75.1q-4.7 17.5-12.5 44.5-2.2 7.8-4.1 15.4a.5.5 0 0 0 .7.6q10.4-6.2 18.2-15.7c10.6-13 21.1-29 31.1-46.2 20.3-35.1 32.2-55.7 49-83.9q3.3-5.4 5.4-11a.5.5-89.9 0 0-.6-.7q-6.5 2.4-12.1 3c-7.5.7-9.1-7.6-4.9-12.3l8.7-9.5"/><path stroke="#6a84a2" d="m800 359.4 18.1-18.5a40 40 0 0 0 10.4-19.4l15.8-57.8a.2.2 0 0 0-.3-.3l-19.4 8.1a1.6 1.2 21.6 0 1-.4.1q-4 .5-6.1-2.6c-2.8-4.2 2.1-10.8 4.7-14.4q14.3-19.9 24.8-34c5.8-7.8 11.9-15 18.9-23.6 4.1-5.2 4.4-10.3 5.4-17.5q2.9-19 4-36.5 2.4-35 1.7-69.2a575 575 0 0 0-4.7-58.2 1.3 1.3 0 0 0-2-.8q-6.3 4.8-12.2 11.1L830 57.5q-17.3 19.2-31.3 39c-12.6 17.7-28.1 41-40.1 60.3a676 676 0 0 0-51.1 99.4q-13.6 33-21.1 61.2-10.7 40-13.6 83.4"/><path stroke="#7eafff" d="M800 359.4q-25.9 8.7-51 20.3M714.9 404l-42-3.2"/><path stroke="#a88958" d="m349 222-1.8 6.2"/><path stroke="#a77e59" d="M347.2 228.2q-3.4 12.1-2.8 21 .9 10.8 11.5 13.2a52 52 0 0 0 28.3-1c8.5-2.3 15.6-3.7 24.8-6.3q13-3.7 20-5.2 16.4-3.6 35.5-5.3 4.6-.5 8.1 2a.5.5 0 0 1-.2 1c-7.6 2.3-15.8 5.7-23.7 8.9-5.4 2-10.9 2.7-16.7 3.7a.3.3 0 0 0-.1.6q3.1 2.3 5.5 5 26.8 30.6 35.5 70a.2.2 0 0 0 .4 0c2.1-6.7 4.6-14.8 7.5-21.3q9.3-21.1 21-37.4 6.2-8.7 20.7-26 10.5-12.5 23-24c6.1-5.6 14.2-12 20.4-18q5.9-5.6 6.2-11.8.7-13-11.1-18-10-4-20.3-5.4"/><path stroke="#a88958" d="m540.7 173.9-13.7-.4"/><path stroke="#aa9657" d="M527 173.5q-13.9.3-25.7 1.9-12.2 1.6-23.5 7.5c-5.2 2.7-8.3 3.8-13 5.8a.4.4 0 0 1-.6-.5 48 48 0 0 1 7.4-17.8 4259 4259 0 0 0 56.9-90.9q5.3-8.7 8-17.9a1 1 0 0 0-.9-1.1q-2.8-.2-6.1 1A369 369 0 0 0 485.3 80a304 304 0 0 0-80.2 56.6q-22.7 22.2-39.3 48.7-10.9 17.3-16.8 36.7"/><path stroke="#fbdc6b" d="M527 173.5a210 210 0 0 1-54.4 39.4q-21.4 9.8-44.3 14.7-20.1 4.2-41.8.9-18.9-3-37.5-6.5"/><path stroke="#f8c46d" d="M540.7 173.9Q526 186.3 507.3 201q-33.5 26.5-75.3 34.7-21.9 4.3-44.4.2-23-4.1-40.4-7.8"/><path stroke="#a89a9b" d="M776.6 263q-1.8 3.7-2.3 5.3l-2.5 6.9q-18.3 46.8-35.2 95.3c-8 22.8-16.7 50.6-23.3 71.5q-10 31.4-21.2 74.6-2.5 10-4.3 18.4-4 19.1-8.2 37.8a.3.3 70.4 0 0 .5.3l8-10.3.2-.5c1.3-6.3 2-11.6 3.8-17.7 1.9-6.6 3.6-15.7 5.9-23.6 5-18 9.4-33 15-53.8 7-24.8 15-48.8 21.2-71.5q4.4-15.8 10.4-35.1L760 312q10.2-32.3 14.2-42l2.8-7a.1.1 11.1 0 0-.1-.2h-.2"/><path stroke="#644948" d="M604 426q-.2.5-.1.8a.2.2 0 0 0 .4 0q0-.4-.3-.9"/><path stroke="#a59a99" d="M604 426q1-16.6 1.1-29.4.3-15-1-30-.6-8.3-4-21.4c-2.1-8.3-8-18.6-12-25.5Q587 318 586 317a63 63 0 0 0-22.4-15.5q-16-6.3-32.9-2.1c-4.1 1-8.4 3-11.3 4a40 40 0 0 0-18 13.1l-7.6 9.9a7.8 7.5 77 0 0-1 1.7c-3.6 8.2-5 18.1-6.1 27.6q-1.9 15.9-2.8 35.3c6-15.7 17.3-31 32.3-38 29.8-14 58.3 6.9 73 32.1q11.2 19.1 14.8 41m-137.3-29.9q.4-12.4-1.1-24.6c-.3-2.3-1.3-5-1.5-7.8q-.8-12.9-3.5-20.7-4.2-12.6-10.4-20.3-5-6.1-14.6-12.6c-7.7-5.1-17.7-6-27-5.6a57 57 0 0 0-27.2 10.5q-4.1 3.1-12.2 11.6a82 82 0 0 0-17.1 34.6q-8.6 34.8-9.2 71 0 2.9.4 11l.2.2.1-.1c1.7-21.9 8.6-43.8 21.5-61.3 18.2-25 49.5-38.8 77-18.5q13.8 10.2 21.3 26l3 6.6a.1.1 0 0 0 .3 0"/><path stroke="#a78768" d="M104.5 432.4c-2.7 12.4-5.8 28.5-2.6 41.7q.6 2.5 1 7 1 10.4 9.4 17.5h.7c9-8.1 20-13.1 31.4-17.1"/><path stroke="#a6816f" d="M144.4 481.5q10.4-3.5 17.8-4.8c12.6-2.1 29.3-.4 40 7.6q4 3 9 8.8"/><path stroke="#a4655c" d="M211.3 493q6.1 7.2 11.5 15c4.5 6.4 14 .7 19.5-.8a47 47 0 0 0 13.3-6.4q10-7.4 18.7-17.2a.3.3 0 0 1 .4.3q-8.7 21.5-28.3 32.9c-4 2.4-7.8 3.6-12.6 4.7q-8.5 2-15.2-2.4l-.7.2q-5.5 13.5-12.4 26.7"/><path stroke="#865450" d="m205.5 546-2.7 5.3a1 1 29.4 0 0 .5 1.5c9.5 6 20 11.2 30.7 11.6h7c6.2 0 10.7-1 18-2 3.9-.5 7.6-.4 10.8-2.9q5.8-4.5 10.8-11.6 1.3-1.8 2.4-7.2"/><path stroke="#a4655c" d="M283 540.7q6.5-16.2 15.3-31.4"/><path stroke="#865450" d="M298.3 509.3q8-12 12.3-17.7 6-8 17.3-20 2-2.1 2.2-4.9c.8-7.5 1.3-13 .6-21.3-1.7-19-2.2-29.2-5.4-43.8"/><path stroke="#a4655c" d="M325.3 401.6q-2-15.5-8.2-27.2-5-9.3-14.7-19.5"/><path stroke="#a6816f" d="M302.4 355c-15-16.7-35.1-23-57.6-24.3q-17-1-30.2 2-23.6 5-47.2 15.8-14.2 6.5-24.7 15.9a114 114 0 0 0-28.5 36.8q-6.3 14.4-9.7 31.2"/><path stroke="#f2a387" d="M302.4 355q-2 2.6-2.3 6-1.5 15.7-5.7 30.9c-5.8 21-16 40.3-28.3 60q-3.2 5-7.2 8.8-14.2 13.5-30.3 23.6-8.2 5.1-17.3 8.8"/><path stroke="#f6c493" d="M144.4 481.5q-15.7-13.4-27-30.1l-13-19"/><path stroke="#d37668" d="M325.3 401.6q-.7 13.5-1.2 18.2-.8 6.7-3.4 18-7.7 33.3-20.1 65-1.3 3.1-2.4 6.5M283 540.7l-9.6 11q-4.3 5.1-10.3 6.9-9.2 2.6-18.5 3.8-7.7 1-11.2.6c-4.4-.3-6.6-1.2-11-3.5q-10.3-5.5-17-13.5"/><path stroke="#644948" d="m549.4 520.5.5 2a1 1 0 0 0 1.5.7c18-5.5 31.9-21.3 39-38q1-2.7 3-12.4a1 1-56.2 0 0 0-1 75 75 0 0 0-26-25.6q-4.4-2.4-9-4.4"/><path stroke="#a89a9b" d="M558.5 441.8c-5.4-10.2-14-18.3-25.8-18.7-19.9-.6-29.7 21.6-31.8 37.8-2.7 19.8 2.8 46.5 20.7 58.2q13.4 9 27.8 1.4"/><path stroke="#b4a09e" d="M558.5 441.8a80 80 0 0 1 .6 67.6q-3.4 7.4-9.7 11.1"/><path stroke="#644948" d="M390 439.5q-17.9 3.2-35 8.4l-.5.7a100 100 0 0 0 8.3 47.4 36 36 0 0 0 13.4 15.3q8.4 5.6 17.9 4.8"/><path stroke="#a89a9b" d="M394 516.2q10.2 8.6 22.1 6c9.2-2.1 17-9 21.6-17.2q11.7-20.6 7-45.3c-2.3-12.4-9.4-26-21-31.3q-14-6.5-26.4 2.9-3.2 2.3-7.3 8.2"/><path stroke="#b4a09e" d="M394 516.2c-18.4-20-18-54.3-4-76.7"/><path stroke="#a4655c" d="M590.8 524.9q-2.2 6-4.1 14.5-5 21.1-3.4 43.4.8 11.6 2.5 23.2a128 128 0 0 0 26.4 57.4"/><path stroke="#865450" d="m612.2 663.4 11 12.6"/><path stroke="#644948" d="m623.2 676 .3.3-.3-.3"/><path stroke="#865450" d="M623.2 676q-7.6-19.2-9.2-40.8"/><path stroke="#a4655c" d="M614 635.2q.4-10.4 2-21.2 1.3-8.5 4-16.2c5-14 13.3-18.6 27.8-19.3q7-.4 20-.6a1 1 0 0 0 .7-.6c.6-2.8.5-6 1.2-9.7q2-10.7 1.3-16.1-4.6-31-8-59.2-.4-3.8-1.2-7.2"/><path stroke="#865450" d="M661.8 485.2q.6-3.8.3-7.2-1.2-20.3-.9-40.7a.6.6-11 0 0-.9-.6q-1.7.8-3.5 1.9-16.6 10.2-28.3 22.7-13.3 14-22.3 28.8-9.9 16.2-15.4 34.8"/><path stroke="#d37668" d="M661.8 485.2q-3.5-11.7-5.3-23.4a.6.6 0 0 0-.9-.5q-28.4 16.3-48.8 41.8l-7.9 11q-3.8 5.4-8.1 10.8M614 635.2q-3.4 13.3-1.8 28.2"/><path stroke="#a4655c" d="M758.3 489.4 739 517.8a.3.3 0 0 0 .3.4l13.5-7.1a.6.6-84.1 0 1 .7.9q-9.7 11.7-22.7 21"/><path stroke="#a57466" d="M730.8 533q-3.2 2.3-6.7 4.5c-6.2 4-14.2 7-19.2 12.3a1 1 58.3 0 0-.3 1.2q4.5 14.6 9.3 26.7 1.1 3 .8 4.8-.4 2.5-2.7 4"/><path stroke="#a6816f" d="M712 586.5q-5.6.5-11.1.5-8.1.1-11.2.4-18 1-37.7 1.6c-7.3.2-16.3.5-20.2 8a84 84 0 0 0-6.8 40c1.1 25 12 48.7 30.2 65.6"/><path stroke="#a78768" d="M655.2 702.6q14.3 13.4 29.5 19.4 9.9 4 24.3 6.1 12.7 2 25 .6c15.5-1.7 30.2-5.3 45.6-12 24.2-10.3 49.5-21.7 62.4-43q8.5-13.9 13.2-30.6"/><path stroke="#a6816f" d="m855.2 643 4-17.6"/><path stroke="#a57466" d="M859.1 625.4a943 943 0 0 1 4.3-30.3q1.5-9.3 2-19.9"/><path stroke="#a4655c" d="M865.3 575.2q-.5-15.6-5.2-32.1-5.2-18.3-9.7-30.3-6.2-16.4-18.4-37.6a51 51 0 0 0-7.3-9.4q-9.5-9.5-15-14.7-7.8-7.3-16.6-9.7"/><path stroke="#865450" d="m793.1 441.4-6-1.8-.8.3-28 49.5"/><path stroke="#d37668" d="m793.1 441.4-2.8 5.3q-7 11.2-14.3 22.3t-17.7 20.4"/><path stroke="#f1967e" d="m865.3 575.2-10.1-9.1c-7.7-6.8-15-14.9-20.6-20.2a67 67 0 0 0-61.6-19q-27.7 4.2-42.2 6.1"/><path stroke="#f3b291" d="M859.1 625.4c-9.4-.8-19-.4-25.8-8.1-4.1-4.8-8.2-10.2-12.5-14.3q-14-13.2-32.4-19.8c-18-6.5-32.9-2.3-53.5 1.5q-7.4 1.3-22.9 1.8"/><path stroke="#f6c493" d="M855.2 643q-17 .8-30.2 10.8-8.8 6.9-19.6 16.5"/><path stroke="#f3d8c4" d="M805.4 670.3c.3-16.6-19.6-21.7-32.3-18-13.3 4-26 13.6-30.8 26.9q-3 8.8 1 17.3"/><path stroke="#f6c493" d="M743.2 696.5q-16-5.3-23.2-8.9l-22.4-11c-24.6-11.6-34 7.4-42.4 26"/><path stroke="#f5debd" d="M743.2 696.5c6 9.5 17.1 11 27.3 8.2a49 49 0 0 0 21.6-12.4c6.3-6.3 12.2-12.4 13.3-22"/><path stroke="#a4655c" d="M387.1 527.6a59 59 0 0 1-18.8-9.2c-5-4-9.4-7.2-12.9-12q-7.9-11-12.4-22.4a.6.6 0 0 0-.9-.4c-8.3 3.9-16 7.7-22.8 14q-3.7 3.5-8.2 10.5-11.5 17.6-17.8 34-3.4 8.8-6 21"/><path stroke="#a6816f" d="m287.3 563-2 13"/><path stroke="#a57466" d="M285.3 576q-3.3 26.6 3.1 50.9 2.7 10 8.4 23 1.7 3.8 3.7 6.9c4 6.6 6.5 16.5 10.9 24q7 12.4 16.2 23.4a22.8 22.7-.1 0 0 3 3 157 157 0 0 0 51.5 26.5"/><path stroke="#a6816f" d="M382.1 733.7a259 259 0 0 0 100.6 10.5q35.9-3 67.7-15.2 15.5-5.9 22.4-10l9.7-5.8q14.3-8.7 25.2-20.7c2.8-3 4.7-6.2 7.2-8.8a1 1-45.3 0 0 0-1 164 164 0 0 1-24.3-32.9q-13.3-23-16.3-53.5-2.5-25.8 0-45.8"/><path stroke="#a4655c" d="M574.3 550.5q2.8-18.3 8.9-35.1l-.1-.1q-10.5 11.6-24.8 17.3"/><path stroke="#a6816f" d="M558.3 532.6q-17 4.3-33.2-1.5-5.6-2-8.3-3.3a1 1 14.6 0 0-1.2.7q-.9 10.6-7.5 18.8a38 38 0 0 1-32.8 15.2c-15.4-.7-24.6-8.4-34-19.4a3 3 0 0 0-2.7-.8q-3.1.9-5.2-.4-2.3-1.5-2-3.9c.2-3.8 6.2-4.8 9.4-5.1q3.6-.4 6.9-1.2 19.3-4.4 31.2-8.1l21.5-6.8a.6.6 0 0 0 .2-1q-4.8-5-7.6-10.6-6.5-13.3-9.9-23.3c-3.4-10.2-5.4-23-7.1-34a4.3 4-62.9 0 0-.2-.9l-.4-1a.3.3 0 0 0-.6 0q-1 1.9-1.4 4.2-2.8 18.5-9.6 37.4c-7.8 21.7-23.4 39-47.5 41.6q-7.2.8-15.3.7c-4.6 0-9.3-1.3-13.9-2.3"/><path stroke="#f2a387" d="M558.3 532.6q5.6 11 16 18"/><path stroke="#f3b291" d="M382.1 733.7q-15.5-15-23.7-25-15.3-18.4-28.8-43.6-14.8-27.5-26.4-56.5-6.6-16.6-18-32.7"/><path stroke="#f2a387" d="M287.3 563q16.3 11.3 36.2 11.8 24.6.7 43.6-13.7 16.8-12.8 20-33.5"/><path stroke="#9c826e" d="M136.3 496.3q-3.5 1.2-6.6 3.2-2.2 1.4-5.3 5-2.9 3.5-7.3 7.9-8.5 8.6-19.4 24"/><path stroke="#937560" d="m97.7 536.4-2.5 3.3q-27 38.7-50.8 79.3l.1.1c7-4.9 14.3-7 23.2-7.5q28.9-1.5 50.5 19.2 13.3 12.6 15 30.2c.3 3 0 4.1-.1 7a.3.3 0 0 0 .5.3q1.2-1.8 2-4.3a3 2.6-25.4 0 1 .2-.6l10.5-18.5"/><path stroke="#9c826e" d="M146.3 644.9c13.3-24.6 26.7-49.3 37.7-75"/><path stroke="#a38e7a" d="M184 570c3.6-8.1 6.8-16.6 10.6-24.3l10.5-21.6c2.6-5.7 5.3-10.4 4.5-15.7a4 4-69.6 0 0-.9-1.8c-7-8.7-12.8-16-24-18.5q-12.5-2.8-24.8 0-12.1 2.8-23.6 8.2"/><path stroke="#e8cda4" d="M184 570q-11.7-12-20.5-26.3-14.3-23.2-27.2-47.4"/><path stroke="#d8b489" d="M146.3 644.9q-3.7-4.5-5.2-10.2a2.9 2.8-70.3 0 0-.3-.8l-5.9-8.9c-6-9-12.8-17.7-19-26.2q-15.6-21.2-17.5-46.9-.5-7.7-.7-15.5"/><path stroke="#a89a9b" d="m506.3 524.1-30.4 9.5q-3 1-25.1 6.3a.4.3 64.9 0 0-.2.5q9.1 12.4 24.6 13.2 12.5.7 22-7.2c6.2-5.2 10.9-13.5 9.9-21.8a.6.6 0 0 0-.8-.5"/><path stroke="#9c826e" d="M182.2 598q-22.3 44.2-46.7 87.2a256 256 0 0 1-19.1 30.2A30 30 0 0 1 95.7 726"/><path stroke="#937560" d="M95.7 726q-4.5.4-7.3-.4-10.6-2.8-19.8-10.7"/><path stroke="#8e6c56" d="M68.6 715q-8.8-7.4-16.2-16a2.9 2.7 17.5 0 1-.6-1q-1.4-4.3.8-7.4.7-1 5-2.2 27-7.2 41.5-30 3.3-5.3 4.6-14.4c.4-2.6-.3-6.5.5-9.7a2 2 25.4 0 0-.7-2q-15.1-10.6-33.8-9.8-11 .4-20.7 6.2-1.5 1-5.4 4.7"/><path stroke="#845f50" d="M43.6 633.4q-8 7.7-14.2 19-8.4 15.2-12.1 28.3c-1.2 4.3-1.4 9-2.8 13.2-1.8 5.2-2 10.1-2 15.6q.1 13.1 1.4 26.7t6.8 29q7.2 20 19 38.9"/><path stroke="#8e6c56" d="M39.8 804q1.2 3.5 4.2 8.5 10.1 17.1 16.7 27.2 4.5 6.9 7.9 9.8c4.5 4 10.2 4.9 16.2 5.2"/><path stroke="#937560" d="M84.8 854.7q2.6.6 5.4 1 6.5 1.3 8.2 7.4l2.9 10.6c1.4 5.4 6.6 9.8 11 13.3q12 9.7 25.5 15.7 11.4 5 15.3 6.5 10.6 4 31.7 10.2 13.3 4 26.2 6.4 12.5 2.4 24.8-2.8"/><path stroke="#9c826e" d="M235.8 923c5.5-2.8 11.2-7 17-2.2q6.6 5.7 12 9.8a74 74 0 0 0 26.2 10.7q4 1 13.2 2.8c14.7 2.6 24.9 5 37.4 2.5q16.2-3.3 33.4-7.6l14-3.2c15.1-2.4 24.8-4 36.3-8.8 4.8-2 12-7 17.2-7.9a35 35 0 0 1 22.3 6.3c6 4.3 10.5 6 18.4 9.7a8.6 8.4 63.3 0 0 1.9.6q6.8 1.5 14.2-.1c4.2-1 9.3-1.9 12.7-2.9q46-13.3 106.7-29.6c9.1-2.4 17.4-8.5 27.2-11.5l8.4-2.4"/><path stroke="#a38e7a" d="m654.3 889.2 24.3-3.1"/><path stroke="#9c826e" d="M678.6 886q25-1.9 50-4.5c4.4-.5 8.3-1.3 11-4.6q5.9-7 9.4-10.2c7.6-6.7 14.8 5.4 22.2 6.9q20.2 4.1 43 4a7 6.2 34.8 0 0 1.6-.2c2-.5 4-1.6 6.4-2.3q8-2 16.3-2.8m0 0 .5-1 .2-.7q.4-8 1-10.2 1-4.8 4.3-5.9t8 .5"/><path stroke="#937560" d="m852.6 855 11.9 9.7a2.5 2.4-11.8 0 0 .5.3l14.4 7"/><path stroke="#845f50" d="M879.4 872q7.3 4 12.6 4.2l15.8.4q1.4 0 5.5-1.1m.7-.3c5-3.3 6-8.7 8.4-13 3.6-6.2 8.4-8.3 14.8-11.3q1.7-.8 1-3.1-1-4.5-2.7-7.6-6.8-13-14.5-23.1l-21.7-28.5"/><path stroke="#937560" d="M899.3 788.6q-10-13.3-20.5-26.1-15.5-18.7-34.4-42.4-1.8-2.3-2.4-3.4-4.6-8.4-8.8-15.3a.5.5 0 0 0-.8-.2l-4 3"/><path stroke="#9c826e" d="m828.5 704.2-5.6 3.7"/><path stroke="#a38e7a" d="M823 707.9q-12.7 8.4-26.5 14-3.1 1.4-17.8 7.4-21.2 8.8-42.9 10.7a.5.5-10.1 0 0-.4.7c2.5 9 4 19.4-5.8 24.9-8.1 4.6-16.3 1.9-23.6-2.9q-12.4-8.1-21.4-13.1-8.3-4.7-17.2-7.6"/><path stroke="#8e6c56" d="m667.4 742-22.2-9.2-.8.2q-1 1.5-1.4 3.3"/><path stroke="#a38e7a" d="M643 736.3q-5.7 13.1-10.8 26-2 5.1-4.3 10.2-2.7 6-8.8 3.7a1.8 1.7 84.3 0 1-.8-.7q-1.4-2.3-1.6-5"/><path stroke="#9c826e" d="m616.7 770.5 5-34.4"/><path stroke="#937560" d="m621.6 736.1 1.7-9.6-.4-.7q-5.9-2.2-12.3-1.8-15.8.8-30.6 5.4a1.4 1 26.8 0 1-.3 0l-3.3.3"/><path stroke="#9c826e" d="M576.4 729.7q-1.7.2-3.4 1c-42.9 21.7-93.4 28.7-141 24.4a225 225 0 0 1-79-21.2q-1.4-.7-9.4-2.5a25.4 25.1 61.8 0 1-3.6-1.1l-11.9-4.7q-6.3-2.3-18.8-5-5-1-11.1-.7-20.4 1.2-34.2 3.2-8 1.2-17.2 4.6"/><path stroke="#a38e7a" d="M246.8 727.7c-11.8 3.8-24.4 7.3-35.3 12.4q-9 4.2-18.4 8.3-7.2 3.1-14.1 1c-10.6-3.1-11.7-15.1-8-24q4.2-10.5 10.3-19.8"/><path stroke="#9c826e" d="M181.3 705.6q6-9.2 13.1-17.4a.4.4 0 0 0-.4-.6c-11.6 3.2-20-7.6-17.6-18.5q1.2-5 3.7-9.5a134 134 0 0 1 24.9-31.2.4.4-67.4 0 0-.3-.6q-5.1 0-7.9-4.4c-4.3-6.8 1-15.8 4.5-21.8"/><path stroke="#8e6c56" d="M201.3 601.6q9.6-16.4 25.5-26.6a.4.4 33.3 0 0-.1-.7c-9.7-1.7-19.7-7-28-12.3a.3.3 0 0 0-.5.1q-7.3 18.2-16 36"/><path stroke="#d2ab80" d="m201.3 601.6-19-3.6"/><path stroke="#e8cda4" d="M181.3 705.6c-19-.3-34.6 5.5-49 17.5-17.2 14.3-21.5 34.6-20.9 56.2 1.3 39 19 79.4 54.7 97.9 15 7.7 31.4 11.5 47.5 15.8q48 12.6 94.5 20.6 30.7 5.4 61-.4 17.7-3.4 32.4-5.7a92 92 0 0 1 34.3.4c9.1 2.1 18.9 6 24.8 8a87 87 0 0 0 39.4 2.8l29.8-3.3c14.1-1.5 25.3-3.8 36.7-9.1l22-9.8q21.3-9.3 43.3-8.3 3.8.1 8.6.5c3.8.2 9.2-.1 14 .5"/><path stroke="#d8b489" d="M235.8 923c-20.6-7.4-37.7-11.7-57-17.7q-31.6-9.8-53.6-34.2a161 161 0 0 1-36.5-73.8q-5.4-25.6 1.3-51.1 3.5-13.1 5.7-20.1"/><path stroke="#e8cda4" d="M246.8 727.7q21.1 5.2 41.3 12.5c13.3 4.8 27.7 11.5 41.3 17 20 8 41.2 14.5 62 17.3a280 280 0 0 0 83.3-1.5l34.3-5.4q27.7-4.4 58-1.5 24.8 2.4 49.7 4.4"/><path stroke="#dab78c" d="M643 736.3q1.3 2 3 2.4l15.9 3q2.7.4 5.5.3"/><path stroke="#e8cda4" d="M823 707.9c7.1 31.3 15.2 57 22.3 84q3.3 12.3 3.4 24c.3 28.7-32.5 35-54.5 36q-10.5.5-31.7.9a114 114 0 0 0-70 22.4l-14 10.9"/><path stroke="#ca9d72" d="M68.6 715q-4.3 4.4-8 9c-14.4 18-13 40-6 60.9 8.1 24.6 18.6 47 30.2 69.8"/><path stroke="#bb8762" d="M39.8 804q-5-20.4-8.3-40.6-3-18.5-3.3-30.5-.4-16.7.6-30.6 1.1-14.6 3.6-33.7 1.3-10 6-19.5c1.8-3.7 10-11.4 5.2-15.7"/><path stroke="#d8b489" d="m576.4 729.7 2.1.2.6.5c1 8.5 5.8 11.2 13.9 10 9.7-1.4 19-3.2 28.6-4.3"/><path stroke="#c0906c" d="M899.3 788.6q-.3 5 2 8.1 4 5.7 6.9 10.2a8 7.8 22.3 0 1 1 2.2q2.8 11.2 3 12.8l3.9 22.2q.6 3.3.6 6a1 1 0 0 1-.6.9l-36.7 21"/><path stroke="#d8b489" d="M852.6 855q5.7-5.3 9.4-10.6c11.5-16.3 6.3-38.5.6-55.9q-11.2-34-26.8-66.7l-3.3-6.2q-2.9-5.3-4-11.4"/><path stroke="#a4655c" d="M696 575.9a.5.5 0 0 0 .5.6l2.6-.1a.5.5 0 0 0 .5-.7l-1.5-5a.5.5 0 0 0-1 0l-1 5.2"/><path stroke="#865450" d="M240.7 603q13.9-5.2 27-3.5 3.3.4 6.2 1.9a.6.6 0 0 0 .8-.6q-.8-13.3 1-27.2a1 1-85.9 0 0-.8-.9l-3.9-.1"/><path stroke="#a4655c" d="M271 572.6q-9.4.3-16.5 1.8-11.3 2.4-23 10.1Q214 596 205.7 616a1 1 10.8 0 0 .8 1.2h1.5a2.4 2.3 32.1 0 0 .9-.2q5-2.1 9.7-1.3a2 2-58.7 0 0 1.8-.4l9.5-7q2.5-1.8 10.8-5.3"/><path stroke="#d37668" d="M271 572.6q-1.8 5.4-5.3 8.9-10.6 10.9-25 21.5"/><path stroke="#865450" d="m253 643.6 8.2-1.5q5.6-1 8.2-1 5 .1 9.4 1.6a.3.3 0 0 0 .4-.3q-3-13.3-3.9-26.7a3 3-75.3 0 0-1.5-2.7l-3.3-2.1"/><path stroke="#a4655c" d="M270.5 610.9c-13.7-3.6-27 1.4-38.3 9q-14.8 9.8-30.6 27.2c-2.7 3-25.2 30.1-10.6 30.1 2.2 0 7.8-2.5 11-4.1q5.2-2.7 10.2-4a5.9 5.8-72.3 0 0 2.4-1.3 134 134 0 0 1 32.9-21.6l5.6-2.6"/><path stroke="#d37668" d="M270.5 610.9q-1 4.3-2.6 8.5-2.7 7.3-6.8 13.9c-2.1 3.3-5.4 6.7-8 10.3"/><path stroke="#845f50" d="M114 642.1q.2 12.8-7 23.5-13 19.9-34.7 29.5-3 1.3-6.2 2.1a.4.4 0 0 0-.2.7q6.5 7.1 14 12 8 5.4 12.8 5.6c11 .6 16.8-6.9 22.4-16.3l.4-.8 1-4.7.8-1.6a48 48 0 0 0 2-43.4c-1.3-2.6-2.8-4.5-4.6-6.8a.4.4 0 0 0-.6.2"/><path stroke="#a6755a" d="M235.5 665q-15 9.8-29 25.2-15.8 17.2-23.9 33.4c-1.8 3.7-4.1 8.4-3.3 12.6.9 4.7 7 3.5 10 2.2 6.1-2.7 20.8-10 31.4-13.7q6.2-2 12-3.6 3.5-1 7-2.3"/><path stroke="#a4655c" d="m239.8 718.8 3.8-1.5"/><path stroke="#865450" d="M243.6 717.3q13.2-4 20.5-5.2 12.3-2 30.5-3 4.5-.3 8.5-1.2a4 4 0 0 0 2.8-2.9c.4-2.2.2-5.4-.7-7.6q-.7-1.8-2.8-9-1-3.7-3.3-9-1.2-2.7-4.8-12.4-1.7-4.6-5.8-9-2-2-6.2-3.6l-7.2-2.3"/><path stroke="#a4655c" d="M275 652.1q-14.5-1.5-27.9 5.8-6 3.2-11.6 7"/><path stroke="#d37668" d="M275 652.1q-1.2 15-4.6 25.3-5.7 17.7-20 32-2.5 2.5-6.8 8"/><path stroke="#f29772" d="M239.8 718.8q-3.9-10.3-5.4-18.6a108 108 0 0 1 1.1-35.3"/><path stroke="#865450" d="m622 691.8-2.9 10.5a5 5-59.9 0 0 1.4 5.1l4.7 4.7a.8.8 0 0 0 1.4-.4l2.6-12.8a2 2 0 0 0-.6-2l-5.4-5.4a.7.7 0 0 0-1.2.3"/><path stroke="#a59a99" d="m631.5 737.8 12.8-29.7a1.4 1.4 0 0 0-.7-1.7l-4.8-2.1a.6.6 0 0 0-.9.4l-6.8 33a.2.2 0 0 0 .4.1"/><path stroke="#a6755a" d="M652.7 715.2a.2.2 31 0 0-.4 0l-3 6.8a.7.7 0 0 0 .5 1q8.7 3.2 27.5 10.7 5.5 2.2 10 4.9c7 4.2 12.1 6.5 18.4 11q2.4 1.7 8.8 5.4 5 2.9 9.2 1.2 2.5-1 2.7-2.6.6-6.1-2.4-12a2 2 0 0 0-1.2-.8 112 112 0 0 1-53.7-14q-11-6.8-16.4-11.6"/><path stroke="#f6d8c6" d="M172 375.9c-4 7.8-4 16.4 4.5 21 4.4 2.5 9.6 1.2 13.1-2.3 2.2-2.1 3.3-4.5 4.8-7.4 1.4-3 2.7-5.2 3.1-8.3.7-4.9-1.3-9.8-5.9-11.9-8.7-4-15.7 1-19.6 8.9"/><path stroke="#f3d8c4" d="M130.6 427.3c5.3 1.5 11.2-1.6 15-4.7q10.7-9.2 14.3-23c2-7.7 0-17.6-9.2-19.5-4.4-.9-8 .4-12.2 3.1q-3.5 2.3-6.4 2.8a2.5 2.4 18.8 0 0-1.2.6c-3.6 3.3-3.6 4.8-4.4 8.6a10.6 10.4-26.8 0 1-.7 2.3c-3 6.2-5.2 11-4.6 17.6q.9 9.6 9.4 12.1"/><path stroke="#f6d8c6" d="M805.5 607a19.6 15.2-35.2 0 0-24.7-1 19.6 15.2-35.2 0 0-7.2 23.6 19.6 15.2-35.2 0 0 24.7 1.2 19.6 15.2-35.2 0 0 7.2-23.7"/></g><path fill="#574344" d="M447.7 930.4q-4.1-1.5-8 2-10.6 5.8-22.1 9.1-6.2 1.9-15.8 3.5c-15.7 2.6-30.3 6.4-43.5 9.4q-15.9 3.5-20.1 4-10.2 1-20.4-.6a206 206 0 0 1-48.5-12 81 81 0 0 1-19.3-13.2l-2.5-2.3a1 1 0 0 0-1.2-.3q-.7.5-6 2.8-15.9 7.1-33.8 3.2-22.2-4.8-47.1-13.1-13.1-4.5-25.6-10.2-15-6.9-29.3-18.5a34 34 0 0 1-12.8-17.1q-2-7.1-2.5-9.7a2 2 86.5 0 0-2-1.7q-4-.3-10.2-1.3c-14.6-2.2-21.6-13.8-28.6-25.2Q37 820.9 28 805.4q-3.3-5.6-5.8-11.4L17 782.4a146 146 0 0 1-13.5-53.2q-1-16.2-.4-26.9.8-14.5 6.5-31.8 8.7-26.3 23.9-52.7 5.6-9.8 18-30.3 8.4-13.8 18.2-28.1c15.2-22.4 24.2-36 37.4-51.2v-.5c-12.7-9.3-14.8-25.1-16.8-39.6q-3-20.6 2-41c11.5-44.9 45.4-80.7 87-99.9 37.5-17.2 86-20 119.7 8.2q4.6 3.8 7.4 8a9.7 9.1-84.9 0 0 1 1.2 98 98 0 0 1 24 36.9l2.7 8.2a1 1 0 0 0 1.6.4c1.9-1.9 2.6-9.6 4-17.3q2-11.6 5.8-23.6c6.2-19 20-37.5 36.9-48.4l2.7-1.4c5.3-1.8 14-5.6 21.5-6q7.6-.4 16.2.7 12.9 1.5 22.8 9.6 4.4 3.6 9 7.8a.2.2 0 0 0 .4-.2q-7.7-16.4-18-30.4c-5.5-7.3-11.7-14.8-21.3-16.1a3.9 3.8 40.5 0 0-1.6.1l-19.4 5q-15.5 4-19.4 4.6-9.3 1.1-20.9-1.6c-17-4-21.2-16.5-19.6-32.8q1-9.2 4.4-20.3 6.1-20 16.4-37a258 258 0 0 1 36.3-47.3q39-40.4 89.2-65c18.3-9 36.4-17 55.4-21.5a3 3-41.9 0 1 1.8.1c16.4 5.8 3.2 28.3-2.2 37.2q-22.7 37.8-44.1 71a.4.4-76.4 0 0 .3.5c8.6-.7 15.9.5 31.6 2q4.1.4 7.9 1.3 2.1.5 7.8 1.4 10.2 1.7 19.9 5t14.6 8c11.1 11 11 29.4-.5 40.8q-5.5 5.5-16.3 14.4-6.9 5.7-16.8 16.2-10.3 10.8-25.6 30.3c-5.5 7.1-9.9 14.2-15 21.1q-.7.9-.7 1.9a.5.5 0 0 0 .7.4c6-3 11.6-7.2 17.3-9.6q15.4-6.3 31.1-4.8c7.3.7 15.2 2 22.4 5.1q20.1 8.6 30 28.5c5 10 8.8 16.7 11.2 27.2 1.9 8.5 3.3 17.6 3.6 26.4q1.2 35.3-2.3 70.9l.3.5q5.1 2.2 9.8 5.8a1 1 0 0 0 1.4 0q10.3-9.6 22-17.6c3.4-2.4 9.2-6.6 13.8-6.7a1 1 0 0 0 1-1c.8-24.2 3.2-50.3 7-72.3 5.8-33.3 15.4-65 27.9-96q11.5-28.4 24-52.7 16.9-32.8 34.5-60.3 11.6-18.2 29.5-44.5 15.8-23.2 34-43.8 7-8.1 35-38.7 2.4-2.7 12.2-10.9 4.2-3.5 7-3.5c6-.1 9.2 4.6 10 10q2 14.3 3.9 37 1.3 16.2 1.2 37.2 0 35-1.5 55.2-1.5 21.1-4.8 42.8c-.7 4.8-1.5 9.5-3.5 13.7q-.7 1.6-3.2 5c-4.7 6-11.8 14.3-17.1 21.3q-9 12-22.2 30.3a.4.4 0 0 0 .4.5q4-2.2 11.3-5.1c5.7-2.2 9.8 1.9 9 7.6q-.3 3-1.2 6.2c-9 33-13.8 52-18.2 66.2q-3.3 10.4-10.4 17.5-7 7-18.2 18.7a.3.3 19.6 0 0 .3.5q.8 0 2-.5c4.7-1.5 8.9.6 10 5.7 1.1 5.7-2.3 13.5-5.1 18.6-6.6 11.9-14.7 24-21.5 36.5a.6.6 0 0 0 .5.9q4.5.8 9.3 3.4 29 15.5 46.1 44c23.7 39.6 31.1 88.3 25.3 134q-4.1 33-18.4 61.7-6 12.1-15.3 21.8a1.5 1.5 44.9 0 0 0 2c1.7 1.8 2.7 2.8 3.8 4.5q7.8 11.7 18.5 25c9.7 11.8 21.4 27.7 31.9 40.5q23.3 28.1 40.2 52.6c6 9 12.6 16.4 19.2 25.2 8.7 11.7-3.5 13.1-10.3 18q-9.1 6.8-15.6 14.6-6.2 7.5-10.7 11.5c-2.2 2-6.6 1.8-9.2 1.2q-1-.3-4.5-.2-7.3.1-13-.3c-6-.6-10.8 0-16 0-6.5 0-11-6.6-16-12.2l-1.9-1.7-6.5-4.3a.4.4 0 0 0-.7.4c.5 3 .5 8-1.8 10.5-3.7 4-7.4 6.9-12.9 7.3q-31.8 2.5-64.2-3-2.6-.5-5.5-1.4c-3.5-1-6.7-3.9-10-6.4a2 2 0 0 0-2.4.1q-3 3-5 5.4a23 23 0 0 1-15.8 9.3q-29.4 3.2-61.8 5.6c-11 .9-22 3.5-32 8.4-7.9 3.8-10.3 5.3-17 7.3q-4.3 1.3-22.6 6-10.3 2.6-86.4 24-10.7 3-19 3.5l-9 .6q-1.5.2-4-.9l-12.7-5.9c-4.3-2-8.6-5-12.8-7.7q-2.5-1.6-7.8-2.4M872 13.8q.1.3.3.3V14l-.1-.3a.1.1 0 0 0-.2.1m-199.2 387q-3.2 40.3-.4 80.6c1 15.6 3.7 34.3 5.7 48.6a.2.2 0 0 0 .4 0q9-38 22.4-81.5l14-44.4q8.7-27.4 18.4-54.5 19.8-55.2 40.1-105.2a250 250 0 0 1 17.2-35.8Q798 196 814 169.9a.8.8 0 0 1 1.5.2q.1.4-.2 1.2-8 21.4-11 32.7l-8.2 29.4c-5.7 20-12 36.8-19.5 59.1q-4.9 14.5-9.7 30.2l-17.8 57q-3 10-5.8 20.4c-7.9 28.8-15.4 49.7-22.1 75.1q-4.7 17.5-12.5 44.5-2.2 7.8-4.1 15.4a.5.5 0 0 0 .7.6q10.4-6.2 18.2-15.7c10.6-13 21.1-29 31.1-46.2 20.3-35.1 32.2-55.7 49-83.9q3.3-5.4 5.4-11a.5.5-89.9 0 0-.6-.7q-6.5 2.4-12.1 3c-7.5.7-9.1-7.6-4.9-12.3l8.7-9.5 18-18.5a40 40 0 0 0 10.4-19.4l15.8-57.8a.2.2 0 0 0-.3-.3l-19.4 8.1a1.6 1.2 21.6 0 1-.4.1q-4 .5-6.1-2.6c-2.8-4.2 2.1-10.8 4.7-14.4q14.3-19.9 24.8-34c5.8-7.8 11.9-15 18.9-23.6 4.1-5.2 4.4-10.3 5.4-17.5q2.9-19 4-36.5 2.4-35 1.7-69.2a575 575 0 0 0-4.7-58.2 1.3 1.3 0 0 0-2-.8q-6.3 4.8-12.2 11.1L830 57.5q-17.3 19.2-31.3 39c-12.6 17.7-28.1 41-40.1 60.3a676 676 0 0 0-51.1 99.4q-13.6 33-21.1 61.2-10.7 40-13.6 83.4M349 222l-1.8 6.2q-3.4 12.1-2.8 21 .9 10.8 11.5 13.2a52 52 0 0 0 28.3-1c8.5-2.3 15.6-3.7 24.8-6.3q13-3.7 20-5.2 16.4-3.6 35.5-5.3 4.6-.5 8.1 2a.5.5 0 0 1-.2 1c-7.6 2.3-15.8 5.7-23.7 8.9-5.4 2-10.9 2.7-16.7 3.7a.3.3 0 0 0-.1.6q3.1 2.3 5.5 5 26.8 30.6 35.5 70a.2.2 0 0 0 .4 0c2.1-6.7 4.6-14.8 7.5-21.3q9.3-21.1 21-37.4 6.2-8.7 20.7-26 10.5-12.5 23-24c6.1-5.6 14.2-12 20.4-18q5.9-5.6 6.2-11.8.7-13-11.1-18-10-4-20.3-5.4l-13.7-.4q-13.9.3-25.7 1.9-12.2 1.6-23.5 7.5c-5.2 2.7-8.3 3.8-13 5.8a.4.4 0 0 1-.6-.5 48 48 0 0 1 7.4-17.8 4259 4259 0 0 0 56.9-90.9q5.3-8.7 8-17.9a1 1 0 0 0-.9-1.1q-2.8-.2-6.1 1A369 369 0 0 0 485.3 80a304 304 0 0 0-80.2 56.6q-22.7 22.2-39.3 48.7-10.9 17.3-16.8 36.7m427.6 41q-1.8 3.7-2.3 5.3l-2.5 6.9q-18.3 46.8-35.2 95.3c-8 22.8-16.7 50.6-23.3 71.5q-10 31.4-21.2 74.6-2.5 10-4.3 18.4-4 19.1-8.2 37.8a.3.3 70.4 0 0 .5.3l8-10.3.2-.5c1.3-6.3 2-11.6 3.8-17.7 1.9-6.6 3.6-15.7 5.9-23.6 5-18 9.4-33 15-53.8 7-24.8 15-48.8 21.2-71.5q4.4-15.8 10.4-35.1L760 312q10.2-32.3 14.2-42l2.8-7a.1.1 11.1 0 0-.1-.2zM604 426q-.2.5-.1.8a.2.2 0 0 0 .4 0q0-.4-.3-.9 1-16.5 1.1-29.3.3-15-1-30-.6-8.3-4-21.4c-2.1-8.3-8-18.6-12-25.5Q587 318 586 317a63 63 0 0 0-22.4-15.5q-16-6.3-32.9-2.1c-4.1 1-8.4 3-11.3 4a40 40 0 0 0-18 13.1l-7.6 9.9a7.8 7.5 77 0 0-1 1.7c-3.6 8.2-5 18.1-6.1 27.6q-1.9 15.9-2.8 35.3c6-15.7 17.3-31 32.3-38 29.8-14 58.3 6.9 73 32.1q11.2 19.1 14.8 41m-137.3-29.8q.4-12.4-1.1-24.6c-.3-2.3-1.3-5-1.5-7.8q-.8-12.9-3.5-20.7-4.2-12.6-10.4-20.3-5-6.1-14.6-12.6c-7.7-5.1-17.7-6-27-5.6a57 57 0 0 0-27.2 10.5q-4.1 3.1-12.2 11.6a82 82 0 0 0-17.1 34.6q-8.6 34.8-9.2 71 0 2.9.4 11l.2.2.1-.1c1.7-21.9 8.6-43.8 21.5-61.3 18.2-25 49.5-38.8 77-18.5q13.8 10.2 21.3 26l3 6.6a.1.1 0 0 0 .3 0m-362.2 36.2c-2.7 12.4-5.8 28.5-2.6 41.7q.6 2.5 1 7 1 10.4 9.4 17.5h.7c9-8.1 20-13.1 31.4-17.1q10.4-3.5 17.8-4.8c12.6-2.1 29.3-.4 40 7.6q4 3 9 8.8 6.2 7.1 11.6 14.9c4.5 6.4 14 .7 19.5-.8a47 47 0 0 0 13.3-6.4q10-7.4 18.7-17.2a.3.3 0 0 1 .4.3q-8.7 21.5-28.3 32.9c-4 2.4-7.8 3.6-12.6 4.7q-8.5 2-15.2-2.4l-.7.2q-5.5 13.5-12.4 26.7l-2.7 5.3a1 1 29.4 0 0 .5 1.5c9.5 6 20 11.2 30.7 11.6h7c6.2 0 10.7-1 18-2 3.9-.5 7.6-.4 10.8-2.9q5.8-4.5 10.8-11.6 1.3-1.8 2.4-7.2 6.5-16.2 15.3-31.4 8-12 12.3-17.7 6-8 17.3-20 2-2.1 2.2-4.9c.8-7.5 1.3-13 .6-21.3-1.7-19-2.2-29.2-5.4-43.8q-2-15.5-8.2-27.2-5-9.3-14.7-19.5c-15-16.6-35.1-23-57.6-24.2q-17-1-30.2 2-23.6 5-47.2 15.8-14.2 6.5-24.7 15.9a114 114 0 0 0-28.5 36.8q-6.3 14.4-9.7 31.2m444.9 88.1.5 2a1 1 0 0 0 1.5.7c18-5.5 31.9-21.3 39-38q1-2.7 3-12.4a1 1-56.2 0 0 0-1 75 75 0 0 0-26-25.6q-4.4-2.4-9-4.4c-5.3-10.2-13.9-18.3-25.7-18.7-19.9-.6-29.7 21.6-31.8 37.8-2.7 19.8 2.8 46.5 20.7 58.2q13.4 9 27.8 1.4m-159.4-81q-17.9 3.2-35 8.4l-.5.7a100 100 0 0 0 8.3 47.4 36 36 0 0 0 13.4 15.3q8.4 5.6 17.9 4.8 10 8.7 22 6c9.2-2 17-9 21.6-17q11.7-20.7 7-45.4c-2.3-12.4-9.4-26-21-31.3q-14-6.5-26.4 2.9-3.2 2.3-7.3 8.2M590.8 525q-2.2 6-4.1 14.5-5 21.1-3.4 43.4.8 11.6 2.5 23.2a128 128 0 0 0 26.4 57.4l11 12.6.3.3-.3-.3q-7.6-19.2-9.2-40.8.4-10.4 2-21.2 1.3-8.5 4-16.2c5-14 13.3-18.6 27.8-19.3q7-.4 20-.6a1 1 0 0 0 .7-.6c.6-2.8.5-6 1.2-9.7q2-10.7 1.3-16.1-4.6-31-8-59.2-.4-3.8-1.2-7.2.6-3.7.3-7.1-1.2-20.3-.9-40.7a.6.6-11 0 0-.9-.6q-1.7.8-3.5 1.9-16.6 10.2-28.3 22.7-13.3 14-22.3 28.8-9.9 16.2-15.4 34.8m167.5-35.5L739 517.8a.3.3 0 0 0 .3.4l13.5-7.1a.6.6-84.1 0 1 .7.9q-9.7 11.7-22.7 21-3.2 2.3-6.7 4.5c-6.2 4-14.2 7-19.2 12.3a1 1 58.3 0 0-.3 1.2q4.5 14.6 9.3 26.7 1.1 3 .8 4.8-.4 2.5-2.7 4-5.6.5-11.1.5-8.1.1-11.2.4-18 1-37.7 1.6c-7.3.2-16.3.5-20.2 8a84 84 0 0 0-6.8 40c1.1 25 12 48.7 30.2 65.6q14.3 13.4 29.5 19.4 9.9 4 24.3 6.1 12.7 2 25 .6c15.5-1.7 30.2-5.3 45.6-12 24.2-10.3 49.5-21.7 62.4-43q8.5-13.9 13.2-30.6l4-17.7a943 943 0 0 1 4.2-30.3q1.5-9.3 2-19.9-.6-15.6-5.3-32.1-5.2-18.3-9.7-30.3-6.2-16.4-18.4-37.6a51 51 0 0 0-7.3-9.4q-9.5-9.5-15-14.7-7.8-7.3-16.6-9.7l-6-1.8-.8.3zM387 527.6a59 59 0 0 1-18.8-9.2c-5-4-9.4-7.2-12.9-12q-7.9-11-12.4-22.4a.6.6 0 0 0-.9-.4c-8.3 3.9-16 7.7-22.8 14q-3.7 3.5-8.2 10.5-11.5 17.6-17.8 34-3.4 8.8-6 21l-2 12.8q-3.3 26.7 3.1 51 2.7 10 8.4 23 1.7 3.8 3.7 6.9c4 6.6 6.5 16.5 10.9 24q7 12.4 16.2 23.4a22.8 22.7-.1 0 0 3 3 157 157 0 0 0 51.5 26.5 259 259 0 0 0 100.6 10.5q35.9-3 67.7-15.2 15.5-5.9 22.4-10l9.7-5.8q14.3-8.7 25.2-20.7c2.8-3 4.7-6.2 7.2-8.8a1 1-45.3 0 0 0-1 164 164 0 0 1-24.3-32.9q-13.3-23-16.3-53.5-2.5-25.8 0-45.8 2.8-18.3 8.9-35.1l-.1-.1q-10.5 11.6-24.8 17.3-17 4.3-33.2-1.5-5.6-2-8.3-3.3a1 1 14.6 0 0-1.2.7q-.9 10.6-7.5 18.8a38 38 0 0 1-32.8 15.2c-15.4-.7-24.6-8.4-34-19.4a3 3 0 0 0-2.7-.8q-3.1.9-5.2-.4-2.3-1.5-2-3.9c.2-3.8 6.2-4.8 9.4-5.1q3.6-.4 6.9-1.2 19.3-4.4 31.2-8.1l21.5-6.8a.6.6 0 0 0 .2-1q-4.8-5-7.6-10.6-6.5-13.3-9.9-23.3c-3.4-10.2-5.4-23-7.1-34a4.3 4-62.9 0 0-.2-.9l-.4-1a.3.3 0 0 0-.6 0q-1 1.9-1.4 4.2-2.8 18.5-9.6 37.4c-7.8 21.7-23.4 39-47.5 41.6q-7.2.8-15.3.7c-4.6 0-9.3-1.3-13.9-2.3m-250.8-31.3q-3.5 1.2-6.6 3.2-2.2 1.4-5.3 5-2.9 3.5-7.3 7.9-8.5 8.6-19.4 24l-2.5 3.3q-27 38.7-50.8 79.3l.1.1c7-4.9 14.3-7 23.2-7.5q28.9-1.5 50.5 19.2 13.3 12.6 15 30.2c.3 3 0 4.1-.1 7a.3.3 0 0 0 .5.3q1.2-1.8 2-4.3a3 2.6-25.4 0 1 .2-.6l10.5-18.5c13.3-24.6 26.7-49.3 37.7-75 3.6-8 6.8-16.5 10.6-24.2l10.5-21.6c2.6-5.7 5.3-10.4 4.5-15.7a4 4-69.6 0 0-.9-1.8c-7-8.7-12.8-16-24-18.5q-12.5-2.8-24.8 0-12.1 2.8-23.6 8.2m370 27.8-30.4 9.5q-3 1-25.1 6.3a.4.3 64.9 0 0-.2.5q9.1 12.4 24.6 13.2 12.5.7 22-7.2c6.2-5.2 10.9-13.5 9.9-21.8a.6.6 0 0 0-.8-.5m-324 74q-22.4 44.1-46.9 87.1c-6 10.6-11.6 20.5-19 30.2A30 30 0 0 1 95.7 726q-4.5.3-7.3-.5-10.6-2.8-19.8-10.7-8.8-7.3-16.2-16a2.9 2.7 17.5 0 1-.6-1q-1.4-4.2.8-7.3.7-1 5-2.2 27-7.2 41.5-30 3.3-5.3 4.6-14.4c.4-2.6-.3-6.5.5-9.7a2 2 25.4 0 0-.7-2q-15.1-10.6-33.8-9.8-11 .4-20.7 6.2-1.5 1-5.4 4.7-8 7.7-14.2 19-8.4 15.2-12.1 28.3c-1.2 4.3-1.4 9-2.8 13.2-1.8 5.2-2 10.1-2 15.6q.1 13.1 1.4 26.7t6.8 29q7.2 20 19 38.9 1.3 3.4 4.3 8.4 10.1 17.1 16.7 27.2 4.5 6.9 7.9 9.8c4.5 4 10.2 4.9 16.2 5.2q2.6.6 5.4 1 6.5 1.3 8.2 7.4l2.9 10.6c1.4 5.4 6.6 9.8 11 13.3q12 9.7 25.5 15.7 11.4 5 15.3 6.5 10.6 4 31.7 10.2 13.3 4 26.2 6.4 12.5 2.4 24.8-2.8c5.5-2.8 11.2-7 17-2.2q6.6 5.7 12 9.8a74 74 0 0 0 26.2 10.7q4 1 13.2 2.8c14.7 2.6 24.9 5 37.4 2.5q16.2-3.3 33.4-7.6l14-3.2c15.1-2.4 24.8-4 36.3-8.8 4.8-2 12-7 17.2-7.9a35 35 0 0 1 22.3 6.3c6 4.3 10.5 6 18.4 9.7a8.6 8.4 63.3 0 0 1.9.6q6.8 1.5 14.2-.1c4.2-1 9.3-1.9 12.7-2.9q46-13.3 106.7-29.6c9.1-2.4 17.4-8.5 27.2-11.5l8.4-2.4 24.3-3.1q25-2 50-4.6c4.4-.5 8.3-1.3 11-4.6q5.9-7 9.4-10.2c7.6-6.7 14.8 5.4 22.2 6.9q20.2 4.1 43 4a7 6.2 34.8 0 0 1.6-.2c2-.5 4-1.6 6.4-2.3q8-2 16.3-2.8l.1.3a.3.3-4.3 0 0 .5-.5q-.1-.1-.6.2l.5-1 .2-.7q.4-8 1-10.2 1-4.8 4.3-5.9t8 .5l12 9.7a2.5 2.4-11.8 0 0 .5.3l14.4 7q7.3 4 12.6 4.2l15.8.4q1.4 0 5.5-1.1.4 1.4.8-.4c5-3.2 5.9-8.6 8.3-13 3.6-6.1 8.4-8.2 14.8-11.2q1.7-.8 1-3.1-1-4.5-2.7-7.6-6.8-13-14.5-23.1l-21.7-28.5q-10-13.3-20.5-26.1-15.5-18.7-34.4-42.4-1.8-2.3-2.4-3.4-4.6-8.4-8.8-15.3a.5.5 0 0 0-.8-.2l-4 3-5.5 3.7q-12.6 8.4-26.4 14-3.1 1.4-17.8 7.4-21.2 8.8-42.9 10.7a.5.5-10.1 0 0-.4.7c2.5 9 4 19.4-5.8 24.9-8.1 4.6-16.3 1.9-23.6-2.9q-12.4-8.1-21.4-13.1-8.3-4.7-17.2-7.6l-22.2-9.2-.8.2q-1 1.5-1.4 3.3-5.7 13.1-10.8 26-2 5.1-4.3 10.2-2.7 6-8.8 3.7a1.8 1.7 84.3 0 1-.8-.7q-1.4-2.3-1.6-5l5-34.4 1.6-9.6-.4-.7q-5.9-2.2-12.3-1.8-15.8.8-30.6 5.4a1.4 1 26.8 0 1-.3 0l-3.3.3q-1.7.2-3.4 1c-42.9 21.7-93.4 28.7-141 24.4a225 225 0 0 1-79-21.2q-1.4-.7-9.4-2.5a25.4 25.1 61.8 0 1-3.6-1.1l-11.9-4.7q-6.3-2.3-18.8-5-5-1-11.1-.7-20.4 1.2-34.2 3.2-8 1.2-17.2 4.6c-11.8 3.8-24.4 7.3-35.3 12.4q-9 4.2-18.4 8.3-7.2 3.1-14.1 1c-10.6-3.1-11.7-15.1-8-24q4.2-10.5 10.3-19.8 6-9.2 13.1-17.4a.4.4 0 0 0-.4-.6c-11.6 3.2-20-7.6-17.6-18.5q1.2-5 3.7-9.5a134 134 0 0 1 24.9-31.2.4.4-67.4 0 0-.3-.6q-5.1 0-7.9-4.4c-4.3-6.8 1-15.8 4.5-21.8q9.6-16.4 25.5-26.6a.4.4 33.3 0 0-.1-.7c-9.7-1.7-19.7-7-28-12.3a.3.3 0 0 0-.5.1q-7.3 18.2-16 36M696 575.8a.5.5 0 0 0 .5.6l2.6-.1a.5.5 0 0 0 .5-.7l-1.5-5a.5.5 0 0 0-1 0zm-455.3 27q13.9-5 27-3.4 3.3.4 6.2 1.9a.6.6 0 0 0 .8-.6q-.8-13.3 1-27.2a1 1-85.9 0 0-.8-.9l-3.9-.1q-9.4.3-16.5 1.8-11.3 2.4-23 10.1Q214 596 205.7 616a1 1 10.8 0 0 .8 1.2h1.5a2.4 2.3 32.1 0 0 .9-.2q5-2.1 9.7-1.3a2 2-58.7 0 0 1.8-.4l9.5-7q2.5-1.8 10.8-5.3m12.4 40.7 8.1-1.5q5.6-1 8.2-1 5 .1 9.4 1.6a.3.3 0 0 0 .4-.3q-3-13.3-3.9-26.7a3 3-75.3 0 0-1.5-2.7l-3.3-2.1c-13.7-3.6-27 1.4-38.3 9q-14.8 9.8-30.6 27.2c-2.7 3-25.2 30.1-10.6 30.1 2.2 0 7.8-2.5 11-4.1q5.2-2.7 10.2-4a5.9 5.8-72.3 0 0 2.4-1.3 134 134 0 0 1 32.9-21.6zm-139-1.5q.1 12.8-7 23.5-13.1 19.9-34.8 29.5-3 1.3-6.2 2.1a.4.4 0 0 0-.2.7q6.5 7.1 14 12 8 5.4 12.8 5.6c11 .6 16.8-6.9 22.4-16.3l.4-.8 1-4.7.8-1.6a48 48 0 0 0 2-43.4c-1.3-2.6-2.8-4.5-4.6-6.8a.4.4 0 0 0-.6.2M235.5 665q-15 10-29 25.3-15.8 17.2-23.9 33.4c-1.8 3.7-4.1 8.4-3.3 12.6.9 4.7 7 3.5 10 2.2 6.1-2.7 20.8-10 31.4-13.7q6.2-2 12-3.6 3.5-1 7-2.3l3.9-1.5q13.2-4 20.5-5.2 12.3-2 30.5-3 4.5-.3 8.5-1.2a4 4 0 0 0 2.8-2.9c.4-2.2.2-5.4-.7-7.6q-.7-1.8-2.8-9-1-3.7-3.3-9-1.2-2.7-4.8-12.4-1.7-4.6-5.8-9-2-2-6.2-3.6l-7.2-2.3q-14.6-1.5-28 5.8-6 3.2-11.6 7M622 691.8l-2.9 10.5a5 5-59.9 0 0 1.4 5.1l4.7 4.7a.8.8 0 0 0 1.4-.4l2.6-12.8a2 2 0 0 0-.6-2l-5.4-5.4a.7.7 0 0 0-1.2.3m9.5 46 12.8-29.7a1.4 1.4 0 0 0-.7-1.7l-4.8-2.1a.6.6 0 0 0-.9.4l-6.8 33a.2.2 0 0 0 .4.1m21.2-22.6a.2.2 31 0 0-.4 0l-3 6.8a.7.7 0 0 0 .5 1q8.7 3.2 27.5 10.7 5.5 2.2 10 4.9c7 4.2 12.1 6.5 18.4 11q2.4 1.7 8.8 5.4 5 2.9 9.2 1.2 2.5-1 2.7-2.6.6-6.1-2.4-12a2 2 0 0 0-1.2-.8 112 112 0 0 1-53.7-14q-11-6.8-16.4-11.6"/><path fill="#7cc4ff" d="M800 359.4q-25.9 8.7-51 20.3l17.9-57q4.9-15.7 9.7-30.2c7.6-22.3 13.8-39 19.4-59.1l8.3-29.4q3-11.3 11-32.7.3-.8.2-1.2a.8.8 0 0 0-1.5-.2q-16 26.2-23.4 38.7a250 250 0 0 0-17.2 35.8q-20.3 50-40.1 105.2-9.7 27-18.4 54.5l-42-3.3q2.8-43.5 13.5-83.4 7.5-28.2 21-61.2a676 676 0 0 1 51.2-99.4c12-19.4 27.5-42.6 40-60.3q14-19.8 31.4-39L858.7 26q6-6.3 12.2-11.1a1.3 1.3 0 0 1 2 .8 575 575 0 0 1 4.7 58.2q.7 34.2-1.7 69.2-1.1 17.5-4 36.5c-1 7.2-1.3 12.3-5.4 17.5-7 8.7-13 15.8-19 23.7q-10.4 14-24.7 33.9c-2.6 3.6-7.5 10.2-4.7 14.4q2 3.1 6.1 2.6a1.6 1.2 21.6 0 0 .4 0l19.4-8.2a.2.2 0 0 1 .3.3l-15.8 57.8c-2.1 8-4.6 13.5-10.4 19.4z"/><path fill="#fce969" d="M527 173.5a210 210 0 0 1-54.4 39.4q-21.4 9.8-44.3 14.7-20.1 4.2-41.8.9-18.9-3-37.5-6.5 6-19.4 16.8-36.7 16.6-26.6 39.3-48.7A304 304 0 0 1 485.3 80a369 369 0 0 1 44.2-18.5q3.3-1.2 6.1-1a1 1 0 0 1 .8 1.1q-2.6 9.2-8 18a3760 3760 0 0 1-56.8 90.8c-4.2 6.6-6 11.1-7.4 17.8a.4.4 0 0 0 .6.5c4.7-2 7.8-3 13-5.8q11.3-6 23.5-7.5 11.8-1.6 25.7-1.9"/><path fill="#f9cf6c" d="M540.7 173.9Q526 186.3 507.3 201q-33.5 26.5-75.3 34.7-21.9 4.3-44.4.2-23-4.1-40.4-7.8l1.8-6.2q18.6 3.6 37.5 6.5 21.7 3.3 41.8-1 23-4.8 44.3-14.6a210 210 0 0 0 54.4-39.4z"/><path fill="#f6b96e" d="M347.2 228.2q17.4 3.7 40.4 7.8 22.5 4 44.4-.2 41.8-8.2 75.4-34.7 18.6-14.8 33.3-27.2 10.4 1.4 20.3 5.4 11.8 5 11.1 18-.3 6.2-6.2 11.9c-6.2 6-14.3 12.3-20.4 17.9q-12.5 11.5-23 24-14.5 17.3-20.7 26-11.7 16.3-21 37.4c-2.9 6.5-5.4 14.6-7.5 21.3a.2.2 0 0 1-.4 0q-8.7-39.4-35.5-70-2.4-2.7-5.5-5a.3.3 0 0 1 .1-.6c5.8-1 11.3-1.6 16.7-3.7 8-3.2 16.1-6.7 23.8-8.9a.5.5 0 0 0 .1-1q-3.5-2.5-8.1-2-19 1.7-35.4 5.3-7.2 1.5-20.1 5.2c-9.2 2.5-16.3 4-24.8 6.4a52 52 0 0 1-28.3.9q-10.6-2.4-11.5-13.2-.6-8.9 2.8-21"/><path fill="#f8f1f1" d="M776.7 262.9a.1.1 11.1 0 1 .2.1q0 .4-2.8 7.1-4 9.7-14.2 42l-15.3 48.5q-6 19.3-10.4 35c-6.2 22.8-14.3 46.8-21.1 71.6L698 521c-2.3 8-4 17-6 23.6-1.7 6-2.4 11.4-3.7 17.7l-.3.5-7.9 10.3a.3.3 70.4 0 1-.5-.3q4.2-18.7 8.2-37.8 1.8-8.5 4.3-18.4 11.3-43.2 21.2-74.6c6.6-20.9 15.3-48.7 23.3-71.5q17-48.5 35.2-95.3l2.5-7q.5-1.5 2.3-5.2z"/><path fill="#f2f1ee" d="M604 426q-3.6-21.9-14.8-41c-14.7-25.2-43.2-46-73-32.1-15 7-26.4 22.3-32.3 38q1-19.4 2.8-35.3c1-9.5 2.5-19.4 6-27.6a7.8 7.5 77 0 1 1.1-1.7l7.6-9.9a40 40 0 0 1 18-13c3-1.1 7.2-3 11.3-4.1q17-4.2 32.9 2A63 63 0 0 1 586 317q1 1 2 2.8c4.2 7 10 17.2 12.1 25.5q3.4 13.1 4 21.3 1.3 15 1 30-.2 12.9-1 29.4m-137.7-29.8-3-6.5q-7.5-15.9-21.2-26c-27.6-20.4-58.9-6.6-77.1 18.4a120 120 0 0 0-21.5 61.3l-.1.1-.2-.2q-.4-8.1-.4-11 .6-36.2 9.2-71a82 82 0 0 1 17.1-34.6q8-8.5 12.2-11.6c6.7-5 18.4-10.2 27.1-10.5 9.4-.3 19.4.5 27 5.6q9.7 6.5 14.7 12.6 6.2 7.7 10.4 20.3 2.7 7.8 3.5 20.7c.2 2.8 1.2 5.5 1.4 7.8q1.6 12.2 1.2 24.6a.1.1 0 0 1-.3 0"/><path fill="#f4be9a" d="M302.4 355q-2 2.6-2.3 6-1.5 15.7-5.7 30.9c-5.8 21-16 40.3-28.3 60q-3.2 5-7.2 8.8-14.2 13.5-30.3 23.6-8.2 5.1-17.3 8.8-5.2-5.8-9.1-8.8c-10.7-8-27.4-9.7-40-7.6q-7.4 1.3-17.8 4.8-15.7-13.4-27-30.1l-13-19q3.5-16.8 9.8-31.2a114 114 0 0 1 28.5-36.8q10.5-9.4 24.7-15.9 23.6-10.7 47.2-15.9 13.2-2.9 30.2-2c22.5 1.3 42.6 7.7 57.6 24.3M172 375.8c-4 7.8-4 16.4 4.5 21 4.4 2.5 9.6 1.2 13.1-2.3 2.2-2.1 3.3-4.5 4.8-7.4 1.4-3 2.7-5.2 3.1-8.3.7-4.9-1.3-9.8-5.9-11.9-8.7-4-15.7 1-19.6 8.9m-41.4 51.4c5.3 1.5 11.2-1.6 15-4.7q10.7-9.2 14.3-23c2-7.7 0-17.6-9.2-19.5-4.4-.9-8 .4-12.2 3.1q-3.5 2.3-6.4 2.8a2.5 2.4 18.8 0 0-1.2.6c-3.6 3.3-3.6 4.8-4.4 8.6a10.6 10.4-26.8 0 1-.7 2.3c-3 6.2-5.2 11-4.6 17.6q.9 9.6 9.4 12.1"/><path fill="#f08774" d="M302.4 355q9.6 10 14.7 19.4 6.3 11.7 8.2 27.2-.7 13.5-1.2 18.2-.8 6.7-3.4 18-7.7 33.3-20.1 65-1.3 3.1-2.4 6.5-8.7 15.2-15.1 31.4-5 5.5-9.7 11-4.3 5.1-10.3 6.9-9.2 2.6-18.5 3.8-7.7 1-11.2.6c-4.4-.3-6.6-1.2-11-3.5q-10.3-5.5-17-13.5 7-13.2 12.5-26.7l.7-.2q6.8 4.3 15.2 2.4c4.8-1.1 8.6-2.3 12.6-4.7q19.6-11.4 28.3-32.9a.3.3 0 0 0-.4-.3q-8.8 9.8-18.7 17.2a47 47 0 0 1-13.3 6.4c-5.5 1.5-15 7.2-19.5.8q-5.4-7.8-11.6-15 9.2-3.6 17.4-8.7 16.1-10 30.3-23.6 4-3.8 7.2-8.8c12.3-19.7 22.5-39 28.3-60q4.2-15.2 5.7-30.8.4-3.5 2.3-6.2"/><path fill="#8099ff" d="m800 359.4-8.6 9.5c-4.2 4.7-2.6 13 4.9 12.2q5.6-.5 12-2.9a.5.5-89.9 0 1 .7.7q-2 5.6-5.3 11c-17 28.2-28.8 48.8-49 83.9a360 360 0 0 1-31.2 46.2q-7.8 9.5-18.2 15.7a.5.5 0 0 1-.7-.6q1.9-7.6 4.1-15.4 7.8-27 12.5-44.5c6.7-25.4 14.2-46.3 22.1-75.1q2.8-10.4 5.8-20.4 25-11.6 51-20.3"/><path fill="#f8f1f1" d="M194.4 387.2c-1.5 3-2.6 5.3-4.8 7.4-3.5 3.5-8.7 4.8-13 2.4-8.5-4.7-8.6-13.3-4.6-21.1s10.9-13 19.6-8.9c4.6 2.1 6.6 7 6 12-.5 3-1.7 5.3-3.2 8.2"/><path fill="#f2f1ee" d="M145.5 422.6c-3.7 3.1-9.7 6.2-14.9 4.6q-8.5-2.5-9.4-12.1c-.6-6.5 1.6-11.4 4.6-17.7a10.6 10.4-26.8 0 0 .7-2.2c.8-3.8.8-5.3 4.4-8.6a2.5 2.4 18.8 0 1 1.2-.6q3-.5 6.4-2.8c4.2-2.7 7.8-4 12.2-3 9.2 1.8 11.3 11.7 9.2 19.5q-3.7 13.7-14.4 22.9"/><path fill="#8099ff" d="m714.9 404-14 44.5Q687.5 492 678.5 530a.2.2 0 0 1-.4 0c-2-14.3-4.6-33-5.7-48.6q-2.8-40.3.4-80.6z"/><path fill="#b5655b" d="M298.3 509.3q1-3.4 2.3-6.6 12.4-31.6 20.1-64.8 2.6-11.4 3.4-18.1.5-4.7 1.2-18.2c3.2 14.6 3.7 24.7 5.4 43.8.7 8.4.2 13.8-.6 21.3q-.2 2.8-2.2 5-11.3 12-17.3 20-4.2 5.6-12.4 17.6"/><path fill="#f8f1f1" d="M558.5 441.8a80 80 0 0 1 .6 67.6q-3.4 7.4-9.7 11.1-14.4 7.5-27.8-1.4c-17.9-11.7-23.4-38.4-20.7-58.2 2.1-16.2 11.9-38.4 31.8-37.8 11.8.4 20.4 8.5 25.8 18.7M394 516.2c-18.4-20-18-54.3-4-76.7q4.1-5.9 7.3-8.2 12.4-9.4 26.4-3c11.6 5.4 18.7 19 21 31.4q4.7 24.7-7 45.4a34 34 0 0 1-21.6 17q-12 2.7-22-6"/><path fill="#704e4b" d="M604 426q.3.4.3.8a.2.2 0 0 1-.4 0q-.1-.3 0-.8z"/><path fill="#f7ca8c" d="M144.4 481.5c-11.4 4-22.4 9-31.4 17.1h-.7q-8.4-7.1-9.3-17.4-.5-4.6-1.1-7.1c-3.2-13.2 0-29.3 2.5-41.7l13 19q11.3 16.7 27 30"/><path fill="#b5655b" d="M661.8 485.2q-3.5-11.7-5.3-23.4a.6.6 0 0 0-.9-.5q-28.4 16.3-48.8 41.8l-7.9 11q-3.8 5.4-8.1 10.8 5.5-18.6 15.4-34.8 9-14.8 22.3-28.8 11.7-12.5 28.3-22.7 1.8-1.1 3.5-1.9a.6.6-11 0 1 1 .6q-.4 20.4.8 40.7.3 3.4-.3 7.1"/><path fill="#704e4b" d="M390 439.5c-14 22.4-14.4 56.7 4 76.6q-9.4.8-17.7-4.8c-5.9-4-10.4-8.5-13.5-15.3a100 100 0 0 1-8.3-47.4l.5-.7q17.1-5.2 35-8.4"/><path fill="#b5655b" d="m793.1 441.4-2.8 5.3q-7 11.2-14.3 22.3t-17.7 20.4l28-49.4a1 1 0 0 1 .8-.4z"/><path fill="#704e4b" d="M549.4 520.5q6.3-3.7 9.7-11.1c9.7-21 9.8-46.9-.6-67.6q4.5 2 8.9 4.4a75 75 0 0 1 26 25.7v.9q-2 9.7-3 12.3c-7.1 16.8-21 32.6-39 38.1a1 1 0 0 1-1.5-.8z"/><path fill="#f08774" d="m865.3 575.2-10.1-9.1c-7.7-6.8-15-14.9-20.6-20.2a67 67 0 0 0-61.6-19q-27.7 4.2-42.2 6.1 13-9.3 22.7-21a.6.6-84.1 0 0-.7-1l-13.5 7.2a.3.3 0 0 1-.3-.4l19.3-28.4Q768.6 480 776 469t14.3-22.4q1.5-2.5 2.8-5.2 8.8 2.4 16.6 9.7 5.5 5.2 15 14.7c2.7 2.7 5.7 6.4 7.3 9.3q12.2 21.3 18.4 37.7 4.5 12 9.7 30.3 4.6 16.5 5.2 32.1"/><path fill="#f4be9a" d="M558.3 532.6q5.6 11 16 18-2.5 20 0 45.6 3 30.6 16.3 53.6c7 12 14.5 22.8 24.3 33a1 1-45.3 0 1 0 .9c-2.5 2.5-4.4 5.7-7.2 8.8q-11 12-25.2 20.7l-9.7 5.8q-6.9 4.1-22.4 10-31.8 12.2-67.7 15.2a259 259 0 0 1-100.6-10.5q-15.5-15-23.7-25-15.3-18.4-28.8-43.6-14.8-27.5-26.4-56.5-6.6-16.6-18-32.7l2-12.9q16.4 11.3 36.3 11.8 24.6.7 43.6-13.7 16.8-12.8 20-33.5c4.6 1 9.3 2.3 14 2.3q8 .1 15.2-.6c24-2.6 39.7-20 47.5-41.7q6.8-18.9 9.6-37.4.4-2.3 1.4-4.2a.3.3 0 0 1 .6 0l.4 1a4.3 4-62.9 0 1 .2.8c1.8 11 3.7 23.9 7.1 34q3.4 10.1 10 23.4 2.7 5.6 7.5 10.7a.6.6 0 0 1-.2 1l-21.5 6.7q-12 3.7-31.2 8.1-3.3.8-6.9 1.1c-3.2.4-9.2 1.4-9.5 5.2q-.2 2.4 2.1 3.9 2 1.3 5.2.4a3 3 0 0 1 2.7.8c9.4 11 18.6 18.7 34 19.4 13.4.7 24.4-4.9 32.8-15.2q6.6-8.2 7.4-18.8a1 1 14.6 0 1 1.3-.7q2.7 1.3 8.3 3.3 16.1 5.8 33.2 1.5"/><path fill="#f08774" d="M661.8 485.2q.8 3.3 1.3 7.1 3.3 28.2 7.9 59.2.8 5.4-1.3 16.1c-.7 3.7-.6 7-1.2 9.7a1 1 0 0 1-.7.6q-13 .2-20 .6c-14.5.7-22.8 5.3-27.8 19.3q-2.7 7.7-4 16.2-1.6 10.9-2 21.2-3.4 13.3-1.8 28.2a128 128 0 0 1-26.4-57.4q-1.7-11.6-2.5-23.2-1.5-22.3 3.4-43.4 2-8.4 4-14.5 4.4-5.4 8.2-10.9 6.2-8.7 8-10.9 20.3-25.5 48.7-41.8a.6.6 0 0 1 .9.5q1.8 11.7 5.3 23.3m-274.7 42.5q-3.2 20.7-20 33.5-19 14.4-43.6 13.7-20-.5-36.2-11.8 2.6-12.1 6-21 6.3-16.2 17.8-33.9 4.5-7 8.2-10.4a82 82 0 0 1 22.8-14l.8.3q4.6 11.5 12.5 22.4c3.5 4.8 7.8 8 12.9 12a59 59 0 0 0 18.8 9.2"/><path fill="#efd9b0" d="M184 570q-11.7-12-20.5-26.3-14.3-23.2-27.2-47.4 11.5-5.4 23.6-8.2 12.3-2.8 24.8 0c11.2 2.5 17 9.8 24 18.5a4 4-69.6 0 1 .9 1.8c.8 5.4-2 10-4.5 15.7l-10.5 21.6c-3.8 7.7-7 16.2-10.6 24.3"/><path fill="#e0c197" d="M136.3 496.3q12.9 24.2 27.2 47.4Q172.3 558 184 570c-11 25.6-24.4 50.3-37.7 74.9q-3.7-4.5-5.2-10.2a2.9 2.8-70.3 0 0-.3-.8l-5.9-8.9c-6-9-12.8-17.7-19-26.2q-15.6-21.2-17.5-46.9-.5-7.7-.7-15.5 11-15.4 19.4-24 4.4-4.4 7.3-7.8 3.1-3.7 5.3-5 3-2 6.6-3.3"/><path fill="#f08774" d="M574.3 550.5q-10.4-6.8-16-17.9 14.3-5.7 24.8-17.3-6 16.9-8.8 35.2"/><path fill="#f2a588" d="M865.3 575.2q-.4 10.6-1.9 19.9a943 943 0 0 0-4.3 30.3c-9.4-.8-19-.4-25.8-8.1-4.1-4.8-8.2-10.2-12.5-14.3q-14-13.2-32.4-19.8c-18-6.5-32.9-2.3-53.5 1.5q-7.4 1.3-22.9 1.8 2.3-1.5 2.7-4 .3-1.9-.8-4.8-4.8-12.1-9.3-26.7a1 1 58.3 0 1 .3-1.2c5-5.2 13-8.2 19.2-12.3l6.7-4.5q14.5-1.9 42.3-6.2c24.1-3.7 43.8 2 61.5 19 5.5 5.4 12.9 13.5 20.6 20.3z"/><path fill="#f8f1f1" d="M506.3 524.1a.6.6 0 0 1 .8.5c1 8.3-3.7 16.6-10 21.8q-9.4 7.9-21.9 7.2-15.5-.8-24.6-13.2a.4.3 64.9 0 1 .2-.5q22-5.3 25-6.3z"/><path fill="#cfa67b" d="M97.7 536.4q.2 7.8.8 15.5 1.8 25.7 17.4 47c6.2 8.4 13 17.1 19 26.1l5.9 8.9a2.9 2.8-70.3 0 1 .3.8q1.6 5.7 5.2 10.2l-10.5 18.5a3 2.6-25.4 0 0-.2.6q-.8 2.5-2 4.3a.3.3 0 0 1-.5-.2c.1-3 .4-4 .1-7.1q-1.7-17.6-15-30.2-21.6-20.7-50.5-19.2c-9 .5-16.3 2.6-23.2 7.5h-.1q23.8-40.7 50.8-79.4z"/><path fill="#b5655b" d="M283 540.7q-1 5.4-2.4 7.2-5 7-10.8 11.6c-3.2 2.5-7 2.4-10.8 3-7.3 1-11.8 1.9-18 1.9h-7a65 65 0 0 1-30.7-11.6 1 1 29.4 0 1-.5-1.5l2.7-5.3q6.6 8 17 13.5a23 23 0 0 0 10.9 3.5q3.5.3 11.2-.6 9.3-1.2 18.5-3.8 6-1.8 10.3-6.9z"/><path fill="#c49468" d="m201.3 601.6-19-3.6q8.5-17.7 15.8-35.9a.3.3 0 0 1 .5-.1 82 82 0 0 0 28.1 12.3.4.4 33.3 0 1 .2.7q-16 10.2-25.6 26.6"/><path fill="#f08774" d="m696 575.9 1.1-5.1a.5.5 0 0 1 1 0l1.5 5a.5.5 0 0 1-.5.6l-2.6.1a.5.5 0 0 1-.5-.6m-425-3.3q-1.8 5.4-5.3 8.9-10.6 10.9-25 21.5-8.3 3.5-10.8 5.4-7.2 5.1-9.5 6.9a2 2-58.7 0 1-1.8.4q-4.7-.8-9.7 1.3a2.4 2.3 32.1 0 1-.9.1h-1.5a1 1 10.8 0 1-.8-1.1q8.3-20 25.8-31.5 11.7-7.7 23-10 7.1-1.6 16.5-1.9"/><path fill="#b5655b" d="M240.7 603q14.4-10.6 25-21.5 3.5-3.5 5.3-8.9l3.9.1a1 1-85.9 0 1 .7.9q-1.7 13.9-1 27.2a.6.6 0 0 1-.7.6q-3-1.5-6.1-2-13.2-1.6-27 3.6"/><path fill="#f4be9a" d="m859.1 625.4-3.9 17.7q-17 .7-30.2 10.7-8.8 6.9-19.6 16.5c.3-16.6-19.6-21.7-32.3-18-13.3 4-26 13.6-30.8 26.9q-3 8.8 1 17.3-16.1-5.3-23.3-8.9l-22.4-11c-24.6-11.6-34 7.4-42.4 26A96 96 0 0 1 625 637c-.5-12.4.7-28.6 6.8-40 3.9-7.5 12.9-7.8 20.2-8q19.7-.5 37.7-1.6l11.1-.4q5.6 0 11.3-.5 15.4-.5 22.8-1.8c20.6-3.8 35.6-8 53.5-1.5q18.4 6.6 32.4 19.8c4.3 4.1 8.4 9.5 12.5 14.3 6.8 7.7 16.4 7.3 25.8 8.1m-53.6-18.3a19.6 15.2-35.2 0 0-24.7-1.2 19.6 15.2-35.2 0 0-7.2 23.7 19.6 15.2-35.2 0 0 24.7 1.2 19.6 15.2-35.2 0 0 7.2-23.7"/><path fill="#f2a588" d="M382.1 733.7a157 157 0 0 1-51.5-26.6 22.8 22.7-.1 0 1-3-2.9q-9.2-11-16.2-23.3c-4.4-7.6-7-17.5-10.9-24.1q-2-3-3.7-7-5.7-12.8-8.4-23-6.4-24.2-3.1-50.9 11.3 16.1 17.9 32.7 11.6 29 26.4 56.5 13.5 25.2 28.8 43.7 8.2 9.9 23.7 25"/><path fill="#e0c197" d="M201.3 601.6c-3.5 6-8.8 15-4.5 21.8q2.8 4.4 7.9 4.4a.4.4-67.4 0 1 .3.6 134 134 0 0 0-25 31.2q-2.4 4.5-3.6 9.5c-2.4 11 6 21.7 17.6 18.5a.4.4 0 0 1 .4.6q-7 8.2-13.1 17.4c-19-.3-34.6 5.5-49 17.5-17.2 14.3-21.5 34.6-20.9 56.2 1.3 39 19 79.4 54.7 97.9 15 7.7 31.4 11.5 47.5 15.8q48 12.6 94.5 20.6 30.7 5.4 61-.4 17.7-3.4 32.4-5.7a92 92 0 0 1 34.3.4c9.1 2.1 18.9 6 24.8 8a87 87 0 0 0 39.4 2.8l29.8-3.3c14.1-1.5 25.3-3.8 36.7-9.1l22-9.8q21.3-9.3 43.3-8.3 3.8.1 8.6.5c3.8.2 9.2-.1 14 .5q-4.3 1.1-8.5 2.4c-9.8 3-18 9-27.2 11.5Q558 919.4 512 932.7c-3.4 1-8.5 2-12.7 2.9q-7.4 1.6-14.2.1a8.6 8.4 63.3 0 1-1.9-.6c-7.9-3.7-12.4-5.4-18.4-9.7-5.6-4-15.2-7.5-22.3-6.2-5.3.9-12.4 5.8-17.2 7.8a147 147 0 0 1-36.2 8.8q-3.2.6-14 3.2a863 863 0 0 1-33.5 7.6c-12.6 2.5-22.7.1-37.4-2.5q-9.2-1.7-13.2-2.8a74 74 0 0 1-26.1-10.7q-5.5-4.1-12.2-9.8c-5.7-4.8-11.4-.6-16.9 2.2-20.6-7.4-37.7-11.7-57-17.7q-31.6-9.8-53.6-34.2a161 161 0 0 1-36.5-73.8q-5.4-25.6 1.3-51.1 3.5-13.1 5.7-20.1c8.2-1.2 15.4-4 20.7-10.7 7.4-9.7 13-19.6 19-30.2q24.5-43 46.8-87.2z"/><ellipse fill="#f8f1f1" transform="rotate(-35 1369.4 -935.3)" rx="19.6" ry="15.2"/><path fill="#f08774" d="M270.5 610.9q-1 4.3-2.6 8.5-2.7 7.3-6.8 13.9c-2.1 3.3-5.4 6.7-8 10.3l-5.6 2.6a134 134 0 0 0-32.9 21.6 5.9 5.8-72.3 0 1-2.4 1.3q-5 1.3-10.2 4a38 38 0 0 1-11 4.1c-14.6 0 7.9-27.1 10.6-30.1q15.8-17.4 30.6-27.2c11.3-7.6 24.6-12.6 38.3-9"/><path fill="#b5655b" d="M253 643.6c2.7-3.6 6-7 8-10.3q4.2-6.6 6.9-14 1.5-4 2.6-8.4l3.3 2.1a3 3-75.3 0 1 1.5 2.7q.8 13.4 3.9 26.7a.3.3 0 0 1-.4.3q-4.4-1.5-9.4-1.6-2.6 0-8.2 1z"/><path fill="#c49468" d="M68.6 715q-4.3 4.4-8 9c-14.4 18-13 40-6 60.9 8.1 24.6 18.6 47 30.2 69.8-6-.3-11.7-1.2-16.2-5.2q-3.3-2.9-7.9-9.8-6.6-10-16.7-27.2-3-5-4.2-8.4-5-20.5-8.3-40.7-3-18.5-3.3-30.5-.4-16.7.6-30.6 1.1-14.6 3.6-33.7 1.3-10 6-19.5c1.8-3.7 10-11.4 5.2-15.7q4-3.8 5.4-4.7 9.7-5.8 20.7-6.2 18.7-.8 33.8 9.8a2 2 25.4 0 1 .7 2c-.8 3.2 0 7.1-.5 9.7q-1.3 9-4.6 14.3-14.4 22.9-41.5 30.1-4.3 1.1-5 2.2-2.2 3.1-.8 7.4a2.9 2.7 17.5 0 0 .6 1q7.4 8.6 16.2 16"/><path fill="#b17a5c" d="M43.6 633.4c4.8 4.3-3.4 12-5.2 15.8q-4.7 9.5-6 19.4-2.4 19.1-3.6 33.7-1 14-.6 30.6.4 12 3.3 30.5 3.3 20.2 8.3 40.7-12-19-19.1-39-5.5-15.2-6.8-29-1.3-13.5-1.4-26.6c0-5.5.2-10.4 2-15.6 1.4-4.1 1.6-8.9 2.8-13.2q3.7-13.1 12.1-28.3 6.3-11.3 14.2-19"/><path fill="#b5655b" d="M614 635.2q1.6 21.6 9.2 40.8l-11-12.6q-1.6-14.9 1.8-28.2"/><path fill="#f7ca8c" d="M855.2 643q-4.7 16.9-13.2 30.8c-13 21.2-38.2 32.6-62.4 43a156 156 0 0 1-45.6 11.9q-12.3 1.3-25-.6-14.4-2.1-24.3-6-15.2-6.1-29.5-19.5c8.4-18.6 17.8-37.6 42.4-26l22.4 11q7.2 3.6 23.2 8.9c6 9.5 17.1 11 27.3 8.2a49 49 0 0 0 21.6-12.4c6.3-6.3 12.2-12.4 13.3-22q10.8-9.6 19.6-16.5 13.1-10 30.2-10.7"/><path fill="#b17a5c" d="M114 642.1a.4.4 0 0 1 .7-.2c1.8 2.3 3.3 4.2 4.6 6.8 6.5 12.3 5.4 32-2 43.4l-.7 1.6-1.1 4.7-.4.8c-5.6 9.4-11.4 17-22.3 16.3q-5-.2-13-5.5-7.4-5-13.9-12.1a.4.4 0 0 1 .2-.7q3.1-.8 6.2-2.1 21.7-9.6 34.8-29.5 7.1-10.7 7-23.5"/><path fill="#f2f1ee" d="M805.4 670.3c-1 9.6-7 15.7-13.3 22a49 49 0 0 1-21.6 12.4c-10.2 2.9-21.3 1.3-27.3-8.2q-4-8.5-.9-17.3a46 46 0 0 1 30.8-26.9c12.6-3.7 32.6 1.4 32.3 18"/><path fill="#f08774" d="M275 652.1q-1.2 15-4.6 25.3-5.7 17.7-20 32-2.5 2.5-6.8 8l-3.8 1.4q-3.9-10.3-5.4-18.6a108 108 0 0 1 1.1-35.3q5.6-3.8 11.6-7 13.4-7.3 28-5.8"/><path fill="#b5655b" d="M243.6 717.3q4.3-5.4 6.8-7.9 14.3-14.3 20-32 3.4-10.3 4.7-25.3 3.7 1 7.2 2.3 4.2 1.5 6.2 3.7 4.1 4.3 5.8 8.9 3.6 9.7 4.8 12.5 2.3 5.2 3.3 8.8 2 7.3 2.8 9c1 2.3 1.1 5.5.7 7.7a4 4 0 0 1-2.8 2.9q-4 .8-8.5 1.3-18.2 1-30.5 3-7.3 1.1-20.5 5.1"/><path fill="#f4a670" d="M235.5 665a108 108 0 0 0-1 35.2q1.4 8.3 5.3 18.6-3.6 1.3-7.1 2.3-5.8 1.5-12 3.6c-10.6 3.6-25.3 11-31.3 13.7-3.1 1.3-9.2 2.5-10.1-2.2-.8-4.2 1.5-8.9 3.3-12.6q8.1-16.2 23.9-33.4 14-15.4 29-25.3"/><path fill="#704e4b" d="m623.2 676 .3.3q-.2 0-.3-.3"/><path fill="#b5655b" d="M622 691.8a.7.7 0 0 1 1.2-.3l5.4 5.3a2 2 0 0 1 .6 2.1l-2.6 12.8a.8.8 0 0 1-1.4.4l-4.7-4.7a5 5-59.9 0 1-1.4-5.1z"/><path fill="#efd9b0" d="M181.3 705.6q-6 9.3-10.4 19.8c-3.6 8.9-2.5 20.9 8 24q7 2.1 14.2-1l18.4-8.3c11-5.1 23.5-8.6 35.3-12.4q21.1 5.2 41.3 12.5c13.3 4.8 27.7 11.5 41.3 17 20 8 41.2 14.5 62 17.3a280 280 0 0 0 83.3-1.5l34.3-5.4q27.7-4.4 58-1.5 24.8 2.4 49.7 4.4.2 2.7 1.6 5a1.8 1.7 84.3 0 0 .8.7q6 2.3 8.8-3.7 2.3-5 4.3-10.2 5-12.9 10.8-26 1.3 2 3 2.4l15.9 3q2.7.4 5.5.3 9 3 17.2 7.6 9 5 21.4 13.1c7.3 4.8 15.5 7.5 23.6 2.9 9.8-5.5 8.3-16 5.8-25a.5.5-10.1 0 1 .5-.6q21.6-2 42.8-10.7l17.8-7.3q13.8-5.7 26.4-14.1c7.2 31.3 15.3 57 22.4 84q3.3 12.3 3.4 24c.3 28.7-32.5 35-54.5 36q-10.5.5-31.7.9a114 114 0 0 0-70 22.4l-14 10.9-24.2 3.1c-4.7-.6-10-.3-14-.5q-4.7-.4-8.5-.5-22-1-43.2 8.3-13 5.6-22 9.8a112 112 0 0 1-36.8 9l-29.8 3.4a87 87 0 0 1-39.4-2.8c-6-2-15.7-5.9-24.8-8a92 92 0 0 0-34.3-.4q-14.7 2.3-32.4 5.7-30.3 5.8-61 .4-46.4-8-94.5-20.6c-16.1-4.3-32.5-8.1-47.5-15.9-35.7-18.4-53.4-58.9-54.6-97.8-.7-21.6 3.6-42 20.7-56.2a72 72 0 0 1 49-17.5"/><path fill="#cfa67b" d="M899.3 788.6q-.3 5 2 8.1 4 5.7 6.9 10.2a8 7.8 22.3 0 1 1 2.2q2.8 11.2 3 12.8l3.9 22.2q.6 3.3.6 6a1 1 0 0 1-.6.9l-36.7 21-14.4-7a2.5 2.4-11.8 0 1-.5-.3l-12-9.7q5.8-5.3 9.5-10.6c11.5-16.3 6.3-38.5.6-55.9q-11.2-34-26.8-66.7l-3.3-6.2q-2.9-5.3-4-11.4l4-3 .7.2q4.2 6.9 8.8 15.3l2.4 3.4q18.9 23.7 34.4 42.4 10.6 12.8 20.5 26.1"/><path fill="#f2f1ee" d="m631 737.7 7-33a1 1 0 0 1 .8-.4l4.8 2a1.4 1.4 0 0 1 .7 1.8l-12.8 29.7a.2.2 0 0 1-.4-.1"/><path fill="#e0c197" d="M828.5 704.2q1.1 6.1 4 11.4l3.3 6.2q15.6 32.7 26.8 66.7c5.7 17.4 11 39.6-.6 56q-3.7 5.2-9.4 10.5-4.9-1.6-8.1-.5t-4.4 5.9q-.5 2.1-1 10.2v.7l-.6 1q-8.2.9-16.3 2.8c-2.5.6-4.4 1.8-6.4 2.3a7 6.2 34.8 0 1-1.5.2q-22.9.1-43.1-4c-7.4-1.5-14.6-13.6-22.2-6.9q-3.5 3.2-9.4 10.2c-2.7 3.3-6.6 4.1-11 4.6q-25 2.6-50 4.6l14-11a113 113 0 0 1 69.9-22.3q21.2-.4 31.7-.8c22-1 54.8-7.4 54.5-36.2q0-11.6-3.4-24c-7.1-26.8-15.2-52.6-22.4-83.9z"/><path fill="#cfa67b" d="M68.6 715q9.2 7.8 19.8 10.6 2.8.8 7.3.5-2.2 7-5.7 20-6.7 25.5-1.3 51.2a160 160 0 0 0 36.5 73.8q22 24.4 53.6 34.2c19.3 6 36.4 10.3 57 17.7q-12.3 5.2-24.8 2.8-12.8-2.4-26.2-6.4-21.1-6.3-31.7-10.2-4-1.5-15.3-6.5-13.4-6-25.5-15.7c-4.4-3.5-9.6-7.9-11-13.3l-2.9-10.6q-1.7-6.1-8.2-7.3l-5.4-1.1a493 493 0 0 1-30.2-69.9c-7-20.8-8.4-42.8 6-60.8q3.6-4.6 8-9"/><path fill="#f4a670" d="M652.7 715.2q5.3 4.8 16.4 11.5a112 112 0 0 0 53.7 14.1 2 2 0 0 1 1.3.8q2.9 5.9 2.3 12-.2 1.7-2.7 2.6-4.2 1.7-9.2-1.2-6.4-3.7-8.9-5.5c-6.2-4.4-11.4-6.7-18.3-11q-4.5-2.6-10-4.8-18.8-7.5-27.5-10.7a1 1 0 0 1-.4-1l2.9-6.7a.2.2 31 0 1 .4-.1"/><path fill="#e0c197" d="m576.4 729.7 2.1.2.6.5c1 8.5 5.8 11.2 13.9 10 9.7-1.4 19-3.2 28.6-4.3l-5 34.4q-24.8-2-49.7-4.4-30.2-2.9-58 1.5l-34.2 5.4a280 280 0 0 1-83.4 1.5c-20.7-2.8-42-9.3-61.9-17.3-13.6-5.5-28-12.2-41.3-17q-20.2-7.3-41.3-12.5 9.2-3.4 17.2-4.6 13.8-2 34.2-3.2 6.2-.4 11 .7 12.6 2.7 19 5l11.9 4.6a25.4 25.1 61.8 0 0 3.5 1.2q8 1.8 9.5 2.5c23.7 12 52.3 18.8 78.9 21.2 47.6 4.3 98.1-2.7 141-24.3q1.7-.9 3.4-1"/><path fill="#cfa67b" d="M621.6 736.1c-9.6 1.1-19 3-28.6 4.3-8.1 1.2-13-1.5-13.9-10l-.6-.5-2-.2 3.2-.3a1.4 1 26.8 0 0 .3 0q14.8-4.6 30.6-5.4 6.4-.4 12.3 1.8l.4.7z"/><path fill="#c49468" d="M667.4 742q-2.8.1-5.5-.4-8-1.4-15.8-3-1.8-.2-3.1-2.3.3-1.8 1.4-3.3l.8-.2z"/><path fill="#b17a5c" d="M914 875.2q-.4.3-.7.3-4 1.2-5.5 1.1l-15.8-.4q-5.4-.2-12.6-4.3l36.7-21a1 1 0 0 0 .6-.9q0-2.6-.6-6l-3.8-22q-.3-1.7-3.1-12.9a8 7.8 22.3 0 0-1-2.2q-2.9-4.5-7-10.2-2.2-3.1-1.9-8L921 817q7.7 10 14.5 23.1 1.6 3.1 2.8 7.6.6 2.3-1.1 3c-6.4 3-11.2 5.2-14.8 11.4-2.4 4.3-3.4 9.7-8.3 13m-466.4 55.3-8 2q3.9-3.5 8-2"/></svg>