<svg xmlns="http://www.w3.org/2000/svg" viewBox="0 0 960 960"><g stroke-width="2" fill="none"><path stroke="#845f50" vector-effect="non-scaling-stroke" d="M448 930q-4-1-8 2"/><path stroke="#6c6ea2" vector-effect="non-scaling-stroke" d="M673 401q-3 40-1 80l6 49 23-81 14-45"/><path stroke="#6a84a2" vector-effect="non-scaling-stroke" d="m715 404 18-54q20-56 40-106l18-35 23-39h1v1l-11 33-8 29-19 60-10 30-18 57"/><path stroke="#6c6ea2" vector-effect="non-scaling-stroke" d="m749 380-6 20-22 75-12 45-4 15v1q11-6 18-16 17-20 32-46l49-84 5-11-1-1q-6 3-12 3c-7 1-9-7-5-12l9-10"/><path stroke="#6a84a2" vector-effect="non-scaling-stroke" d="m800 359 18-18q8-9 11-19l15-58v-1l-19 9h-1q-4 0-6-3c-3-4 2-11 5-14l25-34 18-24q6-7 6-17l4-37 2-69-5-58a1 1 0 0 0-2-1l-12 11-29 32q-17 19-31 38a676 676 0 0 0-91 160q-14 33-22 61-10 40-13 84"/><path stroke="#7eafff" vector-effect="non-scaling-stroke" d="M800 359q-26 9-51 21m-34 24-42-3"/><path stroke="#a88958" vector-effect="non-scaling-stroke" d="m349 222-2 6"/><path stroke="#a77e59" vector-effect="non-scaling-stroke" d="M347 228q-3 12-3 21 1 11 12 13 15 4 28-1l25-6 20-5q16-4 35-5 5-1 9 2l-1 1-23 8q-9 4-17 4v1l5 5q27 30 36 70l8-21q9-22 21-38l21-26 22-24 21-18q6-5 6-12 1-13-11-18-10-4-20-5"/><path stroke="#a88958" vector-effect="non-scaling-stroke" d="M541 174h-14"/><path stroke="#aa9657" vector-effect="non-scaling-stroke" d="m527 174-26 1q-12 2-23 8l-13 6-1-1q2-8 8-18l56-90q6-9 8-18a1 1 0 0 0 0-2l-7 1a369 369 0 0 0-124 76q-23 22-39 48-11 18-17 37"/><path stroke="#fbdc6b" vector-effect="non-scaling-stroke" d="M527 174q-24 23-54 39-22 10-45 15-20 4-42 0l-37-6"/><path stroke="#f8c46d" vector-effect="non-scaling-stroke" d="m541 174-34 27q-33 27-75 35-22 4-44 0l-41-8"/><path stroke="#a89a9b" vector-effect="non-scaling-stroke" d="m777 263-3 5-2 7-35 95-24 72q-10 31-21 75l-4 18-8 38 8-10v-1l4-17 6-24 15-54 21-71 11-35 15-49 14-42 3-7"/><path stroke="#644948" vector-effect="non-scaling-stroke" d="M604 426v1-1"/><path stroke="#a59a99" vector-effect="non-scaling-stroke" d="m604 426 1-29-1-30q0-9-4-22-5-13-12-25l-2-3q-9-10-22-16-16-6-33-2l-12 4q-11 5-18 13l-7 10-1 2q-5 13-6 28l-3 35q9-26 32-38c30-14 59 7 73 32q11 19 15 41m-137-30-1-24-2-8-3-21q-5-13-11-20l-14-13q-13-7-27-5c-9 0-21 5-28 10l-12 12c-8 9-14 23-17 34q-8 35-9 71v12l1-1q1-33 21-61c18-25 50-39 77-18q14 10 21 26l3 6h1"/><path stroke="#a78768" vector-effect="non-scaling-stroke" d="M104 432q-5 21-2 42l1 7q1 10 9 18h1q14-13 31-18"/><path stroke="#a6816f" vector-effect="non-scaling-stroke" d="m144 481 18-4c13-2 30-1 40 7l9 9"/><path stroke="#a4655c" vector-effect="non-scaling-stroke" d="m211 493 12 15c4 6 14 1 19-1q9-2 14-6 10-8 18-17h1q-9 21-29 33l-12 5q-9 1-15-3h-1l-13 27"/><path stroke="#865450" vector-effect="non-scaling-stroke" d="m205 546-2 5a1 1 29 0 0 0 2q15 10 31 11h7l18-2q6 1 11-2 6-5 11-12l2-7"/><path stroke="#a4655c" vector-effect="non-scaling-stroke" d="m283 541 15-32"/><path stroke="#865450" vector-effect="non-scaling-stroke" d="m298 509 13-17 17-20q2-2 2-5l1-22c-2-19-2-29-6-43"/><path stroke="#a4655c" vector-effect="non-scaling-stroke" d="M325 402q-2-16-8-28-5-9-15-19"/><path stroke="#a6816f" vector-effect="non-scaling-stroke" d="M302 355a80 80 0 0 0-57-24q-17-1-30 2-24 5-48 16-14 6-24 15-18 16-29 37-6 15-10 31"/><path stroke="#f2a387" vector-effect="non-scaling-stroke" d="m302 355-2 6q-1 16-6 31-9 31-28 60l-7 9q-14 13-30 23l-18 9"/><path stroke="#f6c493" vector-effect="non-scaling-stroke" d="M144 481q-15-13-27-30l-13-19"/><path stroke="#d37668" vector-effect="non-scaling-stroke" d="m325 402-1 18-3 18q-8 33-20 65l-3 6m-15 32-10 11q-4 5-10 7l-18 3-12 1q-5 0-11-4-10-5-17-13"/><path stroke="#644948" vector-effect="non-scaling-stroke" d="m549 521 1 1 1 1c18-5 32-21 39-38l3-12v-1q-9-17-26-26l-9-4"/><path stroke="#a89a9b" vector-effect="non-scaling-stroke" d="M558 442q-7-16-25-19c-20-1-30 22-32 38-3 20 3 46 21 58q13 9 27 2"/><path stroke="#b4a09e" vector-effect="non-scaling-stroke" d="M558 442c11 21 11 46 1 67q-3 8-10 12"/><path stroke="#644948" vector-effect="non-scaling-stroke" d="M390 440q-18 3-35 8l-1 1q-1 24 9 47 4 10 13 15 9 6 18 5"/><path stroke="#a89a9b" vector-effect="non-scaling-stroke" d="M394 516q10 9 22 6 14-4 22-17 11-21 7-45-4-21-21-32-14-6-27 3l-7 9"/><path stroke="#b4a09e" vector-effect="non-scaling-stroke" d="M394 516c-18-20-18-54-4-76"/><path stroke="#a4655c" vector-effect="non-scaling-stroke" d="m591 525-4 14q-5 22-4 44l3 23q6 32 26 57"/><path stroke="#865450" vector-effect="non-scaling-stroke" d="m612 663 11 13m0 0q-7-19-9-41"/><path stroke="#a4655c" vector-effect="non-scaling-stroke" d="m614 635 2-21 4-16q7-20 28-20h20v-1l2-9q2-11 1-16l-8-60-1-7"/><path stroke="#865450" vector-effect="non-scaling-stroke" d="M662 485v-7l-1-41h-1l-3 2q-17 10-29 22-13 14-22 29-10 16-15 35"/><path stroke="#d37668" vector-effect="non-scaling-stroke" d="M662 485q-4-11-6-23v-1q-29 17-49 42l-8 11-8 11m23 110q-3 14-2 28"/><path stroke="#a4655c" vector-effect="non-scaling-stroke" d="m758 489-19 29 14-7v1q-9 12-22 21"/><path stroke="#a57466" vector-effect="non-scaling-stroke" d="m731 533-7 5q-10 5-19 12v1l9 27 1 4-3 5"/><path stroke="#a6816f" vector-effect="non-scaling-stroke" d="M712 587h-22l-38 2c-7 0-16 0-20 8a96 96 0 0 0 23 106"/><path stroke="#a78768" vector-effect="non-scaling-stroke" d="M655 703q14 13 30 19 10 4 24 6 13 2 25 1 23-3 46-12c24-11 49-22 62-43q8-14 13-31"/><path stroke="#a6816f" vector-effect="non-scaling-stroke" d="m855 643 4-18"/><path stroke="#a57466" vector-effect="non-scaling-stroke" d="m859 625 4-30q2-9 2-20"/><path stroke="#a4655c" vector-effect="non-scaling-stroke" d="M865 575q0-15-5-32l-10-30q-6-17-18-38l-7-9-15-15q-8-7-17-10"/><path stroke="#865450" vector-effect="non-scaling-stroke" d="m793 441-6-1h-1l-28 49"/><path stroke="#d37668" vector-effect="non-scaling-stroke" d="m793 441-3 6-14 22q-7 11-18 20"/><path stroke="#f1967e" vector-effect="non-scaling-stroke" d="m865 575-10-9-20-20a67 67 0 0 0-62-19l-42 6"/><path stroke="#f3b291" vector-effect="non-scaling-stroke" d="M859 625c-9 0-19 0-26-8l-12-14q-14-13-33-20c-18-6-32-2-53 2l-23 2"/><path stroke="#f6c493" vector-effect="non-scaling-stroke" d="M855 643q-17 1-30 11l-20 16"/><path stroke="#f3d8c4" vector-effect="non-scaling-stroke" d="M805 670c1-16-19-21-32-18-13 4-26 14-31 27q-3 9 1 17"/><path stroke="#f6c493" vector-effect="non-scaling-stroke" d="m743 696-23-8-22-11c-25-12-34 7-43 26"/><path stroke="#f5debd" vector-effect="non-scaling-stroke" d="M743 696q10 14 28 9 12-4 21-13 10-8 13-22"/><path stroke="#a4655c" vector-effect="non-scaling-stroke" d="M387 528q-10-4-19-10l-13-12-12-22h-1q-12 4-23 14l-8 10q-11 18-18 34l-6 21"/><path stroke="#a6816f" vector-effect="non-scaling-stroke" d="m287 563-2 13"/><path stroke="#a57466" vector-effect="non-scaling-stroke" d="M285 576q-3 27 3 51l9 23 4 7 10 24q7 12 17 23l3 3q23 18 51 27"/><path stroke="#a6816f" vector-effect="non-scaling-stroke" d="M382 734q50 15 101 10 36-3 67-15l23-10 9-6q15-8 26-20l7-9v-1q-14-15-24-33-14-23-17-54-2-25 0-45"/><path stroke="#a4655c" vector-effect="non-scaling-stroke" d="M574 551q3-19 9-36-10 12-25 18"/><path stroke="#a6816f" vector-effect="non-scaling-stroke" d="M558 533q-17 4-33-2l-8-3h-1q-1 11-8 19-12 16-33 16-21-2-34-20l-2-1h-6l-2-4c1-4 7-5 10-5l7-1 31-8 21-7 1-1q-5-5-8-11-7-13-10-23l-7-34v-1l-1-1-2 4q-2 19-9 38c-8 21-24 39-48 41l-15 1-14-2"/><path stroke="#f2a387" vector-effect="non-scaling-stroke" d="M558 533q6 11 16 18"/><path stroke="#f3b291" vector-effect="non-scaling-stroke" d="m382 734-24-25q-15-19-28-44-15-27-27-56-6-17-18-33"/><path stroke="#f2a387" vector-effect="non-scaling-stroke" d="M287 563q17 11 36 12 25 0 44-14 17-13 20-33"/><path stroke="#9c826e" vector-effect="non-scaling-stroke" d="m136 496-6 4-6 5-7 7-19 24"/><path stroke="#937560" vector-effect="non-scaling-stroke" d="m98 536-3 4q-27 38-51 79h1q9-7 23-7 29-2 50 19 13 12 15 30v7h1l2-4v-1l10-18"/><path stroke="#9c826e" vector-effect="non-scaling-stroke" d="M146 645q21-37 38-75"/><path stroke="#a38e7a" vector-effect="non-scaling-stroke" d="m184 570 11-24 10-22q5-8 5-16l-1-1q-9-14-24-19-13-3-25 0l-24 8"/><path stroke="#e8cda4" vector-effect="non-scaling-stroke" d="M184 570q-12-12-20-26l-28-48"/><path stroke="#d8b489" vector-effect="non-scaling-stroke" d="m146 645-5-10v-1l-6-9-19-26q-16-21-18-47v-16"/><path stroke="#a89a9b" vector-effect="non-scaling-stroke" d="m506 524-30 10-25 6q9 13 24 14 13 0 22-8 10-8 10-21l-1-1"/><path stroke="#9c826e" vector-effect="non-scaling-stroke" d="M182 598q-22 44-47 87-8 16-19 30-8 10-20 11"/><path stroke="#937560" vector-effect="non-scaling-stroke" d="M96 726h-8q-10-3-19-11"/><path stroke="#8e6c56" vector-effect="non-scaling-stroke" d="M69 715q-9-7-17-16v-1q-2-4 1-7l5-3q27-7 41-30 3-5 5-14v-12q-16-10-34-10-11 1-21 7l-5 4"/><path stroke="#845f50" vector-effect="non-scaling-stroke" d="M44 633q-8 8-15 19-8 16-12 29l-3 13-2 16 2 26q1 14 7 29 7 20 19 39"/><path stroke="#8e6c56" vector-effect="non-scaling-stroke" d="m40 804 4 9 17 27q4 7 8 10 7 4 16 5"/><path stroke="#937560" vector-effect="non-scaling-stroke" d="m85 855 5 1q7 1 8 7l3 11q4 7 11 13 12 10 26 16l15 6 32 10 26 7q13 2 25-3"/><path stroke="#9c826e" vector-effect="non-scaling-stroke" d="M236 923c5-3 11-7 17-2l12 10q11 7 26 10l13 3c15 3 25 5 38 3l33-8 14-3q21-3 36-9 8-5 18-8 12-1 22 6 8 6 18 10l2 1h14l13-3q46-14 107-30l27-11 8-3"/><path stroke="#a38e7a" vector-effect="non-scaling-stroke" d="m654 889 25-3"/><path stroke="#9c826e" vector-effect="non-scaling-stroke" d="m679 886 50-5q6 0 11-4l9-10c8-7 15 5 22 7q20 4 43 4l2-1 6-2 16-3m0 0 1-1 1-11q1-4 5-5 3-2 8 0"/><path stroke="#937560" vector-effect="non-scaling-stroke" d="m853 855 11 10h1l14 7"/><path stroke="#845f50" vector-effect="non-scaling-stroke" d="M879 872q8 4 13 4l16 1 5-1m1-1q6-6 8-13 6-8 15-11 2-1 1-3l-2-8q-7-13-15-23l-22-28"/><path stroke="#937560" vector-effect="non-scaling-stroke" d="m899 789-20-27-35-42-2-3-9-16h-1l-4 3"/><path stroke="#9c826e" vector-effect="non-scaling-stroke" d="m828 704-5 4"/><path stroke="#a38e7a" vector-effect="non-scaling-stroke" d="M823 708q-13 8-27 14l-17 7q-22 9-43 11l-1 1c3 9 4 19-5 25q-13 5-24-3l-21-13-18-8"/><path stroke="#8e6c56" vector-effect="non-scaling-stroke" d="m667 742-22-9h-1l-1 3"/><path stroke="#a38e7a" vector-effect="non-scaling-stroke" d="m643 736-11 26-4 11q-3 5-9 3l-1-1-1-4"/><path stroke="#9c826e" vector-effect="non-scaling-stroke" d="m617 771 5-35"/><path stroke="#937560" vector-effect="non-scaling-stroke" d="m622 736 1-9v-1l-12-2q-16 1-31 5l-4 1"/><path stroke="#9c826e" vector-effect="non-scaling-stroke" d="m576 730-3 1a264 264 0 0 1-220 3l-9-3-4-1-12-4q-6-3-19-5l-11-1-34 3q-8 1-17 5"/><path stroke="#a38e7a" vector-effect="non-scaling-stroke" d="M247 728q-19 5-35 12l-19 8q-7 4-14 1c-11-3-12-15-8-24q4-10 10-19"/><path stroke="#9c826e" vector-effect="non-scaling-stroke" d="m181 706 13-18c-12 3-20-8-18-19l4-9q10-17 25-32-5 0-8-5c-4-6 1-15 4-21"/><path stroke="#8e6c56" vector-effect="non-scaling-stroke" d="M201 602q10-17 26-27v-1q-16-3-28-12h-1l-16 36"/><path stroke="#d2ab80" vector-effect="non-scaling-stroke" d="m201 602-19-4"/><path stroke="#e8cda4" vector-effect="non-scaling-stroke" d="M181 706q-27-1-49 17c-17 14-21 35-21 56 2 39 19 80 55 98q22 11 48 16 48 13 94 21 31 5 61-1l33-5q17-4 34 0l25 8q18 5 39 3l30-4q20-1 37-9l22-10q21-9 43-8l8 1h14"/><path stroke="#d8b489" vector-effect="non-scaling-stroke" d="m236 923-57-18q-32-10-54-34-28-32-36-74-6-25 1-51l6-20"/><path stroke="#e8cda4" vector-effect="non-scaling-stroke" d="M247 728q21 5 41 12l41 17a265 265 0 0 0 146 16l34-5q28-5 58-2l50 5"/><path stroke="#dab78c" vector-effect="non-scaling-stroke" d="m643 736 3 3 16 3h5"/><path stroke="#e8cda4" vector-effect="non-scaling-stroke" d="m823 708 22 84q4 12 4 24c0 29-33 35-55 36l-32 1q-38-1-69 22l-14 11"/><path stroke="#ca9d72" vector-effect="non-scaling-stroke" d="M69 715q-5 4-8 9c-15 18-13 40-6 61q12 36 30 70"/><path stroke="#bb8762" vector-effect="non-scaling-stroke" d="M40 804q-5-20-8-41l-4-30 1-31 3-33 6-20c2-4 10-11 6-16"/><path stroke="#d8b489" vector-effect="non-scaling-stroke" d="M576 730h3q2 13 14 10l29-4"/><path stroke="#c0906c" vector-effect="non-scaling-stroke" d="M899 789q0 5 2 8l7 10 1 2 3 13 4 22 1 6-1 1-37 21"/><path stroke="#d8b489" vector-effect="non-scaling-stroke" d="m853 855 9-11c12-16 6-38 1-55q-12-34-27-67l-3-6-5-12"/><path stroke="#a4655c" vector-effect="non-scaling-stroke" d="m696 576 1 1 2-1h1l-2-5h-1l-1 5"/><path stroke="#865450" vector-effect="non-scaling-stroke" d="M241 603q14-5 27-4l6 2h1q-1-14 1-27l-1-1h-4"/><path stroke="#a4655c" vector-effect="non-scaling-stroke" d="m271 573-17 1q-11 3-22 11-18 11-26 31l1 1h2q5-2 10-1l1-1 10-7 11-5"/><path stroke="#d37668" vector-effect="non-scaling-stroke" d="m271 573-5 9-25 21"/><path stroke="#865450" vector-effect="non-scaling-stroke" d="m253 644 8-2 8-1 10 2v-1l-4-26-1-3-4-2"/><path stroke="#a4655c" vector-effect="non-scaling-stroke" d="M270 611q-20-5-38 9-15 10-30 27c-3 3-26 30-11 30l11-4 10-4 3-1q14-13 33-22l5-2"/><path stroke="#d37668" vector-effect="non-scaling-stroke" d="m270 611-2 8-7 14-8 11"/><path stroke="#845f50" vector-effect="non-scaling-stroke" d="M114 642q0 13-7 24-13 19-35 29l-6 2v1q6 7 14 12t13 6q15-1 22-17v-1l2-4v-2c8-11 9-31 2-43l-4-7h-1"/><path stroke="#a6755a" vector-effect="non-scaling-stroke" d="M236 665q-15 10-30 25-15 17-23 34-4 5-4 12c1 5 7 4 10 2 6-2 21-10 32-13l12-4 7-2"/><path stroke="#a4655c" vector-effect="non-scaling-stroke" d="m240 719 4-2"/><path stroke="#865450" vector-effect="non-scaling-stroke" d="m244 717 20-5 31-3 8-1 3-3-1-8-3-9-3-9-5-12q-1-5-5-9l-7-4-7-2"/><path stroke="#a4655c" vector-effect="non-scaling-stroke" d="M275 652q-14-1-28 6l-11 7"/><path stroke="#d37668" vector-effect="non-scaling-stroke" d="M275 652q-1 15-5 25-5 18-20 32l-6 8"/><path stroke="#f29772" vector-effect="non-scaling-stroke" d="m240 719-6-19q-2-17 2-35"/><path stroke="#865450" vector-effect="non-scaling-stroke" d="m622 692-3 10 1 5 5 5a1 1 0 0 0 2 0l2-13v-2l-6-6-1 1"/><path stroke="#a59a99" vector-effect="non-scaling-stroke" d="m631 738 13-30a1 1 0 0 0 0-2l-5-2-1 1-7 33"/><path stroke="#a6755a" vector-effect="non-scaling-stroke" d="M653 715h-1l-3 7 1 1 27 11 10 5 19 11 9 5q5 3 9 1l2-2q1-7-2-12l-1-1q-29-1-54-14l-16-12"/><path stroke="#f6d8c6" vector-effect="non-scaling-stroke" d="M172 376q-7 13 5 21 7 3 13-2l4-8 4-8q0-8-6-12-14-4-20 9"/><path stroke="#f3d8c4" vector-effect="non-scaling-stroke" d="M131 427q8 2 15-4 10-10 14-23c2-8 0-18-9-20q-7-1-12 3-4 3-7 3l-1 1q-5 3-4 8l-1 2q-5 10-5 18 1 10 10 12"/><path stroke="#f6d8c6" vector-effect="non-scaling-stroke" d="M806 607a20 15-35 0 0-25-1 20 15-35 0 0-7 24 20 15-35 0 0 24 1 20 15-35 0 0 8-24"/></g><path fill="#574344" d="M448 930q-4-1-8 2l-22 10-16 3-44 9-20 4h-20q-25-4-49-12l-19-13-2-3a1 1 0 0 0-2 0l-6 3q-16 7-34 3-22-5-47-13l-25-10q-15-7-29-19-9-6-13-17l-3-10-2-1-10-2c-15-2-22-13-29-25l-20-34-6-11-5-12Q6 758 3 729v-27q1-14 7-32 8-26 23-52l18-31 19-28c15-22 24-36 37-51-13-10-15-25-17-40q-3-20 2-41c12-45 46-81 87-100 38-17 86-20 120 8l7 8 1 2q17 16 24 37l3 8a1 1 0 0 0 2 0l4-17 5-24q11-30 37-48l3-2 22-6 16 1q13 2 22 10l10 8v-1q-8-16-18-30c-6-7-12-15-21-16h-2l-19 5-20 4q-9 2-21-1-24-8-19-33l4-20q6-20 16-37 16-26 37-48a318 318 0 0 1 144-86h2c17 6 3 28-2 37l-44 71v1c9-1 16 0 32 2l8 1 7 2q11 1 20 4 10 4 15 8c11 12 11 30 0 41l-17 15q-7 5-17 16l-25 30-15 21-1 2 1 1 17-10q15-6 31-5 12 1 23 5 20 9 30 29c5 10 8 16 11 27q3 13 3 26 2 36-2 71v1q6 2 10 6a1 1 0 0 0 2 0q10-10 22-18c3-2 9-7 13-7l1-1q2-37 7-72 10-50 28-96l24-53q17-32 35-60l29-44q16-24 34-44l35-39 12-11 7-3q9 0 10 10l4 37q2 16 2 37 0 35-2 55-1 21-5 43 0 7-3 14l-3 4-18 22-22 30 1 1q4-3 11-5 10-3 9 7l-1 6-18 67q-4 10-11 17l-18 19h2q8-3 10 5 1 10-5 19l-21 37 10 4q29 15 46 44c23 39 31 88 25 134q-4 33-18 62-7 12-16 21a1 1 45 0 0 0 2l4 5 19 25 31 40q24 28 41 53l19 25c8 12-4 13-10 18q-10 7-16 15l-11 11q-4 3-9 1h-33c-7 0-11-7-16-12l-2-2-7-4h-1q2 6-1 11-6 6-13 7-32 2-65-3l-5-2q-5-1-10-6h-2l-5 6q-7 8-16 9l-62 6q-17 0-32 8l-17 7-23 6-86 24-19 4h-9q-2 1-4-1l-13-5-13-8q-2-2-7-3m225-529q-3 40-1 80l6 49 23-81 14-45 18-54q20-56 40-106l18-35 23-39h1v1l-11 33-8 29-19 60-10 30-18 57-6 20-22 75-12 45-4 15v1q11-6 18-16 17-20 32-46l49-84 5-11-1-1q-6 3-12 3c-7 1-9-7-5-12l9-10 18-18q8-9 11-19l15-58v-1l-19 9h-1q-4 0-6-3c-3-4 2-11 5-14l25-34 18-24q6-7 6-17l4-37 2-69-5-58a1 1 0 0 0-2-1l-12 11-29 32q-17 19-31 38a676 676 0 0 0-91 160q-14 33-22 61-10 40-13 84M349 222l-2 6q-3 12-3 21 1 11 12 13 15 4 28-1l25-6 20-5q16-4 35-5 5-1 9 2l-1 1-23 8q-9 4-17 4v1l5 5q27 30 36 70l8-21q9-22 21-38l21-26 22-24 21-18q6-5 6-12 1-13-11-18-10-4-20-5h-14l-26 1q-12 2-23 8l-13 6-1-1q2-8 8-18l56-90q6-9 8-18a1 1 0 0 0 0-2l-7 1a369 369 0 0 0-124 76q-23 22-39 48-11 18-17 37m428 41-3 5-2 7-35 95-24 72q-10 31-21 75l-4 18-8 38 8-10v-1l4-17 6-24 15-54 21-71 11-35 15-49 14-42zM604 426l1-29-1-30q0-9-4-22-5-13-12-25l-2-3q-9-10-22-16-16-6-33-2l-12 4q-11 5-18 13l-7 10-1 2q-5 13-6 28l-3 35q9-26 32-38c30-14 59 7 73 32q11 19 15 41m-137-30-1-24-2-8-3-21q-5-13-11-20l-14-13q-13-7-27-5c-9 0-21 5-28 10l-12 12c-8 9-14 23-17 34q-8 35-9 71v12l1-1q1-33 21-61c18-25 50-39 77-18q14 10 21 26zm-363 36q-5 21-2 42l1 7q1 10 9 18h1q14-13 31-18l18-4c13-2 30-1 40 7l9 9 12 15c4 6 14 1 19-1q9-2 14-6 10-8 18-17h1q-9 21-29 33l-12 5q-9 1-15-3h-1l-13 27-2 5a1 1 29 0 0 0 2q15 10 31 11h7l18-2q6 1 11-2 6-5 11-12l2-7 15-32 13-17 17-20q2-2 2-5l1-22c-2-19-2-29-6-43q-2-16-8-28-5-9-15-19a80 80 0 0 0-57-24q-17-1-30 2-24 5-48 16-14 6-24 15-18 16-29 37-6 15-10 31m445 89 1 1 1 1c18-5 32-21 39-38l3-12v-1q-9-17-26-26l-9-4q-7-16-25-19c-20-1-30 22-32 38-3 20 3 46 21 58q13 9 27 2m-159-81q-18 3-35 8l-1 1q-1 24 9 47 4 10 13 15 9 6 18 5 10 9 22 6 14-4 22-17 11-21 7-45-4-21-21-32-14-6-27 3zm201 85-4 14q-5 22-4 44l3 23q6 32 26 57l11 13q-7-19-9-41l2-21 4-16q7-20 28-20h20v-1l2-9q2-11 1-16l-8-60-1-7v-7l-1-41h-1l-3 2q-17 10-29 22-13 14-22 29-10 16-15 35m167-36-19 29 14-7v1q-9 12-22 21l-7 5q-10 5-19 12v1l9 27 1 4-3 5h-22l-38 2c-7 0-16 0-20 8a96 96 0 0 0 23 106q14 13 30 19 10 4 24 6 13 2 25 1 23-3 46-12c24-11 49-22 62-43q8-14 13-31l4-18 4-30q2-9 2-20 0-15-5-32l-10-30q-6-17-18-38l-7-9-15-15q-8-7-17-10l-6-1h-1zm-371 39q-10-4-19-10l-13-12-12-22h-1q-12 4-23 14l-8 10q-11 18-18 34l-6 21-2 13q-3 27 3 51l9 23 4 7 10 24q7 12 17 23l3 3q23 18 51 27 50 15 101 10 36-3 67-15l23-10 9-6q15-8 26-20l7-9v-1q-14-15-24-33-14-23-17-54-2-25 0-45 3-19 9-36-10 12-25 18-17 4-33-2l-8-3h-1q-1 11-8 19-12 16-33 16-21-2-34-20l-2-1h-6l-2-4c1-4 7-5 10-5l7-1 31-8 21-7 1-1q-5-5-8-11-7-13-10-23l-7-34v-1l-1-1-2 4q-2 19-9 38c-8 21-24 39-48 41l-15 1zm-251-32-6 4-6 5-7 7-19 24-3 4q-27 38-51 79h1q9-7 23-7 29-2 50 19 13 12 15 30v7h1l2-4v-1l10-18q21-37 38-75l11-24 10-22q5-8 5-16l-1-1q-9-14-24-19-13-3-25 0zm370 28-30 10-25 6q9 13 24 14 13 0 22-8 10-8 10-21zm-324 74q-22 44-47 87-8 16-19 30-8 10-20 11h-8q-10-3-19-11-9-7-17-16v-1q-2-4 1-7l5-3q27-7 41-30 3-5 5-14v-12q-16-10-34-10-11 1-21 7l-5 4q-8 8-15 19-8 16-12 29l-3 13-2 16 2 26q1 14 7 29 7 20 19 39l4 9 17 27q4 7 8 10 7 4 16 5l5 1q7 1 8 7l3 11q4 7 11 13 12 10 26 16l15 6 32 10 26 7q13 2 25-3c5-3 11-7 17-2l12 10q11 7 26 10l13 3c15 3 25 5 38 3l33-8 14-3q21-3 36-9 8-5 18-8 12-1 22 6 8 6 18 10l2 1h14l13-3q46-14 107-30l27-11 8-3 25-3 50-5q6 0 11-4l9-10c8-7 15 5 22 7q20 4 43 4l2-1 6-2 16-3 1 1v-1h-1l1-1 1-11q1-4 5-5 3-2 8 0l11 10h1l14 7q8 4 13 4l16 1 5-1q1 1 1-1 6-6 8-13 6-8 15-11 2-1 1-3l-2-8q-7-13-15-23l-22-28-20-27-35-42-2-3-9-16h-1l-4 3-5 4q-13 8-27 14l-17 7q-22 9-43 11l-1 1c3 9 4 19-5 25q-13 5-24-3l-21-13-18-8-22-9h-1l-1 3-11 26-4 11q-3 5-9 3l-1-1-1-4 5-35 1-9v-1l-12-2q-16 1-31 5l-4 1-3 1a264 264 0 0 1-220 3l-9-3-4-1-12-4q-6-3-19-5l-11-1-34 3q-8 1-17 5-19 5-35 12l-19 8q-7 4-14 1c-11-3-12-15-8-24q4-10 10-19l13-18c-12 3-20-8-18-19l4-9q10-17 25-32-5 0-8-5c-4-6 1-15 4-21q10-17 26-27v-1q-16-3-28-12h-1zm514-22 2-1h1l-2-5h-1zm-455 27q14-5 27-4l6 2h1q-1-14 1-27l-1-1h-4l-17 1q-11 3-22 11-18 11-26 31l1 1h2q5-2 10-1l1-1 10-7zm12 41 8-2 8-1 10 2v-1l-4-26-1-3-4-2q-20-5-38 9-15 10-30 27c-3 3-26 30-11 30l11-4 10-4 3-1q14-13 33-22zm-139-2q0 13-7 24-13 19-35 29l-6 2v1q6 7 14 12t13 6q15-1 22-17v-1l2-4v-2c8-11 9-31 2-43zm122 23q-15 10-30 25-15 17-23 34-4 5-4 12c1 5 7 4 10 2 6-2 21-10 32-13l12-4 7-2 4-2 20-5 31-3 8-1 3-3-1-8-3-9-3-9-5-12q-1-5-5-9l-7-4-7-2q-14-1-28 6zm386 27-3 10 1 5 5 5a1 1 0 0 0 2 0l2-13v-2l-6-6zm9 46 13-30a1 1 0 0 0 0-2l-5-2-1 1zm22-23-3 7 1 1 27 11 10 5 19 11 9 5q5 3 9 1l2-2q1-7-2-12l-1-1q-29-1-54-14z"/><path fill="#7cc4ff" d="M800 359q-26 9-51 21l18-57 10-30 19-60 8-29 11-33v-1h-1l-23 39q-11 18-18 35-20 50-40 106l-18 54-42-3q3-44 13-84 8-28 21-61a676 676 0 0 1 92-160q14-19 31-38l29-32 12-11a1 1 0 0 1 2 1l5 58-2 69-4 37q0 10-6 17l-18 24-25 34c-3 3-8 10-5 14q2 3 6 3h1l19-9v1l-15 58q-3 10-11 19z"/><path fill="#fce969" d="M527 174q-24 23-54 39-22 10-45 15-20 4-42 0l-37-6q6-19 17-37 16-26 39-48a304 304 0 0 1 124-76l7-1a1 1 0 0 1 0 2q-2 9-8 18l-56 90q-6 10-8 18l1 1 13-6q11-6 23-8z"/><path fill="#f9cf6c" d="m541 174-34 27q-33 27-75 35-22 4-44 0l-41-8 2-6 37 6q22 4 42 0 23-5 45-15 30-16 54-39z"/><path fill="#f6b96e" d="m347 228 41 8q22 4 44 0 42-8 75-35l34-27q10 1 20 5 12 5 11 18 0 7-6 12l-21 18-22 24-21 26q-12 16-21 38l-8 21q-9-40-36-70l-5-5v-1q9-1 17-4l23-8 1-1q-4-3-9-2-19 1-35 5l-20 5-25 6q-13 5-28 1-11-2-12-13 0-9 3-21"/><path fill="#f8f1f1" d="m777 263-3 7-14 42-15 49-11 35-21 71-15 54-6 24-4 17v1l-8 10 8-38 4-18q11-44 21-75l24-72 35-95 2-7z"/><path fill="#f2f1ee" d="M604 426q-4-22-15-41c-14-25-43-46-73-32q-23 12-32 38l3-35q1-15 6-28l1-2 7-10q7-8 18-13l12-4q17-4 33 2 13 6 22 16l2 3q8 12 12 25t4 22l1 30zm-138-30-3-6q-7-16-21-26c-27-21-59-7-77 18q-19 28-21 61l-1 1v-12q1-36 9-71c3-11 9-25 17-34l12-12c7-5 19-10 28-10q14-2 27 5l14 13q6 7 11 20l3 21 2 8z"/><path fill="#f4be9a" d="m302 355-2 6q-1 16-6 31-9 31-28 60l-7 9q-14 13-30 23l-18 9-9-9c-10-8-27-9-40-7l-18 4q-15-13-27-30l-13-19q4-16 10-31 11-22 29-37 10-9 24-15 24-11 48-16 13-3 30-2 34 0 57 24m-130 21q-7 13 5 21 7 3 13-2l4-8 4-8q0-8-6-12-14-4-20 9m-41 51q8 2 15-4 10-10 14-23c2-8 0-18-9-20q-7-1-12 3-4 3-7 3l-1 1q-5 3-4 8l-1 2q-5 10-5 18 1 10 10 12"/><path fill="#f08774" d="M302 355q10 10 15 19 6 12 8 28l-1 18-3 18q-8 33-20 65l-3 6-15 32-10 11q-4 5-10 7l-18 3-12 1q-5 0-11-4-10-5-17-13l13-27h1q6 4 15 3l12-5q20-12 29-33h-1q-8 9-18 17-5 4-14 6c-5 2-15 7-19 1l-12-15 18-9q16-10 30-23l7-9q19-29 28-60 5-15 6-31z"/><path fill="#8099ff" d="m800 359-9 10c-4 5-2 13 5 12q6 0 12-3l1 1-5 11-49 84q-15 26-32 46-7 10-18 16v-1l4-15 12-45 22-75 6-20q25-12 51-21"/><path fill="#f8f1f1" d="m194 387-4 8q-7 5-13 2-12-8-5-21 6-13 20-9 6 4 6 12z"/><path fill="#f2f1ee" d="M146 423q-7 6-15 4-9-2-10-12 0-8 5-18l1-2q-1-5 4-8l1-1q3 0 7-3 5-4 12-3c9 2 11 12 9 20q-4 13-14 23"/><path fill="#8099ff" d="m715 404-14 45-23 81-6-49q-2-40 1-80z"/><path fill="#b5655b" d="m298 509 3-6q12-32 20-65l3-18 1-18c4 14 4 24 6 43l-1 22q0 3-2 5l-17 20z"/><path fill="#f8f1f1" d="M558 442c11 21 11 46 1 67q-3 8-10 12-14 7-27-2c-18-12-24-38-21-58 2-16 12-39 32-38q18 3 25 19m-164 74c-18-20-18-54-4-76l7-9q13-9 27-3 16 11 21 32 4 24-7 45-8 13-22 17-12 3-22-6"/><path fill="#f7ca8c" d="M144 481q-17 5-31 18h-1q-8-8-9-18l-1-7q-3-21 2-42l13 19q12 17 27 30"/><path fill="#b5655b" d="M662 485q-4-11-6-23v-1q-29 17-49 42l-8 11-8 11q5-19 15-35 9-15 22-29 12-12 29-22l3-2h1l1 41z"/><path fill="#704e4b" d="M390 440c-14 22-14 56 4 76q-9 1-18-5-9-5-13-15-10-23-9-47l1-1q17-5 35-8"/><path fill="#b5655b" d="m793 441-3 6-14 22q-7 11-18 20l28-49h1z"/><path fill="#704e4b" d="M549 521q7-4 10-12c10-21 10-46-1-67l9 4q17 9 26 26v1l-3 12c-7 17-21 33-39 38l-1-1z"/><path fill="#f08774" d="m865 575-10-9-20-20a67 67 0 0 0-62-19l-42 6q13-9 22-21v-1l-14 7 19-29q11-9 18-20l14-22 3-6q9 3 17 10l15 15 7 9q12 21 18 38l10 30q5 17 5 32"/><path fill="#f4be9a" d="M558 533q6 11 16 18-2 20 0 45 3 31 17 54 10 18 24 33v1q-4 3-7 9-11 12-26 20l-9 6-23 10q-31 12-67 15-51 5-101-10l-24-25q-15-19-28-44-15-27-27-56-6-17-18-33l2-13q17 11 36 12 25 0 44-14 17-13 20-33l14 2 15-1c24-2 40-20 48-41q7-19 9-38l2-4 1 1v1l7 34q3 10 10 23 3 6 8 11l-1 1-21 7-31 8-7 1c-3 0-9 1-10 5l2 4h6l2 1q13 17 34 20 21 0 33-16 7-8 8-19h1l8 3q16 6 33 2"/><path fill="#f08774" d="m662 485 1 7 8 60q1 5-1 16l-2 9v1h-20q-21 0-28 20l-4 16-2 21q-3 14-2 28-20-25-26-57l-3-23q-1-22 4-44l4-14 8-11 8-11q20-25 49-42v1q2 12 6 23m-275 43q-3 20-20 33-19 14-44 14-19-1-36-12l6-21q7-16 18-34l8-10q11-10 23-14h1l12 22 13 12q9 7 19 10"/><path fill="#efd9b0" d="M184 570q-12-12-20-26l-28-48 24-8q12-3 25 0 15 5 24 19l1 1q0 8-5 16l-10 22z"/><path fill="#e0c197" d="m136 496 28 48q8 14 20 26-17 38-38 75l-5-10v-1l-6-9-19-26q-16-21-18-47v-16l19-24 7-7 6-5z"/><path fill="#f08774" d="M574 551q-10-7-16-18 15-6 25-18-6 17-9 36"/><path fill="#f2a588" d="M865 575q0 11-2 20l-4 30c-9 0-19 0-26-8l-12-14q-14-13-33-20c-18-6-32-2-53 2l-23 2 3-5-1-4-9-27v-1q9-7 19-12l7-5 42-6q35-6 62 19l20 20z"/><path fill="#f8f1f1" d="m506 524 1 1q0 13-10 21-9 8-22 8-15-1-24-14l25-6z"/><path fill="#cfa67b" d="M98 536v16q2 26 18 47l19 26 6 9v1l5 10-10 18v1l-2 4h-1v-7q-2-18-15-30-21-21-50-19-14 0-23 7h-1q24-41 51-79z"/><path fill="#b5655b" d="m283 541-2 7q-5 7-11 12-5 3-11 2l-18 2h-7q-16-1-31-11a1 1 29 0 1 0-2l2-5q7 8 17 13 6 4 11 4l12-1 18-3q6-2 10-7z"/><path fill="#c49468" d="m201 602-19-4 16-36h1q13 9 28 12v1q-16 10-26 27"/><path fill="#f08774" d="m696 576 1-5h1l2 5h-1zm-425-3-5 9-25 21-11 5-10 7-1 1q-5-1-10 1h-2l-1-1q8-20 26-31 11-8 22-11z"/><path fill="#b5655b" d="m241 603 25-21 5-9h4l1 1q-2 13-1 27h-1l-6-2q-13-1-27 4"/><path fill="#f4be9a" d="m859 625-4 18q-17 1-30 11l-20 16c1-16-19-21-32-18-13 4-26 14-31 27q-3 9 1 17l-23-8-22-11c-25-12-34 7-43 26a96 96 0 0 1-30-66c0-12 1-29 7-40 4-8 13-8 20-8l38-2h22l23-2c21-4 35-8 53-2q19 7 33 20l12 14c7 8 17 8 26 8m-53-18a20 15-35 0 0-25-1 20 15-35 0 0-7 24 20 15-35 0 0 24 1 20 15-35 0 0 8-24"/><path fill="#f2a588" d="M382 734q-28-9-51-27l-3-3q-10-11-17-23l-10-24-4-7-9-23q-6-24-3-51 12 16 18 33 12 29 27 56 13 25 28 44z"/><path fill="#e0c197" d="M201 602c-3 6-8 15-4 21q3 5 8 5-15 15-25 32l-4 9c-2 11 6 22 18 19l-13 18q-27-1-49 17c-17 14-21 35-21 56 2 39 19 80 55 98q22 11 48 16 48 13 94 21 31 5 61-1l33-5q17-4 34 0l25 8q18 5 39 3l30-4q20-1 37-9l22-10q21-9 43-8l8 1h14l-8 3-27 11q-61 16-107 30l-13 3h-14l-2-1q-11-4-18-10-10-7-22-6-10 3-18 8-15 6-36 9l-14 3-33 8c-13 2-23 0-38-3l-13-3q-15-3-26-10l-12-10c-6-5-12-1-17 2l-57-18q-32-10-54-34-28-32-36-74-6-25 1-51l6-20q12-1 20-11 11-14 19-30 25-43 47-87z"/><ellipse fill="#f8f1f1" transform="rotate(-35 1369 -935)" rx="19.6" ry="15.2"/><path fill="#f08774" d="m270 611-2 8-7 14-8 11-5 2q-19 9-33 22l-3 1-10 4-11 4c-15 0 8-27 11-30q15-17 30-27 18-13 38-9"/><path fill="#b5655b" d="m253 644 8-11 7-14 2-8 4 2 1 3 4 26v1l-10-2-8 1z"/><path fill="#c49468" d="M69 715q-5 4-8 9c-15 18-13 40-6 61q12 36 30 70-9-1-16-5-4-3-8-10l-17-27-4-9q-5-20-8-41l-4-30 1-31 3-33 6-20c2-4 10-11 6-16l5-4q10-6 21-7 18 0 34 10v12q-2 9-5 14-14 23-41 30l-5 3q-3 3-1 7v1q8 9 17 16"/><path fill="#b17a5c" d="M44 633c4 5-4 12-6 16l-6 20-3 33-1 31 4 30q3 21 8 41-12-19-19-39-6-15-7-29l-2-26 2-16 3-13q4-13 12-29 7-11 15-19"/><path fill="#b5655b" d="M614 635q2 22 9 41l-11-13q-1-14 2-28"/><path fill="#f7ca8c" d="M855 643q-5 17-13 31c-13 21-38 32-62 43q-23 9-46 12-12 1-25-1-14-2-24-6-16-6-30-19c9-19 18-38 43-26l22 11 23 8q10 14 28 9 12-4 21-13 10-8 13-22l20-16q13-10 30-11"/><path fill="#b17a5c" d="m114 642 4 7c7 12 6 32-2 43v2l-2 4v1q-7 16-22 17-5-1-13-6t-14-12v-1l6-2q22-10 35-29 7-11 7-24"/><path fill="#f2f1ee" d="M805 670q-3 14-13 22-9 9-21 13-18 5-28-9-4-8-1-17c5-13 18-23 31-27 13-3 33 2 32 18"/><path fill="#f08774" d="M275 652q-1 15-5 25-5 18-20 32l-6 8-4 2-6-19q-2-17 2-35l11-7q14-7 28-6"/><path fill="#b5655b" d="m244 717 6-8q15-14 20-32 4-10 5-25l7 2 7 4q4 4 5 9l5 12 3 9 3 9 1 8-3 3-8 1-31 3z"/><path fill="#f4a670" d="M236 665q-4 18-2 35l6 19-7 2-12 4c-11 3-26 11-32 13-3 2-9 3-10-2q0-7 4-12 8-17 23-34 15-15 30-25"/><path fill="#b5655b" d="m622 692 1-1 6 6v2l-2 13a1 1 0 0 1-2 0l-5-5-1-5z"/><path fill="#efd9b0" d="M181 706q-6 9-10 19c-4 9-3 21 8 24q7 3 14-1l19-8q16-8 35-12 21 5 41 12l41 17a265 265 0 0 0 146 16l34-5q28-5 58-2l50 5 1 4 1 1q6 2 9-3l4-11 11-26 3 3 16 3h5l18 8 21 13q11 8 24 3c9-6 8-16 5-25l1-1q21-2 43-11l17-7q14-6 27-14l22 84q4 12 4 24c0 29-33 35-55 36l-32 1q-38-1-69 22l-14 11-25 3h-14l-8-1q-22-1-43 8l-22 10q-17 8-37 9l-30 4q-21 2-39-3l-25-8q-17-4-34 0l-33 5q-30 6-61 1-46-8-94-21-25-5-48-16c-36-18-53-59-55-98 0-21 4-42 21-56q21-18 49-17"/><path fill="#cfa67b" d="M899 789q0 5 2 8l7 10 1 2 3 13 4 22 1 6-1 1-37 21-14-7h-1l-11-10 9-11c12-16 6-38 1-55q-12-34-27-67l-3-6-5-12 4-3h1l9 16 2 3 35 42z"/><path fill="#f2f1ee" d="m631 738 7-33 1-1 5 2a1 1 0 0 1 0 2z"/><path fill="#e0c197" d="m828 704 5 12 3 6q15 33 27 67c5 17 11 39-1 55l-9 11q-5-2-8 0-4 1-5 5l-1 11-1 1-16 3-6 2-2 1q-23 0-43-4c-7-2-14-14-22-7l-9 10q-5 4-11 4l-50 5 14-11q31-23 69-22l32-1c22-1 55-7 55-36q0-12-4-24l-22-84z"/><path fill="#cfa67b" d="M69 715q9 8 19 11h8l-6 20q-7 26-1 51 8 42 36 74 22 24 54 34l57 18q-12 5-25 3l-26-7-32-10-15-6q-14-6-26-16-7-6-11-13l-3-11q-1-6-8-7l-5-1q-18-34-30-70c-7-21-9-43 6-61q3-5 8-9"/><path fill="#f4a670" d="m653 715 16 12q26 13 54 14l1 1q3 5 2 12l-2 2q-4 2-9-1l-9-5-19-11-10-5-27-11-1-1z"/><path fill="#e0c197" d="M576 730h3q2 13 14 10l29-4-5 35-50-5q-30-3-58 2l-34 5q-42 7-84 2-31-5-62-18l-41-17q-20-7-41-12 9-4 17-5l34-3 11 1q13 2 19 5l12 4 4 1 9 3q37 18 79 21c48 4 98-3 141-24z"/><path fill="#cfa67b" d="m622 736-29 4q-12 3-14-10h-3l4-1q15-4 31-5l12 2v1z"/><path fill="#c49468" d="M667 742h-5l-16-3-3-3 1-3h1z"/><path fill="#b17a5c" d="m914 875-5 1-16-1q-5 0-13-4l37-21 1-1-1-6-4-22-3-13-1-2-7-10q-2-3-2-8l22 28q8 10 15 23l2 8q1 2-1 3-9 3-15 11-2 7-8 13m-467 56-8 2q4-3 8-2"/></svg>