<svg fill="none" xmlns="http://www.w3.org/2000/svg" viewBox="0 0 108 99"><path d="M14 76c-2.7 1.1-5.2 2.3-7.8 3.6l-1.5 1.7c-.6 1.6-.5 4.1-.7 5.8l.7 1.6 1-.4S6 87 8.2 84.5l2.2-1.8 8.9-5.2-5.5-1.5Z" fill="#8BD7FD"/><path d="M19.3 77.4C16 80 11.7 81.5 8.6 84.5L8 85.6c5.3-3.2 10.7 2 15.5 3.5 1.1.4.1-.3 0-1 0-.4.2-1 .6-1.7v-1.2l-3.3-.9.6-3 1.7-1.2c.3-.6 2-1.4 2.3-2l-3.5-.8h-2.5Z" fill="#1371F1"/><path d="M86.2 71.7c1.8 2.8 4.7 6.7 12.6 10l.7 1.2c-5.3-3.3-12.8 3.9-17.6 5.3-1.2.4-.2-.3 0-1 0-.4-.2-1-.7-1.8v-1.1l3.3-.9-.6-3-1.6-1.2c-.4-.6-2-1.4-2.4-2l3.6-.8 2.7-4.7Z" fill="#1371F1" stroke="#564341" stroke-width="1.2" stroke-linejoin="round"/><path d="M86.1 77v-4l-.1-3-.8-2.9-.6-2-1-1.7-1-1.5-.7 2-1.4 2.3-1.2 1.4-1.4 1.2-2.7 1.4h-2.5l-2.4-1.1-2.2-1.2-1.5-2-.5-1.5-.9-5.1-.3 1-1.4 2.5L62 65l-2.2 2-1.7.9-2.3.6H54l-4.8-2.2-2.3-2.9-.8-1.5-2 3.9-2.1 2.7-3.4 3.6-3.4 2.2-3 2.2c.2 1.2.6 2.1 1.3 2.7 1.7 1.3 2.8 3.7 4.4 4.9 2 1.5 3.9 2.2 5.7 3.3 1.7 1.1 2.2 3.1 3.7 4a24 24 0 0 0 12.2 3.3c1.6.3 3.8 0 5.5 0 1-.3 3.8-.5 5.2-1.1 2.2-1 5.7-2.2 7.8-3.6 2.6-1.6 4.2-4 4.8-4.8.6-.7 1.2-2.1 1.7-3 .5-1 .7-2 1-3l.5-2.3Z" fill="url(#a)"/><path d="M39.7 72.6c3 4.4 14.1 1.8 14.1-3.8 0 0-3.1-.7-4.5-2l-3-3.7c-1.7 3.3-6.6 7-7 8.7l.4.8Zm35.5-2c-.2 4.5 7 6.6 10.4 4.5.2-4.3-.3-8.8-3-12.2-.8 1-.8 3-3 5a15 15 0 0 1-4.4 2.7Z" fill="#F28773"/><path d="M60.9 68.5c.6 2.4 4.3 3 6.8 3.4-2.2.7-4.6.4-6.6-.7-1.1-.5-2-2.3-.2-2.7Z" fill="#564341"/><path d="M32.2 77.8c-.5-.9-7.7.5-11 4.4-1.5 1.7.7 2.6 2.3 2.3 4.8-1.2 4.1-4 11.1-3.3 0 0-1.2-1.4-2.4-3.4Z" fill="url(#b)"/><path d="M35.4 82c-3.3-1.2-8.4 0-11 3.5-.9 1.2-2.3 4.8-.7 4.4 4-.9 6.8-.9 7.4-1.3 1.8-1.7 3.1-3 7.9-3.1-.6-.8-2.4-3-3.6-3.5Z" fill="url(#c)"/><path d="M41.6 86.2a9.4 9.4 0 0 0-9.8 2c-6 5.4-5.2 8.7-5.2 8.7l.6 1.1A35 35 0 0 0 38 96c3.8-1 7.8-1.4 11.5-2.6 0 0-6.6-6.3-7.8-7.2Z" fill="url(#d)"/><path d="M71.6 93.8a51 51 0 0 1 13.8 3.6l1.1.3.9-.1c1.2-2-.7-4-2-5.5-1.1-1.2-3.1-1.8-4.7-2-3.4-.4-6.2 2.3-9.1 3.7Z" fill="url(#e)"/><path d="M78.4 90.3a8 8 0 0 1 8.1 2.5s1.7 1 2.1.7c.5-.3 0-2.2-.3-2.7-1.5-2.8-2.6-4.5-5.5-5.3-1.4 1.6-2.8 3.4-4.4 4.8Z" fill="url(#f)"/><path d="M83.4 85.3c4 1.3 3 2.7 6.6 3.6.2 0 .2-1 .2-1.3 0-1-3-3.7-4.7-4.8-.7-.4-2.4 2.4-2 2.5Z" fill="url(#g)"/><path d="M68 39.3c.2 1.4-.2 5.2-.2 5.2 11.3-3 26.7-19.7 4-16.5 2.3-3.4 7.2-5.3 9-9.3v-.5A37 37 0 0 0 54 32l-.5 1.5.7 1.7c4.7 1.5 9.7 1 14.5 1.4 0 0-.8 2.3-.7 2.7Z" fill="url(#h)"/><path d="M65.7 57.6c-2 6.6 5.4 8.1 10.5 5.7 11.2-9 8.2-29.9-8.6-17.4-1 1.5-.8 5.6-.8 5.8l-1 5.9Z" fill="url(#i)"/><path d="M46.8 59c.4 3 6.4 3.7 9.6 2.3 7.3-2.4 9.5-16.7 6.6-21-.3-.3-4-.8-5.4-1-4.2-.4-9 3.5-11.2 9-.6 1.4.2 3.2.3 4.7.2 2-.1 4.4.1 6Z" fill="url(#j)"/><path d="M46.7 60.3s11 7.7 16.6-7c1.3-3.7.7-9.3.8-11.8 4.8 2.4 1.2 15.7.8 17.3-1.2 5.7-6.7 10-11.4 8.9-7-1.9-6.8-7.4-6.8-7.4Zm19 2.6 1 .4c3 2.2 7.4 1.4 10.3-.6 4.3-3.5 4.7-8.1 6.4-13l.3.4c.6 5-.6 10-2.3 14.7-4 7.8-14.3 7.2-15.6-2Z" fill="#fff"/><path d="M68 51.7a9 9 0 0 0-.5 5.8c1.2 2.9 4.7 3.1 6.6.9C79.8 52.3 73 42 68 51.7Zm-9.8 0c1-12.5-12-5.7-8.7 3.3 2.8 4.5 7.7.4 8.7-3.3Z" fill="#fff"/><path d="M85.2 84.4c.1.8.6 1.6.6 1.6l-1.1-.8-.9-.4 1-1.7.5.2s-.2.5-.1 1.1Z" fill="url(#k)"/><path d="M82.7 88.7c.3.8 1.4 1.7 1.4 1.7l-2.8-.8-1.3-.2 2.4-2.6s0 1 .3 1.9Z" fill="url(#l)"/><path d="M30.7 97.3s7.7-2.3 10.9-5.5c2-2 .3-4.8.7-4.6 2 1 2.7 2.3 4 3.9.5.7 3 2.3 3 2.3s-4.1.6-5.8 1c-3 1-12.8 2.9-12.8 2.9Z" fill="url(#m)"/><path d="M78.5 91.7c.3 1.7.8 2.2 4 3.9l-5-1.4-4.3-.8L76 92c.7-.5 2.6-1.3 2.6-1.3l-.2.9Z" fill="url(#n)"/><path d="M30.7 88.1c-.4.2-1.8.3-3.1.7l-2.2.6c-.4.1-1.2.2-1.5 0l-.2-.4c3.8-.8 6-1.8 7.7-2.8 2.8-1.7 3.3-3 3.6-4 0-.5 1 .5 1.4.8l2 2-3.6.7c-1.8.5-3.6 2.3-4.1 2.4Z" fill="url(#o)"/><path d="M21 84c3.4-1.3 6.8-2.5 10.5-6.2.3-.2 1 .4 1 .6.6 1.2 1.5 2.5.9 2.4a9.7 9.7 0 0 0-7.5 2.4c-1.2.9-5.2 1-5 .8Z" fill="url(#p)"/><path d="M85.7 68.3c.2 1.1.2 4.1.6 4.3 6.9 4 17 3.6 18.9-5.2l1-.1 1-1 .6-5.1-.5-2.4-1.1-2.2-2.8-3.2-3-1.7-3.3-1-3.9-.4-3 .3-3.5.8-2.6 1.7-.8 4c-.1.7-.1 2.2-.4 2.9l-.1 1.5.4 1.7c1 1.9 2 3 2.5 5.1Z" fill="url(#q)"/><path d="M88.7 74c-4.7-10.8.7-21.5 13-21.3a15.3 15.3 0 0 0-8.5-2.4l-1.6.3h-1.3c-2 .5-4.6 1-6.2 2.6 0 1-.6 3-.8 4-.3.7-1 2.8-1 3.5l1.2 2.9c.8 1.6 1.3 2.3 1.7 4.1l.8 2.9.3 2 2.4 1.3Z" fill="url(#r)"/><path d="M92.7 60c.2-.5 0-1.4-.7-1.9-.8-.5-2-.4-2.4.6-.4.8.2 1.6 1 2 .7.4 1.7 0 2-.8Z" fill="url(#s)"/><path d="M102.7 59.6c-.6 1-2.6 1.9-5 1.1-2.6-.8-5.6-3.5-3.3-6.5 1-1.3 3.7-1.3 5.6-.3 1.4.7 4.2 3 2.7 5.7Z" fill="url(#t)"/><path d="M86.2 62.2c1.2 2.2 2 3.5 5.8 3.5 1.3 0 1.6 2 4 4 1.3 1 3.7 1 5.2.2.8-.5 1.1-.3 1.4-.2.6.4.7.3 1.5.2 0 0 .9-1.3.5-2.2-1-.7-2-1.3-3.4-1.3l-.9.8-.6 1-.7.4h-1.1c-1.1-1-2-2-2.8-3.3-1.7-1.6-3.4-1.3-5.5-1-1-.6-2.3-1.6-3.4-2.1Z" fill="#ED8870"/><path d="M27.8 82a27.3 27.3 0 0 0 19-21.6v-2l.3-1.5c-.2-1.5 0-3.6-.2-5l1.2-.6 1-.2.8-.6c.5-1.2.5-1.1.4-2.5C42 31.8 15.9 28.2 5.7 44.1-5 59.1 4.5 85.3 25 82.8l2.8-.7Z" fill="url(#u)"/><path d="M19.6 74c.6-3.2 17.8-5.3 19.5-11 .8-5.6 2.8-6.2 7.7-6.7v-2.9l-.7-.6-5.7 1.2c-1.2 0-3 0-4 .3l-.5 1.7c.6 1.1 1.2 5.2 1.2 5.2l-.4 2.3C31.5 67.6 24.2 68 18.5 71l-.3 1 1.4 2Z" fill="#F28773"/><path d="M32 81.5c-20.6 1.8-30.3-25-21.5-41.6 0 0-3 2.4-3.5 3-4 6.2-6.3 11-5.6 19.5l1.2 6 2 4a19 19 0 0 0 22 11l2-.4 3.5-1.5Z" fill="url(#v)"/><path d="M28.7 55.5c1.4 1.6.7 3.7-1 5.6-1.7 2.2-4.9 2.5-6.5.9-1.3-1.2-1.6-3.8 1.2-6.2 2.5-2 5.2-1.7 6.3-.3Z" fill="url(#w)"/><path d="M23.9 43.8c1.7 1.8 2.3 6-2 10.3-3.2 3.2-9.3 6.9-13.5 2.3-3-3.4 0-8.6 3-11.3 2.4-2 9-5 12.5-1.3Z" fill="url(#x)"/><path fill-rule="evenodd" clip-rule="evenodd" d="M17.8 34.5c14-4.2 25.4 3.1 32.4 10.8l-.5.4.6-.3a4.4 4.4 0 0 1 .3.5l.5 1.4.4 1.7a3 3 0 0 1-.4 1.8c-.5.8-1.2 1.2-2 1.4l-1 .3h-.7c.3 3 .6 7.1-1 12.4-.5 2-2 5-4.1 7.9a34 34 0 0 1-8.7 8.1 21.8 21.8 0 0 1-12 3.8c-4.4 0-9-1.7-13.7-5.6a22.2 22.2 0 0 1-4.8-7.2 34.2 34.2 0 0 1-3-12.2A23 23 0 0 1 3.3 46c2.7-4.5 7.3-8.5 14.4-11.5ZM49.3 46c-6.9-7.4-17.8-14.3-31.1-10.4a28 28 0 0 0-13.8 11 22.4 22.4 0 0 0-3.2 13 33 33 0 0 0 3 11.8 23 23 0 0 0 4.5 6.8 21 21 0 0 0 13 5.3c4 0 7.9-1.4 11.2-3.6a30.3 30.3 0 0 0 12.3-15.3c1.7-5.4 1.3-9.5 1-12.4v-.6h.4l1-.3a65.8 65.8 0 0 0 1.2-.3 2 2 0 0 0 1.3-.9l.2-1c0-.5-.2-1-.3-1.4a10.4 10.4 0 0 0-.7-1.7Z" fill="#564341"/><path d="m36.2 54.8.4.5-.4-.5Zm.5 8.2-.5-.2.5.2Zm-18.6 8.2-.4-.4.4.4Zm1 3.4a.6.6 0 0 0 1-.7l-.5.4-.5.3Zm27.5-22.5-.1-.5-6.3 1.4a54.3 54.3 0 0 0-4.3 1.3l.3.5.4.5.4-.2.9-.3 2.6-.6 6.3-1.5-.2-.6Zm-10.4 2.7-.3-.5c-.7.5-.8 1.3-.8 2s.3 1.6.5 2.4l.6 2.3v1.8l.5.2.6.2a4 4 0 0 0 0-2.4c0-.8-.3-1.7-.6-2.5l-.4-2c0-.6.1-.9.3-1l-.4-.5Zm.5 8.2-.5-.2c-.1.3-.4.6-.9 1s-1.2.8-2 1.1c-1.6.8-3.7 1.5-5.8 2.2l-6 1.9-2.3.9c-.6.2-1.2.6-1.5 1l.4.3.5.4 1-.6 2.2-.9 6-1.9a51.4 51.4 0 0 0 8.2-3.4c.6-.5 1.1-1 1.3-1.6l-.6-.2Zm-18.6 8.2-.4-.4c-.4.5-.5 1-.4 1.5 0 .4.3.8.5 1.1l.8.8.4.3.1.1.5-.3.5-.4-.3-.3-.4-.3a6 6 0 0 1-.6-.7l-.4-.5c0-.1 0-.3.2-.5l-.5-.4Z" fill="#564341"/><path fill-rule="evenodd" clip-rule="evenodd" d="m51.7 40-.6 2c.5 1.4.3 2.4-.8 3l-.3.2.2 2 .2 1.6c1.1-2.6 3-3.9 4.8-3.4 2 .5 3 3 2.2 6.1-.8 3.3-3 5.2-5 4.8-2-.4-3.2-2.7-2.6-5.8l-.8.5c-.8 4.5-1.5 8-2.7 12.4 1 2.2 2.8 4 5.2 5h.1c3.3 1.3 7 .7 9.6-1.6l.1-.1c1.5-1.3 2.6-2.8 3.5-4.6.5 2.5 1 3.8 1.9 5.2a9.3 9.3 0 0 0 7 3.8 9 9 0 0 0 6.7-3.6c1-1.2 1.7-2.5 2.3-4A19.6 19.6 0 0 1 84.2 81c-1.6 4.6-4.8 8-9.5 10.3A31 31 0 0 1 60.3 94c-3 0-4.7-.2-6.4-.5a14.1 14.1 0 0 1-6.1-2.6l-1.4-1.5c-.9-1.1-1.2-1.5-2-2.2a18 18 0 0 0-4.2-2.5l-1.1-.8-.8-.8-.5-.4v-.1h-.1l-.8-1-.4-.3-1.3-1-.4-.4a26 26 0 0 1-1.5.8c-2.3 1-4.9 1.8-7.8 2.4l-.3.1a22.7 22.7 0 0 1-2 .6c-1 .2-1.7.2-1.9 0v-.2l-1.5-.1c0 .4 0 .7.3 1 .6 1 1.7 1 3.3.8l.4-.1c-.6 1-1.2 2.2-1.4 3h-.1a26 26 0 0 1-5.4-2.8c-.8-.5-3-1.2-4-1.3-1 0-2.4.1-3.7.5a31 31 0 0 1 3.9-2.7l-1.2-.6c-2 1.2-3.6 2.5-4.7 3.6-.6.7-1.2 1.5-1.7 2.4l-.2.4-.3.5V88l-.4-2.2c0-2 .2-3.8.8-4.4.6-.9 1.6-1.6 3.1-2.3l-.8-.8a9 9 0 0 0-3.2 2.4c-.7 1-1 2.9-1 5 0 1 .2 1.8.4 2.6 0 .4.2.6.3.9.2.3.5.5.8.5.4 0 .6-.2.8-.5l.3-.7.1-.1.1-.2V88l1-1.4c1.1-.8 4-1.6 5.5-1.4.8.1 2.9.7 3.5 1.1a26.7 26.7 0 0 0 6.2 3.1 1.8 1.8 0 0 0 1.2 1.3c.6.2 1.2.1 2 0l.1-.1h.3l.1-.1 1-.3h.2l1.5-.5a10.7 10.7 0 0 0-3 6.2c-.2 1.1 0 2 .8 2.5.9.7 2.3.7 4.2.3l1.6-.4.6-.2.6-.1a56.1 56.1 0 0 1 4-1h.4l.3-.1 3-.7a29 29 0 0 0 2.2-.6 23 23 0 0 1 8.5-1l1.5.3a42.5 42.5 0 0 0 16-.2h2.2c1.2 0 2.5.2 4 .5l.8.1.8.2c1.3.3 2.7.7 4 1.2l1.5.6h.1l.3.1h.1l1.6.7c1.2.4 2 .5 2.7.2 1.2-.6 1.2-2.3.5-4 .4.2.8.1 1 0 .8-.6.9-1.5.6-2.5a12 12 0 0 0-1-2.2c1 .2 1.6.1 2-.4.6-.6.5-1.4 0-2.4a9 9 0 0 0-3.3-3.8c-.6-.5-1.3-.9-2-1.2v-.3l.1-.3c1-2.4 1.5-5 1.4-7.6l1.1.5.5.2.1.1.4.2c4.6 2.3 10.6 1.5 13.8-1.9.8-.8 1.6-1.8 2.1-2.8.3-.5.5-1 .5-1.7V68a1.8 1.8 0 0 0 1.5-1.3c2.5-6.5 0-12-5.6-15-5-2.7-11.6-2.8-16.6-.2 0-1.5-.2-3-.7-4.4a9.8 9.8 0 0 0-3.2-4.4 7.8 7.8 0 0 0-4.6-1.5c4.9-3 8.4-7 8-10a4.4 4.4 0 0 0-2.5-3.5 10 10 0 0 0-4.2-.9h-.2c-1.2 0-2.4 0-3.7.2l.4-.4h.2v-.1l.7-.6a88.5 88.5 0 0 0 5.6-5c1-1.1 1.4-1.9 1-2.6-.6-1.3-3.9-1.1-8-.2a47.4 47.4 0 0 0-17.5 10.2c-.9 1-1.6 1.7-2.2 2.6-1 1.3-1.3 2.5-1 3.5.6 1.2 2 1.9 4.7 2.3h.6c1.7.3 3.7.4 7.6.6H67l.2.3v2.7a49 49 0 0 1-.5 3c-1.8-3.7-6.4-5.6-11.8-4.6a9 9 0 0 0-3.3 1.3ZM38 86.4h2.3a15.3 15.3 0 0 1 3.6 2.3l.1.1 1.3 1.5a10.1 10.1 0 0 0 3.3 2.8c-1.8.2-3.7.6-5.4 1.1l-2.1.6-.5.1-2.2.5h-.5l-.2.1h-.2l-.2.1a63 63 0 0 0-4 1l-.6.1-2.1.6c-1.5.3-2.6.3-3 0-.6-.4-.4-1.7.5-3.8a16 16 0 0 1 3.9-4.7 9 9 0 0 1 3.7-2c.5-.2 1-.3 1.6-.3h.6Zm39.4 5a6 6 0 0 1 2.7-.7c1.4 0 3 .5 4.6 1.7l.7.5v.1l.3.3c.6.6 1 1.3 1.3 2.1.3.9.2 1.4 0 1.6-.2 0-.7 0-1.5-.3l-1.3-.5-.3-.1h-.2l-.2-.2a117.3 117.3 0 0 0-5.8-1.8l-.4-.1h-.4l-3.3-.7 1.8-.8h.1a23.8 23.8 0 0 0 1.9-1Zm2.9-2.1c1-1 2-2 2.9-3.2a8.7 8.7 0 0 1 4.2 4l1 2v.1c.1.4.1.6 0 .8l-.5-.2c-.5-.2-1-.5-1.5-1l-.9-.6a9 9 0 0 0-5.2-2Zm-51.5-6.6c1.7-.8 5.2-.8 6.9-.1l.6.5s0 .2.2.3l.2.2h.1l.4.5.8.8-2.7.4c-1.1.3-3 1.3-4.2 2.3l-.3.3a15.8 15.8 0 0 0-3.7.8h-.2l-.1.1-1 .3h-.1l-.4.1c-.5.2-.9.2-1.1.1-.2 0-.3-.2-.3-.6 0-.3.2-1 .6-1.8v-.1l.1-.1a9.4 9.4 0 0 1 2-2.5c.6-.6 1.4-1.1 2.2-1.5Zm55.2 2 .8-1.5 2 1c.7.5 1.4 1.1 2 1.8l.8 1.4.2.7v.1h-.2a3 3 0 0 1-.9 0 5 5 0 0 1-1.1-.6 11 11 0 0 0-3.6-2.8Zm1-32a17 17 0 0 1 15.9 0c2.4 1.2 4.3 3 5.2 5.3 1 2.4 1 5.3 0 8.4-.3.5-.8.6-1.5.4l-.5-.3-.4-.3c-.7-.4-1.2-.6-1.8-.7a2 2 0 0 0-1.5.6l-.6.8-.3.4v.2l-.6.4c-.9.2-1.5-.3-2.6-2l-.2-.2-.2-.3c-.6-.9-1-1.4-1.7-1.6a4.8 4.8 0 0 0-3.4-.5h-.3c-.3.2-.7.1-1 0a9 9 0 0 1-2.6-2 .5.5 0 0 0-.8 1c2.4 2 3.4 2.4 4.7 2.1h.2c.8-.2 1.4-.2 2.7.4a121.7 121.7 0 0 1 3.1 3.6c.7.5 1.4.7 2.3.5a1.8 1.8 0 0 0 1.1-.8l.2-.3.1-.2.6-.7c.2-.2.4-.3.7-.3.3 0 .7.2 1.2.5l.2.2.2.1.5.3c.5.2.6.8 0 1.7-.5 1-1.1 1.8-1.9 2.5-2.9 3.1-8.3 3.8-12.5 1.7l-.4-.2H89l-.5-.3a15 15 0 0 1-1.6-.8 21 21 0 0 0-3.6-10.4v-.1c.8-3 1.3-6 1.4-9h.2Zm-3 4.5c.7-2.1 1.2-4.1 1.4-6v.1c0 3-.6 7.6-1.6 10.7-.6 1.7-1.5 3.2-2.5 4.6-1.6 1.9-3.4 3-5.6 3a7.9 7.9 0 0 1-5.8-3.1c-.6-.8-1-1.6-1.2-2.5 1.2 1 2.9 1.4 4.7 1.3 1.6 0 3-.4 4.5-1 2.8-1.5 5.1-4.5 6-7.1Zm-18.6-2.4c1.6-4.5 1.9-8.5 1.3-12v-.1a7.3 7.3 0 0 1 1.6 5.2c-.3 4.5-.6 7.1-1.3 9.7a16 16 0 0 1-4.7 8 7.8 7.8 0 0 1-8.2 1.4 7.8 7.8 0 0 1-5-5.6v-.1c1.3 1.2 3 1.7 5 1.7s4.2-.6 5.2-1c2.9-1.5 5.2-4.6 6.1-7.2Zm9.3-11.5c2.3-1 5.6-.8 7.3.5.7.6 1.4 1.3 1.9 2 .4 3.3.1 6.9-1.3 10.9-.8 2.2-3 5-5.4 6.2-.8.4-2.4.9-3.8 1-2 0-3.7-.6-4.6-2l-.5-1-.3-1.6.6-2.1c.6 1.8 2 3.1 3.7 3.5 2.7.5 5.6-2 6.5-5.8 1-3.8-.3-7.3-3.2-8-2.4-.6-4.6.7-6 3.4a89.2 89.2 0 0 0 .1-3.7v-.1c.4-.8 2.3-2 4.5-3h.2l.4-.2Zm-17.5-3.2c3-.5 5.7-.1 7.7 1v.2l.1.5.2.9A22 22 0 0 1 62 54.3a12 12 0 0 1-5.3 6.3c-.9.4-2.9 1-4.5 1-2 0-3.5-.6-4.4-1.9.5-1.4.9-3 1.1-4.5a4.7 4.7 0 0 0 3.3 2.5c2.7.5 5.6-1.9 6.6-5.7v-.1c.9-3.8-.4-7.2-3.3-8-1-.2-2.1 0-3.1.4.2-.8.2-1.8-.2-2.8.9-.7 2-1.2 3-1.4ZM68 53.2c1-3.6 3.1-5.4 5.2-4.9 2 .5 3 3.1 2.2 6.2-.7 3.2-3 5-4.9 4.7-2-.4-3.3-2.8-2.5-6Zm10.4-34.4H80l.2.1-.7 1a151.4 151.4 0 0 1-5.5 4.9l-.6.5-.2.2-.7.5-.1.1-1 .9-.3.3-.2.2-.1.5a.7.7 0 0 0 .6.7h.3l1.2-.1h.1l.7-.1c1.5-.2 2.7-.3 3.8-.2 3.2 0 5 1 5.4 3 .3 2.6-3.7 6.9-9 9.6l-2.4 1.3h-.1l-1.6.8h-.1l-1.4.6.6-5.5 1.3-.3h.8l.7-.2h.6l.1-.2c.2-.1.3-.3.3-.6s-.1-.5-.3-.6h-.2l-.3-.1h-1.4l-4.7-.3c-4.3-.2-6.2-.3-8-.6-2.1-.3-3.3-.8-3.5-1.3-.3-.9.9-2.6 2.9-4.6A46.5 46.5 0 0 1 74 19.5c1.4-.3 3-.6 4.4-.7Z" fill="#564341"/><path d="M10.8 38.3a.5.5 0 0 0 .8.2c3.6-2.2 5.6-3.2 10-4a.5.5 0 0 0 .3-.7L18.7 25a6 6 0 0 0-11.2 4l3.3 9.3Z" fill="#8BD7FD" stroke="#564341" stroke-linejoin="round"/><path d="m12.5 33.5-2.5.9 1.3 3.7 2.4-1.3-1.2-3.3Zm2.3-1.2.9-.3 1.1 3.2-.8.4-1.2-3.3Z" fill="#1371F1"/><path fill="#8BD7FD" stroke="#564341" stroke-linejoin="round" d="m22.5 69.6 4.3 12L38 77.5l-4.4-12z"/><path d="m25.6 69-2.5.9 4 11 2.5-1-4-11Zm2.3-.8.8-.3 4 10.8-.9.4-4-10.9Z" fill="#1371F1"/><path d="M18.9 71.5 20 71l4 11.1-1.1.4-4-11Z" fill="#F60"/><path d="m20 71-1.1.5 4 11 1.1-.4-4-11Zm5 10.8c.2.5-.1 1-.6 1.2l-1.2.4c-.5.2-1 0-1.2-.5l-4-11.1a1 1 0 0 1 .5-1.3l1.2-.4c.5-.2 1 0 1.2.6l4 11Z" fill="#564341"/><path d="M11 21.2a6 6 0 0 0 4 11.2l46.3-16.9c.2 0 .4-.4.3-.6L57.8 4.6a.5.5 0 0 0-.6-.3L11 21.2Z" fill="#8BD7FD" stroke="#564341" stroke-linejoin="round"/><path d="M57.4 4.7 14.6 20.4l1 2.8L58.5 7.5l-1-2.8Zm1.8 4.6.3.8-44.3 16.4-.3-1L59.2 9.4Z" fill="#1371F1"/><g filter="url(#y)"><circle cx="13.2" cy="26.6" r="3.7" transform="rotate(160 13.2 26.6)" fill="#564341"/></g><circle cx="13.2" cy="26.7" r="2.2" transform="rotate(139 13.2 26.7)" fill="#FFED7E"/><path d="m16.5 14.9 7.1-2.7.5 1.2-7.2 2.6-.4-1.1Z" fill="#F60"/><path d="M23.6 12.2 16.5 15l.4 1 7.2-2.5-.5-1.2Zm1.3.8c.2.5 0 1-.5 1.3l-7.2 2.6c-.5.1-1-.1-1.2-.6l-.4-1.1a1 1 0 0 1 .6-1.2l7.1-2.6c.5-.2 1 0 1.2.5L25 13Z" fill="#564341"/><path d="m10 18.6 4-1.4-.5-1.2-4.3 1.5a9.5 9.5 0 0 0-5.7 12.3l4 11.1 1.1-1-3.7-10.2a8.5 8.5 0 0 1 5-11Z" fill="#F60"/><path d="M13.3 15a1 1 0 0 1 1.1.7l.4 1.1c.2.5 0 1-.5 1.2l-4 1.5c-4 1.5-6 5.9-4.5 9.8L9.6 40c.2.5 0 1-.6 1.2l-1.3.4-.9.4-.3-.9-4-10.8c-2-5.5.8-11.6 6.4-13.6l4.3-1.5h.1Zm-4.1 2.5a9.5 9.5 0 0 0-5.7 12.3l4 11.1 1.1-1-3.7-10.2a8.5 8.5 0 0 1 4.6-11h.4l4-1.5-.4-1.2-4.3 1.5Z" fill="#564341"/><path d="m26.5 11.2 7.2-2.6.4 1.1-7.2 2.6-.4-1Z" fill="#F60"/><path d="m33.7 8.6-7.2 2.6.4 1.1 7.2-2.6-.4-1Zm1.3.8c.1.5-.1 1-.6 1.2l-7.2 2.6c-.5.2-1 0-1.2-.5l-.4-1.1a1 1 0 0 1 .6-1.3l7.1-2.6c.5-.2 1 .1 1.2.6l.5 1.1Z" fill="#564341"/><path d="m36.5 7.6 7.1-2.7.4 1.2-7 2.6-.4-1.1Z" fill="#F60"/><path d="m43.6 5-7.1 2.6.4 1L44 6.2 43.6 5Zm1.3.7c.2.5 0 1-.5 1.3l-7.2 2.6c-.5.1-1-.1-1.2-.6l-.4-1.1a1 1 0 0 1 .6-1.2L43.3 4c.5-.2 1 0 1.2.5l.4 1.1Z" fill="#564341"/><path d="m46.6 3.8 7.1-2.6.4 1.1L47 5l-.4-1Z" fill="#F60"/><path d="m53.7 1.2-7.1 2.6L47 5l7-2.7-.4-1ZM55 2c.2.5 0 1-.5 1.2l-7.2 2.6c-.5.2-1 0-1.2-.5l-.4-1.1a1 1 0 0 1 .6-1.3L53.4.3c.5-.2 1 .1 1.2.6L55 2Zm-2.7 38.8c-.7.4-1.3 1-1.8 1.6L49 44.1l-.9-.5 1.5-1.9c.6-.6 1.3-1.3 2-1.7l.6.8Z" fill="#564341"/><defs><linearGradient id="a" x1="39.1" y1="63.5" x2="62.1" y2="99.4" gradientUnits="userSpaceOnUse"><stop stop-color="#FFBC9C"/><stop offset=".7" stop-color="#FFBC9C"/><stop offset="1" stop-color="#FFA67A"/></linearGradient><linearGradient id="b" x1="27.7" y1="77.5" x2="25.6" y2="85.9" gradientUnits="userSpaceOnUse"><stop stop-color="#F28773"/><stop offset=".3" stop-color="#F28773"/><stop offset="1" stop-color="#F6A66A"/></linearGradient><linearGradient id="c" x1="31" y1="81.6" x2="28.4" y2="91.5" gradientUnits="userSpaceOnUse"><stop stop-color="#F28773"/><stop offset=".3" stop-color="#F28773"/><stop offset="1" stop-color="#F6A66A"/></linearGradient><linearGradient id="d" x1="38" y1="85.6" x2="34" y2="100.4" gradientUnits="userSpaceOnUse"><stop stop-color="#F28773"/><stop offset=".3" stop-color="#F28773"/><stop offset="1" stop-color="#F6A66A"/></linearGradient><linearGradient id="e" x1="79.7" y1="91.4" x2="82" y2="99.4" gradientUnits="userSpaceOnUse"><stop stop-color="#F57A55"/><stop offset=".4" stop-color="#F28773"/><stop offset="1" stop-color="#FA9F6E"/></linearGradient><linearGradient id="f" x1="83.6" y1="87" x2="87.1" y2="94.4" gradientUnits="userSpaceOnUse"><stop stop-color="#F57A55"/><stop offset=".4" stop-color="#F28773"/><stop offset="1" stop-color="#FA9F6E"/></linearGradient><linearGradient id="g" x1="86.8" y1="83.9" x2="89.7" y2="89.2" gradientUnits="userSpaceOnUse"><stop stop-color="#F57A55"/><stop offset=".4" stop-color="#F28773"/><stop offset="1" stop-color="#FA9F6E"/></linearGradient><linearGradient id="h" x1="68.5" y1="18.2" x2="68.5" y2="44.5" gradientUnits="userSpaceOnUse"><stop stop-color="#FFE768"/><stop offset=".4" stop-color="#FFE768"/><stop offset=".7" stop-color="#FFBD4A"/><stop offset="1" stop-color="#FFBD4A"/></linearGradient><linearGradient id="i" x1="74.1" y1="42" x2="86.3" y2="62" gradientUnits="userSpaceOnUse"><stop stop-color="#564341"/><stop offset=".5" stop-color="#564341"/><stop offset="1" stop-color="#845750"/></linearGradient><linearGradient id="j" x1="55.2" y1="39.3" x2="67.4" y2="59.8" gradientUnits="userSpaceOnUse"><stop stop-color="#564341"/><stop offset=".5" stop-color="#564341"/><stop offset="1" stop-color="#845750"/></linearGradient><linearGradient id="k" x1="84.3" y1="83.7" x2="85.7" y2="84.7" gradientUnits="userSpaceOnUse"><stop stop-color="#C35C45"/><stop offset="1" stop-color="#B76455"/></linearGradient><linearGradient id="l" x1="81" y1="87.5" x2="82.6" y2="89.7" gradientUnits="userSpaceOnUse"><stop stop-color="#C35C45"/><stop offset="1" stop-color="#B76455"/></linearGradient><linearGradient id="m" x1="49.3" y1="90.4" x2="42.7" y2="101.6" gradientUnits="userSpaceOnUse"><stop stop-color="#AA6160"/><stop offset="1" stop-color="#B36F5F"/></linearGradient><linearGradient id="n" x1="75.4" y1="91.8" x2="77.1" y2="95.6" gradientUnits="userSpaceOnUse"><stop stop-color="#C35C45"/><stop offset="1" stop-color="#B76455"/></linearGradient><linearGradient id="o" x1="38.3" y1="84.4" x2="33.5" y2="93" gradientUnits="userSpaceOnUse"><stop stop-color="#AA6160"/><stop offset="1" stop-color="#B36F5F"/></linearGradient><linearGradient id="p" x1="33.6" y1="79.7" x2="29.6" y2="87.1" gradientUnits="userSpaceOnUse"><stop stop-color="#AA6160"/><stop offset="1" stop-color="#B36F5F"/></linearGradient><linearGradient id="q" x1="103.5" y1="54.8" x2="86.8" y2="71.6" gradientUnits="userSpaceOnUse"><stop stop-color="#FFCB87"/><stop offset=".1" stop-color="#FFCB87"/><stop offset=".4" stop-color="#FFBC9C"/><stop offset="1" stop-color="#FFBC9C"/></linearGradient><linearGradient id="r" x1="101.8" y1="50.4" x2="81" y2="72.7" gradientUnits="userSpaceOnUse"><stop stop-color="#FBC38C"/><stop offset=".3" stop-color="#F19675"/><stop offset=".7" stop-color="#F0876A"/><stop offset="1" stop-color="#ED8870"/></linearGradient><linearGradient id="s" x1="91.1" y1="57.8" x2="91.1" y2="60.9" gradientUnits="userSpaceOnUse"><stop stop-color="#FFFFFE"/><stop offset="1" stop-color="#fff"/></linearGradient><linearGradient id="t" x1="98.4" y1="53.2" x2="98.4" y2="61" gradientUnits="userSpaceOnUse"><stop stop-color="#FFFFFE"/><stop offset="1" stop-color="#fff"/></linearGradient><linearGradient id="u" x1="12.5" y1="34.3" x2="26.6" y2="82.9" gradientUnits="userSpaceOnUse"><stop stop-color="#FFCB87"/><stop offset=".2" stop-color="#FFCB87"/><stop offset=".7" stop-color="#FFBC9C"/><stop offset="1" stop-color="#FFBC9C"/></linearGradient><linearGradient id="v" x1=".9" y1="49.9" x2="26.3" y2="74.9" gradientUnits="userSpaceOnUse"><stop stop-color="#FFCB87"/><stop offset=".3" stop-color="#F79E75"/><stop offset=".5" stop-color="#EF876D"/><stop offset="1" stop-color="#ED8870"/></linearGradient><linearGradient id="w" x1="24.7" y1="54.4" x2="25" y2="63" gradientUnits="userSpaceOnUse"><stop stop-color="#FFFFFE"/><stop offset="1" stop-color="#fff"/></linearGradient><linearGradient id="x" x1="15.9" y1="42.2" x2="16.4" y2="58.4" gradientUnits="userSpaceOnUse"><stop stop-color="#FFF9CE"/><stop offset="1" stop-color="#fff"/></linearGradient><filter id="y" x="9.2" y="22.9" width="7.7" height="7.7" filterUnits="userSpaceOnUse" color-interpolation-filters="sRGB"><feFlood flood-opacity="0" result="BackgroundImageFix"/><feColorMatrix in="SourceAlpha" values="0 0 0 0 0 0 0 0 0 0 0 0 0 0 0 0 0 0 127 0" result="hardAlpha"/><feOffset dx="-.3" dy=".3"/><feComposite in2="hardAlpha" operator="out"/><feColorMatrix values="0 0 0 0 0.968627 0 0 0 0 0.411765 0 0 0 0 0 0 0 0 0.5 0"/><feBlend in2="BackgroundImageFix" result="effect1_dropShadow_2670_681"/><feBlend in="SourceGraphic" in2="effect1_dropShadow_2670_681" result="shape"/><feColorMatrix in="SourceAlpha" values="0 0 0 0 0 0 0 0 0 0 0 0 0 0 0 0 0 0 127 0" result="hardAlpha"/><feOffset dy=".5"/><feComposite in2="hardAlpha" operator="arithmetic" k2="-1" k3="1"/><feColorMatrix values="0 0 0 0 0.433988 0 0 0 0 0.364864 0 0 0 0 0.326461 0 0 0 1 0"/><feBlend in2="shape" result="effect2_innerShadow_2670_681"/><feColorMatrix in="SourceAlpha" values="0 0 0 0 0 0 0 0 0 0 0 0 0 0 0 0 0 0 127 0" result="hardAlpha"/><feOffset dx="-.5"/><feComposite in2="hardAlpha" operator="arithmetic" k2="-1" k3="1"/><feColorMatrix values="0 0 0 0 0.129376 0 0 0 0 0.129376 0 0 0 0 0.129376 0 0 0 1 0"/><feBlend in2="effect2_innerShadow_2670_681" result="effect3_innerShadow_2670_681"/></filter></defs></svg>