<?xml version="1.0" encoding="UTF-8"?>
<svg width="1282px" height="1326px" viewBox="0 0 1282 1326" version="1.1" xmlns="http://www.w3.org/2000/svg" xmlns:xlink="http://www.w3.org/1999/xlink">
    <title>Web Infra</title>
    <defs>
        <rect id="path-1" x="291.218324" y="371" width="138" height="571" rx="69"></rect>
        <filter x="-29.0%" y="-9.1%" width="172.5%" height="117.5%" filterUnits="objectBoundingBox" id="filter-2">
            <feOffset dx="10" dy="-2" in="SourceAlpha" result="shadowOffsetOuter1"></feOffset>
            <feGaussianBlur stdDeviation="15" in="shadowOffsetOuter1" result="shadowBlurOuter1"></feGaussianBlur>
            <feColorMatrix values="0 0 0 0 0   0 0 0 0 0   0 0 0 0 0  0 0 0 0.4 0" type="matrix" in="shadowBlurOuter1"></feColorMatrix>
        </filter>
        <rect id="path-3" x="770.218324" y="258" width="138" height="684" rx="69"></rect>
        <filter x="-29.0%" y="-7.6%" width="172.5%" height="114.6%" filterUnits="objectBoundingBox" id="filter-4">
            <feOffset dx="10" dy="-2" in="SourceAlpha" result="shadowOffsetOuter1"></feOffset>
            <feGaussianBlur stdDeviation="15" in="shadowOffsetOuter1" result="shadowBlurOuter1"></feGaussianBlur>
            <feColorMatrix values="0 0 0 0 0   0 0 0 0 0   0 0 0 0 0  0 0 0 0.4 0" type="matrix" in="shadowBlurOuter1"></feColorMatrix>
        </filter>
        <rect id="path-5" x="279.603643" y="472.593316" width="138" height="848" rx="69"></rect>
        <filter x="-29.0%" y="-6.1%" width="172.5%" height="111.8%" filterUnits="objectBoundingBox" id="filter-6">
            <feOffset dx="10" dy="-2" in="SourceAlpha" result="shadowOffsetOuter1"></feOffset>
            <feGaussianBlur stdDeviation="15" in="shadowOffsetOuter1" result="shadowBlurOuter1"></feGaussianBlur>
            <feColorMatrix values="0 0 0 0 0   0 0 0 0 0   0 0 0 0 0  0 0 0 0.4 0" type="matrix" in="shadowBlurOuter1"></feColorMatrix>
        </filter>
        <rect id="path-7" x="780.65169" y="471.331147" width="138" height="848" rx="69"></rect>
        <filter x="-29.0%" y="-6.1%" width="172.5%" height="111.8%" filterUnits="objectBoundingBox" id="filter-8">
            <feOffset dx="10" dy="-2" in="SourceAlpha" result="shadowOffsetOuter1"></feOffset>
            <feGaussianBlur stdDeviation="15" in="shadowOffsetOuter1" result="shadowBlurOuter1"></feGaussianBlur>
            <feColorMatrix values="0 0 0 0 0   0 0 0 0 0   0 0 0 0 0  0 0 0 0.4 0" type="matrix" in="shadowBlurOuter1"></feColorMatrix>
        </filter>
        <rect id="path-9" x="28.2183237" y="62" width="138" height="1155" rx="69"></rect>
        <filter x="-29.0%" y="-4.5%" width="172.5%" height="108.7%" filterUnits="objectBoundingBox" id="filter-10">
            <feOffset dx="10" dy="-2" in="SourceAlpha" result="shadowOffsetOuter1"></feOffset>
            <feGaussianBlur stdDeviation="15" in="shadowOffsetOuter1" result="shadowBlurOuter1"></feGaussianBlur>
            <feColorMatrix values="0 0 0 0 0   0 0 0 0 0   0 0 0 0 0  0 0 0 0.4 0" type="matrix" in="shadowBlurOuter1"></feColorMatrix>
        </filter>
        <rect id="path-11" x="1033.21832" y="0" width="138" height="1217" rx="69"></rect>
        <filter x="-29.0%" y="-4.3%" width="172.5%" height="108.2%" filterUnits="objectBoundingBox" id="filter-12">
            <feOffset dx="10" dy="-2" in="SourceAlpha" result="shadowOffsetOuter1"></feOffset>
            <feGaussianBlur stdDeviation="15" in="shadowOffsetOuter1" result="shadowBlurOuter1"></feGaussianBlur>
            <feColorMatrix values="0 0 0 0 0   0 0 0 0 0   0 0 0 0 0  0 0 0 0.4 0" type="matrix" in="shadowBlurOuter1"></feColorMatrix>
        </filter>
    </defs>
    <g id="Page-1" stroke="none" stroke-width="1" fill="none" fill-rule="evenodd">
        <g id="Web-Infra" transform="translate(34.7817, 32)">
            <rect id="Rectangle" fill="#66CCC8" x="155.218324" y="600" width="889" height="138"></rect>
            <g id="Ruler" transform="translate(170.7311, 600)" fill="#000000" fill-opacity="0.5" fill-rule="nonzero">
                <path d="M6.52926324,44.48 L6.52926324,42.218 L11.4692632,42.218 L11.4692632,58 L8.79126324,58 L8.79126324,44.48 L6.52926324,44.48 Z M13.5292632,44.48 L13.5292632,42.218 L18.4692632,42.218 L18.4692632,58 L15.7912632,58 L15.7912632,44.48 L13.5292632,44.48 Z M22.5292632,44.48 L22.5292632,42.218 L27.4692632,42.218 L27.4692632,58 L24.7912632,58 L24.7912632,44.48 L22.5292632,44.48 Z M29.5292632,44.48 L29.5292632,42.218 L34.4692632,42.218 L34.4692632,58 L31.7912632,58 L31.7912632,44.48 L29.5292632,44.48 Z M36.5292632,44.48 L36.5292632,42.218 L41.4692632,42.218 L41.4692632,58 L38.7912632,58 L38.7912632,44.48 L36.5292632,44.48 Z M44.5292632,44.48 L44.5292632,42.218 L49.4692632,42.218 L49.4692632,58 L46.7912632,58 L46.7912632,44.48 L44.5292632,44.48 Z M90.5292632,44.48 L90.5292632,42.218 L95.4692632,42.218 L95.4692632,58 L92.7912632,58 L92.7912632,44.48 L90.5292632,44.48 Z M97.5292632,44.48 L97.5292632,42.218 L102.469263,42.218 L102.469263,58 L99.7912632,58 L99.7912632,44.48 L97.5292632,44.48 Z M263.529263,44.48 L263.529263,42.218 L268.469263,42.218 L268.469263,58 L265.791263,58 L265.791263,44.48 L263.529263,44.48 Z M270.529263,44.48 L270.529263,42.218 L275.469263,42.218 L275.469263,58 L272.791263,58 L272.791263,44.48 L270.529263,44.48 Z M303.529263,44.48 L303.529263,42.218 L308.469263,42.218 L308.469263,58 L305.791263,58 L305.791263,44.48 L303.529263,44.48 Z M551.529263,44.48 L551.529263,42.218 L556.469263,42.218 L556.469263,58 L553.791263,58 L553.791263,44.48 L551.529263,44.48 Z M752.529263,44.48 L752.529263,42.218 L757.469263,42.218 L757.469263,58 L754.791263,58 L754.791263,44.48 L752.529263,44.48 Z M759.529263,44.48 L759.529263,42.218 L764.469263,42.218 L764.469263,58 L761.791263,58 L761.791263,44.48 L759.529263,44.48 Z M62.4452632,50.122 C62.4452632,52.41 61.9425966,54.3643333 60.9372632,55.985 C59.9319299,57.6056667 58.5495966,58.416 56.7902632,58.416 C55.0309299,58.416 53.6485966,57.6013333 52.6432632,55.972 C51.6379299,54.3426667 51.1352632,52.3926667 51.1352632,50.122 C51.1352632,47.7646667 51.6422632,45.7886667 52.6562632,44.194 C53.6702632,42.5993333 55.0525966,41.802 56.8032632,41.802 C58.5539299,41.802 59.9319299,42.6123333 60.9372632,44.233 C61.9425966,45.8536667 62.4452632,47.8166667 62.4452632,50.122 Z M53.7352632,50.096 C53.7352632,51.6906667 54.0125966,53.099 54.5672632,54.321 C55.1219299,55.543 55.8759299,56.154 56.8292632,56.154 C57.7825966,56.154 58.5235966,55.582 59.0522632,54.438 C59.5809299,53.294 59.8452632,51.8466667 59.8452632,50.096 C59.8452632,48.484 59.5679299,47.0756667 59.0132632,45.871 C58.4585966,44.6663333 57.7175966,44.064 56.7902632,44.064 C55.8629299,44.064 55.1219299,44.6923333 54.5672632,45.949 C54.0125966,47.2056667 53.7352632,48.588 53.7352632,50.096 Z M75.4452632,50.122 C75.4452632,52.41 74.9425966,54.3643333 73.9372632,55.985 C72.9319299,57.6056667 71.5495966,58.416 69.7902632,58.416 C68.0309299,58.416 66.6485966,57.6013333 65.6432632,55.972 C64.6379299,54.3426667 64.1352632,52.3926667 64.1352632,50.122 C64.1352632,47.7646667 64.6422632,45.7886667 65.6562632,44.194 C66.6702632,42.5993333 68.0525966,41.802 69.8032632,41.802 C71.5539299,41.802 72.9319299,42.6123333 73.9372632,44.233 C74.9425966,45.8536667 75.4452632,47.8166667 75.4452632,50.122 Z M66.7352632,50.096 C66.7352632,51.6906667 67.0125966,53.099 67.5672632,54.321 C68.1219299,55.543 68.8759299,56.154 69.8292632,56.154 C70.7825966,56.154 71.5235966,55.582 72.0522632,54.438 C72.5809299,53.294 72.8452632,51.8466667 72.8452632,50.096 C72.8452632,48.484 72.5679299,47.0756667 72.0132632,45.871 C71.4585966,44.6663333 70.7175966,44.064 69.7902632,44.064 C68.8629299,44.064 68.1219299,44.6923333 67.5672632,45.949 C67.0125966,47.2056667 66.7352632,48.588 66.7352632,50.096 Z M88.4452632,50.122 C88.4452632,52.41 87.9425966,54.3643333 86.9372632,55.985 C85.9319299,57.6056667 84.5495966,58.416 82.7902632,58.416 C81.0309299,58.416 79.6485966,57.6013333 78.6432632,55.972 C77.6379299,54.3426667 77.1352632,52.3926667 77.1352632,50.122 C77.1352632,47.7646667 77.6422632,45.7886667 78.6562632,44.194 C79.6702632,42.5993333 81.0525966,41.802 82.8032632,41.802 C84.5539299,41.802 85.9319299,42.6123333 86.9372632,44.233 C87.9425966,45.8536667 88.4452632,47.8166667 88.4452632,50.122 Z M79.7352632,50.096 C79.7352632,51.6906667 80.0125966,53.099 80.5672632,54.321 C81.1219299,55.543 81.8759299,56.154 82.8292632,56.154 C83.7825966,56.154 84.5235966,55.582 85.0522632,54.438 C85.5809299,53.294 85.8452632,51.8466667 85.8452632,50.096 C85.8452632,48.484 85.5679299,47.0756667 85.0132632,45.871 C84.4585966,44.6663333 83.7175966,44.064 82.7902632,44.064 C81.8629299,44.064 81.1219299,44.6923333 80.5672632,45.949 C80.0125966,47.2056667 79.7352632,48.588 79.7352632,50.096 Z M288.445263,50.122 C288.445263,52.41 287.942597,54.3643333 286.937263,55.985 C285.93193,57.6056667 284.549597,58.416 282.790263,58.416 C281.03093,58.416 279.648597,57.6013333 278.643263,55.972 C277.63793,54.3426667 277.135263,52.3926667 277.135263,50.122 C277.135263,47.7646667 277.642263,45.7886667 278.656263,44.194 C279.670263,42.5993333 281.052597,41.802 282.803263,41.802 C284.55393,41.802 285.93193,42.6123333 286.937263,44.233 C287.942597,45.8536667 288.445263,47.8166667 288.445263,50.122 Z M279.735263,50.096 C279.735263,51.6906667 280.012597,53.099 280.567263,54.321 C281.12193,55.543 281.87593,56.154 282.829263,56.154 C283.782597,56.154 284.523597,55.582 285.052263,54.438 C285.58093,53.294 285.845263,51.8466667 285.845263,50.096 C285.845263,48.484 285.56793,47.0756667 285.013263,45.871 C284.458597,44.6663333 283.717597,44.064 282.790263,44.064 C281.86293,44.064 281.12193,44.6923333 280.567263,45.949 C280.012597,47.2056667 279.735263,48.588 279.735263,50.096 Z M536.445263,50.122 C536.445263,52.41 535.942597,54.3643333 534.937263,55.985 C533.93193,57.6056667 532.549597,58.416 530.790263,58.416 C529.03093,58.416 527.648597,57.6013333 526.643263,55.972 C525.63793,54.3426667 525.135263,52.3926667 525.135263,50.122 C525.135263,47.7646667 525.642263,45.7886667 526.656263,44.194 C527.670263,42.5993333 529.052597,41.802 530.803263,41.802 C532.55393,41.802 533.93193,42.6123333 534.937263,44.233 C535.942597,45.8536667 536.445263,47.8166667 536.445263,50.122 Z M527.735263,50.096 C527.735263,51.6906667 528.012597,53.099 528.567263,54.321 C529.12193,55.543 529.87593,56.154 530.829263,56.154 C531.782597,56.154 532.523597,55.582 533.052263,54.438 C533.58093,53.294 533.845263,51.8466667 533.845263,50.096 C533.845263,48.484 533.56793,47.0756667 533.013263,45.871 C532.458597,44.6663333 531.717597,44.064 530.790263,44.064 C529.86293,44.064 529.12193,44.6923333 528.567263,45.949 C528.012597,47.2056667 527.735263,48.588 527.735263,50.096 Z M301.445263,50.122 C301.445263,52.41 300.942597,54.3643333 299.937263,55.985 C298.93193,57.6056667 297.549597,58.416 295.790263,58.416 C294.03093,58.416 292.648597,57.6013333 291.643263,55.972 C290.63793,54.3426667 290.135263,52.3926667 290.135263,50.122 C290.135263,47.7646667 290.642263,45.7886667 291.656263,44.194 C292.670263,42.5993333 294.052597,41.802 295.803263,41.802 C297.55393,41.802 298.93193,42.6123333 299.937263,44.233 C300.942597,45.8536667 301.445263,47.8166667 301.445263,50.122 Z M292.735263,50.096 C292.735263,51.6906667 293.012597,53.099 293.567263,54.321 C294.12193,55.543 294.87593,56.154 295.829263,56.154 C296.782597,56.154 297.523597,55.582 298.052263,54.438 C298.58093,53.294 298.845263,51.8466667 298.845263,50.096 C298.845263,48.484 298.56793,47.0756667 298.013263,45.871 C297.458597,44.6663333 296.717597,44.064 295.790263,44.064 C294.86293,44.064 294.12193,44.6923333 293.567263,45.949 C293.012597,47.2056667 292.735263,48.588 292.735263,50.096 Z M549.445263,50.122 C549.445263,52.41 548.942597,54.3643333 547.937263,55.985 C546.93193,57.6056667 545.549597,58.416 543.790263,58.416 C542.03093,58.416 540.648597,57.6013333 539.643263,55.972 C538.63793,54.3426667 538.135263,52.3926667 538.135263,50.122 C538.135263,47.7646667 538.642263,45.7886667 539.656263,44.194 C540.670263,42.5993333 542.052597,41.802 543.803263,41.802 C545.55393,41.802 546.93193,42.6123333 547.937263,44.233 C548.942597,45.8536667 549.445263,47.8166667 549.445263,50.122 Z M540.735263,50.096 C540.735263,51.6906667 541.012597,53.099 541.567263,54.321 C542.12193,55.543 542.87593,56.154 543.829263,56.154 C544.782597,56.154 545.523597,55.582 546.052263,54.438 C546.58093,53.294 546.845263,51.8466667 546.845263,50.096 C546.845263,48.484 546.56793,47.0756667 546.013263,45.871 C545.458597,44.6663333 544.717597,44.064 543.790263,44.064 C542.86293,44.064 542.12193,44.6923333 541.567263,45.949 C541.012597,47.2056667 540.735263,48.588 540.735263,50.096 Z M750.445263,50.122 C750.445263,52.41 749.942597,54.3643333 748.937263,55.985 C747.93193,57.6056667 746.549597,58.416 744.790263,58.416 C743.03093,58.416 741.648597,57.6013333 740.643263,55.972 C739.63793,54.3426667 739.135263,52.3926667 739.135263,50.122 C739.135263,47.7646667 739.642263,45.7886667 740.656263,44.194 C741.670263,42.5993333 743.052597,41.802 744.803263,41.802 C746.55393,41.802 747.93193,42.6123333 748.937263,44.233 C749.942597,45.8536667 750.445263,47.8166667 750.445263,50.122 Z M741.735263,50.096 C741.735263,51.6906667 742.012597,53.099 742.567263,54.321 C743.12193,55.543 743.87593,56.154 744.829263,56.154 C745.782597,56.154 746.523597,55.582 747.052263,54.438 C747.58093,53.294 747.845263,51.8466667 747.845263,50.096 C747.845263,48.484 747.56793,47.0756667 747.013263,45.871 C746.458597,44.6663333 745.717597,44.064 744.790263,44.064 C743.86293,44.064 743.12193,44.6923333 742.567263,45.949 C742.012597,47.2056667 741.735263,48.588 741.735263,50.096 Z M777.445263,50.122 C777.445263,52.41 776.942597,54.3643333 775.937263,55.985 C774.93193,57.6056667 773.549597,58.416 771.790263,58.416 C770.03093,58.416 768.648597,57.6013333 767.643263,55.972 C766.63793,54.3426667 766.135263,52.3926667 766.135263,50.122 C766.135263,47.7646667 766.642263,45.7886667 767.656263,44.194 C768.670263,42.5993333 770.052597,41.802 771.803263,41.802 C773.55393,41.802 774.93193,42.6123333 775.937263,44.233 C776.942597,45.8536667 777.445263,47.8166667 777.445263,50.122 Z M768.735263,50.096 C768.735263,51.6906667 769.012597,53.099 769.567263,54.321 C770.12193,55.543 770.87593,56.154 771.829263,56.154 C772.782597,56.154 773.523597,55.582 774.052263,54.438 C774.58093,53.294 774.845263,51.8466667 774.845263,50.096 C774.845263,48.484 774.56793,47.0756667 774.013263,45.871 C773.458597,44.6663333 772.717597,44.064 771.790263,44.064 C770.86293,44.064 770.12193,44.6923333 769.567263,45.949 C769.012597,47.2056667 768.735263,48.588 768.735263,50.096 Z M322.445263,50.122 C322.445263,52.41 321.942597,54.3643333 320.937263,55.985 C319.93193,57.6056667 318.549597,58.416 316.790263,58.416 C315.03093,58.416 313.648597,57.6013333 312.643263,55.972 C311.63793,54.3426667 311.135263,52.3926667 311.135263,50.122 C311.135263,47.7646667 311.642263,45.7886667 312.656263,44.194 C313.670263,42.5993333 315.052597,41.802 316.803263,41.802 C318.55393,41.802 319.93193,42.6123333 320.937263,44.233 C321.942597,45.8536667 322.445263,47.8166667 322.445263,50.122 Z M313.735263,50.096 C313.735263,51.6906667 314.012597,53.099 314.567263,54.321 C315.12193,55.543 315.87593,56.154 316.829263,56.154 C317.782597,56.154 318.523597,55.582 319.052263,54.438 C319.58093,53.294 319.845263,51.8466667 319.845263,50.096 C319.845263,48.484 319.56793,47.0756667 319.013263,45.871 C318.458597,44.6663333 317.717597,44.064 316.790263,44.064 C315.86293,44.064 315.12193,44.6923333 314.567263,45.949 C314.012597,47.2056667 313.735263,48.588 313.735263,50.096 Z M335.445263,50.122 C335.445263,52.41 334.942597,54.3643333 333.937263,55.985 C332.93193,57.6056667 331.549597,58.416 329.790263,58.416 C328.03093,58.416 326.648597,57.6013333 325.643263,55.972 C324.63793,54.3426667 324.135263,52.3926667 324.135263,50.122 C324.135263,47.7646667 324.642263,45.7886667 325.656263,44.194 C326.670263,42.5993333 328.052597,41.802 329.803263,41.802 C331.55393,41.802 332.93193,42.6123333 333.937263,44.233 C334.942597,45.8536667 335.445263,47.8166667 335.445263,50.122 Z M326.735263,50.096 C326.735263,51.6906667 327.012597,53.099 327.567263,54.321 C328.12193,55.543 328.87593,56.154 329.829263,56.154 C330.782597,56.154 331.523597,55.582 332.052263,54.438 C332.58093,53.294 332.845263,51.8466667 332.845263,50.096 C332.845263,48.484 332.56793,47.0756667 332.013263,45.871 C331.458597,44.6663333 330.717597,44.064 329.790263,44.064 C328.86293,44.064 328.12193,44.6923333 327.567263,45.949 C327.012597,47.2056667 326.735263,48.588 326.735263,50.096 Z" id="Numbers"></path>
                <path d="M294,1.13686838e-13 L294,15.4039992 L298,15.4039992 L298,1.13686838e-13 L294,1.13686838e-13 Z M305,1.13686838e-13 L305,15.4039992 L309,15.4039992 L309,1.13686838e-13 L305,1.13686838e-13 Z M316,1.13686838e-13 L316,15.4039992 L320,15.4039992 L320,1.13686838e-13 L316,1.13686838e-13 Z M327,1.13686838e-13 L327,15.4039992 L331,15.4039992 L331,1.13686838e-13 L327,1.13686838e-13 Z M283,1.13686838e-13 L283,31.4039992 L287,31.4039992 L287,1.13686838e-13 L283,1.13686838e-13 Z M338,1.13686838e-13 L338,31.4039992 L342,31.4039992 L342,1.13686838e-13 L338,1.13686838e-13 Z M461,1.13686838e-13 L461,15.4039992 L465,15.4039992 L465,1.13686838e-13 L461,1.13686838e-13 Z M472,1.13686838e-13 L472,15.4039992 L476,15.4039992 L476,1.13686838e-13 L472,1.13686838e-13 Z M483,1.13686838e-13 L483,15.4039992 L487,15.4039992 L487,1.13686838e-13 L483,1.13686838e-13 Z M494,1.13686838e-13 L494,15.4039992 L498,15.4039992 L498,1.13686838e-13 L494,1.13686838e-13 Z M450,1.13686838e-13 L450,31.4039992 L454,31.4039992 L454,1.13686838e-13 L450,1.13686838e-13 Z M516,1.13686838e-13 L516,15.4039992 L520,15.4039992 L520,1.13686838e-13 L516,1.13686838e-13 Z M527,1.13686838e-13 L527,15.4039992 L531,15.4039992 L531,1.13686838e-13 L527,1.13686838e-13 Z M538,1.13686838e-13 L538,15.4039992 L542,15.4039992 L542,1.13686838e-13 L538,1.13686838e-13 Z M549,1.13686838e-13 L549,15.4039992 L553,15.4039992 L553,1.13686838e-13 L549,1.13686838e-13 Z M505,1.13686838e-13 L505,31.4039992 L509,31.4039992 L509,1.13686838e-13 L505,1.13686838e-13 Z M560,1.13686838e-13 L560,31.4039992 L564,31.4039992 L564,1.13686838e-13 L560,1.13686838e-13 Z M740,1.13686838e-13 L740,15.4039992 L744,15.4039992 L744,1.13686838e-13 L740,1.13686838e-13 Z M751,1.13686838e-13 L751,15.4039992 L755,15.4039992 L755,1.13686838e-13 L751,1.13686838e-13 Z M762,1.13686838e-13 L762,15.4039992 L766,15.4039992 L766,1.13686838e-13 L762,1.13686838e-13 Z M773,1.13686838e-13 L773,15.4039992 L777,15.4039992 L777,1.13686838e-13 L773,1.13686838e-13 Z M784,1.13686838e-13 L784,31.4039992 L788,31.4039992 L788,1.13686838e-13 L784,1.13686838e-13 Z M795,1.13686838e-13 L795,15.4039992 L799,15.4039992 L799,1.13686838e-13 L795,1.13686838e-13 Z M806,1.13686838e-13 L806,15.4039992 L810,15.4039992 L810,1.13686838e-13 L806,1.13686838e-13 Z M817,1.13686838e-13 L817,15.4039992 L821,15.4039992 L821,1.13686838e-13 L817,1.13686838e-13 Z M828,1.13686838e-13 L828,15.4039992 L832,15.4039992 L832,1.13686838e-13 L828,1.13686838e-13 Z M853,1.13686838e-13 L853,15.4039992 L857,15.4039992 L857,1.13686838e-13 L853,1.13686838e-13 Z M839,1.13686838e-13 L839,31.4039992 L843,31.4039992 L843,1.13686838e-13 L839,1.13686838e-13 Z M571,1.13686838e-13 L571,15.4039992 L575,15.4039992 L575,1.13686838e-13 L571,1.13686838e-13 Z M582,1.13686838e-13 L582,15.4039992 L586,15.4039992 L586,1.13686838e-13 L582,1.13686838e-13 Z M593,1.13686838e-13 L593,15.4039992 L597,15.4039992 L597,1.13686838e-13 L593,1.13686838e-13 Z M604,1.13686838e-13 L604,15.4039992 L608,15.4039992 L608,1.13686838e-13 L604,1.13686838e-13 Z M615,1.13686838e-13 L615,31.4039992 L619,31.4039992 L619,1.13686838e-13 L615,1.13686838e-13 Z M0,1.13686838e-13 L0,31.4039992 L4,31.4039992 L4,1.13686838e-13 L0,1.13686838e-13 Z M11,1.13686838e-13 L11,15.4039992 L15,15.4039992 L15,1.13686838e-13 L11,1.13686838e-13 Z M22,1.13686838e-13 L22,15.4039992 L26,15.4039992 L26,1.13686838e-13 L22,1.13686838e-13 Z M33,1.13686838e-13 L33,15.4039992 L37,15.4039992 L37,1.13686838e-13 L33,1.13686838e-13 Z M44,1.13686838e-13 L44,15.4039992 L48,15.4039992 L48,1.13686838e-13 L44,1.13686838e-13 Z M66,1.13686838e-13 L66,15.4039992 L70,15.4039992 L70,1.13686838e-13 L66,1.13686838e-13 Z M77,1.13686838e-13 L77,15.4039992 L81,15.4039992 L81,1.13686838e-13 L77,1.13686838e-13 Z M88,1.13686838e-13 L88,15.4039992 L92,15.4039992 L92,1.13686838e-13 L88,1.13686838e-13 Z M99,1.13686838e-13 L99,15.4039992 L103,15.4039992 L103,1.13686838e-13 L99,1.13686838e-13 Z M349,1.13686838e-13 L349,15.4039992 L353,15.4039992 L353,1.13686838e-13 L349,1.13686838e-13 Z M360,1.13686838e-13 L360,15.4039992 L364,15.4039992 L364,1.13686838e-13 L360,1.13686838e-13 Z M371,1.13686838e-13 L371,15.4039992 L375,15.4039992 L375,1.13686838e-13 L371,1.13686838e-13 Z M261,1.13686838e-13 L261,15.4039992 L265,15.4039992 L265,1.13686838e-13 L261,1.13686838e-13 Z M272,1.13686838e-13 L272,15.4039992 L276,15.4039992 L276,1.13686838e-13 L272,1.13686838e-13 Z M55,1.13686838e-13 L55,31.4039992 L59,31.4039992 L59,1.13686838e-13 L55,1.13686838e-13 Z M110,1.13686838e-13 L110,31.4039992 L114,31.4039992 L114,1.13686838e-13 L110,1.13686838e-13 Z" id="Measure"></path>
            </g>
            <g id="W">
                <g id="Rectangle-Copy">
                    <use fill="black" fill-opacity="1" filter="url(#filter-2)" xlink:href="#path-1"></use>
                    <use fill="#337FC5" fill-rule="evenodd" xlink:href="#path-1"></use>
                </g>
                <g id="Rectangle-Copy-2">
                    <use fill="black" fill-opacity="1" filter="url(#filter-4)" xlink:href="#path-3"></use>
                    <use fill="#00B9C3" fill-rule="evenodd" xlink:href="#path-3"></use>
                </g>
                <g id="Rectangle" transform="translate(348.6036, 896.5933) rotate(45) translate(-348.6036, -896.5933)">
                    <use fill="black" fill-opacity="1" filter="url(#filter-6)" xlink:href="#path-5"></use>
                    <use fill="#337FC5" fill-rule="evenodd" xlink:href="#path-5"></use>
                </g>
                <g id="Rectangle" transform="translate(849.6517, 895.3311) rotate(-45) translate(-849.6517, -895.3311)">
                    <use fill="black" fill-opacity="1" filter="url(#filter-8)" xlink:href="#path-7"></use>
                    <use fill="#337FC5" fill-rule="evenodd" xlink:href="#path-7"></use>
                </g>
                <g id="Rectangle">
                    <use fill="black" fill-opacity="1" filter="url(#filter-10)" xlink:href="#path-9"></use>
                    <use fill="#2555AA" fill-rule="evenodd" xlink:href="#path-9"></use>
                </g>
                <g id="Rectangle-Copy-3">
                    <use fill="black" fill-opacity="1" filter="url(#filter-12)" xlink:href="#path-11"></use>
                    <use fill="#66CCC8" fill-rule="evenodd" xlink:href="#path-11"></use>
                </g>
            </g>
            <g id="Connector" transform="translate(75.2183, 632)">
                <circle id="Oval-Copy-2" fill="#29669E" cx="286" cy="34" r="24"></circle>
                <circle id="Oval-Copy-6" fill="#29669E" cx="524" cy="24" r="24"></circle>
                <circle id="Oval-Copy-3" fill="#00959D" cx="764" cy="34" r="24"></circle>
                <circle id="Oval-Copy-4" fill="#52A4A1" cx="1026" cy="34" r="24"></circle>
                <circle id="Oval-Copy-5" fill="#52A4A1" cx="1026" cy="515" r="24"></circle>
                <circle id="Oval" fill="#1E4489" cx="24" cy="34" r="24"></circle>
                <circle id="Oval-Copy" fill="#1E4489" cx="24" cy="515" r="24"></circle>
            </g>
        </g>
    </g>
</svg>