<svg xmlns="http://www.w3.org/2000/svg" viewBox="0 0 1110 983"><g transform="translate(1 1)" fill="none"><path d="m211.5 125.1 35.9-30L260.2 79s12.7-19 14-14.9c1.3 4.2 7.5 22.8 7 26.3-.4 3.5-5.7 11-9 13.8-3.3 2.8-13.4 12.3-15.8 13.8-2.4 1.5-10.6 10.5-14.8 12.5-4.2 2-16.5 16.7-17.2 17.3-.7.6-12.7 5.5-17.1 7.5-4.4 2-24.3 8-24.3 8" fill="#54484A"/><path d="M259.6 919a213 213 0 0 1-15.4 7 67 67 0 0 1-33.4 3.8c-3.7-.5-7.2-1.5-10.4-3a65.4 65.4 0 0 1-25.3-21.4c-1.1-1.5-3.6-5.8-7.5-12.8-4-7-7.8-12.7-11.6-16.9a347 347 0 0 0-7.8-8.4 78.5 78.5 0 0 0-8.2-7.9 64.8 64.8 0 0 0-32-11.8 105.1 105.1 0 0 0-47.1 6.4l-8.8 3.5a119.2 119.2 0 0 0-30.7 17.7 43 43 0 0 0-7.7 8.5c-2.2 3.1-4.3 4-8 3.1-4.5-.9-6.2-5.3-5.5-9.5.5-2.8 1.4-5.6 2.7-8.3 3.5-7 8-14.8 13.5-23.2A496 496 0 0 1 80.2 767a693.9 693.9 0 0 1 46.2-42c0-.2.2-.4 0-.5h-.1a276.7 276.7 0 0 1-56.4-56 261.8 261.8 0 0 1-36.7-67c-.7-2-1.8-5-3.1-9.3-1.3-4.2-3-8.3-4-12.5l-2.8-13.2c-1.3-5.9-2.1-10.3-2.6-13.3a206.5 206.5 0 0 1 16.4-118 185 185 0 0 1 74.2-81.5c.6-.4 2.3-.9 3-1.6.3-.2.5-.5.4-.8a1636.3 1636.3 0 0 1-5.9-45.4c-.8-7-1.7-13.7-2.6-19.8-2.2-14.5-3.7-30.8-6.1-46.7-1-5.6-1.7-11.7-2.4-18.3-.2-1.4-.2-2.9-.2-4.3 0-1.6.3-3.8-.1-5.7-1-4.3-1.1-8.6-.4-13 .5-3.2 1.5-6 2.9-8.4.9-1.6 2.8-3.9 5.6-6.8A42352 42352 0 0 1 268.7 13c4.2-4.4 8.8-3.5 13.5-.4l26 16.8c2.5 1.5 4 2.8 4.7 4 1.6 2.8 1 5.5-.3 8.4-3 6-5.1 11.7-6.8 17.3-.1.3 0 .5.4.3.4 0 6.4-2.4 17.8-6.6 1.3-.5 2.2-.9 2.6-1.3.7-.7 1.5-1.3 2.4-1.8 2.6-1.6 4.8-1.7 6.6-.4l5.2 3.8c42.3 35.3 70.2 58.6 83.6 70 .7.4 1.2.7 1.6.7h4.3c2.9.1 4.8 3.8 6.4 7a19 19 0 0 1 1.6 6c1 8.8 2 18.7 3.7 29.8 2.4 17 3.8 32.7 6.3 49.2 1 7 2 15.2 3 25.1 1.3 11.4 3.4 22.8 4.6 34.2l3.5 31.2c.6 5 1.4 10.6 2.5 16.8.8 4.6 1.5 10.3 2 17 0 .2.3.4.6.4 1.7-.5 3.4-1.2 5-2 4.9-2.4 10.4-3.9 14.7-5.5 11.2-4.2 23.6-6.5 35.4-7.9.4 0 .7-.4.7-.8.5-7.3 1.8-14.4 3.8-21a31 31 0 0 1 3.7-7.7c3.3-5.2 8.9-4.8 14.5-4.8.5 0 .9-.2 1.2-.7 1-2.2 1.8-4.6 2.2-7.2 1.5-11.4 2.5-25.3 3-41.7.4-8.2 1.7-15.6 4-22 1.4-3.8 5.5-6.4 9-8 8.6-4 16.6-9.4 23.9-16 .8-.8 1.4-2.3 1.8-4.5l2.2-11.8c.5-2.7 2-7.9 4.8-15.7 1.9-5.6 4-10.7 6-15.2 11.4-24.7 26-46.6 43.7-65.8a197.4 197.4 0 0 1 83.3-53.9c5.4-1.8 9.9-3.4 15-4.6l18.7-4.3c7.4-1.7 18.8-2.8 34.3-3.4.6 0 1.2-.2 1.8-.4a52 52 0 0 1 21.3-11.3A132 132 0 0 1 849.7 0a85.9 85.9 0 0 1 35.5 6.6c14.3 6 27 14.1 38 24.4a339.2 339.2 0 0 1 23.2 25A123 123 0 0 1 964 84.7c4 9.2 6.6 18.4 7.9 27.4a177 177 0 0 1-.2 49.3c-1 7.2-3.6 15.2-5.3 22-1 3.7-2.5 5.2-6.3 7.4l-4.2 2.7a28.7 28.7 0 0 1-20.6 5.1c-4.8-.5-9.2-2.5-13.2-6a48 48 0 0 1-8.8-10.2c-2-3.2-3.5-5.5-5-8.5a291 291 0 0 0-8.1-15.3A675 675 0 0 0 884 132a32.5 32.5 0 0 0-5-6.4 46 46 0 0 0-6.4-5.3c-.8-.5-1.3-.3-1.2.7.2 8.8-.8 18-3 27.2a468.9 468.9 0 0 1-11 39.3l-3.3 9a20.3 20.3 0 0 1-4.7 8 14.8 14.8 0 0 1-10.5 3.4c-2.6 0-5.6-.6-9-1.4-.2 0-.5.1-.5.3v13.3c0 4.6-1.3 10.8-4 18.8 0 .3 0 .5.4.6a41 41 0 0 1 22.3 16.2 98.8 98.8 0 0 1 9.6 34.2c.6 10 1 16 1 18.2.9 12.7 3.7 25.1 8.6 37 .2.5.8 1 1.3.8 6-.7 9.6-1 10.6-1 6-.6 9 1 12 6.1a35 35 0 0 1 3.8 12.3c.7 5.2 1 10.7.8 16.6 0 .4.2.7.6 1a123 123 0 0 1 16 8.3 277.9 277.9 0 0 1 60 48.1 52 52 0 0 1 12.5 26.2c0 .6.4.8 1 .8 6.5 0 12.4 1.1 19.2 3.5l15 5.5c6.2 2.2 12.7 5 17.8 7.5a105.6 105.6 0 0 1 24.4 16.5 129 129 0 0 1 38.8 54.4c6.7 19 9.3 38 7.8 56.8a173.2 173.2 0 0 1-16.3 61 161 161 0 0 1-23 35.5 126.2 126.2 0 0 1-27.5 24.2 148.6 148.6 0 0 1-38.5 17.6 130 130 0 0 1-19 3.8c-6.8 1-13.2 1.7-19.1 2.3-5.2.5-12.1.2-20.6-.9-.3 0-.6 0-1 .2-1.7 1.4-1.8 3.2-.1 5.4a629.5 629.5 0 0 1 52 78c2.9 5.1 5.5 10.3 8 15.7 4 8.4 9.2 17.4 4.3 26.2-.7 1.3-2.2 2.6-4.6 4-1.1.6-2.8 1.8-5.2 3.5-1.3 1-3 .8-5-.2-7.2-3.6-11.8-5.8-13.8-6.6a49.6 49.6 0 0 0-27.1-3.5 26 26 0 0 0-10 3.7l-6.8 3.8a8 8 0 0 0-2.7 2.8c-1.4 3.6-2.7 6-4.1 7.2a44.4 44.4 0 0 1-13 6.5c-.2.1-.3.3-.2.7 4 9.4 8.2 27.8-.5 36a19.3 19.3 0 0 1-5.6 4.1c-1.3.4-2.3.8-2.8 1.1-.3.1-.4.4-.3.7l2.2 7.1c3 10.5 1 19.5-6.1 27.1-5 5.3-11.1 7.7-18.5 7.2-2.8-.2-6.3-1.4-10.4-3.5-5.3-2.8-10.1-5.8-14.5-8a192.6 192.6 0 0 0-24-10.4c-10-3-16.1-5.5-24.4-7.3-7.6-1.6-17.6-4.5-25.6-5.9l-19.3-3.7c-2.5-.5-9.7-1.3-21.5-2.5-7.8-.7-11.7-1-18.4.3l-12.6 2.5c-4.6 1-8.8 1.6-12.7 2.2-15.3 2.1-31 3.5-47.2 4.4-6 .3-13.8.3-24 0a368 368 0 0 1-63.3-7.2 331.6 331.6 0 0 0-42.6-5.2c-3.7-.2-7.6-.2-11.5 0-13.6.5-27 1.7-40 3.4-10.4 1.4-20.8 4-31.3 5.8-2.6.4-7.4 1.5-14.4 3-9.4 2.1-18 3.3-26.6 5.6l-12.1 2.8c-6.1 1.3-11.3 2.6-15.7 3.8-7.2 2-13.8 3.2-21 5.5a983 983 0 0 1-24.5 6.8 228 228 0 0 1-14.6 3.3c-11.6 2.2-16.4 3.5-25.5 3.7-8.7.2-16.2-1.8-22.6-5.9-2.7-1.7-5-4.4-7-8a24 24 0 0 1-2.7-9.9c-.6-7.5-.3-14.4.7-20.7a128 128 0 0 1 5-18c.4-.8.2-.9-.1-.7ZM826.3 31.4l7.4 12.1 2.9 6.5c0 .3 0 .5-.3.4-.4 0-1-.3-1.3-.6a512.6 512.6 0 0 1-23-13.6 49.6 49.6 0 0 1-8.5-6.6c-.3-.3-.6-.4-1-.4l-2.7.4-3.4.4c-16.8 1-33 3.3-48.1 7.1-12.1 3-23.5 7-34.3 12a175 175 0 0 0-39 24.1 210.5 210.5 0 0 0-42.8 47.7 252.4 252.4 0 0 0-19 34.1 104 104 0 0 0-6.7 18.5c-1.3 6-2.7 10.8-4.1 14.7-.1.3 0 .5.3.6h.2c12.7-1.8 25-1.9 37.3-.4a303 303 0 0 1 42.9 8.2l.8.2 5.2 1.1.5.5v.4c0 .2-.1.2-.2.2h-6.3l-67.4 3.5-18.8 2c-.4 0-.6.1-.8.4a15 15 0 0 1-3.6 3.5 123 123 0 0 1-24.8 15.7 3.3 3.3 0 0 0-2.1 2.4c-.8 3.5-1.4 7.8-1.7 13-.5 8-.5 19.2-1.4 27.3-.8 6.7-2 14.4-3.3 23.2 0 .2 0 .4.3.5l17.8-1.7c.4 0 .9-.4 1.4-.9l4.2-5a47 47 0 0 1 13.4-11c2.4-1.4 5.3-2.2 8.8-2.5 14.4-1.2 27.8-1.4 40.2-.6 9.2.6 16.8 1.2 23.3 7.2 2.8 2.6 4.8 6.5 6.6 10a8.1 8.1 0 0 0 2.4 2.8l.9.3 17.2.5a140 140 0 0 1 24.3 4c6 1.4 12.6 4.1 18.9 6.3l10.9 5.5c16 8.3 30.6 16.1 43.4 23.3a229.7 229.7 0 0 0 34.7 16.4c2.2.8 4.6 1.3 7 1.4 5.9.3 11.4.3 16.5 0 .7-.2.9-.5.6-1a82 82 0 0 1-6.3-24.4c-.1-1.2-.7-2-1.8-2.5-8.8-3.8-19.3-8.6-31.5-14.3-10-4.7-18.2-9-24.7-13.3a755.3 755.3 0 0 1-41.4-28.3c-1.7-1.3-1.6-1.6.5-1a4642.4 4642.4 0 0 1 39.3 14.6l11.7 4.8c3.6 1.5 7.4 3.3 11.5 5.2 8.2 4 16.4 7.8 24.7 11.7l4.5 1.8a32 32 0 0 1 4.5 2.3c.3.2.4.1.4-.2-.3-10.7-1.5-20.2-3.6-28.6-1-4-3-8.5-5.3-11.8-3.7-5.3-10.6-8-16.8-9.2-7-1.2-9.6-5.4-7.8-12.6l3.2-12.5c.9-2.9 1.4-5.3 1.5-7.3.4-6.8.2-12 0-18.3a1 1 0 0 0-.4-.9c-6.5-3.9-13-6.5-20.1-10.6-2.3-1.4-5-3-7.8-4.9l-18.4-12-5.4-3.6c-.5-.4-1-.9-1.5-1.7-.2-.3-.1-.4.2-.4l5.4.8 20.2 5c8 2 15.5 4.6 22 7.8l11.9 6c3.5 1.8 6.4 3 8.8 3.4 3 .6 6.2 1 9.5 1.2.5 0 1-.3 1.2-.8 2-6.6 4.6-12 6-17.9l5.3-18.3c.9-2.9 2.5-11 4.8-24 .5-2.8.7-6.6.6-11.4-.1-2.9-.6-6.4-1.7-10.5-1.4-5.4-2.2-12-2.5-19.9 0-.4.3-.8.7-.8a70 70 0 0 1 14.8 15.2c.2.2.4.4.7.4 5.9.2 11.4 2.3 16.5 6.5 4 3.3 7 6.5 9 9.6a667.6 667.6 0 0 1 24.9 41.8c3.8 7.5 6.5 13.5 12.2 18.7 4 3.7 8.6 4.2 13.6 1.5 3.6-2 6-3.9 7.2-5.8.8-1.3 1.5-3.2 2-5.9A136.4 136.4 0 0 0 953 96a114.7 114.7 0 0 0-21.7-35.6c-7.4-8.4-13.7-15-19-19.8a112.4 112.4 0 0 0-38.1-23 49 49 0 0 0-16.2-2.8c-11.8-.6-23.3.3-34.3 2.7a29 29 0 0 0-7 2.4c-.3.1-.4.5-.3.7l.2.2 3.2 2.8c2.3 2.6 4.2 5.5 6.4 8ZM276.7 27a1 1 0 0 0-1.1 0 200588.7 200588.7 0 0 1-160.4 167 12.8 12.8 0 0 0-2.6 15.3c1.3 3 3 5.6 5.3 7.7 10.3 10 25 13.5 39 10.4 2.3-.5 3.3-1.3 5.4-2.6 1-.6 2.3-1.3 4-1.9l242.6-93c.2 0 .3-.2 0-.4-1.7-2-4.5-4-6-5.2a12023.4 12023.4 0 0 1-68-57c-1.4-1.5-2.7-1.9-4-1.5-15.3 6-25.1 9.5-29 11a17.6 17.6 0 0 1-9 1c-5.4-1.4-7.5-5-6-10.7.4-1.7 2.9-8.6 7.4-20.5l2.2-6c.2-.5 0-1-.5-1.4A305 305 0 0 0 276.7 27ZM218 450.4l9.4-.5 6.6.7a42 42 0 0 1 18.3 6.6c3.4 2.2 6.5 5.4 9.4 9.8 2 3.1 3.8 7.1 5.2 12.1 2.6 9.2 3 19.2 1.4 30-2.2 14.6-5 28-8.4 39.8l-2.6 10.4a23.5 23.5 0 0 0-2.8 6.3 107.5 107.5 0 0 1-5 14.8h.3l213.4-78.8c.8-.3 1.3-.9 1.5-1.7l2.2-11a46 46 0 0 0-.5-15c-2-12-3.2-26.2-4.7-37.3-2.7-19.2-5-36.8-6.7-53-.3-2.9-1.1-6.2-1.4-8.7-2.2-18.5-4.5-36.3-6.8-53.3-.7-5.5-1.5-11.3-2.1-17.4-.7-6.3-1.4-12-2.2-17.3-1.5-10-2.2-16.4-3.7-29l-2.6-19.8c-1.6-11.4-3.2-24.2-4.7-38.4-.5-4.2-1.5-8.9-2-12.6L425 150l-1.1-8.2c-.1-.5-.6-.9-1.1-.8h-.1l-5.5 2-128.8 49.3-19.8 7.7c-5.4 2.1-11.7 4.2-17.5 6.5l-13 5.1-52.6 20.1a409 409 0 0 1-9.3 3.3c-2.8 1-5.7 2.3-7.7 3.4-.7.4-1 1-1 1.7 1.7 14.5 3.3 27.4 5 38.7a399 399 0 0 1 2.8 19.8 645 645 0 0 0 5.7 37.8c0 .3.4.5.7.6a23 23 0 0 1 13.4 12 50 50 0 0 1 5.3 19c.5 7.8.6 16.2.3 25.2-.6 15-2.1 32.6-4.4 53-.4 3-.2 6.4.4 10.3 0 .6.6 1 1.2 1l20-7ZM114.9 233.8h-.2v2.1a528 528 0 0 0 3 23.4l2.7 19.8c1.3 11.6 3 24 4.9 37.4l3.5 27.4c0 .3.3.5.6.5h.2c1-.7 2-1.3 3.2-1.8l15.5-5.8c5.3-2 10.4-3.3 15.4-3.9.6 0 1-.6.9-1.2-1.5-13-3.4-27.6-5.8-43.5l-2.6-19.8c-1-7.9-2.2-16-3.6-24.5 0-.3-.3-.5-.6-.5a57.4 57.4 0 0 1-37.1-9.6ZM586.4 347c3.3 3 6.6 5 9.9 6a183 183 0 0 0 43.3 4.2c1.8 0 3.7-.2 5.8-.6 2.5-.4 3.8-2 5.3-4a66.5 66.5 0 0 0 9.7-20.5 192 192 0 0 0 3.2-12.7 76 76 0 0 0 2-16.4c.2-2.3-.1-4-.8-5.2a403 403 0 0 1-4.6-8.2c-1.2-2.2-2.6-3.5-5-4a93 93 0 0 0-13.4-1.8 178.6 178.6 0 0 0-37 1.3c-5.4 1.4-10.2 6.8-13.5 11.3a21 21 0 0 0-2.7 7.1l-3.7 15.7a74 74 0 0 0-.1 25.8c0 .6.3 1.1.6 1.3.4.1.7.4 1 .7Zm-51-10c.2.4.4.6.9.6 11.9-1 20.2-1.5 24.7-1.5 3 0 5.5.2 7.7.3.2 0 .4 0 .4-.4a103 103 0 0 1 2-23.3l1.4-7.6c0-.4-.1-.5-.4-.5-11.1.6-21.1.8-30 .7-1 0-1.6.1-2.1.3-.5.2-1 .7-1.2 1.6a67.4 67.4 0 0 0-3.3 29.7Zm137.9 3.8c-.1.2 0 .3.2.3 16.8.7 35.4 4.1 50.2 6.2a258 258 0 0 1 28.6 6.4c4.8 1.3 11 3.8 14.4 5.1l10.6 4.5a523 523 0 0 0 28.5 12.4l11 3.8a80.6 80.6 0 0 0 31.3 5.5 303 303 0 0 0 32.9-1.5c.2 0 .3 0 .3-.3.8-6.9.4-14.2-1.2-21.9-.3-1.3-1.1-1.9-2.3-1.8a1359 1359 0 0 1-26.4 2.1c-11.2.8-21.3.6-32-3.6-4.7-1.9-10.2-4.3-16.5-7.2-4.5-2-9.8-4.8-16-8.4-13.1-7.4-27.8-15.4-44.1-23.9-9-4.6-18.5-8.3-29-11-11-2.9-20.5-3.2-32.6-3-.4 0-.6.2-.6.6l-.4 6.3a98.4 98.4 0 0 1-7 29.4Zm-201.1 63.1 2 14.7c0 .3.4.5.7.5a121 121 0 0 0 15.2-2 207 207 0 0 1 23.2-3.8c27.7-2.6 55-4.6 81.8-6.3 10.7-.6 22.6-.2 33.8-.5 10-.3 21.4-.9 30-.7 14.6.3 28.6 1.3 42 2.8l38.7 5c6.2.8 12 1.8 17.5 3 5.6 1.2 11.4 2.3 17.5 3.4 7 1.2 13.8 3.4 20.6 4.8a474.2 474.2 0 0 1 98.4 37.4 1739 1739 0 0 0 19.2 9.8c1.2.6 2.5.6 3.7.1l8.9-4c1.7-.2 4.7-.8 8.9-1.8 5.2-1.2 12.7-2.3 22.5-3.2 4.6-.4 8.8-.5 12.5-.2.2 0 .5-.2.5-.4v-.2a42 42 0 0 0-4.1-10c-1.2-2.2-3-3.8-4.4-5.7l-3.6-4A258.6 258.6 0 0 0 918 410a303.8 303.8 0 0 0-24-14.6c-.5-.3-1.2-.2-1.7.2-2.6 2.3-3.7 3.6-7.6 3-1 0-1.8-.2-2.8 0-4 .3-12 .8-24.4 1.4-16.7.8-32.3-1.5-47-6.9a993.9 993.9 0 0 1-18.4-6.9c-9.4-4-19.2-8.4-29.3-13-.8-.4-5.2-1.9-13.2-4.7a88.7 88.7 0 0 0-13.5-3.6l-18.8-3.7c-4-.8-16.7-2.4-38.3-4.8a67 67 0 0 0-11.6-.6c-.6 0-1.1.3-1.4.8-1 1.2-2.1 3-3.6 5.2a19.2 19.2 0 0 1-12.1 8.8c-3 .6-6 1-9.4 1-12 .3-24.8-.3-38.4-2a50 50 0 0 1-10.7-2.8c-5.5-1.9-10-4.3-13.4-7.3-5-4.4-7.6-7.6-12.2-8.2-3.2-.4-7.3-.4-12.2 0a284 284 0 0 1-20.7 1.1c-7.3 0-11-5.2-12-12-.1-.5-.3-.7-.7-.7a117.4 117.4 0 0 0-21.8 4c-6.3 2-12.3 3.6-18.4 6.1l-13.5 5.4c-.4.2-.6.5-.5 1l1.5 11.2c.2 2.1.8 5.8 1.7 11.2a233 233 0 0 1 2.6 25.3ZM158 350A172.6 172.6 0 0 0 45.5 455c-2.1 5.6-3.2 10.1-5 15.2-1 3.5-2 7.4-2.8 11.6a225.2 225.2 0 0 0-3.8 32.3 221.9 221.9 0 0 0 11.6 76.7 239.7 239.7 0 0 0 29.8 59.4 262.2 262.2 0 0 0 69.6 68.8l11 6.8a175.9 175.9 0 0 0 87.6 27.7 193.8 193.8 0 0 0 90.9-20.8 212.7 212.7 0 0 0 43.8-29.6 221.7 221.7 0 0 0 70.7-123.2c1.4-7.5 2.5-17.3 3.4-29.4.4-9.4.2-18.8-.4-28.2 0-.4-.2-.5-.6-.4l-209.4 77.4c-.6.2-1.1.6-1.4 1.2a512.8 512.8 0 0 0-16.7 33 13 13 0 0 1-2.8 4.3c-3.7 3-8.5.5-11-3-.3-4.3.3-8 1.9-11.6 1.6-3.5 4-8 7-13.8 5.4-10.2 9-18.4 14.3-29.7 1.8-3.8 3-7.9 4.7-12 1.5-3.8 2.5-6.9 3-9.2 1-3.8 2.2-7.4 3.4-10.9l3-11L251 522c2.3-9.2 3.2-19.4 2.7-30.6-.3-8.6-3.4-17-10.7-21.8-7.3-4.8-20-4.2-28.4-2a53 53 0 0 0-19 9.6c-2.1 1.7-4.4 4.7-6.6 6.3-2.1 1.5-6.1 3.2-9 2.5-5.4-1.3-6-5.4-5.4-10.4.3-3 .8-6 1.5-8.7 2.9-12.3 4.9-23.8 6-34.8 2-20 3.6-36.2 3.6-55.5 0-7.6-1.5-14.7-4.4-21.3a6.3 6.3 0 0 0-3.6-3c-6.1-2.6-13.4-4.6-19.6-2.3Zm462.2 71.5H617c-.3 0-.5.2-.5.5l-2 48.3c-.4 13.7-2.3 26.2-5.6 37.7a120.2 120.2 0 0 1-34 53.7 85.9 85.9 0 0 1-45.1 24.2c-8.4 1.3-16.3 1.8-23.8 1.7-1.8 0-2 .3-.3 1.2l15.9 7.8c1.7.8 3.7 1.4 6.2 1.8a90.2 90.2 0 0 0 33.2.1c3-.5 6.7-1.7 11.2-3.4 8.6-3.3 13.3-4.6 19.5-9.8l10.4-9c1.7-1.6 3.2-3 4.5-4.6l4.3-4.7c4.4-5 9.4-12 12.4-16 8.8-11.5 12-21.2 17.8-36.2 2.5-6.6 3.3-12.2 4.8-19.3a251.2 251.2 0 0 0 4.7-59.6 135 135 0 0 0-1.3-14c-.1-1-1-1.6-1.8-1.5-12.7 1-21.8 1.3-27.2 1.1Zm-8.7 163.3c-10 9.4-21 16.6-33.4 21.6a83.7 83.7 0 0 1-19.2 5.3 87.6 87.6 0 0 1-50.4-6.7 112.3 112.3 0 0 1-40.8-30.6 12 12 0 0 0-2.1-1.9l-.4.1v.1c-.2 1.8 0 4 .9 6.2 3 8.7 6.9 17.1 11.3 25.2a134.5 134.5 0 0 0 22.5 30.6 94.7 94.7 0 0 0 27.8 19.6 76.8 76.8 0 0 0 64.7-1.8c7.5-3.7 14-8 19.9-13a148 148 0 0 0 41.8-58c1-2.7 2-4.8 2.9-6.3 3-5.5 5-12.8 6.6-17.5 1.4-4 2.5-7.8 3.3-11.4l4.6-20.2c2.8-17.5 3.9-35.7 3.3-54.6-.6-18-3-35-7.4-50.6-.2-.6-.6-.9-1.3-.9l-3.6.3c-.4 0-.5.2-.5.6a243 243 0 0 1-3 73.2 648 648 0 0 1-5.4 20.4c-1 3.8-2.7 7.3-4 11.2l-3.3 8.3c-3.7 8.1-7.6 15.5-11.8 22.3a132.5 132.5 0 0 1-23 28.5ZM533 559.4c25-.2 45-28.2 44.7-62.5-.3-34.3-20.8-62-45.8-61.7-25 .2-45 28.2-44.7 62.5.3 34.3 20.8 62 45.8 61.7Zm185.8 62.1c5.3 1.5 10.4 2.6 15.2 3.3a66.5 66.5 0 0 0 42.6-8.9c5-2.9 10.2-6.9 15.5-11.9 4.6-4.3 8-7.9 10.3-10.9 7.3-9.4 13.3-19.7 18-30.8a46 46 0 0 0 3.2-9.2 246 246 0 0 0 8-35c1.6-8.3 2-16.7 2-24.6 0-5 0-13.5.2-25.6 0-2-.2-4.4-.6-6.7-.5-2.8-.8-5-.8-6.7-.1-2.6-1.2-4.3-3.5-5-6.2-2-11-3.7-14.5-5-1-.5-2.5-.9-4.4-1.3-.3 0-.6 0-.8.3a35 35 0 0 0-6 19.6c0 10.3 0 18.6-1 27.2A244.3 244.3 0 0 1 794 529a161.6 161.6 0 0 1-42.2 68.8 137.2 137.2 0 0 1-33 23.6v.2ZM783 513c-.4-34.4-21-62-45.8-61.8-25 .3-45 28.3-44.5 62.7.3 34.4 20.8 62 45.8 61.8 25-.3 44.9-28.3 44.5-62.7Zm45.6 60a119.5 119.5 0 0 1-47.2 53.8 81.1 81.1 0 0 1-53.1 9.5c-6.6-1-13-2.8-19.2-5.3a110.5 110.5 0 0 1-35-23.3 129 129 0 0 0-6-5.7c-.2-.3-.3-.2-.3.2.2 1.4.4 2.7.8 4 2 6.8 3.6 12 4.8 15.2a107.9 107.9 0 0 0 19.2 34.5 69.9 69.9 0 0 0 24.6 19.4 60.3 60.3 0 0 0 23.2 5.6c6 .2 12.6-.7 19.7-2.8a84 84 0 0 0 20.7-9.3c11-7 20.8-15.9 29.4-26.5a177.4 177.4 0 0 0 24-39.3 210.9 210.9 0 0 0 13-36.8c.5-1.5 1-4.8 1.7-9.9a206 206 0 0 1 1.8-9.8 137 137 0 0 0 2.8-16.8c1.3-13.2 1.2-27.9-.4-44.2-.6-6.4-1.6-11.9-2.8-16.7l-2.6-10.5-.2-.5c-.5-1-1.1-1.4-1.8-1.3-.5 0-.8.3-.7.8 1.8 15.2 2 30.8 1.2 46.8a230.4 230.4 0 0 1-7.2 41.6c-3 9.6-6.4 18.7-10.4 27.3Zm68.6-92.3a480.5 480.5 0 0 0-33.8-16.7c-.3 0-.6 0-.7.3v.3a251.4 251.4 0 0 1 4.5 49.8c0 .7.3.8.7.2 4.3-5.7 10.2-12.9 17.6-21.6 4-4.6 7.8-8.5 11.7-11.6.2-.2.2-.4 0-.6Zm49 121.1 3.3 19.2c0 .4.4.6.8.6 3 0 5.9-.4 8.5-1l12.4-2.7c11.8-2.4 15.4 6.8 16.4 16.2 1.6 14.1.7 27.5-1 42-.8 6.4-2.4 9-9.1 9-3 0-4.6-1.5-5.2-4.4a53 53 0 0 1-.8-16c1.2-11.9 2-20.9 2.4-27 .2-2.4-1-5.7-3.8-5-8.6 2.2-16.4 4.2-25 3.8-3.3-.2-5.7-1.6-7-4.3a52.9 52.9 0 0 1-5.1-15.9c-1.3-7.8-2.5-16-3.6-24.8-.1-.7-.6-1.2-1.3-1.4a14 14 0 0 0-3 0 262 262 0 0 1-40.6.1c-1.8-.6-3.2-.5-4.1.5a58 58 0 0 0-13 25.7 66.4 66.4 0 0 0 1 34.7c3.7 13 8.5 24 14.5 33.2a406 406 0 0 0 8.8 13.1 96.6 96.6 0 0 0 18.9 20 80 80 0 0 0 16.9 10.1 100.5 100.5 0 0 0 61.4 6.3 121.4 121.4 0 0 0 70.6-41A149.7 149.7 0 0 0 1094 599c.3-18.6-3.3-35.7-10.7-51.4l-3.5-7.4a117.2 117.2 0 0 0-30.3-34.7c-3-2.3-8.1-5.5-15.3-9.5a127.4 127.4 0 0 0-37.2-15 143.8 143.8 0 0 0-44-3.2 100.5 100.5 0 0 0-73 41 60 60 0 0 0-3.7 5.7c-1.5 2.7-2.6 4.7-3.5 5.8a29.2 29.2 0 0 0-4.6 8.4 79.5 79.5 0 0 0-3.6 29.1c0 2 1.3 3.4 3.7 4 5.4 1.4 9.6 2.2 12.6 2.4 9 .7 17.2 1 24.5.8 11.2-.3 19.2-.5 24-.8 6.7-.4 11 2.5 13.3 8.5.8 2.2 1.3 3.7 1.4 4.4.5 5.3 1.3 10 2 14.6ZM670 585.1c0 .1 0 .1 0 0 .2.1.2.1.2 0h-.2Zm192.8 1.7-2.4-1c-.4-.3-1 0-1 .3l-.1.2c-4.4 9.6-7.3 17.6-6.5 18l.8.4c.9.4 5-7 9.5-16.6v-.2c.2-.5 0-1-.3-1Zm-456.7 110a227.2 227.2 0 0 1-66.8 50.4c-1.2.6-2 1.7-2.1 3.2-.6 5.1 0 9.8 2 14.2a84.6 84.6 0 0 0 6 12.1 170.6 170.6 0 0 0 60.2 53.8 1104 1104 0 0 1 25.2 14 111.5 111.5 0 0 1 18.4 13.3 142 142 0 0 1 24.2 24.8 597 597 0 0 1 13.3 18 30 30 0 0 1 2.3 4c.7 1.1 2.3 2.2 4.8 3.1a480 480 0 0 0 106.9 25c25.3 3 52.3 3.3 81 1 5.3-.4 11.9-1.3 19.8-2.7 9.5-1.7 18-3.5 25.6-5.4 11.6-3 22.7-6.9 33.2-11.7a124.5 124.5 0 0 0 31.4-20.6A446 446 0 0 0 811 875a279 279 0 0 0 55.6-94.9c1.8-5.2 3.4-10.8 4.8-16.8a147 147 0 0 0 5.3-45.5c-.2-4.4-.7-8.9-1.6-13.6a31.1 31.1 0 0 0-3.4-8.5 137.6 137.6 0 0 1-18.4-41 94.7 94.7 0 0 1-2.7-31 1 1 0 0 0-.3-.8l-4.7-4.7a.8.8 0 0 0-1.1 0l-.1.2-2 4c-.6 1-1 1-1.2-.3-.2-.9 0-2 .6-3.3h-.5a509.2 509.2 0 0 1-9.2 14.9 161.4 161.4 0 0 1-23.6 29.1 119.3 119.3 0 0 1-36.3 24.7l-4.7 1.7-4.8 1.4c-4.5 1.1-7.6 2-9.4 2.2a63 63 0 0 1-25.3-.6 75.4 75.4 0 0 1-16.5-5.5c-22.3-10.9-37.5-30.8-47.1-53.6-3.3-7.8-6.1-17.7-8.5-24.6-.1-.4-.3-.4-.5 0-6 9.5-12.1 18-18.4 25.1a131.7 131.7 0 0 1-27 23.6 91 91 0 0 1-62.9 15.7 87.3 87.3 0 0 1-30.7-10 114.1 114.1 0 0 1-28-21.9 154.3 154.3 0 0 1-27.6-41.8c-.4-.8-.6-.8-.8.1-1 4.4-2.2 9-3.8 13.5a240 240 0 0 1-36.6 68.4c-2.8 3.5-7.2 8.6-13.4 15.6Zm487 24a150.8 150.8 0 0 1-.7 42.6c-2.2 14.1-4 23.1-5.1 26.8l-5.6 18.2c-.1.4 0 1 .5 1.1a105.8 105.8 0 0 1 41.9 36 73 73 0 0 1 9.5 21.4c0 .3.4.5.7.4h.2c3.9-2.7 8-4.4 12.3-5.3 12-2.6 23.8-1.7 35.6 2.5l10.7 4.4 2.9 1c.4 0 .9-.3 1-.7v-.4c-.4-1.7-.8-3-1.3-4.2-4-9-8.5-17.9-13.6-26.7a628.7 628.7 0 0 0-41-62.3c-11-14.6-20.8-27-29.4-37-1.7-2-4-4-7.1-6a36 36 0 0 1-6.7-5.4 37 37 0 0 1-4.7-6.5Zm-727.5 28.4v-.3h-.1a318 318 0 0 1-27-15.6.6.6 0 0 0-.6 0 561.8 561.8 0 0 0-69.5 66.2c-14 15.8-27 33-39.2 51.5-1 1.4-2 2.4-2.7 3.6-.4.8-.3 1 .5.5 7.3-4.8 15.6-8.6 24.3-11.9 4.8-1.8 8-3 9.8-3.5 10-3 19.6-4.9 28.6-5.8.9 0 1.7-.6 2.2-1.3 16.2-22.7 34-44 53.7-63.8a1288 1288 0 0 1 20-19.6Zm113.6 136a126.3 126.3 0 0 1-31.5 9c-5.5.8-9.7 1-12.6.5a19 19 0 0 1-15.5-12.7 44.7 44.7 0 0 1 .2-26.6c1.9-6 3.6-10.6 5.2-13.7 0-.2 0-.4-.2-.5h-.2c-5.3 1-10.7.7-16.1-.4-4.6-1-8.4-3-11.5-6.3a19.9 19.9 0 0 1-4.8-11.3c-.8-6.8.4-13 3.4-18.8a89.1 89.1 0 0 1 20.8-24.2c4.6-4 9.6-8 14.8-11.9.4-.3.4-.5-.1-.5a187.2 187.2 0 0 1-44.1-9.6c-3-1.2-5.8-2.7-7.2-2.4-.4.1-1 .4-1.6 1a560.8 560.8 0 0 0-69.7 77.2 99.7 99.7 0 0 1 28.3 8 56 56 0 0 1 16.9 11.7c5 5 10 10.5 15.2 16.7 3.2 3.8 6.8 9.4 10.9 16.7 3.3 6 5.6 9.8 7.2 11.8 3.5 4.4 7.6 8.4 12.3 11.8a31 31 0 0 0 15 6c7.8 1 15.6-.2 23.3-3 12.2-4.7 22.7-9.9 31.6-15.6 1-.6 1.9-1.5 2.8-2.7l7.5-9.9c.3-.5.2-.6-.3-.4Zm24.6-96c7.3-1 15.2-1.3 23.7-.7.3 0 .5-.2.5-.5l-.1-.3a33.8 33.8 0 0 0-17-11 54 54 0 0 0-12.3-2.9c-7-.6-16.4-.7-24 .4a112 112 0 0 0-26 7 71.6 71.6 0 0 0-27.5 19.5c-1.6 2-3.1 4-4.4 6.3-2 3.4-5 8.7-4.1 12 .3 1.1.9 2 1.9 2.7 5.3 3.5 9.5 2.3 16 .7a47.5 47.5 0 0 0 18-8.7 110.9 110.9 0 0 1 55.3-24.5Zm-4 20.1a40 40 0 0 0-6.8 1.8 105 105 0 0 0-32.7 18.6 60.2 60.2 0 0 0-22.6 45 2 2 0 0 0 1.9 1.8c2 0 3.7-.2 5.3-.7a283.5 283.5 0 0 0 19.8-6.2l15.9-4.6c3.7-1 11.2-2.5 22.7-4 1.4-.3 2.7-.8 3.8-1.7a159.7 159.7 0 0 1 34.7-19c9.2-3.5 18.5-6 27.7-7.6.4 0 .5-.3.3-.6a43 43 0 0 0-30.1-23.2 91.2 91.2 0 0 0-40 .4Zm568.6 30c-.3.6-.1 1.2.5 1.5a122 122 0 0 1 40.7 44c.2.4.6.6 1 .5.2 0 .3 0 .4-.2 1.5-1.4 3.2-3.2 5-5.3 2.2-2.5 1.5-6 .7-9a62.7 62.7 0 0 0-21.1-32.4 119.3 119.3 0 0 0-19.1-12.5c-1-.4-1.8 0-2.2 1l-6 12.4Zm-518 18.6a133.9 133.9 0 0 0-54.7 37.5 108.5 108.5 0 0 0-22.6 40.4 82.2 82.2 0 0 0-3.3 23c0 2.1.5 5 2.2 6.2 6 4.8 14.9 4.2 22.8 3a519 519 0 0 0 21-3.8c2-.4 5.6-1.4 10.9-2.9 5.9-1.7 12-3 17.8-4.8 3.5-1 5.8-1.8 6.9-2a1363.4 1363.4 0 0 1 65.2-15.4c2.8-.6 4.9-2.4 7.9-3 4.2-1 7.4-1.7 10.8-3.7 3.5-2 8.2-3.5 11-6.3a26.8 26.8 0 0 0 7.7-20.3 50 50 0 0 0-14.8-32c-2-2-5-4-7.2-5.6a23.4 23.4 0 0 1-5-4.5c-2-2.4-3.6-4-4.8-4.8a30.1 30.1 0 0 0-6.5-3.2 73.4 73.4 0 0 0-23.4-4.8c-14.2-.4-28.2 2-41.8 7Zm488 23-1.2 1.1c-.2.2-.2.4 0 .5l12.8 4.2a117.3 117.3 0 0 1 49.4 40.8c.2.2.5.3.7.1 1.7-2.2 2.8-4.3 3.6-6.5 1.5-4 0-8.7-1.4-13.2a97.3 97.3 0 0 0-17.6-31.7 61.1 61.1 0 0 0-26.7-18c-.6-.3-1.3 0-1.6.5a118.2 118.2 0 0 1-18 22.1Zm-10.8 63.6c2.9 1 5.9 2 8.8 2.8a199.8 199.8 0 0 1 32.4 13.9l12.8 7.1c2.2 1.2 7.3 2.5 8.7-.5 1-2.3 1.6-4.5 1.3-7.2a55.3 55.3 0 0 0-4.6-17.8 73 73 0 0 0-31.2-33 77.8 77.8 0 0 0-39.7-10.4c-1.4 0-2.7.2-3.8.5-1.1.3-2.2 1-3.5 1.5-6 3.2-11.4 6.5-16.4 10a47.6 47.6 0 0 0-13.1 13.4c-.5.7-.8 1.5-1 2.2 0 .3 0 .6.3 1l2.6 4.4c.3.6.9 1 1.6 1.1 7 1.3 12.8 2.2 19.4 4l20.7 5.3 4.7 1.7Z" fill="#54484A"/><path d="m858 15.2-10 8.2c-.6.5-.8 1.5-.5 2.3a29 29 0 0 0 2.7 4.8c.9 1.3 1.5 3 .8 4.1-1.4 2.4-3.4 3.2-6.1 2.3-4.7-1.5-10-5.3-13.7-7.5-.4-.2-.8-.3-1.2 0-1.4.5-2 1.7-3.6 2-2.2-2.4-4.1-5.3-6.4-7.4a80 80 0 0 0-3.2-2.8c-.2-.2-.3-.5-.1-.8l.2-.2c2.3-1 4.6-1.9 7-2.4 11-2.3 22.4-3.2 34.2-2.6Z" fill="#FFF"/><path d="M945.9 81a29.2 29.2 0 0 0-2.8 5.2 69 69 0 0 1-2.4 5.3c-1.7 3.2-3.2 6.3-4.6 9.4-1.7 3.6-3.6 5.6-7.5 5.8-7.5.5-17.2.7-25.4 2.4a2 2 0 0 0-.8.4c-1.8 1.6-1.8 3-.1 4.2 1.9 1.3 6.4 3.6 13.4 7 2.3 1 4.8 2.7 7.4 3.7.7.3 1 1 1 1.6l-.5 20.7c0 2 .3 3.5 1 4.8.3.5.8.8 1.4.6 2.2-.7 4.3-1.9 6.3-3.8 1.7-1.5 3.8-3.6 6.4-6.3.5-.5 1.2-.6 1.8-.2l4.6 3.3a60 60 0 0 1 4.2 3.8l8 7.6c-.3 2.4-1.2 7.1-2.7 14.1a20 20 0 0 1-2 6 19.7 19.7 0 0 1-7.2 5.7c-5 2.7-9.5 2.2-13.6-1.5-5.7-5.2-8.5-11.2-12.2-18.7a46.9 46.9 0 0 0-33.9-51.4c-5-4.2-10.5-6.3-16.5-6.5a.8.8 0 0 1-.7-.4 70 70 0 0 0-14.3-15c-.3-.3-.8-.2-1 .1l-.2.5c.3 8 1 14.5 2.5 20a47.1 47.1 0 0 1 1 21.7 283.6 283.6 0 0 1-4.7 24.1c-2.4 8-4.1 14-5.2 18.3-1.5 6-4 11.3-6.1 18-.2.4-.6.7-1.2.7-3.2-.2-6.4-.6-9.5-1.2-2.4-.5-5.4-1.6-8.8-3.4l-11.8-6c-6.6-3.3-14-5.9-22.1-7.9l-20.2-4.9c13.6-7.4 27.4-14.9 41.2-22.6 1.9-1 3.4-2 4.5-3.2.5-.5.7-1.3.3-2a6 6 0 0 0-3.2-2.9l-8.8-3.7c-7-2.6-15-4.5-21.3-6.5a96 96 0 0 0-17-3.5c-.5 0-1-.6-1.1-1.2-1.6-9.7-2.8-19.6-3.5-29.8l-.6-4.5c-.5-2.3-1-3.7-1.4-4.3-2.5-3.5-6.4-1.8-8.8.5a122 122 0 0 0-11.6 12.2 280 280 0 0 0-13.3 16.7 39.4 39.4 0 0 0-4 7 2 2 0 0 1-1.4 1.1 673 673 0 0 0-41.6 2.8 20 20 0 0 0-5.1 1c-1.2.4-1.8 1.8-1.4 3l.3.6c3.3 4.5 7 8.7 11.2 12.7 2.7 2.6 6.8 6.6 12.2 12.1.6.6 1.9 1.3 2.3 2.1.2.3.2.6 0 1L684.2 197l-.8-.2a289.5 289.5 0 0 0-43-8.2 145.8 145.8 0 0 0-37.2.4.7.7 0 0 1-.6-.4v-.2a107 107 0 0 0 4-14.7c1.2-4.8 3.4-11 6.9-18.5a240.8 240.8 0 0 1 18.9-34A210.5 210.5 0 0 1 675 73.4a175 175 0 0 1 39-24.2c10.8-4.9 22.2-8.9 34.3-11.9 15.2-3.8 31.2-6.2 48-7a29 29 0 0 0 3.5-.5c1.2-.3 2-.4 2.7-.4.4 0 .7.1 1 .4 2.6 2.5 5.4 4.7 8.5 6.6 5.9 3.6 13 7.8 21.5 12.6l1.4 1.1c.4.4.9.6 1.3.6s.5 0 .3-.4c-1.6-3.8-2.6-6-3-6.5l-7.3-12c1.6-.4 2.2-1.6 3.6-2.2.4-.2.8 0 1.2.1 3.8 2.2 9 6 13.7 7.5 2.7 1 4.7.1 6-2.3.8-1.2.2-2.8-.7-4a23.8 23.8 0 0 1-2.7-4.9 2 2 0 0 1 .6-2.3l10-8.2a49 49 0 0 1 16.2 2.7c14.3 5.1 27 12.8 38.2 23.1 5.3 4.8 11.6 11.4 18.9 19.8A93 93 0 0 1 945.9 81Z" fill="#BEACE6"/><path d="M276.7 27A289 289 0 0 1 296 39c.5.3.7 1 .5 1.4l-2.2 6c-4.5 12-7 18.8-7.4 20.5-1.4 5.7.6 9.3 6 10.7a17.6 17.6 0 0 0 8.9-1c4-1.5 13.8-5 29.2-11 1.2-.4 2.5 0 3.9 1.4l2.9 2.6 65 54.5c1.6 1.2 4.5 3.2 6.2 5.2.2.2 0 .3-.1.4l-242.6 93c-1.7.7-3.1 1.3-4 2-2 1.2-3.1 2-5.4 2.5a42 42 0 0 1-39-10.4c-2.2-2-4-4.7-5.3-7.7a13 13 0 0 1 2.6-15.3L268 34.5c4.2-4.5 6.7-7 7.5-7.5.4-.2.7-.3 1 0Zm1.8 56a4.4 4.4 0 0 0-6.2-.4L205 140.7a4.4 4.4 0 0 0-.4 6.2v.1c1.7 1.8 4.5 2 6.3.4l67.2-58.2a4.5 4.5 0 0 0 .3-6.2Zm-32.1 58.5a4.3 4.3 0 0 0-6.1-.7l-52 41a4.3 4.3 0 0 0-.7 6.1v.1a4.3 4.3 0 0 0 6.2.7l52-41c1.8-1.4 2-4.2.6-6.2ZM193 155a4.4 4.4 0 0 0-6.1-.7l-16.3 13.1a4.4 4.4 0 0 0-.7 6.1v.2a4.4 4.4 0 0 0 6.2.7l16.3-13a4.4 4.4 0 0 0 .7-6.2l-.1-.2Zm-31 25.6a4.3 4.3 0 0 0-6-.6l-15.8 12.7a4.3 4.3 0 0 0-.6 6.1v.2a4.3 4.3 0 0 0 6.2.6l15.8-12.7a4.3 4.3 0 0 0 .6-6l-.1-.3ZM945.9 81a151 151 0 0 1 7.2 15.4c5.8 19.5 7 39.5 4 60-2.8-2.5-5.5-5-8-7.6a42.3 42.3 0 0 0-8.8-7c-.6-.5-1.3-.4-1.8.1l-6.4 6.3c-2 1.8-4.1 3.1-6.3 3.8-.5.2-1.1 0-1.4-.6a10 10 0 0 1-1-4.8c0-8 .3-14.9.6-20.7 0-.7-.4-1.4-1.1-1.6-2.6-1-5.1-2.8-7.4-3.8-7-3.3-11.4-5.6-13.4-6.9-1.7-1.2-1.7-2.6 0-4.2.3-.2.6-.4.9-.4 8.2-1.7 17.9-1.9 25.4-2.4 3.9-.2 5.8-2.2 7.5-5.8l4.6-9.4a69 69 0 0 0 2.4-5.3c1-1.7 1.9-3.4 3-5Z" fill="#FFF"/><path d="m291 136.8 67.3-58.2a4.4 4.4 0 0 1 6.2.4v.1a4.4 4.4 0 0 1-.3 6.2L297 143.5a4.4 4.4 0 0 1-6.2-.4h-.1a4.4 4.4 0 0 1 .4-6.3Z" fill="#54484A"/><path d="m766.8 168.6-5.4-.8c-.3 0-.4.1-.2.4a5 5 0 0 0 1.5 1.7l5.4 3.5c-.3 10.8 0 21.3 1 31.6.3 1.7.3 3.3.2 4.7-.1.7-.4 1-1.1 1-1 0-2-.2-2.7-.5a137.3 137.3 0 0 1-39.1-24c-1-.9-2.2-.9-3.2-.3a510.7 510.7 0 0 1-27.8 16.5c-3 1.6-6.1 2.7-9.5 3.1-1.5.2-2.4-.4-2.7-1.9-.3-1.6-.3-3 0-4.2l6.4.1c.2 0 .2 0 .2-.2v-.4c0-.3-.2-.5-.5-.5l-5.2-1 10.9-40a1 1 0 0 0-.1-.9c-.5-.8-1.7-1.5-2.3-2a419 419 0 0 0-12.2-12.2c-4.2-4-8-8.2-11.2-12.7-.8-1-.5-2.5.5-3.3l.6-.3c1.3-.5 3-.8 5-1 12.8-1.3 26.7-2.2 41.7-2.8.7 0 1.3-.5 1.5-1a30 30 0 0 1 3.9-7 280 280 0 0 1 13.3-16.8 149 149 0 0 1 11.6-12.2c2.5-2.3 6.3-3.9 8.8-.5.4.6.9 2 1.4 4.3l.6 4.5c.7 10.1 1.8 20.1 3.5 29.8 0 .6.6 1.1 1.2 1.2a96 96 0 0 1 16.9 3.5c6.2 2 14.3 3.8 21.3 6.5l8.8 3.7c1.4.6 2.5 1.6 3.2 3 .3.6.2 1.4-.3 2a23.7 23.7 0 0 1-4.5 3.1c-14 7.4-27.8 15-41.4 22.3Z" fill="#FFF"/><path d="m188.3 181.8 52-41a4.3 4.3 0 0 1 6 .7l.2.1a4.3 4.3 0 0 1-.7 6.1l-52 41a4.3 4.3 0 0 1-6.1-.7h-.1a4.3 4.3 0 0 1 .7-6.2Z" fill="#54484A"/><path d="M257.5 559.1c4.6-1.4 9-2.9 13.4-4.6l11-4.2a40009.6 40009.6 0 0 0 166.9-61c1.2-.4 2-.9 2.3-1.7 1.3-3.2 1.8-6.6 1.5-10.2-1-9.6-2.7-22.9-5.1-39.8a1095.7 1095.7 0 0 0-5.7-43.6c-1.1-7.5-2.2-16.6-3.3-27.4-.3-2.7-1-7.8-2.2-15.3l-2.1-15.3a890 890 0 0 0-4-30l-2.6-19.9a678.5 678.5 0 0 0-3.8-28.8 1304.4 1304.4 0 0 0-6.1-46.1c-.5-3.4-2-15-4.4-35.2-.2-1.6-1-2.8-2.5-3.8-1-.6-2.3-.7-4 0-3.2 1-5 1.7-5.4 2L202 251.6c-1.5.6-3.4 1.1-5.7 1.6-3.5.7-4.6 2.8-4.2 6.2a673 673 0 0 0 4 30.7c1.2 6.4 2 13 2.8 19.8.7 6.7 1.8 14.1 3 22.2l1.9 12.7c1.5 12 2.8 22.5 4.3 32a463 463 0 0 1 3.5 26c.3 2.4 1.2 9 2.9 19.7 1.4 9.2 2.6 18.5 3.6 28l-20.2 6.6c-.6.2-1.2 0-1.3-.7-.6-3.9-.8-7.4-.4-10.4a648 648 0 0 0 4.4-53c.4-9 .3-17.4-.3-25.2a48.7 48.7 0 0 0-5.3-19c-3-6-7.5-9.9-13.4-12-.3 0-.6-.3-.7-.6l-.7-3a764 764 0 0 1-5-34.8 399 399 0 0 0-2.7-19.8 714.9 714.9 0 0 1-5-38.7c-.1-.8.2-1.4.9-1.7 2-1 4.9-2.5 7.7-3.4 3.5-1.2 6.6-2.2 9.3-3.3 19.7-7.6 37.3-14.4 52.6-20 .4-.3 4.8-2 13-5.2 5.7-2.3 12-4.4 17.5-6.5a843 843 0 0 1 19.8-7.7C329 176.7 372 160.2 417 143l5.5-2c.5-.2 1 .1 1.2.6v.1a13702 13702 0 0 1 5.6 45.4c.5 3.7 1.5 8.4 2 12.6 1.5 14.2 3 27 4.7 38.4l2.6 19.8c1.5 12.5 2.2 19 3.7 29 .8 5.3 1.5 11.1 2.2 17.3l2 17.4c2.4 17 4.7 34.8 6.9 53.3.3 2.6 1 5.8 1.4 8.6 1.8 16.2 4 34 6.7 53.1 1.6 11 2.8 25.2 4.7 37.2.9 5.5 1.3 11 .5 15.1l-2.2 11c-.2.8-.7 1.4-1.5 1.7l-213.4 78.8h-.3v-.3c2-4.6 3.6-9.4 5-14.5.7-1.9 1.6-4 3-6.4Z" fill="#7C5DBC"/><path d="m170.7 167.5 16.3-13a4.3 4.3 0 0 1 6 .6l.2.2a4.3 4.3 0 0 1-.7 6.1l-16.3 13.1a4.3 4.3 0 0 1-6.1-.7l-.1-.2a4.5 4.5 0 0 1 .7-6Z" fill="#54484A"/><path d="m257.5 559.1 2.6-10.4 182.9-67c.8-.4 1.3-1.2 1.2-2-.5-4.9-1-9.3-1.7-13.3-2.5-15.2-4.2-33-5.7-43.8-2.8-20.2-4.7-34.6-5.6-43-.5-5-2.1-11.8-2.7-17.3a1141.6 1141.6 0 0 0-6.6-51.9l-3.4-26.8c-2.4-15-4-32.6-6-45l-2.6-19.9a813.5 813.5 0 0 0-4.7-35.4c-.1-.4-.4-.6-.8-.6h-.1L202.9 261c-1 .4-1.4 1.1-1.2 2.1l26 187-9.4.4c-1-9.5-2.1-18.8-3.6-28a612.1 612.1 0 0 1-3-19.8 560 560 0 0 0-3.4-26c-1.5-9.3-2.8-19.9-4.3-31.9-.4-3.5-1.1-7.7-2-12.7a410 410 0 0 1-3-22.2 379 379 0 0 0-2.6-19.8 673 673 0 0 1-4.1-30.7c-.4-3.4.7-5.5 4.2-6.2 2.3-.5 4.2-1 5.7-1.6L401.6 174l5.4-2c1.6-.6 3-.6 4 .1 1.5 1 2.3 2.2 2.5 3.8a2280.7 2280.7 0 0 0 8 61.5l2.5 19.8c1.3 8.4 2.5 18 3.8 28.8l2.7 19.8c1.2 8 2.4 18 3.9 30.1.7 5.7 1.3 10.8 2 15.3a362 362 0 0 1 2.3 15.3 853 853 0 0 0 6 47.2l3 23.8c2.4 17 4 30.2 5 39.8.5 3.6 0 7-1.4 10.2-.3.7-1.1 1.3-2.3 1.7-2.1.6-10.7 3.8-26 9.4a40009.6 40009.6 0 0 1-152 55.8c-4.5 2-9 3.4-13.5 4.8Z" fill="#FEE5A5"/><path d="m739 300.2 2-9.2c.3-1-.3-2-1.3-2.3h-.3c-1.1 0-2.6.1-4.5.4-2.3.4-5.5 1.1-9.7 2.2-1.2.3-2.5-.2-3-1.3-3.2-6-6.1-10.9-8.7-14.6a4 4 0 0 0-2.5-1.8c-1-.2-2 .4-2.4 1.4l-4.1 11.4c-.3 1-1.2 1.5-2.1 1.5-2.2 0-4.4.7-6.5 2l-17.2-.5c-.3 0-.6 0-1-.3-1-.8-1.7-1.7-2.3-2.8-1.8-3.5-3.8-7.4-6.6-10-6.5-6-14-6.6-23.3-7.2-12.4-.8-25.8-.6-40.2.6-3.4.3-6.4 1.1-8.8 2.5a47 47 0 0 0-13.4 11l-4.2 5c-.5.5-1 1-1.4 1l-17.7 1.6c-.2 0-.4 0-.4-.4 1.4-8.9 2.5-16.6 3.3-23.3 1-8 1-19.3 1.4-27.4.3-5 .8-9.3 1.7-12.9a4 4 0 0 1 2-2.4c7.6-3.5 14.6-7.7 21-12.6 2.9 2.2 3 4.1.4 6a134 134 0 0 1-8.4 5.5 19.6 19.6 0 0 0-4.2 3.6c-.6.7-.5 1.8.2 2.4l.2.1a14 14 0 0 0 4.5 1.4l7.7 1.1c.6.1 1 .5 1.2 1.1l3.8 13.3c.3 1 1.2 1.4 2 1.1 1.6-.5 2.7-1.6 3.5-3.4a70 70 0 0 1 5.7-11c.5-.8 1.5-1.4 2.3-1.5l14.2-.7a4 4 0 0 0 2-.5c1-.5 1.3-1.7.8-2.6l-.3-.5-11.8-11.8c-1-.9-1.1-1.9-.7-3l3.7-9.6 67.4-3.6a8.4 8.4 0 0 0-.1 4.2c.3 1.4 1.2 2 2.7 2a26 26 0 0 0 9.5-3.2c8.4-4.6 17.6-10.2 27.8-16.5 1-.6 2.3-.5 3.2.2a159.5 159.5 0 0 0 39.1 24.2c.8.2 1.7.4 2.7.4.7 0 1-.3 1-1 .2-1.4.2-2.9 0-4.7-1-10.2-1.4-20.8-1.1-31.6l18.4 12.1a134 134 0 0 0 7.8 5c7 4 13.6 6.7 20 10.5.5.2.6.5.6 1 0 6 .3 11.4-.1 18.2-.1 2-.6 4.4-1.5 7.3a253 253 0 0 0-3.2 12.5c-1.8 7.2.8 11.4 7.8 12.6 6.2 1.1 13 4 16.8 9.2 2.3 3.2 4.3 7.8 5.3 11.8 2 8.4 3.2 18 3.6 28.6 0 .3-.1.4-.4.2a24 24 0 0 0-4.5-2.3l-4.5-1.8c-8.3-3.8-16.5-7.7-24.7-11.7a442.7 442.7 0 0 0-23.2-10l-33.8-12.7-5.5-1.9c-2.1-.6-2.2-.3-.5 1 14.5 10.6 28.3 20 41.4 28.3 6.6 4.1 14.8 8.6 24.7 13.3a973.2 973.2 0 0 0 31.5 14.3 3 3 0 0 1 1.8 2.5 82 82 0 0 0 6.3 24.3c.3.6 0 1-.6 1-5.1.4-10.6.4-16.5.1-2.4 0-4.8-.6-7-1.4a260.7 260.7 0 0 1-34.7-16.4c-12.8-7.2-27.3-15-43.4-23.3l-10.7-5.3Z" fill="#BEACE6"/><path d="m140.4 192.6 15.8-12.7a4.4 4.4 0 0 1 6 .6l.2.2a4.4 4.4 0 0 1-.6 6.1L146 199.5a4.4 4.4 0 0 1-6.1-.6l-.1-.2a4.4 4.4 0 0 1 .6-6Z" fill="#54484A"/><path d="M260 548.7c3.4-11.9 6.2-25.2 8.4-39.9A72.5 72.5 0 0 0 267 479c-1.4-5-3.1-9-5.2-12a34 34 0 0 0-9.4-9.9 42 42 0 0 0-18.3-6.6l-6.6-.7-26-186.9c-.1-1 .3-1.7 1.2-2L404 182.4c.4 0 .8 0 .9.4v.1c1.6 10.2 3.2 22 4.7 35.4.6 5.2 1.5 11.8 2.7 19.8 1.9 12.5 3.5 30.1 5.9 45.1l3.4 26.8 2.7 20c1.4 9.3 2.7 20 3.9 32 .6 5.4 2.2 12.2 2.7 17.2.9 8.5 2.7 22.8 5.6 43 1.5 10.7 3.2 28.6 5.7 43.8.6 4 1.2 8.4 1.7 13.2 0 1-.4 1.7-1.2 2L260 548.7Zm51.5-268.5c.2-.3.6-.5.9-.3l.2.1a567.3 567.3 0 0 1 26.6 23.6 6 6 0 0 0 2.6 1.3c.3.1.6 0 .7-.3l5.4-11.2c.5-.9.9-2 1.4-3.4.2-.6 0-1.2-.4-1.6l-40.3-35.2a.7.7 0 0 0-1.1.1l-.1.1-3 5.6c-8 18-14.1 31.3-18.2 40.2-2 4.1-3.4 7.6-4.6 10.6-.6 1.6-1.7 3.2-2.5 4.5-.2.3-.1.8.2 1.1l10 8.7c.6.5 1.4.4 1.9 0l.2-.4 20-43.5Zm76.8 66.7c-.6 1-1.5 2.2-2 3.6-2 5-4.8 10.2-6.5 14.1-4.2 9.3-7.8 17.2-11 23.6 0 .3 0 .6.3.8l10 8.8c.3.2.5.2.6 0 1.7-3 3.3-6.3 4.9-9.8l4.4-9.7 3-6.8c4.6-10 9.7-20.2 13-28.5.6-1.2.9-2.4 1-3.7l-.2-.8a15 15 0 0 0-2.7-2.9c-8.4-7-19.1-16.4-32-28a41.2 41.2 0 0 0-4.1-3.2c-.3-.2-.5 0-.7.2l-7.1 15.2c-.2.4-.1.8.2 1A759.2 759.2 0 0 1 388 346c.4.3.4.6.2 1Zm-97.5 9.7a5.8 5.8 0 0 0-2.6 4.1c-.3 2.1-.3 4.3 0 6.5.6 3.5.9 5.6.9 6.4 0 2.8.3 5 .6 6.5.6 3 .4 6.2.8 9.5.6 4.3.5 7.6.6 11.4 0 .4.3.8.7 1 3.2 1.3 7 2.5 11.4 3.7l13.2 3.3c2.2.6 3.6 1.8 5.6 2a32.5 32.5 0 0 1 3.4 1c1.9 1 3.5.5 4.6-1.5 6.4-7 12.8-13.9 19.4-20.6l4.4-5c1.7-2 3.4-3.6 5-4.7.5-.3.8-.8.7-1.3-.6-4.4-.4-8.2-1.5-12.8-.7-3.2-1.1-6.2-1.2-8.8-.1-2.8-1-5.9-1-8.5a21 21 0 0 0-.5-4.9 12 12 0 0 1-.2-5c0-.6 0-1-.2-1.3a3 3 0 0 0-1-.9l-4.7-1.3-30.7-7.5c-.5 0-1 0-1.3.4l-26.4 28.3Zm-31.5 37c1.7-3 3-5.7 4.2-8l15.6-34.4c.3-.6 0-1.4-.4-1.9l-10-8.6c-.3-.4-.7-.3-1.1.1l-.5 1c-3 6.1-5.5 11.7-7.7 16.7l-18.7 41.2a2 2 0 0 0 .4 2.1l37.6 32.8c.3.2.7.2.9 0v-.3l6.5-14.4c.5-1.2.3-2.2-.6-3-3.3-3.4-8.2-7.2-10.6-9.3a1714.9 1714.9 0 0 0-11.3-10 18.9 18.9 0 0 0-4.1-3c-.4-.3-.5-.6-.2-1Zm76.9 65.5c-.4.5-1.2.5-2 0l-28.3-24.8c-.3-.2-.6-.2-.8 0-1 1-1.6 1.8-2 2.7-2.4 6-4.3 10.1-5.7 12.4-.2.3-.2.6 0 1 1.2 1.2 2.4 2.5 3.7 3.6l37 32.5c.3.2.7.2.9 0v-.2l27.9-60c.4-1 .2-2-.6-2.7l-9.4-8.2c-.4-.4-.7-.3-1 .2l-19.5 42.1-.2.7v.7Z" fill="#9870E3"/><path d="m615.9 202.8-3.7 9.5c-.4 1.2-.2 2.2.7 3.1l11.8 11.8c.8.8.8 2 0 2.8-.1.1-.3.3-.5.3-.5.3-1.2.4-2 .5l-14.2.7c-.8.1-1.8.7-2.3 1.5a70 70 0 0 0-5.7 11 5.6 5.6 0 0 1-3.5 3.4c-1 .3-1.8-.2-2-1l-3.8-13.4c-.2-.6-.6-1-1.2-1l-7.7-1.2c-2-.3-3.5-.7-4.5-1.4-.8-.5-1.1-1.5-.6-2.3v-.2c1-1.2 2.5-2.4 4.3-3.6l8.4-5.6c2.5-1.8 2.4-3.7-.3-5.9 1.2-1.2 2.5-2.2 3.8-3 1.7-1.2 2.5-2.2 3.6-3.6.2-.3.5-.4.8-.5l18.6-1.9Z" fill="#FFF"/><path d="M114.9 233.8a57.3 57.3 0 0 0 37 9.7c.3 0 .6.2.6.5 1.5 8.5 2.7 16.6 3.6 24.5 1.2 9.7 2 16.3 2.6 19.8 2.4 16 4.3 30.4 5.8 43.5 0 .6-.3 1.1-1 1.2-5 .6-10 2-15.3 4a720.2 720.2 0 0 0-15.5 5.7c-1.2.5-2.2 1.1-3.2 1.7-.3.2-.6.1-.8-.2l-.1-.2c-1.7-13.9-2.8-23-3.5-27.4-2-13.3-3.6-25.8-5-37.4-.6-6.4-1.5-13-2.6-19.8a547.9 547.9 0 0 1-3-25.4c.2-.2.3-.3.4-.2Z" fill="#9870E3"/><path d="m311.5 280.2-20.2 43.5c-.3.7-1.1 1-1.8.6-.1 0-.2 0-.3-.2l-10-8.7c-.3-.3-.4-.7-.2-1 .8-1.4 1.8-3 2.5-4.6l4.6-10.6 18.3-40.2 2.9-5.6c.2-.4.7-.5 1-.3l.2.1 40.3 35.2c.5.4.6 1 .4 1.6l-1.4 3.4-5.4 11.2c-.1.3-.4.4-.7.3-1.4-.4-2.3-.9-2.6-1.3-.6-.8-2.1-2.2-4.4-4.3a1274 1274 0 0 0-22.2-19.3.8.8 0 0 0-1 .1v.1Z" fill="#FFD779"/><path d="M739 300.2c-6.3-2.2-13-4.9-19-6.4-7.8-2-16-3.3-24.2-3.9 2-1.3 4.3-2 6.5-2 1 0 1.8-.6 2-1.5l4.2-11.4c.3-1 1.4-1.6 2.4-1.4a4 4 0 0 1 2.5 1.8c2.6 3.8 5.5 8.6 8.7 14.6.6 1.1 1.8 1.7 3 1.3 4-1 7.4-1.8 9.7-2.2 1.9-.3 3.4-.5 4.5-.4 1 .1 1.9 1 1.8 2v.3l-2.1 9.2Z" fill="#FFF"/><path d="m586.4 347-1-.9c-.3-.2-.5-.7-.6-1.3a74 74 0 0 1 0-25.8l3.8-15.7a21 21 0 0 1 2.7-7c3.2-4.6 8-9.9 13.5-11.4a178.6 178.6 0 0 1 37-1.3c5.4.4 9.9 1 13.5 1.8 2.3.5 3.6 2 4.9 4l4.6 8.2c.6 1.1.9 3 .9 5.2a76 76 0 0 1-2.1 16.4 192 192 0 0 1-3.2 12.7 66.5 66.5 0 0 1-9.7 20.5c-1.5 2-2.8 3.6-5.3 4-2.1.4-4 .6-5.8.6a183 183 0 0 1-43.3-4.2c-3.3-1-6.6-3-10-5.9Z" fill="#FFBC83"/><path d="m388.3 346-3-2.7a1028 1028 0 0 0-25.7-22.5c-.3-.3-.4-.6-.2-1l7-15.2c.2-.3.5-.4.8-.2 1.4 1 2.8 2 4 3.2l32 28a15 15 0 0 1 2.8 3c.2.1.3.4.2.7a9.3 9.3 0 0 1-1 3.7c-3.4 8.2-8.4 18.4-13 28.5l-3 6.8-4.4 9.7a125 125 0 0 1-5 9.7c0 .3-.2.3-.4.1L369 389c-.3-.2-.3-.5-.2-.8l10.9-23.6c1.7-3.9 4.6-9.2 6.5-14 .5-1.4 1.4-2.7 2-3.7.2-.2.2-.5 0-.8Z" fill="#FFD779"/><path d="M535.5 336.8a66 66 0 0 1 3.2-29.7c.3-.8.7-1.4 1.2-1.6.5-.2 1.2-.3 2-.3 9 .1 19 0 30-.7.5 0 .6.1.5.5l-1.4 7.6c-1.6 8-2.2 15.7-2 23.2 0 .2-.2.4-.4.4h-.1c-2.1-.2-4.7-.3-7.7-.3a257 257 0 0 0-24.7 1.5c-.2.1-.5 0-.6-.6Zm137.8 3.9 2.5-8.2a87 87 0 0 0 4-21c.2-1 .3-3 .5-6.3 0-.4.2-.6.6-.6 12.2-.2 21.8.1 32.7 3 10.4 2.7 20 6.4 28.9 11 16.3 8.5 31 16.4 44 24a268 268 0 0 0 32.7 15.5 67.7 67.7 0 0 0 31.9 3.6l26.4-2c1.3-.2 2 .4 2.3 1.7 1.7 7.7 2 15 1.2 22l-.3.2a303 303 0 0 1-33 1.5c-6.6 0-13.2-.8-20-2-2.7-.7-6.4-1.8-11.1-3.5-2.7-1-6.4-2.3-11.1-3.8a523 523 0 0 1-28.5-12.4l-10.6-4.5c-3.4-1.3-9.6-3.8-14.4-5a258 258 0 0 0-28.6-6.5c-14.8-2-33.4-5.5-50.2-6.2v-.5Zm-324-5.3c-2 1.6-4 3.2-5.5 5l-21.8 22c-.2.3-.5.3-1 .2-1.7-.5-3.2-1.3-5.3-1.7-8.3-1.7-16.6-3.2-25-4.5l26.4-28.3c.3-.4.8-.5 1.3-.4l30.8 7.6Z" fill="#FEE5A5"/><path d="M354 336.7c.2 1.2 0 2-.3 2.4l-26.8 27.6c-.4.4-.6 1-.5 1.6.8 5.1.9 9.7 1.7 15.5 1.2 8.8 1.9 17.7 2 26.7-1.1 2-2.6 2.4-4.5 1.5a50 50 0 0 1-1.5-8.6l-.6-8.4c-.5-4.5-.4-9.3-1.1-13.5a87 87 0 0 1-1.3-11.7c0-.3-.2-.6-.5-.6-7-2-14.3-3.8-22.1-5-3.8-.7-7.1-1.8-10.1-3.4a5.8 5.8 0 0 1 2.6-4c8.4 1.3 16.7 2.8 25 4.4 2.2.4 3.6 1.2 5.4 1.7.3.1.6 0 .9-.2 4-4.3 11.2-11.7 21.7-22.2a66 66 0 0 1 5.5-4.9l4.5 1.1Z" fill="#F28974"/><path d="M330.2 410.5c-.2-9-1-17.9-2.1-26.7-.8-5.8-1-10.4-1.7-15.5-.1-.6 0-1.2.5-1.6l26.8-27.6c.4-.4.5-1.2.3-2.4.4.2.8.5 1 1 .2.2.3.6.2 1.1-.3 1.8-.2 3.5.2 5.1.4 1.7.6 3.3.6 5 0 2.4.8 5.5.9 8.4 0 2.6.5 5.5 1.2 8.8 1 4.6.9 8.4 1.5 12.8 0 .5-.2 1-.6 1.3a23.6 23.6 0 0 0-5.1 4.6l-4.4 5.1a955.2 955.2 0 0 0-19.3 20.6Z" fill="#FFD779"/><path d="M925.3 467.8a22.7 22.7 0 0 0-8.8-12.2c-5-3.5-10.4-6.7-16.5-9.8a483.7 483.7 0 0 0-63-26.3l-11.1-3.7c-5-1.7-8.7-2.9-11.2-3.5-6-1.4-11.1-3.3-17.6-4.9l-13.5-3.4c-9.4-2.6-18-4-28-6.2-4.6-1-9.5-1.9-14.5-2.7l-31.7-4.8c-18.8-2.4-35.1-3-52.7-4.6-6.6-.6-24.2-.9-52.8-1a335 335 0 0 0-36 1.4l-32 3c-10.8 1-26.8 3.7-48 8.1a49.5 49.5 0 0 0-15.6 6.5c-.4-8.5-1.4-16.9-2.8-25.2-1-5.3-1.5-9-1.7-11.2l-1.5-11.2c-.1-.5 0-.8.5-1l13.5-5.4c6-2.5 12-4 18.4-6a117.4 117.4 0 0 1 21.8-4c.4 0 .6.1.7.5 1 6.8 4.7 12.1 12 12.1 3.9 0 10.8-.4 20.7-1 5-.5 9-.5 12.2 0 4.6.5 7.3 3.7 12.2 8.1a38 38 0 0 0 13.4 7.3c4.5 1.5 8 2.4 10.7 2.8 13.6 1.6 26.5 2.3 38.4 2 3.4 0 6.6-.4 9.4-1 2.5-.5 5.2-1.9 8-4a21 21 0 0 0 4-4.8l3.7-5.2a2 2 0 0 1 1.4-.8 67 67 0 0 1 11.6.6c21.6 2.4 34.4 4 38.3 4.8l18.8 3.7c4.8 1 9.3 2.1 13.5 3.6 8 2.8 12.4 4.3 13.2 4.7 10.2 4.6 20 9 29.3 13a223 223 0 0 0 18.4 7c14.6 5.4 30.3 7.7 47 6.8 12.4-.6 20.5-1 24.4-1.5l2.8.1c3.9.6 5-.7 7.6-3 .5-.4 1.2-.5 1.8-.2 7.3 4 15.3 8.8 23.9 14.6a253.9 253.9 0 0 1 43.3 36.6c1.5 2 3 3.5 4.4 5.6a39 39 0 0 1 4 10.1c.2.2 0 .5-.2.5h-.2c-3.7-.3-8-.3-12.5.2-10 1-17.4 2-22.5 3.2-4.1 1-7.1 1.5-9 1.7Z" fill="#BEACE6"/><path d="M259.5 394.5c1.6 1 3 2 4 3l2.9 2.7 8.5 7.4c2.5 2.2 7.3 6 10.6 9.2.9 1 1 2 .6 3.1l-6.4 14.4c-.1.3-.5.5-.8.3h-.2l-37.7-33c-.6-.5-.8-1.3-.4-2l18.7-41.3 7.7-16.8.5-.9c.4-.4.8-.5 1.2 0l9.9 8.5c.5.5.7 1.2.4 2l-15.6 34.2c-1.1 2.4-2.5 5.1-4.2 8.1-.3.5-.2.8.2 1Z" fill="#FFD779"/><path d="M210 634.4c-2.3-.2-3.6-1.6-4-4-.3-2.5-.1-5 .8-7.8 2-6.3 4.3-13.9 6.6-20.2 2-5.6 3.3-10.5 5-15.6l9.6-26a179 179 0 0 0 9.4-35.5 62.9 62.9 0 0 0-3.7-35.4 33.3 33.3 0 0 0-10-11.2 10.2 10.2 0 0 0-8.1-1.6 74.4 74.4 0 0 0-27 11 11 11 0 0 1-11.3.8A15.5 15.5 0 0 1 171 477a90 90 0 0 1 .3-16.8c1.5-10.6 2.6-21.3 3.3-32 .8-11.3 2.2-19.8 4.4-33.9.7-4.4.9-10 .7-17a40.7 40.7 0 0 0-4-16.8c-2-4-5-6.9-9.1-8.8-1.1-.5-2.6-.9-4.3-1.2l-4.4-.8c6.3-2.3 13.5-.3 19.6 2.1 1.8.7 3 1.8 3.6 3.1 3 6.6 4.4 13.7 4.4 21.3a529 529 0 0 1-3.6 55.5 270.6 270.6 0 0 1-6 34.8 98 98 0 0 0-1.5 8.7c-.5 5 0 9 5.4 10.4 2.8.7 6.9-.9 9-2.5 2.2-1.7 4.5-4.6 6.7-6.3 6-4.6 12.3-7.8 18.9-9.6 8.3-2.3 21-2.8 28.4 2 7.3 4.8 10.4 13.2 10.7 21.8a114 114 0 0 1-2.7 30.6l-3.6 14.6a86 86 0 0 1-3.1 11c-1.2 3.5-2.3 7.2-3.3 11-.6 2.2-1.7 5.2-3.1 9.1-1.6 4.1-3 8.2-4.7 12-5.1 11.3-8.8 19.5-14.3 29.7-3 5.7-5.4 10.3-7 13.8a23.7 23.7 0 0 0-1.7 11.6Z" fill="#F28974"/><path d="m158 350 4.5.7c1.7.3 3.2.7 4.3 1.2 4 2 7 4.8 9 8.8a40.7 40.7 0 0 1 4 16.8c.3 7 0 12.6-.6 17-2.3 14.1-3.7 22.6-4.4 34a445 445 0 0 1-3.3 32c-.6 4.4-.7 10-.3 16.7.3 5.1 2.4 9.1 6.2 12a189.3 189.3 0 0 1-35.5 30c-6.7-11.2-18.8-21.8-32.2-23.2a31.6 31.6 0 0 0-28.2 11 42 42 0 0 0-9.5 17.5A67.8 67.8 0 0 0 87.4 587l-24.8 27c-4.1-6-8-12.3-11.5-18.6a10.1 10.1 0 0 0-5.4-4.6A221.5 221.5 0 0 1 34 514.1c.3-9.3 1.6-20 3.8-32.3.8-4.2 1.7-8 2.9-11.6 1.7-5 2.7-9.6 4.9-15.2a170 170 0 0 1 63.5-81.6A169 169 0 0 1 158 350Z" fill="#FFC98A"/><path d="M288.2 360.7c3 1.6 6.3 2.7 10 3.3 8 1.3 15.3 3 22.2 5.1.3.1.5.3.5.6.2 3.5.6 7.4 1.3 11.7.7 4.2.7 9 1 13.5l.7 8.4c.2 3 .7 5.8 1.5 8.6a7 7 0 0 1-1.7-.6c-.7-.3-1.2-.4-1.7-.4-2-.2-3.5-1.4-5.6-2l-13.2-3.3a72.8 72.8 0 0 1-11.4-3.7c-.4-.2-.7-.5-.7-1-.1-3.8 0-7-.6-11.4-.4-3.2-.2-6.5-.8-9.5-.3-1.5-.5-3.7-.6-6.5l-.8-6.4c-.3-2-.4-4.3-.1-6.4Z" fill="#FFBC83"/><path d="m925.3 467.8-9 4c-1.1.5-2.4.5-3.6 0l-19.2-9.9a474.2 474.2 0 0 0-98.4-37.4c-6.8-1.5-13.5-3.6-20.6-4.8-6.1-1-12-2.2-17.5-3.4l-17.5-3c-21.6-2.9-34.5-4.6-38.7-5a504.5 504.5 0 0 0-42-2.8c-8.6-.2-20 .4-30 .7-11.2.3-23.1 0-33.8.5a2438 2438 0 0 0-81.8 6.3 207 207 0 0 0-23.2 3.7 121 121 0 0 1-15.2 2.1c-.3 0-.5-.2-.6-.5l-2.1-14.7a50.4 50.4 0 0 1 15.7-6.5c21-4.4 37-7 47.9-8l32-3a362 362 0 0 1 36-1.5c28.6.1 46.2.5 52.8 1 17.6 1.5 33.9 2.2 52.7 4.6l31.7 4.8c5 .8 9.9 1.7 14.5 2.7 10.2 2.2 18.6 3.6 28 6.2 2.7.7 7.2 2 13.5 3.4 6.5 1.6 11.7 3.5 17.6 5 2.5.5 6.3 1.7 11.2 3.4l11 3.7a475.7 475.7 0 0 1 63 26.3c6.2 3 11.7 6.3 16.6 9.8a23 23 0 0 1 9 12.3Z" fill="#FFF"/><path d="M336.2 459.1v-.7c0-.2 0-.4.2-.7l19.5-42c.2-.6.6-.7 1-.3l9.4 8.2c.7.6 1 1.7.6 2.6L339 486.3c-.1.3-.5.4-.8.3h-.2L301 454a41.7 41.7 0 0 1-3.6-3.7 1 1 0 0 1-.1-.9c1.4-2.4 3.3-6.5 5.8-12.4a9 9 0 0 1 1.9-2.7c.3-.3.5-.3.8 0L334 459c.8.6 1.7.7 2 .1 0 .1 0 .1 0 0Z" fill="#FFD779"/><path d="M620.4 421.3c5.5.2 14.4 0 27-1 1-.2 2.3.7 2.4 1.5a252 252 0 0 1-1.3 62.1l-2.2 11.4c-1.4 7.1-2.1 13.7-4.7 20.3a126 126 0 0 1-18.3 36.1c-3.1 4-6.6 9.2-11 14.1-1.4 1.5-4 4-5.4 5.7-1.4 1.5-3.4 3.8-5 5.3-5.4 4.7-8.3 7.6-9.9 9-6 5.1-9.7 5.7-18.3 9a83.8 83.8 0 0 1-12.7 3.9c-5.7 1-11.3 2.3-15.7 2.3-5.2 0-10.1-1.2-17-2.3-2.5-.4-4.9-1.2-6.5-2l-16.1-8c-1.7-.8-1.6-1.3.3-1.3 7.5.2 15.5-.4 23.8-1.7a85.5 85.5 0 0 0 45-24.2 119.5 119.5 0 0 0 33.4-53.7c3.3-11.4 5.3-23.9 5.8-37.6a5772 5772 0 0 1 2-48.4c0-.3.7-.5 1-.5h3.4Z" fill="#715451"/><path d="M611.6 584.7c8.9-8.4 16.5-17.8 22.9-28a202.1 202.1 0 0 0 15-30.7c1.4-3.9 3-7.4 4-11.2a648 648 0 0 0 5.5-20.4 243 243 0 0 0 3-73.2c0-.4 0-.6.5-.6l3.6-.3c.7 0 1 .2 1.3 1 4.3 15.5 6.8 32.4 7.4 50.5.6 19-.5 37.1-3.3 54.6a511 511 0 0 1-4.6 20.2c-.8 3.6-2 7.4-3.3 11.4-1.6 4.7-3.5 12.1-6.6 17.5a47 47 0 0 0-3 6.2c-9.3 23-23.2 42.4-41.7 58.1a102 102 0 0 1-20 13 76.8 76.8 0 0 1-64.6 1.8 94.7 94.7 0 0 1-27.8-19.6 136.7 136.7 0 0 1-22.5-30.6 183 183 0 0 1-11.3-25.2 15 15 0 0 1-1-6.2c0-.2.3-.3.4-.2a12 12 0 0 1 2.2 2c2.9 3.2 5.9 6.3 9 9.2 9.8 9.2 20.4 16.3 31.8 21.3 6.9 3 13.2 5 18.9 6.1a97.9 97.9 0 0 0 31.5.6c6.3-.9 12.8-2.7 19.2-5.3a115.8 115.8 0 0 0 33.5-22Z" fill="#FFF"/><ellipse fill="#FFF" cx="532.6" cy="497.3" rx="45.2" ry="62.1"/><path d="M718.9 621.5h-.9a138 138 0 0 0 33-24.5c19.5-19.2 33.4-43 41.3-69.2 3.8-13 7-25.5 8.7-38.3 1.1-8.7 1.5-16.3 1.6-26.6a35 35 0 0 1 6.7-19.4c.2-.3 1.2-1 1.6-1 2 .4 3.1 1.5 4.1 2 3.5 1.3 7.8 3 14 5 2.3.7 3.5 2.5 3.6 5.1 0 1.7.3 4 .8 6.7.4 2.4.6 4.6.6 6.7l-.1 25.6c0 8-.5 16.3-2.1 24.6-1.5 8-3.3 18.4-5.5 25.6-1.1 3.7-2 6.8-2.5 9.4-.6 2.8-1.6 5.8-3.1 9.2a141.6 141.6 0 0 1-18.1 30.8 104 104 0 0 1-25.8 22.8 66 66 0 0 1-42.6 9c-5-.9-10-2-15.3-3.5Z" fill="#715451"/><ellipse fill="#FFF" transform="rotate(-1 737.8 513.4)" cx="737.8" cy="513.4" rx="45.2" ry="62.2"/><path d="M781.5 626.8a118.3 118.3 0 0 0 47.2-53.8 207 207 0 0 0 10.3-27.4 230.4 230.4 0 0 0 6-88.4c-.1-.5.2-.8.7-.8.7 0 1.3.4 1.8 1.3a192 192 0 0 0 2.8 11c1.2 4.8 2.2 10.4 2.8 16.7 1.6 16.3 1.8 31.1.4 44.2-.6 5.6-1.5 11.2-2.8 16.8-.8 3.4-1.4 6.6-1.8 9.8l-1.6 10a210.9 210.9 0 0 1-13 36.7c-6.2 14-14.3 27.2-24.1 39.3a120.7 120.7 0 0 1-29.4 26.5 77.3 77.3 0 0 1-40.4 12.1 58.6 58.6 0 0 1-23.2-5.6 69.9 69.9 0 0 1-24.6-19.4 111.8 111.8 0 0 1-19.2-34.5 819 819 0 0 1-4.8-15.2c-.4-1.3-.6-2.6-.8-4 0-.4 0-.5.4-.2l5.9 5.7a110 110 0 0 0 35 23.3 76.1 76.1 0 0 0 19.2 5.3 80.7 80.7 0 0 0 53.2-9.4Z" fill="#FFF"/><path d="M897.3 480.7c.2.1.3.4.2.6l-.1.1a90.8 90.8 0 0 0-11.7 11.6 502.5 502.5 0 0 0-17.6 21.6c-.5.6-.7.5-.7-.2l-.3-12.8a251.4 251.4 0 0 0-4.2-37c-.1-.3 0-.6.4-.6h.3c11.2 5 22.5 10.6 33.7 16.7Z" fill="#7C5DBC"/><path d="M210 634.4c2.5 3.6 7.4 6 11 3.1.9-.7 1.8-2.2 2.8-4.3a512.8 512.8 0 0 1 16.7-33c.3-.5.8-.9 1.4-1.2l209.4-77.4c.4 0 .6 0 .6.4.7 9.4.8 18.8.4 28.2a23.5 23.5 0 0 0-2.8 6.2c-1 4-1.8 9.3-2.8 16-.4 3-1.5 7.3-3.1 13.3-1.2 4.4-3.4 9.2-5.1 13.8a42.9 42.9 0 0 1-7.1 11.7c-1 1.3-2.8 4.8-5.4 10.5-1 2.1-3.6 5.7-8 11.1a182.8 182.8 0 0 1-75.8 54l-13.6 4.7c-5.5 1.8-10.1 3.2-14 4-5.5 1.2-13.1 3.3-19.2 4.2a283.6 283.6 0 0 1-85.3.1c-2.4-.4-5.5-1-9.4-1.9-6.7-1.5-16.2-3.6-23.2-5.7A259.7 259.7 0 0 1 135 675c-12.3-6.3-24-13.8-35.1-22.4a198 198 0 0 1-37.7-38.8L87 587c11.5 12.1 28.4 17.7 43.6 9.6 7.9-4.2 14-12.2 17-20.5a67 67 0 0 0-6.3-56.8 189.3 189.3 0 0 0 35.5-30 11 11 0 0 0 11.3-.9 72.7 72.7 0 0 1 27-11c2.9-.6 5.6-.2 8 1.6 4.4 3 7.7 6.8 10 11.2a55 55 0 0 1 4.6 17.7c.9 5.8.2 11.3-.8 17.7a179 179 0 0 1-9.4 35.5l-9.5 26c-2 5-3.1 10-5.1 15.6-2.3 6.3-4.4 14-6.6 20.2a16 16 0 0 0-.8 7.7c.7 2.3 2 3.7 4.5 4Zm-42.8 16.8a18.3 18.3 0 0 0 13.8-21.9c-2-10.2-11.4-17-21-15.2a18.3 18.3 0 0 0-13.8 22c2 10.2 11.4 17 21 15.1Z" fill="#FEBC9C"/><path d="M1034.3 496.1a335.4 335.4 0 0 1-21.5 36 42.6 42.6 0 0 0-24.2-20.2c-18.1-6-36.3 3-38 23a32 32 0 0 0 3.4 17.2 42.7 42.7 0 0 0 29.8 23.7c6 1.4 12.5.7 19.3-2.2a51.8 51.8 0 0 1-25.6 20.6c-9.6 3.6-20 6.2-31.2 7.8l-2.5-14.2c-.1-.7-.6-2.2-1.4-4.4-2.2-6-6.6-8.9-13.3-8.5-4.7.3-12.7.5-24 .8-7.3.2-15.5 0-24.5-.8-3-.2-7.2-1-12.6-2.4-2.4-.6-3.6-1.9-3.7-4a79 79 0 0 1 3.6-29c1-2.9 2.5-5.7 4.6-8.5.9-1.2 2-3 3.5-5.8a91.5 91.5 0 0 1 17.1-20.9 101.8 101.8 0 0 1 80-26.8c9 .4 16.9 1.8 24 3.6a120 120 0 0 1 37.2 15Z" fill="#FFC98A"/><path d="M141.8 519.1a67.6 67.6 0 0 1 6.4 56.8 38.8 38.8 0 0 1-17.1 20.5c-15.2 8.1-32.1 2.5-43.6-9.6A67.5 67.5 0 0 1 72 524.3a41.5 41.5 0 0 1 9.5-17.6c7.6-8.4 17-12 28.2-10.9 13 1.5 25.2 12.1 32 23.3Z" fill="#FFF"/><path d="M1083.3 548.1c-.1 2 0 3.8.5 5.6.8 3.1 1.2 5 1.2 5.4.7 6.4.5 12.8-.7 19.2-2 11-3 17.6-5.4 25.7a187.2 187.2 0 0 1-45.1 77.8 135.3 135.3 0 0 1-32.7 25.3 73.7 73.7 0 0 1-41.8 7.8 82.7 82.7 0 0 1-33.7-10.6 74.8 74.8 0 0 1-23-21 124.8 124.8 0 0 1-15.1-23.8 80.6 80.6 0 0 1-4.2-11c-1-3.2-2-7-3-11.4a67.9 67.9 0 0 1 .7-32.3l3.6-14.4c13.5 1 27 1 40.6-.2l3 .1c.7.1 1.2.7 1.3 1.4 1 8.8 2.3 17 3.6 24.8.9 5.7 2.6 11 5 16a7.8 7.8 0 0 0 7.2 4.2c8.6.4 16.3-1.5 24.9-3.8 2.9-.8 3.9 2.6 3.8 5-.4 6.1-1.2 15.1-2.4 27a50 50 0 0 0 .8 16c.6 3 2.3 4.3 5.2 4.3 6.8 0 8.3-2.5 9-9 1.8-14.4 2.7-27.8 1-41.9-1-9.3-4.4-18.6-16.3-16.2l-12.4 2.7a46 46 0 0 1-8.5 1 .9.9 0 0 1-.8-.6l-3.3-19.2c11.2-1.6 21.6-4.2 31.2-7.8a51.2 51.2 0 0 0 25.6-20.6c10.5-5.8 15.2-14.9 14.2-27.3-.4-4.8-2-9.5-4.5-14a363.2 363.2 0 0 0 21.4-35.6c7.2 4 12.3 7.1 15.3 9.5a117.2 117.2 0 0 1 30.3 34.7 53 53 0 0 1 3.5 7.2Zm-56.5 66.7c7.9.1 14.3-6.7 14.4-15.2 0-8.5-6.2-15.4-14.1-15.5-8 0-14.3 6.7-14.4 15.2-.1 8.5 6.2 15.4 14 15.5Z" fill="#FEBC9C"/><path d="M1012.8 532c2.6 4.6 4 9.3 4.5 14.1a26.2 26.2 0 0 1-14.2 27.3 30 30 0 0 1-19.3 2.2A43 43 0 0 1 954 552a32 32 0 0 1-3.4-17.3c1.7-19.8 19.9-28.9 38-22.9a43.5 43.5 0 0 1 24.2 20.3Z" fill="#FFF"/><path d="m884.5 590.5-3.6 14.4a67.9 67.9 0 0 0-.6 32.3c1 4.4 2 8.2 2.9 11.4 1.2 4 2.6 7.6 4.2 11 3.5 7.5 8.6 15.4 15.2 23.8a76 76 0 0 0 56.6 31.6 72.9 72.9 0 0 0 41.8-7.8c12-6.7 23-15 32.7-25.3a187.8 187.8 0 0 0 45-77.8c2.5-8 3.5-14.8 5.5-25.7 1.2-6.4 1.4-12.8.7-19.2l-1.2-5.4c-.4-1.8-.6-3.7-.5-5.6 7.4 15.7 11 32.8 10.7 51.3-.2 14-2.1 27.1-5.8 39.3-6 20.2-15.5 38.3-28.7 54.4a121.4 121.4 0 0 1-70.6 41.1c-21.5 4.3-42 2.2-61.4-6.3a80 80 0 0 1-17-10.2 96.6 96.6 0 0 1-18.8-19.9l-8.8-13a124 124 0 0 1-14.4-33.3 67.5 67.5 0 0 1-1.1-34.7c2.6-10.4 7-19 13-25.7 1-1.2 2.4-1.4 4.2-.7Zm-432.1-40.3c-1 12.2-2 22-3.4 29.4a217.5 217.5 0 0 1-8.4 31 215.4 215.4 0 0 1-106.1 121.9 195.1 195.1 0 0 1-90.9 20.8 172.7 172.7 0 0 1-87.6-27.7l-11-6.9A260.3 260.3 0 0 1 75.4 650a243.2 243.2 0 0 1-29.8-59.4c2.4.8 4.2 2.3 5.4 4.6a237 237 0 0 0 11.5 18.5 192.5 192.5 0 0 0 37.7 38.8 224.1 224.1 0 0 0 35 22.4c13.8 7 27.9 12.7 42.5 17.2 7 2.1 16.5 4.2 23.2 5.7 3.9 1 7 1.5 9.4 2a287 287 0 0 0 85.3-.2c6-.9 13.7-3 19.3-4.2 3.7-.8 8.3-2 13.9-4l13.6-4.8a184.3 184.3 0 0 0 75.8-53.9c4.4-5.3 7-9 8-11 2.6-5.8 4.4-9.3 5.4-10.6 3.5-4.4 5.9-8.3 7-11.7 1.7-4.5 4-9.4 5.2-13.8a107 107 0 0 0 3-13.3c1-6.8 2-12 2.9-16a17 17 0 0 1 2.7-6Z" fill="#F28974"/><circle fill="#715451" transform="rotate(-69 672.4 571)" cx="672.4" cy="571" r="1"/><path d="M671.6 573.2c0 .1 0 .1 0 0Z" fill="#715451"/><ellipse fill="#FFF" transform="rotate(-89 1026.8 599.6)" cx="1026.8" cy="599.6" rx="15.4" ry="14.2"/><path d="M670 585.1h.3c0 .1 0 .1-.2 0 0 .1 0 .1 0 0Z" fill="#715451"/><path d="M862.9 586.8c.4.2.6.7.4 1l-.1.2c-4.4 9.6-8.7 17-9.5 16.6l-.8-.4c-.8-.4 2-8.5 6.5-18v-.2c.3-.4.7-.6 1-.4l2.5 1.2Z" fill="#7C5DBC"/><path d="M547 673c.2 9-2.3 17.1-7.3 24a64.2 64.2 0 0 1-29 22c-6.2 2.5-10.4 4.1-12.6 4.7a106.2 106.2 0 0 1-31.5.7c-6-.7-12-2.4-18.4-5.4-11.7-5.4-22-10.2-30.5-14.4a65 65 0 0 1-11.5-7.8 240 240 0 0 0 49.9-84 116 116 0 0 0 3.8-13.5c.2-.8.5-.9.8 0l4.6 9.2c6.5 12.2 14 23 23 32.5 8 8.7 17.4 16 28 21.8A85.5 85.5 0 0 0 547 673Z" fill="#F28974"/><path d="M762.6 690.6c-.3 5 .9 10 3.4 15a62.8 62.8 0 0 0 58.6 34.7c6.3-.7 11.5-1.6 15.7-2.8a96.6 96.6 0 0 0 29.9-14.8c2-1.6 4.3-3 6.5-4.6a148 148 0 0 1-5.3 45.5c-1.4 6-3 11.6-4.8 16.8a280.2 280.2 0 0 1-55.6 95 446 446 0 0 1-19.4 18.2 121.9 121.9 0 0 1-31.4 20.6A186.6 186.6 0 0 1 727 926a342.4 342.4 0 0 1-45.4 8.1 426 426 0 0 1-121.6-7.4 480 480 0 0 1-66.3-18.6c-2.5-.9-4.1-2-4.8-3.2l-2.3-3.9c-4.3-6-8.8-12-13.3-18a145.6 145.6 0 0 0-24.2-24.8c-5-4-8-6.4-9-7a71 71 0 0 0-9.4-6.4c-5.7-3.3-14.1-8-25.2-13.9a171.6 171.6 0 0 1-60.1-53.8c-1.4-2-3.4-6-6.1-12a27 27 0 0 1-2-14.3c.2-1.5.9-2.6 2-3.2a223.8 223.8 0 0 0 66.9-50.4c4.2 3.5 8 6.1 11.5 7.8a900 900 0 0 0 30.5 14.4 62.5 62.5 0 0 0 18.4 5.4c7.3.8 13.2 1.1 17.5 1 6.4-.4 11-.9 14-1.7 2.2-.6 6.4-2 12.7-4.7a65 65 0 0 0 28.9-22c5-6.9 7.5-15 7.3-24a90.8 90.8 0 0 0 62.9-15.8c10-6.7 19-14.6 26.9-23.6 6.3-7.3 12.4-15.7 18.4-25.2.2-.4.4-.3.5.1 2.4 7 5.2 16.8 8.5 24.6 9.6 22.8 24.8 42.7 47 53.6 4.3 2.1 9.8 4 16.6 5.5a63 63 0 0 0 25.3.6c1.9-.7 5-1.4 9.5-2.5Zm-79.2 12c.3 0 .5-.2.5-.5 0-.2-.1-.3-.4-.4-3.8-1-7.4-2-11-3.3l-10.6-3.8-13.7-4.4c-4-1.3-7-2.5-9-3.4a53.2 53.2 0 0 1-18.2-12.6 11.5 11.5 0 0 0-3.3-3 6.1 6.1 0 0 0-8.5 5.3c-.1 1.3.6 3.1 1.9 5.2 1.7 2.5 2.8 4.1 3.5 4.6a95.3 95.3 0 0 0 31.8 16.8 46 46 0 0 0 13.6 2.4c5 .1 9.8-.2 14-.9l9.4-2Z" fill="#FEBC9C"/><ellipse fill="#FFF" transform="rotate(-11 163.7 632.7)" cx="163.7" cy="632.7" rx="17.7" ry="18.9"/><path d="M876.8 718c-2.3 1.4-4.4 3-6.5 4.5a92.9 92.9 0 0 1-29.9 14.8 93.8 93.8 0 0 1-15.7 2.8c-5.3.6-10.5.2-15.7-1a67.4 67.4 0 0 1-27-13.5 61.5 61.5 0 0 1-16-20.3 29 29 0 0 1-3.3-14.9l4.8-1.4a117.6 117.6 0 0 0 41-26.4c9-8.8 16.8-18.6 23.6-29.2a509.2 509.2 0 0 0 9.5-15.4 8.6 8.6 0 0 1 1.7-.7h.4a6 6 0 0 1 1.8.6l.2.1 4.7 4.7c.2.2.3.4.3.7-.8 10.6 0 21 2.7 31 3.8 14.5 9.9 28.2 18.4 41.1a39.7 39.7 0 0 1 3.4 8.5c.9 5 1.5 9.5 1.6 14Z" fill="#F28974"/><path d="m683.4 702.6-9.4 2c-4.2.6-9 1-14 .8-4 0-8.6-.9-13.6-2.4a95.3 95.3 0 0 1-31.8-16.8c-.7-.5-1.8-2-3.5-4.6-1.4-2-2-3.8-2-5.2.4-4.3 4.4-7 8.6-5.4.7.3 1.8 1.3 3.3 3.1a53.2 53.2 0 0 0 18.2 12.6c1.9 1 4.9 2.1 9 3.4l13.7 4.4 10.7 3.8c3.5 1.2 7 2.3 10.9 3.3.3.1.4.2.4.4 0 .4-.2.6-.5.6Z" fill="#54484A"/><path d="M893.3 720.7a30 30 0 0 0 4.9 6.5c1.4 1.5 3.7 3.3 6.7 5.3s5.4 4 7 6a980.1 980.1 0 0 1 29.5 37.1c14 18.6 27.7 39.3 41 62.3 5 8.7 9.6 17.6 13.6 26.7.5 1.1.9 2.5 1.3 4.2 0 .5-.2 1-.6 1h-.4a19 19 0 0 1-3-.9l-10.6-4.4A62.8 62.8 0 0 0 947 862a36 36 0 0 0-12.3 5.2c-.3.2-.7.1-1-.2v-.2c-2-7.9-5.2-15-9.5-21.5a105.8 105.8 0 0 0-42-35.9 1 1 0 0 1-.4-1 655 655 0 0 1 5.6-18.3c1.2-3.7 2.9-12.7 5.2-26.9 2-13.5 2.3-27.6.4-42.5-.1-.4-.1-.4.2 0Z" fill="#BEACE6"/><path d="M165.7 749.2a944 944 0 0 0-20 19.6 519.6 519.6 0 0 0-53.6 63.8c-.5.7-1.3 1.2-2.2 1.3a159.5 159.5 0 0 0-38.4 9.3c-8.7 3.3-17 7.1-24.3 12-.8.4-1 .2-.5-.6.7-1.3 1.8-2.3 2.7-3.6a467.8 467.8 0 0 1 39.2-51.5 547.8 547.8 0 0 1 69.5-66.2h.6a303 303 0 0 0 27 15.6v.3Z" fill="#E3D7FF"/><path d="M279.3 885.1c.5-.2.6 0 .3.4l-7.5 10c-1 1.1-1.8 2-2.8 2.6a175.6 175.6 0 0 1-31.6 15.5c-7.7 3-15.5 4-23.3 3.1a30.6 30.6 0 0 1-15-6A65.7 65.7 0 0 1 187 899a122 122 0 0 1-7.2-11.8c-4-7.3-7.6-12.9-11-16.7a260 260 0 0 0-15.1-16.7 55.7 55.7 0 0 0-17-11.8 97.4 97.4 0 0 0-28.3-8 550.5 550.5 0 0 1 69.8-77c.6-.7 1-1 1.6-1 1.3-.4 4.2 1.1 7.2 2.3l5.5 2c13.5 3.7 25.5 6.7 38.6 7.6.5 0 .6.2 0 .5-5.2 4-10.1 8-14.7 12a89.1 89.1 0 0 0-20.8 24.1 31 31 0 0 0-3.4 18.8c.5 4.8 2 8.5 4.8 11.3 3 3.3 6.9 5.4 11.5 6.3a43.7 43.7 0 0 0 16 .4c.3 0 .5.1.5.3v.2a93.8 93.8 0 0 0-5.2 13.7c-2.5 7.8-3 19.2-.2 26.6a19.2 19.2 0 0 0 15.5 12.7c2.9.5 7 .3 12.6-.6a121.4 121.4 0 0 0 31.5-9Z" fill="#BEACE6"/><path d="M303.9 789.2a113 113 0 0 0-55.6 24.5c-5 4-11 7-18 8.7-6.5 1.7-10.7 3-16-.7a5 5 0 0 1-2-2.7c-.7-3.3 2.3-8.6 4.2-12 1.3-2.3 2.8-4.4 4.4-6.3 7-8.4 17-15.3 27.5-19.5a107.3 107.3 0 0 1 50-7.4c4 .4 8.2 1.3 12.4 3a33.4 33.4 0 0 1 16.9 11c.2.1 0 .4-.1.6l-.3.1a106 106 0 0 0-23.4.7Z" fill="#FFBC83"/><path d="M333.2 844.2a354 354 0 0 1-33.3-34.9c14-3 27.3-3.3 40-.4a43.2 43.2 0 0 1 30 23.2c.3.4.2.6-.2.6a150.4 150.4 0 0 0-32.1 9.5c-1.5.8-3 1.5-4.4 2Z" fill="#F28974"/><path d="M299.9 809.3a379 379 0 0 0 33.3 35c-9.1 4.1-17.8 9.2-26 15.1a9.1 9.1 0 0 1-3.7 1.6c-11.5 1.6-19 3-22.7 4.1l-16 4.6-9.8 3.2-10 3c-1.5.4-3.2.7-5.2.7a2 2 0 0 1-2-1.8 59.6 59.6 0 0 1 22.6-45 104.2 104.2 0 0 1 39.5-20.5Zm568.6 30 5.7-12.4c.5-1 1.2-1.3 2.2-.9a119.3 119.3 0 0 1 19.1 12.5 62.9 62.9 0 0 1 21 32.4c.9 3 1.6 6.5-.6 9a67.2 67.2 0 0 1-5 5.3 1 1 0 0 1-1.2 0l-.2-.3a122 122 0 0 0-40.7-44c-.4-.4-.6-1-.3-1.6Z" fill="#FFBC83"/><path d="M401.4 942.3a136.2 136.2 0 0 1-34.3-37c-8.3-14-13-31-16.6-47.5 13.6-5 27.6-7.4 41.9-6.9 8 .3 15.8 2 23.4 4.8 2.9 1.1 5 2.2 6.5 3.2a30 30 0 0 1 4.8 4.8c1.5 1.8 3.2 3.3 5 4.5 2.2 1.5 5.2 3.5 7.2 5.5a50 50 0 0 1 14.8 32.1c.6 7-2.5 15.5-7.6 20.3-3 2.7-7.7 4.2-11.1 6.3-3.4 2-6.6 2.6-10.8 3.6-3 .7-5 2.5-8 3.1a344 344 0 0 1-15.2 3.2Z" fill="#F28974"/><path d="M350.6 858c3.7 16.3 8.3 33.3 16.6 47.3a136 136 0 0 0 34.3 37.1c-19.8 4.5-36.4 8.5-49.8 12.1l-7 2.1c-5.7 1.8-11.8 3.1-17.7 4.8l-10.8 3A519 519 0 0 1 295 968c-8 1.3-16.7 1.8-22.8-3-1.7-1.3-2.2-4-2.2-6.3 0-8.3 1.2-16 3.3-22.9a107 107 0 0 1 22.6-40.4 131.2 131.2 0 0 1 54.6-37.6Z" fill="#FFBC83"/><path d="M838.5 880.8c6.7-6.5 12.8-13.8 18-22 .5-.5 1-.8 1.7-.6a60.3 60.3 0 0 1 26.7 18.1 97.3 97.3 0 0 1 17.6 31.7c1.4 4.5 2.9 9.2 1.4 13.2-.8 2.2-2 4.3-3.5 6.4-.2.2-.5.3-.7.1h-.1a117.3 117.3 0 0 0-49.4-40.9c-2.8-1-7-2.5-12.7-4.2-.3 0-.3-.3-.1-.5 0-.2.4-.6 1-1.3Zm17.5 29c-8.6 12.2-18 23.8-28.3 34.7a31 31 0 0 0-4.6-1.5c-5.4-1.4-12.3-3-20.7-5.3-6.7-1.8-12.4-2.7-19.4-4a2 2 0 0 1-1.6-1l-2.6-4.6c-.2-.3-.2-.6-.2-.9 0-.7.4-1.5.9-2.2a49 49 0 0 1 13-13.4c5-3.5 10.6-6.9 16.5-10a14 14 0 0 1 7.3-2 75.9 75.9 0 0 1 39.7 10.2Z" fill="#F28974"/><path d="M827.7 944.5a312.8 312.8 0 0 0 28.3-34.7c14.2 8 24.7 19 31.2 33 2.4 5.1 3.9 11 4.6 17.8.3 2.7-.2 5-1.3 7.2-1.4 3-6.4 1.7-8.7.5-3.6-1.9-8-4.2-12.8-7a207.8 207.8 0 0 0-32.4-14l-9-2.8Z" fill="#FFBC83"/></g></svg>