<svg fill="none" xmlns="http://www.w3.org/2000/svg" viewBox="0 0 217 200"><mask id="a" style="mask-type:luminance" maskUnits="userSpaceOnUse" x="0" y="0" width="217" height="200"><path d="M216.88 0H.88v200h216V0Z" fill="#fff"/></mask><g mask="url(#a)"><path d="M73.92 73.24a32.96 32.96 0 1 0-29.45-5.31l8.27-10.89a19.3 19.3 0 1 1 17.24 3.12l3.94 13.08Z" fill="#83EAD0"/><path d="M73.95 73.23a32.96 32.96 0 1 0-29.54-5.35l3.49-4.56a27.22 27.22 0 1 1 24.39 4.42l1.66 5.5Z" fill="#008564"/><path d="M72.76.86A42.07 42.07 0 0 0 32.25 14.8l4.42 3.76a36.25 36.25 0 0 1 34.92-12l1.17-5.7Zm19.41 9.72a42.06 42.06 0 0 1 10.77 14.92l-5.34 2.3A36.25 36.25 0 0 0 74.42 7.25l1.63-5.58a42.07 42.07 0 0 1 16.12 8.9Zm12.03 18.23-5.52 1.83a36.24 36.24 0 0 1 .18 22.28l5.55 1.74a42.06 42.06 0 0 0-.2-25.85ZM92.83 72.95a41.93 41.93 0 0 0 10.42-15.05l-5.39-2.19c-2 4.93-5.07 9.36-8.97 12.97l3.94 4.27ZM22.25 40.2a42.07 42.07 0 0 1 8.59-23.66l4.62 3.53a36.25 36.25 0 0 0-1.84 41.34l-4.92 3.1a42.07 42.07 0 0 1-6.45-24.31Z" fill="#FFD95F"/><path d="M52.22 68.02a6.24 6.24 0 0 1 7.25-6.04l2.13.35a6.24 6.24 0 0 1 4.95 8.01L63 81.8l-6.83 7.06-4.2-8.87.25-11.96Z" fill="#83EAD0"/><path d="M55.4 69.45a3.93 3.93 0 1 1 7.67 1.27l-2.38 7.46-3.57 4.13-1.87-5.02.15-7.84Z" fill="#008564"/><path d="M59.03 71.8c1.17.2 2.28-.62 2.48-1.8.2-1.2-.6-2.32-1.78-2.51a2.17 2.17 0 0 0-2.48 1.8c-.2 1.2.6 2.32 1.78 2.51Z" fill="url(#b)"/><path d="M76.7 42.14c0 6.5-5.36 11.78-11.98 11.78a11.89 11.89 0 0 1-11.99-11.78c0-6.51 5.37-11.8 11.99-11.8s11.99 5.29 11.99 11.8Z" fill="url(#c)"/><path fill-rule="evenodd" clip-rule="evenodd" d="M75.08 71.02a31.21 31.21 0 1 0-30.91-5.58l6.16-8.12a21.04 21.04 0 1 1 21.8 3.94l2.95 9.76Zm.5 1.67a32.96 32.96 0 1 0-31.11-4.77l8.27-10.88a19.3 19.3 0 1 1 17.24 3.12l3.94 13.08c.56-.17 1.12-.35 1.66-.55Z" fill="#564341"/><path fill-rule="evenodd" clip-rule="evenodd" d="M75.1 71a31.21 31.21 0 1 0-30.93-5.56l1.36-1.8a28.97 28.97 0 1 1 28.92 5.21l.65 2.16Zm.5 1.68a32.96 32.96 0 1 0-31.2-4.8c.12.04.13.1.07.04l3.48-4.57a27.22 27.22 0 1 1 24.32 4.4l1.66 5.49c.56-.17 1.13-.36 1.67-.56Z" fill="#564341"/><path fill-rule="evenodd" clip-rule="evenodd" d="M104.2 28.83v-.02l-5.52 1.83a36.25 36.25 0 0 1 .18 22.28l5.55 1.74c.17-.55.34-1.11.49-1.68l.01-.05a42.07 42.07 0 0 0-.18-22.4l-.02-.05c-.15-.55-.32-1.1-.5-1.65Zm-.74 3.97a40.28 40.28 0 0 1-.27 19.6l-2.1-.67a38.05 38.05 0 0 0-.17-19.93l2.1-.7c.16.57.3 1.13.44 1.7Zm-.21 25.1a41.7 41.7 0 0 1-10.42 15.05l-3.94-4.27a36.25 36.25 0 0 0 8.97-12.97l5.39 2.19Zm-2.32.95-2.15-.88a38 38 0 0 1-7.45 10.78l1.57 1.7a40.31 40.31 0 0 0 8.03-11.6Zm-.32-34.25A40.32 40.32 0 0 0 77.22 3.88l-.64 2.23a38 38 0 0 1 21.9 19.4l2.13-.91Zm1.61-.69c.25.53.5 1.06.72 1.6l-5.34 2.28A36.25 36.25 0 0 0 74.42 7.26l1.63-5.58a42.12 42.12 0 0 1 26.17 22.23ZM70.68 2.26a40.32 40.32 0 0 0-35.94 12.36l1.77 1.5A38 38 0 0 1 70.2 4.54l.47-2.27Zm.36-1.71a42.07 42.07 0 0 0-38.8 14.24l4.43 3.77a36.25 36.25 0 0 1 34.91-12l1.18-5.7a42.1 42.1 0 0 0-1.72-.31ZM31.2 19.02a40.32 40.32 0 0 0-1.92 43.07l1.96-1.24a38 38 0 0 1 1.8-40.43l-1.84-1.4Zm-1.4-1.07a42.06 42.06 0 0 0-1.1 46.57l4.92-3.1v-.01a36.25 36.25 0 0 1 1.84-41.34l-4.62-3.53c-.36.47-.7.94-1.04 1.41Zm34.52 64.62-8.58 8.88-5.28-11.15.25-12.31a7.74 7.74 0 0 1 9-7.49l2.13.35a7.74 7.74 0 0 1 6.14 9.94l-3.66 11.78Zm-12.35-2.59.24-11.96a6.24 6.24 0 0 1 7.25-6.04l2.13.35a6.24 6.24 0 0 1 4.95 8.01L63 81.8l-6.82 7.06-4.2-8.87Z" fill="#564341"/><path fill-rule="evenodd" clip-rule="evenodd" d="m62.04 78.97-5.44 6.3-2.86-7.69.15-8.15a5.44 5.44 0 1 1 10.63 1.76l-2.48 7.78Zm-6.8-1.64.15-7.87a3.94 3.94 0 1 1 7.7 1.28l-2.39 7.48-3.58 4.15-1.88-5.04Zm9.48-24.9a10.4 10.4 0 0 0 10.49-10.3 10.4 10.4 0 0 0-10.5-10.28 10.39 10.39 0 0 0-10.48 10.29c0 5.66 4.67 10.29 10.49 10.29Zm0 1.5c6.62 0 11.98-5.28 11.98-11.8 0-6.5-5.36-11.78-11.98-11.78a11.89 11.89 0 0 0-11.99 11.79 11.9 11.9 0 0 0 11.99 11.78Z" fill="#564341"/><path d="M64.64 35.65c.76.78 1.03 2.63-.88 4.55-1.39 1.4-4.08 3-5.92.98-1.34-1.48.05-3.77 1.37-4.94 1.02-.9 3.9-2.18 5.43-.6Z" fill="url(#d)"/><path d="M68.36 39.73c.38.38.51 1.3-.43 2.25-.69.69-2.02 1.49-2.94.48-.66-.73.03-1.86.68-2.44.5-.45 1.93-1.08 2.7-.3Z" fill="url(#e)"/><path d="M69.53 51.24c-10.4.76-15.02-10.8-10.61-17.77 0 0-1.55 1-1.73 1.24-2.08 2.64-3.21 4.86-2.87 8.43a10.3 10.3 0 0 0 2.25 5.4c2.7 3.24 6.57 4.56 10.92 3.5.67-.18 2.04-.8 2.04-.8Z" fill="url(#f)" fill-opacity=".3"/><path d="M28.9 154.31a373.83 373.83 0 0 0-15.29 7.14l-3.06 3.47c-1.15 3.18-.95 8.15-1.44 11.51l1.42 3.06 1.82-.68s.74-2.83 5.46-7.57l4.3-3.69s15.43-9.16 17.61-10.2c-3.1-.86-7.73-2.14-10.82-3.04Z" fill="#83EAD0"/><path d="M39.61 157c-6.49 5.47-15.16 8.34-21.26 14.32l-1.5 2.2c10.54-6.52 21.34 4.03 30.92 6.9 2.3.69.22-.59 0-2.16-.1-.65.33-1.75 1.27-3.33l.04-2.39-6.59-1.7 1.15-5.96 3.34-2.4c.66-1.13 3.9-2.84 4.67-3.92l-7.07-1.67-4.97.1Zm133.17-11.3c3.63 5.72 9.33 13.35 25.06 20.1l1.5 2.2c-10.55-6.52-25.58 7.75-35.16 10.62-2.3.68-.22-.6 0-2.17.1-.64-.33-1.75-1.27-3.33l-.04-2.38 6.59-1.7-1.15-5.97-3.34-2.4c-.66-1.13-3.9-2.83-4.67-3.91l7.07-1.68 5.41-9.38Z" fill="#008564"/><path d="M172.71 156.16v-7.77l-.34-6.04-1.44-5.73-1.37-3.87-2.09-3.49-1.67-3.07-1.57 3.85-2.85 4.73-2.2 2.8-2.87 2.3-5.33 2.92h-5.06l-4.84-2.3-4.29-2.39-3.07-3.94-.94-3-1.72-10.17-.73 2.1-2.64 4.94-3.1 4.42-4.26 3.8-3.44 1.86-4.64 1.26-3.43-.14-9.46-4.23-4.67-5.74-1.55-3.07-3.81 7.7-4.37 5.48-6.8 7.18-6.7 4.28-5.83 4.38c.26 2.55 1.05 4.36 2.38 5.43 3.42 2.7 5.62 7.4 8.79 9.74 4.04 2.99 7.79 4.42 11.44 6.7 3.44 2.17 4.25 6.16 7.26 7.83 11.29 6.27 21.75 7.05 24.44 6.63 3.2.63 7.57-.12 10.79-.08 2.24-.51 7.57-1 10.35-2.18 4.4-1.86 11.46-4.35 15.7-7.1 5-3.27 8.24-8.14 9.47-9.58 1.22-1.45 2.42-4.26 3.31-5.85 1.02-1.99 1.53-4 2.23-6.12l.92-4.48Z" fill="url(#g)"/><path fill-rule="evenodd" clip-rule="evenodd" d="m172.7 148.22.14-.25c3.45 5.12 8.84 11.38 20.65 17.15-4.17-.08-8.55 1.58-12.62 3.6a142.44 142.44 0 0 0-7.03 3.83l-2.19 1.24a54.28 54.28 0 0 1-6.36 3.18l.07-.35c.1-.63-.08-1.3-.32-1.91a9.2 9.2 0 0 0-.15-.38 52 52 0 0 1-2.1 2.53l-.06.1-.24.4-.05.06-.22.35c-.06.1-.22.35-.27.65a1.3 1.3 0 0 0 .8 1.48c.4.15.8.09.96.06.23-.04.5-.1.81-.2 2.54-.76 5.38-2.25 8.3-3.89l2.25-1.28c2.24-1.28 4.54-2.59 6.86-3.74 6.28-3.11 12.11-4.73 16.78-1.84a1.2 1.2 0 0 0 1.61-1.69l-1.5-2.2a1.2 1.2 0 0 0-.52-.41c-15.46-6.64-20.99-14.1-24.51-19.65a1.2 1.2 0 0 0-1.3-.52l.21 3.68Zm-5.24 22.56 2.3-.6c.6-.15.98-.75.87-1.37l-.6-3.06a15 15 0 0 1-.47 1c-.27.48-.56 1.07-.88 1.7-.38.76-.8 1.58-1.22 2.33Zm-3.23 8.27v-.01.01Z" fill="#564341"/><path d="M68.84 159.92c1.1 4.42 16.48 18.44 42.35 20.63-19.46-2.44-37.89-28.6-37.89-28.6s-.95.6-4.45 2.55v5.42Z" fill="#000" fill-opacity=".31"/><path d="M112.13 162.39a2.05 2.05 0 0 1 1.54-2.05l12.23-3.1c.48-.12.97-.06 1.41.15l10.27 5.06c.8.39 1.25 1.25 1.12 2.13l-2.2 14.93c-.09.6-.44 1.14-.97 1.46l-10.08 6.07c-.73.44-1.67.38-2.34-.16l-9.78-7.94a2.04 2.04 0 0 1-.75-1.53l-.45-15.02Z" fill="#017356"/><path fill-rule="evenodd" clip-rule="evenodd" d="M68.91 163.03a80.29 80.29 0 0 0 15.4 11.36c8.83 4.99 19.82 7.3 38.78 8.73 22.78-.36 39.46-5.38 39.46-5.38 5.82-7.8 8.1-12.17 9.92-22.27 0 0-17.7 8.2-45.75 6.02-18.44-.73-36.02-5.44-45.74-8.51a49.79 49.79 0 0 1-12.07 10.05Z" fill="#05B78B"/><path d="M70 160.9c1.1 4.4 16.43 18.39 42.22 20.57-19.4-2.43-37.78-28.5-37.78-28.5s-.95.59-4.44 2.53v5.4Z" fill="#000" fill-opacity=".31"/><path d="M111.2 161.53a2.2 2.2 0 0 1 1.65-2.2l13.12-3.32a2.2 2.2 0 0 1 1.51.16l11.02 5.43a2.2 2.2 0 0 1 1.2 2.29l-2.35 16.02a2.2 2.2 0 0 1-1.04 1.56l-10.82 6.51c-.79.48-1.8.4-2.52-.17l-10.49-8.52c-.5-.4-.79-1-.8-1.64l-.49-16.12Z" fill="#017356"/><path d="M123.97 179.83c-3.87-5.88-6.1-6.5-7.52-6.81 3.55-2.78 5.63-2.29 7.52 2.24l.87-1.7c2.12-4 4.02-6.24 8.4-8.67-.87 2.56-.73 4.9.83 6.57-2.66 1-5.8 2.5-10.1 8.37Z" fill="url(#h)"/><path d="M80.32 147.5c5.96 8.9 28.07 3.65 28.07-7.49 0 0-6.29-1.38-9-4.02l-6.08-7.28c-3.35 6.5-13 13.93-13.99 17.15 0 0 .64 1.02 1 1.65Zm70.66-4.02c-.4 9.02 13.88 13.23 20.73 9.03.4-8.47-.68-17.47-5.89-24.28-1.68 1.88-1.85 5.97-6.2 9.87a29.7 29.7 0 0 1-8.63 5.38h-.01Z" fill="#F28773"/><path d="M122.38 139.37c1.36 4.7 8.53 5.9 13.61 6.75-4.3 1.43-9.18.74-13.13-1.36-2.21-.95-4.15-4.61-.48-5.4Z" fill="#564341"/><path d="M65.22 157.8c-1-1.64-15.16 1.05-21.64 8.88-3.15 3.32 1.24 5.06 4.44 4.6 9.46-2.4 8.16-8.1 22.07-6.55.17.03-2.44-2.94-4.87-6.93Z" fill="url(#i)"/><path d="M71.6 166.28c-6.53-2.48-16.61.15-21.74 6.93-1.81 2.4-4.61 9.48-1.47 8.78 7.9-1.75 13.61-1.72 14.62-2.66 3.7-3.4 6.31-5.86 15.83-6.2-1.14-1.54-4.8-5.94-7.23-6.86Z" fill="url(#j)"/><path d="M84.08 174.67a18.79 18.79 0 0 0-19.58 3.82c-11.97 10.84-10.34 17.5-10.34 17.5l1.26 2.13c3.27 1.28 17.39-2.76 21.3-3.88 7.43-2.13 15.4-2.9 22.78-5.25 0 0-13.12-12.67-15.42-14.32Z" fill="url(#k)"/><path d="M143.67 189.78c9.48.74 18.7 3.75 27.55 7.08l2.2.74 1.79-.33c2.46-3.95-1.45-8.02-3.94-10.9-2.33-2.43-6.21-3.52-9.44-4.15-6.76-.62-12.4 4.73-18.16 7.56Z" fill="url(#l)"/><path d="M157.31 182.83c5.7-1.7 12 .25 16.17 4.93 0 0 3.25 2 4.18 1.41.88-.56-.16-4.49-.65-5.4-2.9-5.55-5.22-8.96-10.95-10.58-2.84 3.17-5.58 6.72-8.75 9.64Z" fill="url(#m)"/><path d="M167.27 172.82c7.98 2.53 5.79 5.38 13.07 7.08.45.1.5-1.96.5-2.42 0-2.23-6.15-7.43-9.5-9.6-1.35-.88-4.69 4.74-4.07 4.94Z" fill="url(#n)"/><path d="M136.67 81.29c.4 2.66-.42 10.31-.42 10.31 22.45-5.9 53.1-39.19 7.76-32.78 4.78-6.94 14.54-10.69 18.2-18.66l-.2-.97c-20.3.97-40.66 11.47-53.22 27.59l-1 2.95 1.36 3.4c9.24 2.84 19.3 2.02 28.91 2.79 0 0-1.65 4.58-1.39 5.37Z" fill="url(#o)"/><path d="M132.1 117.6c-3.97 13.3 10.74 16.22 20.74 11.36 22.45-17.85 16.44-59.46-17.15-34.69-1.9 3.05-1.41 11.17-1.5 11.57-.54 2.93-1.9 11.12-2.08 11.75h-.01Z" fill="url(#p)"/><path d="M94.39 120.3c.85 6.23 12.8 7.5 19.02 4.75 14.57-4.88 18.95-33.25 13.14-41.7-.52-.77-7.78-1.82-10.73-2.1-8.25-.8-18.04 6.9-22.28 17.79-1.12 2.87.42 6.53.72 9.49.4 4.12-.28 8.78.13 11.78Z" fill="url(#q)"/><path d="M94.08 122.94s22.15 15.38 33.05-13.76c2.78-7.44 1.53-18.55 1.62-23.51 9.65 4.67 2.38 31.26 1.7 34.45-2.42 11.23-13.44 20.01-22.66 17.57-13.87-3.66-13.71-14.75-13.71-14.75Zm38.04 5.27 1.92.71c6.02 4.51 14.67 2.92 20.55-1.04 8.55-6.94 9.33-16.27 12.6-25.86l.6.65c1.32 9.91-1.07 20.07-4.59 29.32-7.78 15.6-28.37 14.27-31.08-3.78Z" fill="#fff"/><path d="M136.56 105.93c-1.47 3.5-2 7.9-.96 11.57 2.46 5.7 9.27 6.2 13.2 1.7 11.32-12.12-2.26-32.58-12.24-13.28v.01Zm-19.58-.1c2.13-24.86-23.86-11.33-17.29 6.6 5.64 9.03 15.3.88 17.29-6.6Z" fill="#fff"/><path d="M170.79 171.1a8.49 8.49 0 0 0 1.33 3.15l-2.38-1.65-1.63-.79 2.1-3.47.86.43s-.48 1.03-.28 2.33Z" fill="url(#r)"/><path d="M165.81 179.54c.67 1.59 2.86 3.45 2.86 3.45l-5.51-1.66-2.74-.26 4.77-5.32s-.08 2.15.62 3.8Z" fill="url(#s)"/><path d="M62.32 196.64s15.4-4.6 21.6-10.78c4.23-4.24.76-9.57 1.43-9.28 4.19 1.88 5.47 4.67 7.96 7.7 1.14 1.39 6.08 4.64 6.08 4.64s-8.24 1.14-11.63 2.2c-6.07 1.86-25.43 5.52-25.43 5.52h-.01Z" fill="url(#t)"/><path d="M157.51 185.55c.66 3.49 1.5 4.44 8.02 7.74.22.12-3.84-1.25-10.14-2.83-2.13-.52-8.48-1.56-8.48-1.56s4.6-1.82 5.77-2.59a48.74 48.74 0 0 1 5.24-2.56s-.47 1.46-.4 1.79Z" fill="url(#u)"/><path d="M62.23 178.48c-.77.23-3.5.51-6.15 1.33-1.2.37-3.07.9-4.42 1.26-.62.18-2.34.37-2.9-.08-.17-.14-.5-.8-.3-.85 7.4-1.58 11.91-3.6 15.2-5.59 5.65-3.4 6.66-6.08 7.13-8.07.2-.85 2.25 1.08 2.96 1.82l3.72 3.87s-5.35 1.02-6.99 1.49c-3.65 1.05-7.2 4.5-8.25 4.82Z" fill="url(#v)"/><path d="M42.94 170.3c6.86-2.72 13.67-5.07 20.98-12.38.49-.49 1.9.68 2.11 1.16.98 2.33 2.78 4.9 1.6 4.78-7.23-.79-11.68 2.23-14.9 4.7-2.31 1.77-10.43 1.98-9.79 1.73Z" fill="url(#w)"/><path d="M171.8 139.07c.38 2.12.38 8.08 1.17 8.53 13.73 7.8 33.88 7.11 37.62-10.34l2.04-.3 1.84-2.07a99.88 99.88 0 0 0 1.38-10.05l-1.1-4.87-2.13-4.35-5.48-6.24-6.09-3.52-6.46-1.92-7.76-.73-6.04.48-6.93 1.7c-1.1.63-4.25 2.42-5.14 3.34-.36 2-1.19 6.04-1.67 8-.21 1.36-.21 4.22-.87 5.68l-.16 2.94.84 3.49c1.87 3.68 4.04 6.05 4.93 10.23Z" fill="url(#x)"/><path d="M177.88 150.2c-9.5-21.46 1.4-42.72 25.92-42.38-5.68-3.69-10.39-4.22-16.98-4.6l-3.34.52-2.4-.2c-4.06 1.13-9.34 2.3-12.4 5.39-.14 1.89-1.17 6.13-1.67 8-.5 1.38-2.08 5.47-2.04 6.93l2.43 5.66c1.73 3.31 2.61 4.63 3.43 8.33l1.53 5.7.76 4.04 4.76 2.62Z" fill="url(#y)"/><path d="M185.74 122.34c.48-.85.13-2.78-1.28-3.66-1.62-1-3.9-.85-4.86 1.2-.75 1.58.33 3.17 1.88 4 1.56.8 3.4-.03 4.26-1.54Z" fill="url(#z)"/><path d="M205.68 121.56c-1.3 2.16-5.12 3.8-9.8 2.34-5.42-1.71-11.24-7.04-6.8-13.03 1.94-2.64 7.38-2.56 11.22-.65 2.8 1.39 8.44 6.23 5.38 11.34Z" fill="url(#A)"/><path d="M172.8 126.74c2.45 4.42 3.92 7.1 11.59 7.1 2.56 0 3.1 3.94 8.12 8.06 2.45 2.03 7.27 1.97 10.1.26 1.7-1 2.31-.6 2.83-.31 1.19.68 1.41.43 2.97.32 0 0 1.85-2.58 1.13-4.38-2.25-1.46-4.17-2.64-6.95-2.57l-1.63 1.53-1.23 1.92-1.49.94-2.2-.2a29.8 29.8 0 0 1-5.54-6.32c-3.32-3.36-6.72-2.61-10.94-2.07-2.02-1.26-4.62-3.2-6.75-4.28Z" fill="#ED8870"/><path d="M56.58 166.4c20.17-5.73 33.65-22.9 37.67-43.13l.04-4.02.76-3.06c-.44-2.86-.2-7.17-.43-10.04l2.34-.98 2-.42 1.65-1.14c.96-2.51.83-2.34.64-4.98-16.16-32.32-68.31-39.41-88.72-7.79-21.22 29.92-2.34 81.94 38.41 77.08l5.64-1.52Z" fill="url(#B)"/><path d="M40.15 150.48c1.25-6.58 35.5-10.73 38.95-21.92 1.5-11.25 5.6-12.5 15.35-13.51l.05-5.67-1.53-1.37a79.89 79.89 0 0 1-11.37 2.42c-2.29.08-5.82.12-8.04.67l-.8 3.3c1.1 2.29 2.23 10.52 2.23 10.52a40.17 40.17 0 0 1-.75 4.58c-10.42 8.07-24.77 8.63-36.23 14.88l-.66 1.97 2.8 4.13Z" fill="#F28773"/><path d="M65.09 165.25c-41.14 3.63-60.45-49.7-43.02-82.9 0 0-6.12 4.77-6.86 5.91-8.19 12.56-12.58 21.96-11.24 39l2.3 11.83c1.33 2.84 3.9 8 3.9 8 6.49 16.45 26.66 26.93 43.9 21.87l4.18-.8 6.84-2.9Z" fill="url(#C)"/><path d="M58.43 113.47c2.7 3.22 1.26 7.31-1.91 11.23-3.56 4.4-9.84 4.83-13.15 1.7-2.51-2.37-3.24-7.49 2.47-12.35 4.83-4.1 10.31-3.31 12.59-.58Z" fill="url(#D)"/><path d="M48.7 90.14c3.45 3.56 4.68 11.95-4 20.65-6.3 6.3-18.49 13.63-26.85 4.43-6.09-6.7.22-17.1 6.22-22.4 4.63-4.1 17.65-9.9 24.63-2.68Z" fill="url(#E)"/><path fill-rule="evenodd" clip-rule="evenodd" d="M102.93 86.73c.45-1.04.9-2.32 1.24-4.04a17.08 17.08 0 0 1 6.46-2.74c10.83-1.93 19.96 1.8 23.65 9.32.29-1.72.56-3.82.78-5.98l.03-.24.02-.24.03-.24.05-.53c.13-1.4.13-2.7-.05-4.1-.03-.15-.16-.35-.4-.6l-.87-.07h-.09c-.35-.04-.73-.07-1.39-.1h-.23c-7.73-.32-11.73-.56-15.15-1l-.25-.04-.12-.01-.26-.04-.6-.08c-5.17-.79-8.17-2.05-9.12-4.46-.8-2.05-.03-4.4 1.8-7.06a36.23 36.23 0 0 1 4.48-5.15c3.01-3 8.52-7.28 14.25-10.94 7.28-4.64 14.41-8 20.65-9.4 8.06-1.82 14.65-2.17 15.9.36.74 1.46-.11 3.02-2.09 5.23a64.1 64.1 0 0 1-5.85 5.56c-1.75 1.52-3.53 3-5.35 4.46l-1.21 1-.09.06-.08.07-.04.03-.23.17-1 .83-.03.02.23-.02c2.44-.3 4.9-.44 7.35-.41h.32c3.36.11 6.19.66 8.44 1.81a8.72 8.72 0 0 1 4.94 6.9c.8 5.91-6.2 14.08-15.9 20.05 3.4.08 6.73.98 9.06 2.81 2.95 2.3 5.19 5.4 6.44 8.92.99 2.8 1.5 5.77 1.48 8.74 9.8-5.22 22.9-5.04 32.88.24 11.4 6.03 16.22 17.12 11.28 30.06a3.6 3.6 0 0 1-3.06 2.47c.03.13.04.27.05.41a6.8 6.8 0 0 1-.96 3.47 26.32 26.32 0 0 1-4.2 5.5c-6.46 6.84-18.4 8.3-27.44 3.85l-.85-.42-.12-.06-.06-.03-.08-.03-.07-.04-.9-.43c-.8-.4-1.5-.75-2.13-1.1.06 5.22-.9 10.4-2.8 15.28l-.13.32-.09.25-.2.57c1.47.65 2.89 1.4 4.24 2.26a17.94 17.94 0 0 1 6.67 7.76c.8 1.87.97 3.45-.02 4.65-.88 1.07-2.3 1.25-4.03.9a23.97 23.97 0 0 1 1.83 4.23c.63 2.11.46 3.81-.98 4.88-.53.4-1.3.48-2.18.35 1.5 3.29 1.4 6.51-1.03 7.72-1.32.65-2.88.44-5.37-.43-.46-.15-1.66-.62-2.97-1.13l-.15-.05-.26-.1-.5-.19-.06-.02-.15-.06-3.06-1.18a59.42 59.42 0 0 0-7.96-2.34l-1.55-.34-1.77-.36a55.07 55.07 0 0 0-7.72-1.06c-1.63-.1-3.13-.07-4.48.08-.2.03-.4.01-.58-.04a69.95 69.95 0 0 1-18 1.68c-6.3-.22-9.7-.47-13.28-1.15-.99-.18-1.98-.4-2.95-.66-3.19-.7-11.59.42-16.93 2.1-1.43.45-2.88.84-4.34 1.17l-6.1 1.33-.34.08-.1.02-.48.1-.2.05-.2.04c-2.14.47-4.2.94-5.3 1.2l-2.68.7-1.15.32-1.27.34c-1.05.28-2.1.52-3.17.74-3.86.77-6.6.76-8.36-.55-1.42-1.06-1.93-2.76-1.72-4.9.17-1.65.77-3.63 1.77-5.98.76-1.77 2.42-4.14 4.3-6.31l.07-.1-.08.02c-.95.25-1.9.52-2.83.8l-.28.09-.11.02-2.02.58-.03.02h-.02l-.14.03-.04.02-.15.03-.3.09-.17.03-.25.06c-1.65.4-2.78.5-3.86.17a3.6 3.6 0 0 1-2.43-2.55 11.6 11.6 0 0 1-1.15-.34c-3.32-1.13-6.37-2.77-11.22-5.8-1.29-.83-5.44-2.05-7.04-2.25-3.1-.37-8.67 1.13-11.04 2.75-.66.87-1.24 1.8-1.74 2.77l-.06.12-.24.48-.07.14-.07.15c-.28.58-.55 1.13-.64 1.27-.38.64-.88 1.03-1.58 1.06-.74.03-1.28-.4-1.66-1.07a7.16 7.16 0 0 1-.66-1.76 25.12 25.12 0 0 1-.62-4.96c-.16-4.37.44-8.29 1.87-10.14a16.56 16.56 0 0 1 5.49-4.37c.56.53 1.14 1.05 1.73 1.56-2.52 1.28-4.28 2.6-5.49 4.15-1.02 1.31-1.56 4.84-1.41 8.71.06 1.75.26 3.36.55 4.53l.17.57.02.06.02-.05.4-.85.06-.12.49-.94a23.35 23.35 0 0 1 3.4-4.66c1.99-2.14 5.08-4.51 8.69-6.8.77.39 1.55.75 2.36 1.1a59.95 59.95 0 0 0-7.18 5.05c2.58-.75 5.43-1.16 7.48-.91 1.87.22 6.32 1.54 7.94 2.55 4.71 2.96 7.65 4.53 10.76 5.6l.27.1c.31-1.76 1.53-4.28 2.76-6.18l-.86.19c-3.1.6-5.4.33-6.59-1.47a3.51 3.51 0 0 1-.59-1.9c.96.05 1.93.06 2.93.05 0 .1.04.19.09.26.29.45 1.6.6 3.62.2a26.16 26.16 0 0 0 4.18-1.17l.6-.22.54-.48a69.6 69.6 0 0 0 11.36-4.43 28.2 28.2 0 0 1 3.9 0 10.4 10.4 0 0 1-1.04-1.5c.84-.45 1.67-.93 2.5-1.43.51.88 1.2 1.65 2.06 2.24.88.6 1.71 1.27 2.5 1.99l.75.71s1.13 1.12 1.68 1.7l.07.07.06.06.06.06.05.06.39.4a77.75 77.75 0 0 0 8.08 5.27c6.58 3.71 14.43 5.93 26.3 7.4a4.7 4.7 0 0 1-1.34-3.14l-.45-15.02c-.01-.47.05-.92.16-1.36A203.35 203.35 0 0 1 80 154.06c.66-.7 1.3-1.44 1.9-2.19a199.95 199.95 0 0 0 29.32 6.8 4.68 4.68 0 0 1 1.8-.9l12.23-3.1a4.71 4.71 0 0 1 3.24.34l10.27 5.05c.25.12.48.26.7.42 8.19-.23 15.07-1.3 20.36-2.48a80.92 80.92 0 0 0 9-2.54c1.03-.36 1.81-.66 2.33-.87l.11-.05a38.95 38.95 0 0 0-5.33-25.05 32.87 32.87 0 0 1-4.67 7.84c-3.6 4.38-8 7.04-13.2 7.23-4.63.17-11.15-3.08-14.16-7.6-1.88-2.8-2.77-5.36-3.6-10.26a29.57 29.57 0 0 1-6.93 8.96l-.14.13-.14.12c-5.32 4.74-12.54 5.78-19.12 3.26l-.2-.08a18.97 18.97 0 0 1-10.27-9.32c2.24-7.16 3.26-13.43 4.39-20.41l.79-4.82s.98-.38 1.75-.94c-1.37 6.08 1.22 10.67 5.23 11.45 3.76.74 8.22-3.04 9.75-9.46 1.47-6.09-.45-11.27-4.4-12.29-3.58-.91-7.27 1.6-9.45 6.77-.06-.98-.21-2.1-.37-3.21a34.9 34.9 0 0 1-.4-3.96c.25-.06.4-.12.53-.2l-.02.03.08-.06c2.06-1.32 2.5-3.28 1.55-5.94Zm60 92.26v.02-.02Zm-.04.04.03-.01h.01l.42-.13.27-.35 1.05-1.43c.77-.9 1.5-1.81 2.17-2.77l.05-.09a19.45 19.45 0 0 1 6.17 4.68 16.53 16.53 0 0 1 2.21 3.35c.77 1.35 1.4 2.77 1.9 4.24l.02.1c.22.76.24 1.22.16 1.45v.01a5.4 5.4 0 0 1-1.1-.32 12.24 12.24 0 0 1-3.06-1.83 16.3 16.3 0 0 0-1.69-1.4c-3.62-2.6-7.1-3.78-10.42-3.8.62-.55 1.22-1.11 1.8-1.7Zm7.16-18.56a39.2 39.2 0 0 1-1.22 3.55l-.01.05-.01.03a33 33 0 0 1-7.78 12.69l-1.76.45c-1.9.47-4.67 1.1-8.15 1.75-3.43.63-7.55 1.28-12.2 1.79.1-.28.17-.58.22-.88l2.2-14.93c.1-.65.05-1.29-.1-1.9 7.63-.32 14.1-1.34 19.16-2.48a83.6 83.6 0 0 0 10.3-2.98 61.6 61.6 0 0 1-.66 2.86Zm-13.4 20.11a42.63 42.63 0 0 1-6.66 4.02c-8.31 4.05-18.5 5.95-28.73 5.61-6.16-.22-9.43-.47-12.83-1.1a28.13 28.13 0 0 1-10.94-4.34 15.52 15.52 0 0 1-3.87-3.78c-.5-.64-.92-1.16-1.29-1.6 6.06 2.04 13.3 3.38 22.7 4.35l6.4 5.2a4.7 4.7 0 0 0 5.4.38l9.26-5.58a172.96 172.96 0 0 0 20.56-3.16Zm-85.12-13.45c.72.6 1.5 1.23 2.34 1.89l.34.34.1.12.1.09.04.06.77.79c.69.71 1.2 1.22 1.7 1.7-1.89.15-3.91.42-5.42.8-2.26.55-5.94 2.53-8.44 4.5l-.6.5c-1.09.11-2.54.43-4.37.9-.97.26-1.93.53-2.9.81l-.21.06-.1.03-.1.03-.1.02-.2.06-.1.03-1.72.5-.34.09-.67.17c-1.17.28-1.9.34-2.34.2-.35-.1-.55-.4-.64-1.3-.05-.52.54-1.98 1.28-3.43l.06-.1.06-.12.03-.06.13-.25a18.63 18.63 0 0 1 3.76-4.94 16.89 16.89 0 0 1 4.62-3c3.08-1.39 9.34-1.57 12.92-.49Zm5.26 7.9-.13.02h-.07l-.15.02h-.08l-.15.03-.38.04-.3.03c-1.12.13-2.23.31-3.33.56-1.82.45-5.15 2.24-7.35 3.98-2.84 2.22-6.68 6.83-7.81 9.48-1.76 4.12-2.01 6.66-.98 7.42.85.63 3 .64 6.05.03 1.43-.29 2.85-.63 4.26-1.04l1.14-.31c2.64-.72 5.3-1.36 7.99-1.9l.34-.1.33-.06.17-.04.34-.07.72-.16.17-.04 4.42-.97h.02l1-.22c1.7-.4 3.04-.75 4.12-1.1a59.17 59.17 0 0 1 10.8-2.18 25.7 25.7 0 0 1-3.47-2.34c-1.16-.99-2.2-2.1-3.12-3.33a29.7 29.7 0 0 0-2.55-2.98l-.07-.07-.08-.07c-.29-.28-.58-.55-.9-.8a30.51 30.51 0 0 0-6.41-3.99h.01c-.36-.1-2.36-.05-4.55.17Zm83.78 8.6a12.2 12.2 0 0 0-5.27 1.48c-.13.06-.27.1-.42.12-1.08.66-2.2 1.26-3.33 1.83l-.3.14c-1.16.57-2.36 1.1-3.6 1.59 2.25.3 4.47.69 6.67 1.19l.64.13.17.04.74.15c2.78.6 5.44 1.4 8.34 2.46 1.08.4 2.17.82 3.25 1.24l.47.18.2.09.13.04.6.23h.01c1.12.44 2.08.81 2.46.93 1.76.62 2.76.75 3.13.57.44-.22.6-1.37.01-3.1a12.47 12.47 0 0 0-3.14-4.79l.01.02-.03-.03-.1-.09c-.43-.42-.9-.8-1.4-1.16-3.32-2.4-6.38-3.36-9.24-3.25Zm9.58-15.06-.05.12a35.83 35.83 0 0 1-1.61 3.1c1.79.86 3.55 2.1 5.1 3.55.73.67 1.34 1.3 1.88 1.93l.08.07a10 10 0 0 0 2.32 1.07c.54.18 1.1.28 1.67.3.18 0 .33-.02.41-.05h-.03v-.21l-.01-.05a4.8 4.8 0 0 0-.41-1.35c-.4-.92-1.03-1.95-1.63-2.76a17.19 17.19 0 0 0-4.01-3.74 30.1 30.1 0 0 0-3.7-1.98Zm.18-60.6-.24.14a80.12 80.12 0 0 1-2.96 17.93l.12.15a41.88 41.88 0 0 1 7.12 20.66c.92.6 1.96 1.16 3.18 1.75l1 .48.18.1.92.44c8.23 4.05 19.12 2.7 24.89-3.39a24.6 24.6 0 0 0 3.85-5.03c1-1.9.95-2.96-.17-3.5a9.74 9.74 0 0 1-.87-.48l-.44-.3-.06-.03-.38-.24a5.35 5.35 0 0 0-2.46-1c-.5-.02-.94.15-1.36.58-.39.38-.73.8-1.04 1.26l-.04.07-.21.33-.1.15-.32.49a3.59 3.59 0 0 1-2.3 1.67 5.03 5.03 0 0 1-4.51-1.13c-.97-.78-1.73-1.7-2.95-3.44l-.8-1.11c-1.06-1.49-1.78-2.25-2.47-2.55-2.55-1.12-3.7-1.2-5.42-.81l-.14.03-.15.04-.3.06c-2.46.5-4.59-.41-9.2-4.42a1.09 1.09 0 0 1 1.42-1.65c2.33 2.02 3.97 3.17 5.16 3.69a3.1 3.1 0 0 0 2.18.24l.4-.08.14-.04c2.15-.5 3.8-.37 6.79.94 1.17.5 2.09 1.48 3.37 3.27l.4.56.37.51.01.05h.02c2.2 3.14 3.43 4.13 5.17 3.72.45-.1.66-.28 1-.78l.02-.01v-.01l.17-.26a10.8 10.8 0 0 1 1.78-2.33 3.91 3.91 0 0 1 3-1.22c1.13.04 2.17.48 3.53 1.32l.89.58c.31.21.64.4.98.55 1.33.54 2.34.3 2.76-.81 2.35-6.16 2.34-11.78.24-16.62-1.93-4.44-5.6-8.14-10.5-10.74-9.66-5.1-22.46-5.12-31.67.22Zm-3.12-3.18v.04a52.5 52.5 0 0 1-2.84 11.97c-1.87 5.16-6.5 11.3-12.1 14.09a24.81 24.81 0 0 1-8.9 2.1c-3.68.16-6.9-.66-9.33-2.65a16.48 16.48 0 0 0 2.27 5.02c2.45 3.66 8 6.45 11.65 6.31 4.25-.17 7.95-2.38 11.04-6.17a29.63 29.63 0 0 0 4.96-9c2.06-6.31 3.43-15.48 3.26-21.37l-.01-.34Zm-37.27-16.87.03.17c1.2 7.08.73 15.05-2.53 24.07-1.87 5.17-6.49 11.31-12.09 14.1-2.12 1.06-6.51 2.14-10.3 2.18-4.11.03-7.56-1.06-9.94-3.47l-.08.21c.93 4.98 4.67 9.19 9.8 11.22 5.7 2.25 11.94 1.36 16.48-2.78l.02-.03c4.51-3.88 7.45-9.1 9.24-15.83 1.4-5.25 2.02-10.5 2.53-19.41.25-4.21-.93-7.76-3.16-10.43Zm16.1 1.32-.71.3-.34.15c-4.34 1.9-8.19 4.25-8.9 5.85v.05l-.1.2c.06.87.06 1.78 0 2.73a129.5 129.5 0 0 1-.3 4.56c2.83-5.27 7.36-7.93 12.03-6.74 5.76 1.48 8.29 8.32 6.5 15.78l-.06.23c-1.91 7.65-7.65 12.45-13.06 11.4-3.49-.69-6.15-3.27-7.31-6.91a57.3 57.3 0 0 1-1.15 4.15c-.09.83.12 1.92.56 3.11.27.73.6 1.44 1 2.12 1.86 2.87 5 4.05 9.05 3.88 2.9-.12 6.12-1 7.74-1.8 4.83-2.41 9.01-7.97 10.65-12.5 2.87-7.94 3.44-15.11 2.55-21.52a16.89 16.89 0 0 0-3.77-4.08c-3.35-2.62-9.86-2.84-14.39-.96h.01Zm-34.9-6.44a14.87 14.87 0 0 0-6.1 2.82c.78 2.05.96 3.95.42 5.58a8.83 8.83 0 0 1 6.27-.7c5.76 1.48 8.28 8.32 6.5 15.77l-.05.23c-1.92 7.66-7.66 12.45-13.07 11.4a9.34 9.34 0 0 1-6.47-4.92 57.74 57.74 0 0 1-2.34 8.88c1.76 2.56 4.76 3.71 8.72 3.68 3.35-.03 7.3-1.01 9.04-1.87 4.84-2.41 9.02-7.96 10.66-12.49 3.16-8.78 3.53-16.46 2.29-23.22l-.35-1.69-.03-.1-.23-.98-.03-.3c-3.9-2.33-9.21-3.16-15.23-2.09Zm25.4 26.13c-1.63 6.33.99 11.16 5.11 11.96 3.75.74 8.22-3.04 9.76-9.45 1.45-6.1-.46-11.28-4.4-12.3-4.23-1.07-8.6 2.61-10.47 9.79Zm20.78-68.43c-2.98.2-5.94.64-8.85 1.31-5.85 1.32-12.7 4.55-19.73 9.02-5.56 3.56-10.9 7.71-13.76 10.55-3.97 3.94-6.32 7.34-5.62 9.1.42 1.06 2.69 2.01 6.85 2.64 3.6.55 7.51.8 16.06 1.14 4.87.2 7.23.3 9.36.42l.33.02.41.01.2.02h.12l.2.02h.22l1.22.08c.26.02.43.04.6.09.14.04.26.09.4.18.39.25.68.65.68 1.25 0 .55-.25.9-.6 1.15-.1.09-.21.15-.33.2-.34.12-.69.2-1.05.23l-1.31.17-.09.01-.1.01-.32.05-1.25.17c-.88.12-1.75.29-2.62.5-.22 3.62-.69 7.84-1.2 10.93l-.02.08h.03c.75-.31 1.68-.71 2.74-1.2l.19-.08c1.07-.5 2.13-1 3.2-1.52l.27-.12c1.78-.88 3.55-1.77 4.83-2.45 10.44-5.5 18.46-14.08 17.8-19.05-.54-4.1-4.24-5.98-10.6-6.17-2.33-.08-4.74.08-7.6.42l-1.38.17-.12.02h-.06l-.12.02c-.8.1-1.62.19-2.44.25-.2.01-.4-.01-.58-.06a1.49 1.49 0 0 1-1.2-1.4c-.01-.44.1-.71.32-1.02l.29-.34.69-.65c.45-.4 1.05-.9 1.94-1.63l.25-.2 1.44-1.18.16-.13.04-.03.09-.07 1.33-1.08c1.77-1.45 3.53-2.91 5.27-4.4a62.9 62.9 0 0 0 5.6-5.3c.55-.6 1.03-1.24 1.44-1.94l.02-.03h-.05l-.34-.09h-.1c-1.04-.14-2.1-.17-3.14-.1h-.01Zm-45.01 121c-.13.28-.19.58-.18.89l.45 15.02c.02.6.3 1.16.75 1.53l2.76 2.23 3.71 3.02 3.31 2.69c.67.54 1.61.6 2.35.16l10.08-6.07c.52-.32.88-.85.97-1.46l2.2-14.93a2.05 2.05 0 0 0-1.12-2.13l-10.28-5.06a2.05 2.05 0 0 0-1.4-.14l-8.67 2.19-3.56.9c-.63.16-1.13.6-1.38 1.17Zm3.23 10.35a1.48 1.48 0 0 0 .6 2.62c.58.13 1.27.3 2.25 1.05 1.04.79 2.45 2.26 4.34 5.13a1.48 1.48 0 0 0 2.44.06 26.3 26.3 0 0 1 5.35-5.7c1.5-1.13 2.8-1.69 4.07-2.16a1.48 1.48 0 0 0 .56-2.4c-1.04-1.11-1.28-2.8-.5-5.08a1.48 1.48 0 0 0-2.13-1.78 21.48 21.48 0 0 0-5.41 4.02 21.59 21.59 0 0 0-3.16 4.47 5.08 5.08 0 0 0-2.71-2.1c-1.96-.57-3.9.46-5.7 1.87Zm8.43 3.41.86-1.69.01-.01c1.8-3.4 3.44-5.53 6.57-7.57a26.8 26.8 0 0 1 1.83-1.1c-.24.68-.4 1.35-.48 2a5.94 5.94 0 0 0 .45 3.3c.21.46.5.88.86 1.27-.47.17-.95.36-1.45.59-2.14.97-4.6 2.6-7.7 6.53-.31.4-.63.81-.95 1.25-.3-.46-.6-.9-.89-1.3-2.13-3-3.72-4.3-4.92-4.92a6.56 6.56 0 0 0-1.7-.6c.56-.44 1.1-.8 1.59-1.07 2.17-1.2 3.73-.74 5.1 1.64.28.48.55 1.04.82 1.68Z" fill="#564341"/><path fill-rule="evenodd" clip-rule="evenodd" d="M101.67 87.4a40.9 40.9 0 0 0-2.8 3.44l-1.68-1.08c.4-.64 1.87-2.46 3-3.7a18.37 18.37 0 0 1 4.08-3.5l1.01 1.74a16.4 16.4 0 0 0-3.6 3.1Z" fill="#564341"/><path d="m45.38 139.9 9.99-3.3-7.77 56.87c-.33 2.43-1.73 4.7-4.12 5.27-1 .24-2.11.35-3.15.16a7.79 7.79 0 0 1-2.59-1.15c-2.26-1.44-3.03-4.27-2.5-6.9l10.14-50.95Z" fill="#83EAD0"/><path d="m45.38 139.9 4-1.26-10.18 53.43c-.68 4 1.13 5.68 4.28 6.67-1 .24-2.11.35-3.15.16a7.79 7.79 0 0 1-2.59-1.15c-2.26-1.44-3.03-4.27-2.5-6.9l10.14-50.95Z" fill="#62AF9C"/><path fill-rule="evenodd" clip-rule="evenodd" d="M101.13 93.08C87.24 77.86 64.5 63.3 36.59 71.6l-.06.02-.06.03C22.24 77.68 13.17 85.7 7.79 94.53c-5.38 8.83-7.01 18.38-6.53 27.4.48 9 3.07 17.5 6.18 24.27 3.09 6.74 6.75 11.93 9.47 14.23 7.25 6.12 14.48 9.42 21.47 10.62l-4.12 19.6c-.58 2.91.24 6.22 2.95 7.95a8.8 8.8 0 0 0 2.94 1.28 8.5 8.5 0 0 0 3.57-.17c2.94-.7 4.52-3.45 4.88-6.1l3.3-22.75a46.88 46.88 0 0 0 16.17-6.73 68.41 68.41 0 0 0 17.27-16.26c4.33-5.76 7.24-11.5 8.14-15.66 3.37-10.5 2.75-18.82 2.18-24.54l.8-.16h.01l.4-.07c.72-.15 1.47-.3 2.18-.53a6.67 6.67 0 0 0 3.85-2.81c.7-1.09.85-2.37.79-3.55-.07-1.2-.37-2.4-.72-3.45a23.2 23.2 0 0 0-1.64-3.72l-.02-.04-.01-.03-.01-.01v-.01l-.07-.12-.1-.1Zm-64.9 97.97 4.14-19.71h.02l.68-3.35 5.48-26c1.71-.56 3.57-1.13 5.5-1.72l2.4-.74-3.96 27.21h.01l-.8 5.46-3.09 21.14c-.3 2.2-1.52 3.99-3.35 4.42-.93.22-1.89.31-2.74.15a6.82 6.82 0 0 1-2.23-1c-1.81-1.16-2.53-3.5-2.06-5.86Zm30.54-28.95a44.9 44.9 0 0 1-14.5 6.22l4.28-29.44.09-.03a102.3 102.3 0 0 0 11.91-4.38c1.69-.79 3.2-1.63 4.38-2.53a7.03 7.03 0 0 0 2.53-3.13c.54-1.45.43-3.14.14-4.73a46 46 0 0 0-1.04-4.18l-.2-.75a20.47 20.47 0 0 1-.87-4.17c-.06-1.15.2-1.65.55-1.9.1-.08.36-.22.85-.4.46-.18 1.05-.36 1.75-.56 1.4-.4 3.2-.84 5.2-1.3l4.28-.95c2.43-.54 4.93-1.09 7.18-1.63.55 5.6 1.04 13.43-2.13 23.3l-.01.05-.02.06c-.78 3.68-3.47 9.12-7.73 14.78a66 66 0 0 1-16.64 15.67Zm.76-29.8a93.58 93.58 0 0 1-10.6 3.93l.01-.07-4.04 1.33-1.5.46c-2.68.83-5.28 1.62-7.5 2.38-1.75.6-3.3 1.18-4.56 1.76a8.85 8.85 0 0 0-2.94 1.93 3.42 3.42 0 0 0-.87 2.87c.16.91.67 1.69 1.18 2.28.51.61 1.12 1.14 1.6 1.56l.14.11.06.06a23.69 23.69 0 0 1 .77.7 1.2 1.2 0 0 0 1.88-1.5c-.17-.22-.4-.44-.6-.61l-.5-.44-.08-.07-.1-.08c-.48-.41-.96-.84-1.34-1.29a2.55 2.55 0 0 1-.63-1.13c-.04-.22-.02-.5.32-.9.27-.3.93-.75 2.12-1.3 1.06-.5 2.41-1.01 3.98-1.55l-5.46 25.96c-6.55-1.1-13.42-4.21-20.4-10.1-2.34-1.97-5.82-6.79-8.84-13.39a65.7 65.7 0 0 1-5.97-23.4c-.46-8.63 1.1-17.68 6.18-26.02 5.07-8.31 13.69-16.02 27.5-21.89 26.55-7.86 48.32 5.86 61.92 20.7a46.52 46.52 0 0 0 .07.15 20.12 20.12 0 0 1 1.35 3.12c.32.94.55 1.93.6 2.83.05.9-.09 1.6-.4 2.1a4.28 4.28 0 0 1-2.56 1.83c-.57.18-1.2.31-1.92.45l-.15.03-.23.05c-.6.12-1.27.24-1.95.41l-1.02.25v.01c-2.3.56-4.87 1.13-7.4 1.69l-4.35.97c-2 .46-3.85.9-5.32 1.32-.73.21-1.4.42-1.94.63a6.3 6.3 0 0 0-1.4.69c-1.37.97-1.63 2.55-1.56 3.99.08 1.44.51 3.1.95 4.69l.22.78c.39 1.36.76 2.68.98 3.92.27 1.5.28 2.66-.03 3.48v.02l-.02.02c-.18.56-.7 1.24-1.72 2a21.1 21.1 0 0 1-3.93 2.27Z" fill="#564341"/></g><defs><linearGradient id="b" x1="61.5" y1="70.04" x2="57.23" y2="69.44" gradientUnits="userSpaceOnUse"><stop stop-color="#FFE768"/><stop offset=".4" stop-color="#FFE768"/><stop offset=".7" stop-color="#FFBD4A"/><stop offset="1" stop-color="#FFBD4A"/></linearGradient><linearGradient id="c" x1="62.17" y1="31.68" x2="70.66" y2="52.47" gradientUnits="userSpaceOnUse"><stop stop-color="#FFBD4A"/><stop offset=".3" stop-color="#FFBD4A"/><stop offset=".66" stop-color="#FFE768"/><stop offset="1" stop-color="#FFE768"/></linearGradient><linearGradient id="d" x1="61.13" y1="34.95" x2="61.38" y2="42.09" gradientUnits="userSpaceOnUse"><stop stop-color="#FFF9CE"/><stop offset="1" stop-color="#fff"/></linearGradient><linearGradient id="e" x1="66.63" y1="39.38" x2="66.75" y2="42.91" gradientUnits="userSpaceOnUse"><stop stop-color="#FFF9CE"/><stop offset="1" stop-color="#fff"/></linearGradient><linearGradient id="f" x1="56.26" y1="34.8" x2="61.89" y2="52.4" gradientUnits="userSpaceOnUse"><stop stop-opacity="0"/><stop offset="1"/></linearGradient><linearGradient id="g" x1="79.06" y1="129.48" x2="124.89" y2="200.88" gradientUnits="userSpaceOnUse"><stop stop-color="#FFBC9C"/><stop offset=".7" stop-color="#FFBC9C"/><stop offset="1" stop-color="#FFA67A"/></linearGradient><linearGradient id="h" x1="124.07" y1="164.1" x2="124.07" y2="177.93" gradientUnits="userSpaceOnUse"><stop stop-color="#FFE768"/><stop offset=".4" stop-color="#FFE768"/><stop offset=".7" stop-color="#FFBD4A"/><stop offset="1" stop-color="#FFBD4A"/></linearGradient><linearGradient id="i" x1="56.29" y1="157.34" x2="52.14" y2="174.04" gradientUnits="userSpaceOnUse"><stop stop-color="#F28773"/><stop offset=".3" stop-color="#F28773"/><stop offset="1" stop-color="#F6A66A"/></linearGradient><linearGradient id="j" x1="62.9" y1="165.36" x2="57.83" y2="185.18" gradientUnits="userSpaceOnUse"><stop stop-color="#F28773"/><stop offset=".3" stop-color="#F28773"/><stop offset="1" stop-color="#F6A66A"/></linearGradient><linearGradient id="k" x1="76.8" y1="173.42" x2="68.87" y2="202.88" gradientUnits="userSpaceOnUse"><stop stop-color="#F28773"/><stop offset=".3" stop-color="#F28773"/><stop offset="1" stop-color="#F6A66A"/></linearGradient><linearGradient id="l" x1="159.83" y1="185.06" x2="164.5" y2="200.97" gradientUnits="userSpaceOnUse"><stop stop-color="#F57A55"/><stop offset=".4" stop-color="#F28773"/><stop offset="1" stop-color="#FA9F6E"/></linearGradient><linearGradient id="m" x1="167.66" y1="176.2" x2="174.68" y2="190.87" gradientUnits="userSpaceOnUse"><stop stop-color="#F57A55"/><stop offset=".4" stop-color="#F28773"/><stop offset="1" stop-color="#FA9F6E"/></linearGradient><linearGradient id="n" x1="174.02" y1="170.05" x2="179.73" y2="180.5" gradientUnits="userSpaceOnUse"><stop stop-color="#F57A55"/><stop offset=".4" stop-color="#F28773"/><stop offset="1" stop-color="#FA9F6E"/></linearGradient><linearGradient id="o" x1="137.6" y1="39.19" x2="137.6" y2="91.6" gradientUnits="userSpaceOnUse"><stop stop-color="#FFE768"/><stop offset=".4" stop-color="#FFE768"/><stop offset=".7" stop-color="#FFBD4A"/><stop offset="1" stop-color="#FFBD4A"/></linearGradient><linearGradient id="p" x1="148.81" y1="86.6" x2="173.03" y2="126.45" gradientUnits="userSpaceOnUse"><stop stop-color="#564341"/><stop offset=".5" stop-color="#564341"/><stop offset="1" stop-color="#845750"/></linearGradient><linearGradient id="q" x1="111.09" y1="81.18" x2="135.47" y2="122.03" gradientUnits="userSpaceOnUse"><stop stop-color="#564341"/><stop offset=".5" stop-color="#564341"/><stop offset="1" stop-color="#845750"/></linearGradient><linearGradient id="r" x1="169.07" y1="169.58" x2="171.79" y2="171.69" gradientUnits="userSpaceOnUse"><stop stop-color="#C35C45"/><stop offset="1" stop-color="#B76455"/></linearGradient><linearGradient id="s" x1="162.38" y1="177.26" x2="165.71" y2="181.6" gradientUnits="userSpaceOnUse"><stop stop-color="#C35C45"/><stop offset="1" stop-color="#B76455"/></linearGradient><linearGradient id="t" x1="99.39" y1="182.89" x2="86.16" y2="205.25" gradientUnits="userSpaceOnUse"><stop stop-color="#AA6160"/><stop offset="1" stop-color="#B36F5F"/></linearGradient><linearGradient id="u" x1="151.35" y1="185.75" x2="154.74" y2="193.31" gradientUnits="userSpaceOnUse"><stop stop-color="#C35C45"/><stop offset="1" stop-color="#B76455"/></linearGradient><linearGradient id="v" x1="77.47" y1="170.99" x2="67.81" y2="188.1" gradientUnits="userSpaceOnUse"><stop stop-color="#AA6160"/><stop offset="1" stop-color="#B36F5F"/></linearGradient><linearGradient id="w" x1="68.02" y1="161.75" x2="60.05" y2="176.31" gradientUnits="userSpaceOnUse"><stop stop-color="#AA6160"/><stop offset="1" stop-color="#B36F5F"/></linearGradient><linearGradient id="x" x1="207.23" y1="112.02" x2="174.11" y2="145.59" gradientUnits="userSpaceOnUse"><stop stop-color="#FFCB87"/><stop offset=".1" stop-color="#FFCB87"/><stop offset=".4" stop-color="#FFBC9C"/><stop offset="1" stop-color="#FFBC9C"/></linearGradient><linearGradient id="y" x1="203.79" y1="103.24" x2="162.43" y2="147.79" gradientUnits="userSpaceOnUse"><stop stop-color="#FBC38C"/><stop offset=".3" stop-color="#F19675"/><stop offset=".7" stop-color="#F0876A"/><stop offset="1" stop-color="#ED8870"/></linearGradient><linearGradient id="z" x1="182.65" y1="118.08" x2="182.65" y2="124.19" gradientUnits="userSpaceOnUse"><stop stop-color="#FFFFFE"/><stop offset="1" stop-color="#fff"/></linearGradient><linearGradient id="A" x1="197.03" y1="108.83" x2="197.03" y2="124.46" gradientUnits="userSpaceOnUse"><stop stop-color="#FFFFFE"/><stop offset="1" stop-color="#fff"/></linearGradient><linearGradient id="B" x1="26.14" y1="71.32" x2="54.22" y2="168.06" gradientUnits="userSpaceOnUse"><stop stop-color="#FFCB87"/><stop offset=".2" stop-color="#FFCB87"/><stop offset=".7" stop-color="#FFBC9C"/><stop offset="1" stop-color="#FFBC9C"/></linearGradient><linearGradient id="C" x1="3.02" y1="102.25" x2="53.59" y2="152.08" gradientUnits="userSpaceOnUse"><stop stop-color="#FFCB87"/><stop offset=".3" stop-color="#F79E75"/><stop offset=".5" stop-color="#EF876D"/><stop offset="1" stop-color="#ED8870"/></linearGradient><linearGradient id="D" x1="50.38" y1="111.28" x2="50.97" y2="128.36" gradientUnits="userSpaceOnUse"><stop stop-color="#FFFFFE"/><stop offset="1" stop-color="#fff"/></linearGradient><linearGradient id="E" x1="32.78" y1="86.96" x2="33.91" y2="119.34" gradientUnits="userSpaceOnUse"><stop stop-color="#FFF9CE"/><stop offset="1" stop-color="#fff"/></linearGradient></defs></svg>