<svg fill="none" xmlns="http://www.w3.org/2000/svg" viewBox="0 0 216 200"><path d="m61.5 81.44-12.06 73.01-8.88-1.45 12.06-73.02 8.88 1.46Z" fill="#83EAD0" stroke="#564341"/><mask id="a" fill="#fff"><path d="M73.5 73.61a32.86 32.86 0 1 0-29.36-5.3l8.24-10.84a19.24 19.24 0 1 1 17.19 3.1L73.5 73.6Z"/></mask><path d="M73.5 73.61a32.86 32.86 0 1 0-29.36-5.3l8.24-10.84a19.24 19.24 0 1 1 17.19 3.1L73.5 73.6Z" fill="#83EAD0" stroke="#564341" stroke-width="3.49" mask="url(#a)"/><mask id="b" fill="#fff"><path d="M73.52 73.6a32.86 32.86 0 1 0-29.45-5.33l3.48-4.55a27.14 27.14 0 1 1 24.32 4.4l1.65 5.49Z"/></mask><path d="M73.52 73.6a32.86 32.86 0 1 0-29.45-5.33l3.48-4.55a27.14 27.14 0 1 1 24.32 4.4l1.65 5.49Z" fill="#008564" stroke="#564341" stroke-width="3.49" mask="url(#b)"/><path d="M103.9 55.1a41.94 41.94 0 0 0-.2-25.78l-5.5 1.82a36.23 36.23 0 0 1 .17 22.21l5.53 1.74Z" fill="#FFD95F"/><path fill-rule="evenodd" clip-rule="evenodd" d="M103.69 29.32v.01a41.94 41.94 0 0 1 .2 25.76l-5.52-1.74a36.14 36.14 0 0 0-.18-22.2l5.5-1.83Zm-1.18 2.28-2.1.7a37.94 37.94 0 0 1 .17 19.87l2.1.66a40.13 40.13 0 0 0-.17-21.23Z" fill="#564341"/><path d="M92.36 73.33a41.95 41.95 0 0 0 10.38-15.01l-5.37-2.18c-2 4.91-5.05 9.33-8.95 12.93l3.94 4.26Zm10.08-47.31A41.94 41.94 0 0 0 75.62 2.26L74 7.83A36.15 36.15 0 0 1 97.1 28.3l5.34-2.28ZM72.34 1.45a41.94 41.94 0 0 0-40.4 13.89l4.42 3.76a36.14 36.14 0 0 1 34.8-11.97l1.18-5.68Zm-41.8 15.63a41.94 41.94 0 0 0-2.13 47.84l4.9-3.1a36.15 36.15 0 0 1 1.84-41.22l-4.6-3.52Z" fill="#FFD95F"/><path d="M101.6 58.8a41.44 41.44 0 0 1-9.2 13.29l-2.76-2.98a37.01 37.01 0 0 0 8.2-11.84l3.75 1.52ZM33.93 20.76a37.02 37.02 0 0 0-7 19.4l-.04.71a37.02 37.02 0 0 0 5.22 20.66l-3.43 2.17a41.07 41.07 0 0 1-5.87-22.22l.03-.79A41.07 41.07 0 0 1 30.7 18.3l3.23 2.46Zm69.2 9.67.24.83a41.07 41.07 0 0 1-.06 22.72l-3.87-1.21a37.01 37.01 0 0 0-.17-21.08l3.85-1.28v.02Zm-.9.33-2.1.7-.79.26.23.8a37.07 37.07 0 0 1 .16 19.41l-.21.8.79.26 2.1.66.87.27.24-.88a41.01 41.01 0 0 0-.18-21.69l-.25-.87-.86.28ZM76.2 3.35a41.07 41.07 0 0 1 14.47 8.06l.43.38a41.06 41.06 0 0 1 10.17 13.77l-3.73 1.6c-2-4.4-4.84-8.35-8.37-11.65l-.76-.69c-3.87-3.43-8.42-6-13.35-7.57l1.14-3.9Zm-25.68.34A41.07 41.07 0 0 1 71.3 2.14l-.82 3.97a37.02 37.02 0 0 0-34.22 11.77l-3.09-2.63c4.54-5.1 10.28-9 16.7-11.33l.65-.23Z" stroke="#564341" stroke-width="1.74"/><g filter="url(#c)"><path d="M51.85 68.4a6.23 6.23 0 0 1 7.23-6.01l2.13.35a6.23 6.23 0 0 1 4.93 7.98L62.6 82.14l-6.8 7.04-4.19-8.85.24-11.93Z" fill="#83EAD0"/></g><path d="m61.33 62 .38.07c3.83.85 6.2 4.7 5.25 8.5l-.1.38-3.54 11.4-.06.18-.12.13-6.8 7.04-.76.77-.46-.97-4.18-8.85-.08-.16v-.17l.25-11.93a6.97 6.97 0 0 1 8.1-6.74l2.12.35Z" stroke="#564341" stroke-width="1.49"/><path d="M59.71 65.3a4.68 4.68 0 0 1 3.77 5.79l-.07.25-2.38 7.47-.05.14-.1.12-3.57 4.13-.82.96-.44-1.18-1.88-5.03-.05-.13v-.15l.16-7.84a4.68 4.68 0 0 1 5.43-4.52Z" fill="#008564" stroke="#564341" stroke-width="1.49"/><ellipse cx="59" cy="70.03" rx="2.15" ry="2.18" transform="rotate(9 59 70.03)" fill="url(#d)"/><path d="M64.32 31.6c6.2 0 11.2 4.93 11.2 11s-5 11-11.2 11a11.1 11.1 0 0 1-11.2-11c0-6.07 5-11 11.2-11Z" fill="url(#e)" stroke="#564341" stroke-width="1.49"/><path d="M64.24 36.13c.76.79 1.03 2.63-.88 4.54-1.38 1.39-4.06 3-5.9.98-1.34-1.47.05-3.76 1.37-4.93 1.02-.9 3.88-2.17 5.41-.59Z" fill="url(#f)"/><path d="M67.95 40.2c.38.38.51 1.3-.43 2.24-.69.69-2.01 1.49-2.92.49-.67-.73.02-1.86.67-2.44.5-.45 1.92-1.08 2.68-.3Z" fill="url(#g)"/><path d="M69.11 51.68c-10.37.75-14.97-10.78-10.57-17.72 0 0-1.55 1-1.73 1.24-2.07 2.63-3.2 4.85-2.86 8.4.2 2.01 1.16 4.18 2.25 5.39 2.68 3.22 6.54 4.54 10.89 3.49.66-.18 2.02-.8 2.02-.8Z" fill="url(#h)" fill-opacity=".3"/><path d="M28.6 154.44a371.83 371.83 0 0 0-15.24 7.13l-3.05 3.46c-1.15 3.16-.95 8.12-1.44 11.47l1.41 3.05 1.82-.68s.74-2.82 5.44-7.54l4.3-3.68s15.38-9.14 17.55-10.17c-3.08-.86-7.7-2.14-10.78-3.03Z" fill="#83EAD0"/><path d="M39.28 157.12c-6.47 5.47-15.12 8.32-21.2 14.28l-1.5 2.2c10.51-6.5 21.28 4.02 30.83 6.89 2.3.67.22-.6 0-2.17-.1-.64.33-1.74 1.27-3.32l.04-2.37-6.57-1.7 1.15-5.94 3.32-2.4c.66-1.12 3.9-2.83 4.67-3.9L44.23 157l-4.95.11Z" fill="#008564"/><path d="M172.06 145.86c3.62 5.7 9.3 13.31 24.98 20.04l1.5 2.2c-10.51-6.5-25.5 7.72-35.05 10.58-2.3.68-.22-.59 0-2.16.1-.64-.33-1.75-1.28-3.32l-.03-2.38 6.56-1.7-1.14-5.94-3.32-2.4c-.66-1.12-3.9-2.82-4.67-3.9l7.06-1.67 5.4-9.35Z" fill="#008564" stroke="#564341" stroke-width="2.37" stroke-linejoin="round"/><path d="M171.99 156.28v-7.74l-.34-6.02-1.44-5.71-1.36-3.86-2.09-3.48-1.67-3.06-1.56 3.83-2.84 4.73-2.2 2.78-2.85 2.3-5.32 2.91h-5.04l-4.83-2.29-4.27-2.39-3.07-3.93-.94-2.99-1.7-10.14-.74 2.1-2.63 4.92-3.08 4.41-4.26 3.8-3.43 1.84-4.63 1.25-3.41-.13-9.44-4.22-4.65-5.72-1.55-3.06-3.8 7.68-4.36 5.45-6.78 7.17-6.68 4.27-5.8 4.36c.25 2.55 1.04 4.35 2.37 5.41 3.4 2.7 5.6 7.38 8.76 9.71 4.03 2.99 7.77 4.41 11.4 6.7 3.43 2.15 4.24 6.13 7.25 7.8 11.25 6.25 21.68 7.03 24.36 6.61 3.2.62 7.55-.13 10.76-.08 2.23-.51 7.55-1 10.32-2.18 4.4-1.85 11.43-4.34 15.65-7.09 5-3.25 8.22-8.1 9.44-9.54 1.22-1.44 2.42-4.24 3.31-5.83 1-1.98 1.52-4 2.22-6.1l.92-4.47Z" fill="url(#i)"/><path d="M161.86 177.8c5.8-7.78 8.08-12.13 9.89-22.2 0 0-17.66 8.17-45.61 6-27.68-1.09-53.41-11.17-53.41-11.17l-5.78 3.3v7.87a77 77 0 0 0 16.9 12.86c8.8 4.97 19.76 7.29 38.66 8.7 22.72-.35 39.35-5.35 39.35-5.35Z" fill="#05B78B" stroke="#564341" stroke-width="2.65"/><path d="M68.43 160.03c1.1 4.41 16.43 18.4 42.22 20.58-19.4-2.44-37.78-28.52-37.78-28.52s-.95.6-4.44 2.55v5.4Z" fill="#000" fill-opacity=".31"/><g filter="url(#j)"><path d="M111.59 162.5c-.03-.96.61-1.8 1.54-2.04l12.2-3.09a2 2 0 0 1 1.4.15l10.24 5.04c.8.39 1.25 1.25 1.12 2.13l-2.2 14.88c-.09.6-.44 1.14-.96 1.45l-10.05 6.06c-.74.44-1.67.38-2.34-.17l-9.75-7.9a2.04 2.04 0 0 1-.76-1.53l-.44-14.98Z" fill="#017356"/></g><path d="M125.29 156.02c.69-.1 1.4 0 2.02.3l10.24 5.05.24.13a3.37 3.37 0 0 1 1.64 3.1l-.03.28-2.2 14.89a3.37 3.37 0 0 1-1.43 2.29l-.16.1-10.05 6.05a3.37 3.37 0 0 1-3.65-.1l-.2-.17-9.76-7.9a3.37 3.37 0 0 1-1.23-2.34l-.01-.18-.45-14.98a3.37 3.37 0 0 1 2.54-3.36l12.2-3.1.29-.06Z" stroke="#564341" stroke-width="2.65"/><path d="M132.38 164.3a.74.74 0 0 1 .95.93c-.82 2.41-.63 4.42.67 5.8a.74.74 0 0 1-.28 1.2c-1.3.49-2.67 1.08-4.24 2.25a26.95 26.95 0 0 0-5.49 5.85.74.74 0 0 1-1.21-.03c-1.91-2.9-3.38-4.44-4.5-5.3a5.8 5.8 0 0 0-2.3-1.12l-.24-.06a.74.74 0 0 1-.3-1.3c1.78-1.4 3.45-2.2 5.03-1.75 1.2.35 2.14 1.37 2.95 2.88l.19-.36.4-.74a20.85 20.85 0 0 1 3.05-4.33 20.73 20.73 0 0 1 5.21-3.88l.1-.04Z" fill="url(#k)" stroke="#564341" stroke-width="1.48" stroke-linejoin="round"/><path d="M79.87 147.66c5.94 8.86 28 3.63 28-7.47 0 0-6.28-1.37-8.99-4.01l-6.06-7.26c-3.33 6.48-12.95 13.89-13.94 17.1 0 0 .63 1.02.99 1.64Zm70.45-4.01c-.4 8.99 13.84 13.19 20.68 9 .4-8.44-.68-17.42-5.88-24.21-1.68 1.88-1.85 5.95-6.2 9.84a29.64 29.64 0 0 1-8.6 5.37Z" fill="#F28773"/><path d="M121.81 139.54c1.35 4.69 8.5 5.89 13.57 6.74-4.29 1.42-9.16.74-13.1-1.36-2.2-.95-4.13-4.6-.47-5.38Z" fill="#564341"/><path d="M64.8 157.92c-1-1.63-15.1 1.05-21.56 8.86-3.14 3.31 1.23 5.05 4.42 4.58 9.44-2.4 8.14-8.06 22-6.53.18.04-2.43-2.92-4.85-6.9Z" fill="url(#l)"/><path d="M71.18 166.38c-6.51-2.47-16.57.15-21.68 6.9-1.81 2.4-4.6 9.46-1.47 8.77 7.89-1.75 13.58-1.72 14.59-2.66 3.68-3.4 6.29-5.84 15.78-6.19-1.14-1.52-4.8-5.92-7.21-6.83h-.01Z" fill="url(#m)"/><path d="M83.62 174.75a18.73 18.73 0 0 0-19.52 3.8C52.17 189.36 53.8 196 53.8 196l1.24 2.13c3.27 1.28 17.34-2.75 21.23-3.87 7.42-2.12 15.36-2.9 22.73-5.23 0 0-13.08-12.64-15.38-14.28Z" fill="url(#n)"/><path d="M143.03 189.8c9.46.75 18.65 3.75 27.48 7.07l2.19.74 1.78-.33c2.46-3.94-1.44-8-3.92-10.87-2.32-2.42-6.2-3.5-9.41-4.13-6.75-.62-12.37 4.71-18.12 7.53Z" fill="url(#o)"/><path d="M156.64 182.88c5.68-1.69 11.96.25 16.12 4.92 0 0 3.24 2 4.16 1.4.89-.56-.16-4.47-.64-5.39-2.9-5.53-5.2-8.92-10.91-10.54-2.85 3.16-5.58 6.7-8.73 9.6Z" fill="url(#p)"/><path d="M166.57 172.9c7.95 2.52 5.77 5.36 13.03 7.06.44.1.49-1.95.49-2.42 0-2.22-6.13-7.4-9.46-9.56-1.35-.88-4.68 4.72-4.06 4.92Z" fill="url(#q)"/><path d="M136.06 81.64c.4 2.65-.43 10.28-.43 10.28 22.39-5.88 52.94-39.07 7.74-32.69 4.77-6.92 14.5-10.65 18.15-18.6l-.2-.97c-20.24.97-40.54 11.44-53.06 27.5l-1 2.95 1.35 3.4c9.22 2.83 19.25 2.01 28.84 2.77 0 0-1.66 4.57-1.4 5.36Z" fill="url(#r)"/><path d="M131.5 117.84c-3.96 13.27 10.7 16.18 20.68 11.33 22.38-17.8 16.39-59.29-17.1-34.59-1.89 3.04-1.42 11.14-1.5 11.54-.54 2.92-1.9 11.09-2.08 11.72Z" fill="url(#s)"/><path d="M93.9 120.54c.84 6.2 12.76 7.46 18.97 4.73 14.52-4.86 18.89-33.15 13.1-41.58-.53-.77-7.76-1.8-10.7-2.1-8.23-.8-17.99 6.88-22.22 17.74-1.11 2.87.42 6.52.72 9.47.4 4.1-.28 8.76.13 11.74Z" fill="url(#t)"/><path d="M93.59 123.17s22.08 15.33 32.95-13.72c2.78-7.42 1.53-18.5 1.61-23.45 9.63 4.67 2.38 31.17 1.7 34.36-2.4 11.19-13.4 19.95-22.59 17.52-13.83-3.66-13.67-14.71-13.67-14.71Zm37.92 5.25 1.92.71c6 4.5 14.63 2.91 20.5-1.04 8.52-6.92 9.3-16.22 12.56-25.78l.6.64c1.31 9.9-1.07 20.02-4.58 29.24-7.76 15.55-28.3 14.23-31-3.77Z" fill="#fff"/><path d="M135.94 106.21c-1.46 3.48-1.99 7.87-.95 11.53 2.46 5.69 9.24 6.18 13.17 1.7 11.28-12.08-2.26-32.49-12.22-13.24v.01Zm-19.52-.1c2.13-24.79-23.8-11.3-17.24 6.58 5.63 9 15.27.87 17.24-6.58Z" fill="#fff"/><path d="M170.07 171.18a8.46 8.46 0 0 0 1.33 3.14l-2.37-1.64-1.62-.78 2.09-3.46.85.42s-.47 1.03-.28 2.32Z" fill="url(#u)"/><path d="M165.1 179.6c.68 1.58 2.86 3.44 2.86 3.44l-5.5-1.66-2.73-.26 4.76-5.3s-.08 2.15.62 3.78Z" fill="url(#v)"/><path d="M61.93 196.65s15.34-4.58 21.53-10.75c4.22-4.23.76-9.54 1.43-9.25 4.17 1.88 5.45 4.66 7.94 7.68 1.13 1.38 6.06 4.62 6.06 4.62s-8.22 1.14-11.6 2.19c-6.05 1.86-25.36 5.51-25.36 5.51Z" fill="url(#w)"/><path d="M156.84 185.6c.65 3.47 1.49 4.42 8 7.7.21.13-3.84-1.24-10.12-2.8-2.12-.53-8.46-1.57-8.46-1.57s4.58-1.81 5.76-2.58a48.6 48.6 0 0 1 5.22-2.55s-.46 1.45-.4 1.78v.01Z" fill="url(#x)"/><path d="M61.83 178.54c-.76.23-3.48.51-6.13 1.33a169 169 0 0 1-4.4 1.26c-.62.17-2.33.37-2.9-.08-.16-.15-.5-.8-.3-.85 7.39-1.58 11.88-3.59 15.16-5.57 5.63-3.4 6.64-6.07 7.1-8.05.2-.85 2.25 1.08 2.96 1.81l3.7 3.86s-5.33 1.02-6.96 1.49c-3.64 1.05-7.19 4.48-8.23 4.8Z" fill="url(#y)"/><path d="M42.6 170.38c6.84-2.7 13.63-5.05 20.92-12.34.48-.48 1.9.68 2.1 1.16.98 2.33 2.78 4.9 1.6 4.77-7.21-.8-11.65 2.22-14.86 4.69-2.3 1.76-10.4 1.96-9.76 1.72Z" fill="url(#z)"/><path d="M171.08 139.25c.38 2.11.38 8.05 1.17 8.5 13.7 7.79 33.78 7.1 37.51-10.3l2.04-.31 1.83-2.05a99.86 99.86 0 0 0 1.37-10.03l-1.1-4.85-2.12-4.34-5.46-6.23-6.07-3.5-6.45-1.92-7.73-.72-6.02.47-6.91 1.7c-1.1.63-4.24 2.41-5.13 3.33-.36 2-1.18 6.02-1.67 7.97-.2 1.36-.2 4.22-.86 5.67l-.16 2.93.84 3.48c1.86 3.67 4.03 6.03 4.92 10.2Z" fill="url(#A)"/><path d="M177.15 150.35c-9.48-21.4 1.39-42.6 25.84-42.26-5.67-3.68-10.36-4.21-16.93-4.58l-3.33.51-2.4-.2c-4.04 1.14-9.3 2.29-12.37 5.38-.12 1.88-1.15 6.1-1.65 7.97-.5 1.38-2.08 5.46-2.04 6.92l2.43 5.63c1.72 3.31 2.6 4.62 3.42 8.32l1.52 5.68.76 4.03 4.75 2.6Z" fill="url(#B)"/><path d="M184.98 122.57c.48-.85.13-2.77-1.27-3.65-1.62-1-3.9-.85-4.85 1.19-.74 1.58.32 3.17 1.87 3.98 1.56.82 3.39-.01 4.25-1.52Z" fill="url(#C)"/><path d="M204.86 121.79c-1.29 2.15-5.1 3.79-9.76 2.33-5.41-1.7-11.21-7.01-6.8-13 1.95-2.62 7.37-2.54 11.2-.64 2.8 1.39 8.41 6.21 5.36 11.3Z" fill="url(#D)"/><path d="M172.09 126.95c2.44 4.41 3.9 7.1 11.55 7.1 2.55 0 3.1 3.92 8.1 8.02 2.44 2.02 7.24 1.96 10.07.27 1.69-1.01 2.3-.62 2.81-.32 1.2.68 1.41.42 2.96.32 0 0 1.85-2.57 1.13-4.37-2.24-1.45-4.15-2.63-6.93-2.56l-1.63 1.52-1.22 1.92-1.48.93-2.2-.2a29.76 29.76 0 0 1-5.52-6.3c-3.31-3.34-6.7-2.6-10.91-2.05-2.01-1.26-4.6-3.2-6.73-4.28Z" fill="#ED8870"/><path d="M56.2 166.5c20.11-5.72 33.55-22.84 37.56-43l.04-4.02.75-3.04c-.43-2.86-.2-7.16-.42-10.02l2.33-.97 2-.42 1.64-1.14c.95-2.5.83-2.33.64-4.96-16.11-32.22-68.11-39.3-88.46-7.76-21.16 29.82-2.34 81.69 38.3 76.85l5.62-1.52Z" fill="url(#E)"/><path d="M39.82 150.62c1.25-6.55 35.4-10.7 38.84-21.85 1.5-11.22 5.58-12.46 15.3-13.47l.05-5.65-1.53-1.37a79.56 79.56 0 0 1-11.33 2.42c-2.28.07-5.8.11-8.02.66l-.8 3.3c1.1 2.27 2.23 10.48 2.23 10.48a40.04 40.04 0 0 1-.75 4.57c-10.39 8.05-24.7 8.6-36.13 14.83l-.66 1.97 2.8 4.11Z" fill="#F28773"/><path d="M64.68 165.36c-41.02 3.61-60.27-49.57-42.9-82.67 0 0-6.1 4.77-6.82 5.9-8.17 12.52-12.55 21.9-11.21 38.88l2.28 11.8c1.33 2.83 3.9 7.98 3.9 7.98 6.47 16.4 26.58 26.85 43.76 21.8l4.18-.8 6.81-2.9Z" fill="url(#F)"/><path d="M58.04 113.72c2.7 3.21 1.26 7.3-1.9 11.2-3.55 4.4-9.8 4.82-13.1 1.7-2.52-2.36-3.24-7.47 2.45-12.31 4.82-4.1 10.28-3.31 12.55-.59Z" fill="url(#G)"/><path d="M48.34 90.46c3.44 3.55 4.66 11.92-3.99 20.59-6.27 6.28-18.43 13.59-26.77 4.42-6.07-6.67.22-17.05 6.2-22.34 4.62-4.08 17.6-9.86 24.56-2.67Z" fill="url(#H)"/><path fill-rule="evenodd" clip-rule="evenodd" d="M36.27 71.98c27.83-8.27 50.5 6.24 64.35 21.41l.09.1.06.11-1.04.6 1.04-.6v.01l.02.02.03.06a14.12 14.12 0 0 1 .54 1.03c.32.68.74 1.62 1.1 2.68.34 1.05.64 2.25.71 3.44a5.87 5.87 0 0 1-.78 3.54 6.65 6.65 0 0 1-3.85 2.8c-.7.23-1.45.38-2.17.53l-.4.08-.8.15c.57 5.7 1.18 14-2.17 24.47-.9 4.14-3.8 9.87-8.13 15.62a68.22 68.22 0 0 1-17.21 16.2c-6.97 4.48-15.05 7.51-23.76 7.43-8.73-.08-17.98-3.29-27.25-11.12-2.71-2.29-6.36-7.46-9.44-14.18a67.9 67.9 0 0 1-6.17-24.2c-.48-8.99 1.15-18.51 6.51-27.32 5.37-8.8 14.41-16.8 28.6-22.81l.06-.03.06-.02Zm62.48 22.93C85.2 80.1 63.5 66.43 37.02 74.26 23.25 80.12 14.65 87.8 9.6 96.1c-5.06 8.31-6.62 17.33-6.16 25.94a65.5 65.5 0 0 0 5.95 23.33c3.01 6.58 6.48 11.39 8.8 13.35 8.9 7.5 17.63 10.48 25.73 10.55 8.13.08 15.76-2.76 22.44-7.05a65.8 65.8 0 0 0 16.6-15.63c4.24-5.64 6.92-11.06 7.7-14.73l.02-.06.01-.06c3.42-10.62 2.57-18.87 1.99-24.52l-.12-1.13 1.02-.24c.68-.17 1.34-.3 1.95-.41l.37-.08a18.3 18.3 0 0 0 1.92-.45 4.28 4.28 0 0 0 2.55-1.82c.31-.5.46-1.2.4-2.1-.05-.9-.28-1.88-.6-2.82a20.69 20.69 0 0 0-1.42-3.25Z" fill="#564341"/><path d="m72.9 112.35.7.98-.7-.98Zm1 16.27-1.13-.43v.02l-.01.02 1.13.39ZM37 144.96l-.92-.78.92.78Zm1.95 6.77a1.2 1.2 0 1 0 1.88-1.49l-1.88 1.5Zm54.34-45.81c-3.78.94-8.42 1.91-12.44 2.83-2 .45-3.84.9-5.3 1.32-.74.2-1.4.41-1.94.62a6.3 6.3 0 0 0-1.4.69l1.4 1.95c.1-.08.36-.21.84-.4.46-.17 1.05-.36 1.75-.56 1.4-.4 3.2-.83 5.18-1.28 3.94-.9 8.69-1.89 12.5-2.84l-.6-2.33Zm-21.08 5.46c-1.36.97-1.62 2.55-1.55 3.98.08 1.44.5 3.1.95 4.67.45 1.64.93 3.22 1.2 4.7.26 1.49.27 2.65-.04 3.46l2.24.85c.56-1.44.44-3.14.16-4.74-.3-1.62-.82-3.35-1.25-4.91-.45-1.61-.8-3.02-.86-4.16-.06-1.14.2-1.65.55-1.9l-1.4-1.95Zm.55 16.85c-.2.56-.71 1.23-1.72 2-.98.75-2.31 1.5-3.92 2.26a99.79 99.79 0 0 1-11.59 4.25c-4.2 1.32-8.52 2.59-11.98 3.77a48.5 48.5 0 0 0-4.54 1.75 8.81 8.81 0 0 0-2.93 1.92l1.83 1.56c.26-.3.92-.75 2.1-1.3a44.92 44.92 0 0 1 4.32-1.66c3.42-1.17 7.65-2.4 11.93-3.75 4.24-1.34 8.5-2.8 11.88-4.37a24.14 24.14 0 0 0 4.36-2.52 6.98 6.98 0 0 0 2.53-3.14l-2.27-.77Zm-36.68 15.95a3.41 3.41 0 0 0-.86 2.86c.15.92.66 1.69 1.17 2.28.51.6 1.12 1.14 1.6 1.55l.64.56c.19.16.28.26.32.3l1.88-1.49a13.74 13.74 0 0 0-1.28-1.19c-.48-.41-.96-.84-1.34-1.28a2.54 2.54 0 0 1-.63-1.13c-.04-.22-.01-.5.33-.9l-1.83-1.56Z" fill="#564341"/><path fill-rule="evenodd" clip-rule="evenodd" d="M103.65 83.04c-.34 1.7-.78 2.98-1.23 4.02.95 2.65.51 4.61-1.54 5.93l-.09.05.03-.02c-.13.08-.29.13-.54.2.02 1.17.22 2.56.4 3.94.16 1.12.32 2.23.37 3.2 2.18-5.15 5.86-7.66 9.43-6.74 3.93 1 5.85 6.18 4.39 12.25-1.53 6.4-5.98 10.17-9.73 9.43-4-.78-6.58-5.36-5.21-11.42-.77.56-1.75.94-1.75.94-1.5 8.9-2.9 16.03-5.37 24.68a18.83 18.83 0 0 0 10.45 9.76l.2.09c6.56 2.51 13.76 1.48 19.07-3.26l.13-.12.15-.12a29.5 29.5 0 0 0 6.9-8.93c.83 4.88 1.72 7.43 3.58 10.23 3 4.5 9.51 7.75 14.13 7.58 5.18-.2 9.58-2.84 13.16-7.22 1.9-2.37 3.47-5 4.66-7.81a38.86 38.86 0 0 1 2.9 34.43l-.03.04v.04c-3.06 9.07-9.59 15.95-18.77 20.43-8.29 4.04-18.44 5.94-28.64 5.6-6.15-.22-9.4-.47-12.8-1.1-4.2-.8-7.71-2.15-10.9-4.32-.42-.29-.8-.58-1.17-.88-1-.86-1.9-1.84-2.7-2.9-1.79-2.28-2.46-3.05-3.99-4.33a35.66 35.66 0 0 0-8.41-5.02c-.66-.3-1.37-.8-2.19-1.54-.45-.42-.92-.87-1.54-1.52l-.12-.13-.82-.84-.06-.06-.05-.06-.06-.06-.07-.07c-.54-.58-1.67-1.7-1.67-1.7l-.76-.7a22.32 22.32 0 0 0-2.5-2 6.94 6.94 0 0 1-.9-.75c-.87.47-1.77.92-2.69 1.34l.09.1-.27-.01a72.25 72.25 0 0 1-15.53 4.93l-.55.2a25.99 25.99 0 0 1-4.16 1.18c-2.02.39-3.33.23-3.62-.2a.65.65 0 0 1-.1-.35c-.98-.02-1.95-.06-2.9-.13-.02.72.16 1.42.59 2.06 1.18 1.79 3.46 2.05 6.56 1.46l.86-.19c-1.22 1.9-2.44 4.4-2.75 6.16l-.27-.1c-3.1-1.06-6.03-2.63-10.73-5.58-1.61-1-6.05-2.32-7.91-2.55-2.05-.24-4.89.16-7.46.92a62.72 62.72 0 0 1 7.8-5.44 35.8 35.8 0 0 1-2.33-1.13c-3.89 2.42-7.23 4.94-9.32 7.21a23.25 23.25 0 0 0-3.4 4.65l-.49.94-.06.12-.4.85-.02.04-.02-.06a6.48 6.48 0 0 1-.17-.57 22.9 22.9 0 0 1-.55-4.5c-.14-3.87.4-7.39 1.4-8.7 1.34-1.72 3.36-3.13 6.33-4.56-.6-.5-1.18-1.03-1.74-1.57-2.84 1.44-4.85 2.92-6.3 4.8-1.43 1.85-2.03 5.75-1.87 10.1.04 1.67.25 3.33.62 4.96.19.72.4 1.3.65 1.75.39.67.92 1.1 1.66 1.06.7-.03 1.2-.41 1.57-1.05.1-.14.37-.7.65-1.27l.07-.14.06-.15.24-.47.06-.13c.5-.97 1.08-1.89 1.74-2.76 2.36-1.62 7.92-3.1 11-2.74 1.6.2 5.74 1.42 7.03 2.23 4.83 3.03 7.88 4.67 11.18 5.8.43.15.8.25 1.15.34a3.6 3.6 0 0 0 2.42 2.54c1.08.32 2.2.23 3.85-.17l.25-.06.17-.03.3-.09.15-.03.04-.02.14-.03h.01l.04-.02 2-.58.12-.02.28-.09a88.9 88.9 0 0 1 2.82-.8l.09-.01-.08.1c-1.87 2.16-3.53 4.52-4.28 6.28a21.3 21.3 0 0 0-1.77 5.97c-.2 2.13.3 3.83 1.72 4.88 1.74 1.3 4.48 1.32 8.33.55a55 55 0 0 0 3.16-.74l1.27-.34 1.14-.32a238.13 238.13 0 0 1 7.96-1.9l.2-.03.2-.04.48-.11.1-.02.33-.08 6.1-1.33a59.8 59.8 0 0 0 4.32-1.15c5.32-1.69 13.7-2.8 16.87-2.1.98.25 1.96.47 2.95.66 3.57.67 6.95.92 13.23 1.14 6.03.22 12.07-.34 17.95-1.68.19.06.39.07.58.05 1.35-.16 2.84-.18 4.47-.09a55 55 0 0 1 7.7 1.06l1.76.36 1.55.34c2.7.6 5.34 1.38 7.93 2.34l3.06 1.17.14.06.07.02.49.19.26.1.15.05c1.3.5 2.5.98 2.96 1.13 2.49.86 4.04 1.07 5.36.42 2.43-1.2 2.51-4.42 1.02-7.7.88.14 1.65.05 2.18-.34 1.43-1.06 1.6-2.76.98-4.86a23.95 23.95 0 0 0-1.83-4.22c1.72.35 3.14.16 4.02-.9.99-1.2.82-2.78.02-4.65a17.87 17.87 0 0 0-6.65-7.73 32.33 32.33 0 0 0-4.23-2.25l.2-.56.09-.26.13-.32a40.61 40.61 0 0 0 2.8-15.24c.61.36 1.3.7 2.11 1.1l.9.44.07.03.08.03.06.04.12.06.85.41c9.02 4.44 20.91 2.98 27.36-3.83a26.27 26.27 0 0 0 4.19-5.5 6.8 6.8 0 0 0 .96-3.45 2.7 2.7 0 0 0-.06-.41 3.59 3.59 0 0 0 3.06-2.46c4.92-12.9.11-23.97-11.25-29.97-9.96-5.27-23.02-5.45-32.79-.24.02-2.97-.48-5.92-1.47-8.71a19.48 19.48 0 0 0-6.42-8.9c-2.33-1.82-5.64-2.72-9.04-2.8 9.67-5.95 16.65-14.1 15.86-20a8.7 8.7 0 0 0-4.93-6.87c-2.24-1.15-5.07-1.7-8.42-1.8h-.31c-2.45-.04-4.9.1-7.33.4l-.23.02.03-.02 1-.82.22-.17.04-.04.09-.06.08-.07 1.22-1c1.8-1.44 3.58-2.92 5.33-4.44a64 64 0 0 0 5.83-5.54c1.97-2.2 2.82-3.76 2.09-5.22-1.25-2.52-7.83-2.17-15.86-.36-6.22 1.4-13.33 4.75-20.59 9.37-5.71 3.65-11.2 7.92-14.2 10.91a36.06 36.06 0 0 0-4.47 5.14c-1.83 2.64-2.6 5-1.8 7.04.95 2.4 3.94 3.66 9.1 4.44l.6.09.25.03.12.02.25.03c3.41.44 7.4.68 15.1 1h.23c.67.03 1.04.06 1.4.1h.08l.87.06c.24.26.37.46.4.6.17 1.41.17 2.7.04 4.1l-.05.53-.02.23-.03.24-.02.25a97.3 97.3 0 0 1-.78 5.96c-3.68-7.5-12.78-11.22-23.58-9.3-2.2.4-4.37 1.34-6.45 2.74Zm-27.43 92.08.14-.01c2.18-.21 4.17-.27 4.54-.16h-.02a30.44 30.44 0 0 1 6.4 3.97c.31.25.6.52.9.8l.08.07.07.07a29.8 29.8 0 0 1 2.54 2.97c.9 1.22 1.95 2.33 3.1 3.32 1.1.87 2.25 1.65 3.46 2.33a58.91 58.91 0 0 0-10.76 2.18c-1.08.35-2.41.7-4.11 1.1l-1 .21h-.01l-4.42.97-.17.04-.71.16-.34.07-.17.04-.33.07-.34.08c-2.68.55-5.33 1.18-7.97 1.9l-1.14.31c-1.4.4-2.8.75-4.24 1.04-3.05.61-5.19.6-6.03-.03-1.03-.76-.78-3.29.97-7.4 1.13-2.64 4.96-7.23 7.8-9.45 2.2-1.73 5.5-3.52 7.32-3.96 1.1-.26 2.2-.44 3.32-.56l.3-.04.38-.04.15-.03H76l.16-.01.06-.01Zm78.42 10.03a12.04 12.04 0 0 1 5.26-1.47c2.85-.1 5.9.86 9.2 3.25.5.36.97.74 1.4 1.16l.1.09.03.02-.01-.01a12.44 12.44 0 0 1 3.13 4.77c.59 1.72.43 2.88-.01 3.1-.37.17-1.36.04-3.12-.57-.38-.13-1.34-.5-2.46-.93l-.6-.23-.13-.05-.2-.08-.47-.18-3.24-1.24a61.2 61.2 0 0 0-8.31-2.45l-.74-.15-.17-.04-.64-.13a72 72 0 0 0-6.64-1.19 48.73 48.73 0 0 0 3.58-1.58l.3-.15a47.49 47.49 0 0 0 3.32-1.81c.15-.02.29-.07.42-.13Zm11.5-10.74.06-.08a19.16 19.16 0 0 1 6.15 4.66c.86 1.02 1.6 2.15 2.2 3.34.76 1.35 1.4 2.76 1.9 4.23l.02.1c.2.75.23 1.21.15 1.45a5.41 5.41 0 0 1-1.1-.31 12.2 12.2 0 0 1-3.05-1.83c-.52-.49-1.08-.96-1.68-1.39-3.6-2.6-7.08-3.77-10.4-3.8a36.8 36.8 0 0 0 5.76-6.37Zm-112.51-3.7a16.85 16.85 0 0 1 4.6-3c3.27-1.47 10.15-1.58 13.56-.25a37.04 37.04 0 0 1 1.61 1.6l.38.4.11.11.09.09.05.06.76.79c.69.7 1.2 1.22 1.7 1.68-1.88.16-3.9.44-5.4.8-2.26.56-5.93 2.54-8.42 4.5l-.6.5c-1.08.1-2.53.42-4.36.9-.96.25-1.92.52-2.88.8l-.22.06-.1.02-.1.04-.1.02-.2.06-.1.03-1.72.5-.33.08-.67.17c-1.17.28-1.89.34-2.33.22-.35-.11-.55-.41-.63-1.32-.06-.5.53-1.97 1.27-3.4l.06-.12.06-.1.03-.07.13-.24a18.59 18.59 0 0 1 3.75-4.93Zm115.77-1.93.05-.11c1.06.46 2.9 1.42 3.7 1.96a17.12 17.12 0 0 1 4 3.73c.59.81 1.22 1.84 1.61 2.76.24.53.37 1 .41 1.34l.01.05v.22h.03a1.2 1.2 0 0 1-.4.04 5.97 5.97 0 0 1-1.67-.3 9.47 9.47 0 0 1-2.31-1.06l-.08-.07a21.82 21.82 0 0 0-1.87-1.93 20.64 20.64 0 0 0-5.1-3.53c.6-1 1.13-2.04 1.62-3.1Zm-.01-60.4.23-.14c9.19-5.33 21.95-5.3 31.57-.21 4.89 2.58 8.55 6.27 10.48 10.7 2.1 4.82 2.1 10.43-.24 16.57-.42 1.1-1.43 1.34-2.75.81a6.86 6.86 0 0 1-.98-.55l-.9-.58c-1.34-.84-2.38-1.28-3.51-1.32a3.89 3.89 0 0 0-2.99 1.22c-.47.48-.86.96-1.23 1.5-.13.16-.37.55-.54.82l-.19.29c-.34.5-.55.66-1 .77-1.73.41-2.96-.58-5.15-3.7l-.02-.01-.01-.04-.37-.51-.4-.56c-1.28-1.79-2.2-2.76-3.36-3.26-2.98-1.31-4.63-1.44-6.77-.94l-.15.04-.24.05-.15.03c-.73.18-1.5.1-2.18-.25-1.18-.51-2.82-1.66-5.13-3.67a1.08 1.08 0 0 0-1.43 1.64c4.6 4 6.73 4.92 9.19 4.4l.3-.05.14-.03.14-.04c1.7-.39 2.86-.3 5.4.8.69.31 1.4 1.07 2.47 2.55l.79 1.1a15.57 15.57 0 0 0 2.94 3.44 5.02 5.02 0 0 0 4.5 1.13 3.57 3.57 0 0 0 2.3-1.67l.3-.49.1-.15.22-.33.04-.07c.3-.45.65-.87 1.04-1.25.42-.43.85-.6 1.35-.58.66.03 1.4.34 2.46 1l.38.24.06.03.44.29c.35.22.62.37.86.5 1.12.52 1.17 1.58.17 3.48a24.5 24.5 0 0 1-3.84 5c-5.75 6.09-16.61 7.43-24.81 3.4l-.92-.46-.19-.1-.99-.47a29.53 29.53 0 0 1-3.17-1.74 41.76 41.76 0 0 0-7.1-20.6l-.12-.15a79.81 79.81 0 0 0 2.96-17.88Zm-2.88-3.27v-.04l.01.34c.17 5.87-1.2 15.01-3.25 21.3a29.55 29.55 0 0 1-4.94 8.98c-3.09 3.78-6.77 5.98-11 6.15-3.65.14-9.18-2.64-11.63-6.29a16.46 16.46 0 0 1-2.26-5c2.43 1.98 5.63 2.8 9.31 2.64a24.5 24.5 0 0 0 8.87-2.1c5.58-2.77 10.2-8.9 12.06-14.05 1.5-4.17 2.4-8.14 2.83-11.93ZM129.4 88.4l-.04-.16c2.22 2.66 3.4 6.2 3.16 10.4-.52 8.9-1.13 14.11-2.53 19.36-1.79 6.7-4.71 11.91-9.21 15.78l-.02.02c-4.53 4.13-10.75 5.02-16.43 2.78-5.11-2.03-8.85-6.23-9.78-11.19l.09-.21c2.37 2.4 5.8 3.5 9.9 3.46 3.78-.04 8.16-1.12 10.28-2.17 5.58-2.78 10.18-8.9 12.05-14.06 3.25-9 3.71-16.95 2.53-24Zm15.3 1.45.72-.3h-.01c4.5-1.87 11-1.65 14.34.96a16.83 16.83 0 0 1 3.76 4.07c.9 6.39.31 13.55-2.54 21.47-1.63 4.5-5.8 10.04-10.62 12.44a22 22 0 0 1-7.72 1.8c-4.04.17-7.17-1-9.02-3.87a14.2 14.2 0 0 1-1-2.1 7.3 7.3 0 0 1-.56-3.11c.43-1.36.81-2.75 1.15-4.14 1.16 3.63 3.81 6.2 7.29 6.89 5.4 1.05 11.12-3.73 13.02-11.37l.06-.22c1.78-7.44-.74-14.26-6.49-15.74-4.65-1.18-9.16 1.47-11.98 6.73.11-1.42.22-2.93.3-4.55.06-.95.05-1.85 0-2.73l.09-.2.01-.04c.7-1.6 4.54-3.94 8.86-5.84l.34-.15Zm-40.17-3.9a14.82 14.82 0 0 1 6.1-2.82c5.99-1.06 11.29-.23 15.17 2.1 0 .08 0 .19.03.29l.23.98.03.1c.13.55.24 1.1.35 1.68 1.23 6.74.87 14.4-2.29 23.15-1.63 4.51-5.8 10.05-10.62 12.45-1.73.86-5.67 1.84-9.01 1.87-3.96.03-6.94-1.11-8.7-3.68a57.56 57.56 0 0 0 2.34-8.84 9.32 9.32 0 0 0 6.44 4.9c5.4 1.05 11.12-3.73 13.03-11.36l.05-.23c1.79-7.44-.73-14.26-6.47-15.73a8.8 8.8 0 0 0-6.25.7c.53-1.63.35-3.52-.43-5.56Zm36.5 35.17c-4.1-.8-6.72-5.62-5.09-11.94 1.86-7.15 6.23-10.82 10.43-9.75 3.94 1.01 5.85 6.19 4.4 12.26-1.54 6.4-6 10.16-9.73 9.43Zm6.81-78.85c2.9-.67 5.85-1.11 8.82-1.31a15.6 15.6 0 0 1 3.14.08h.1l.35.1h.04l-.02.03c-.4.7-.89 1.34-1.44 1.93a62.76 62.76 0 0 1-5.58 5.28 297.57 297.57 0 0 1-5.26 4.4l-1.32 1.07-.09.07-.04.04-.16.12-1.43 1.17-.26.2a65.6 65.6 0 0 0-1.93 1.63l-.69.65-.28.34c-.22.3-.34.57-.32 1.02a1.48 1.48 0 0 0 1.19 1.4c.19.04.39.06.58.05.82-.06 1.63-.14 2.44-.25l.12-.02h.06l.11-.01 1.37-.17c2.86-.34 5.27-.5 7.58-.43 6.34.19 10.03 2.07 10.58 6.16.65 4.95-7.35 13.5-17.75 19-1.28.67-3.04 1.55-4.82 2.43l-.27.12a187.9 187.9 0 0 1-3.19 1.51l-.19.09c-1.06.48-1.98.88-2.73 1.2h-.03l.02-.09c.51-3.08.98-7.28 1.2-10.89a25.3 25.3 0 0 1 2.61-.5l1.25-.18.32-.04h.1l.08-.02 1.31-.17c.36-.04.71-.11 1.05-.23.12-.05.23-.11.34-.2.34-.24.59-.6.59-1.15 0-.6-.3-1-.68-1.24-.14-.1-.26-.14-.4-.19a2.62 2.62 0 0 0-.6-.08l-1.22-.08h-.21l-.2-.02h-.12l-.2-.02-.42-.02-.32-.01a618.8 618.8 0 0 0-9.33-.42c-8.53-.34-12.44-.6-16.02-1.14-4.15-.62-6.4-1.57-6.83-2.63-.7-1.76 1.65-5.14 5.6-9.08 2.85-2.82 8.18-6.97 13.73-10.51 7-4.45 13.84-7.68 19.67-8.99Z" fill="#564341"/><path fill-rule="evenodd" clip-rule="evenodd" d="M101.16 87.73a40.9 40.9 0 0 0-2.79 3.43l-1.68-1.08c.4-.64 1.87-2.45 2.99-3.7a18.32 18.32 0 0 1 4.07-3.47l1 1.73a16.4 16.4 0 0 0-3.59 3.09Z" fill="#564341"/><g filter="url(#I)"><path d="M45.04 140.07 55 136.8l-7.75 56.7c-.33 2.42-1.73 4.69-4.1 5.25a7.6 7.6 0 0 1-3.15.16 7.76 7.76 0 0 1-2.58-1.14c-2.25-1.44-3.02-4.26-2.5-6.88l10.12-50.8Z" fill="#83EAD0"/></g><path fill-rule="evenodd" clip-rule="evenodd" d="m56.57 136.34-8.32 57.29c-.36 2.65-1.94 5.39-4.87 6.08-1.08.26-2.33.4-3.56.18a9 9 0 0 1-2.93-1.29c-2.7-1.72-3.52-5.02-2.94-7.92l10.58-50.37 12.04-3.97Zm-10.3 5.5L35.9 191.07c-.47 2.36.25 4.7 2.06 5.84a6.8 6.8 0 0 0 2.22 1c.85.17 1.8.08 2.73-.14 1.82-.44 3.05-2.22 3.35-4.41l7.88-54.11-7.88 2.6Z" fill="#564341"/><defs><linearGradient id="d" x1="61.15" y1="70.07" x2="56.85" y2="70.18" gradientUnits="userSpaceOnUse"><stop stop-color="#FFE768"/><stop offset=".4" stop-color="#FFE768"/><stop offset=".7" stop-color="#FFBD4A"/><stop offset="1" stop-color="#FFBD4A"/></linearGradient><linearGradient id="e" x1="61.77" y1="32.18" x2="70.25" y2="52.91" gradientUnits="userSpaceOnUse"><stop stop-color="#FFBD4A"/><stop offset=".3" stop-color="#FFBD4A"/><stop offset=".66" stop-color="#FFE768"/><stop offset="1" stop-color="#FFE768"/></linearGradient><linearGradient id="f" x1="60.74" y1="35.43" x2="60.99" y2="42.55" gradientUnits="userSpaceOnUse"><stop stop-color="#FFF9CE"/><stop offset="1" stop-color="#fff"/></linearGradient><linearGradient id="g" x1="66.22" y1="39.85" x2="66.34" y2="43.37" gradientUnits="userSpaceOnUse"><stop stop-color="#FFF9CE"/><stop offset="1" stop-color="#fff"/></linearGradient><linearGradient id="h" x1="55.89" y1="35.29" x2="61.5" y2="52.83" gradientUnits="userSpaceOnUse"><stop stop-opacity="0"/><stop offset="1"/></linearGradient><linearGradient id="i" x1="78.61" y1="129.69" x2="124.31" y2="200.88" gradientUnits="userSpaceOnUse"><stop stop-color="#FFBC9C"/><stop offset=".7" stop-color="#FFBC9C"/><stop offset="1" stop-color="#FFA67A"/></linearGradient><linearGradient id="k" x1="123.49" y1="164.21" x2="123.49" y2="177.99" gradientUnits="userSpaceOnUse"><stop stop-color="#FFE768"/><stop offset=".4" stop-color="#FFE768"/><stop offset=".7" stop-color="#FFBD4A"/><stop offset="1" stop-color="#FFBD4A"/></linearGradient><linearGradient id="l" x1="55.91" y1="157.46" x2="51.77" y2="174.12" gradientUnits="userSpaceOnUse"><stop stop-color="#F28773"/><stop offset=".3" stop-color="#F28773"/><stop offset="1" stop-color="#F6A66A"/></linearGradient><linearGradient id="m" x1="62.5" y1="165.46" x2="57.44" y2="185.23" gradientUnits="userSpaceOnUse"><stop stop-color="#F28773"/><stop offset=".3" stop-color="#F28773"/><stop offset="1" stop-color="#F6A66A"/></linearGradient><linearGradient id="n" x1="76.36" y1="173.5" x2="68.46" y2="202.87" gradientUnits="userSpaceOnUse"><stop stop-color="#F28773"/><stop offset=".3" stop-color="#F28773"/><stop offset="1" stop-color="#F6A66A"/></linearGradient><linearGradient id="o" x1="159.15" y1="185.1" x2="163.8" y2="200.97" gradientUnits="userSpaceOnUse"><stop stop-color="#F57A55"/><stop offset=".4" stop-color="#F28773"/><stop offset="1" stop-color="#FA9F6E"/></linearGradient><linearGradient id="p" x1="166.95" y1="176.27" x2="173.96" y2="190.9" gradientUnits="userSpaceOnUse"><stop stop-color="#F57A55"/><stop offset=".4" stop-color="#F28773"/><stop offset="1" stop-color="#FA9F6E"/></linearGradient><linearGradient id="q" x1="173.29" y1="170.14" x2="178.99" y2="180.56" gradientUnits="userSpaceOnUse"><stop stop-color="#F57A55"/><stop offset=".4" stop-color="#F28773"/><stop offset="1" stop-color="#FA9F6E"/></linearGradient><linearGradient id="r" x1="136.98" y1="39.66" x2="136.98" y2="91.92" gradientUnits="userSpaceOnUse"><stop stop-color="#FFE768"/><stop offset=".4" stop-color="#FFE768"/><stop offset=".7" stop-color="#FFBD4A"/><stop offset="1" stop-color="#FFBD4A"/></linearGradient><linearGradient id="s" x1="148.16" y1="86.94" x2="172.31" y2="126.66" gradientUnits="userSpaceOnUse"><stop stop-color="#564341"/><stop offset=".5" stop-color="#564341"/><stop offset="1" stop-color="#845750"/></linearGradient><linearGradient id="t" x1="110.55" y1="81.53" x2="134.85" y2="122.25" gradientUnits="userSpaceOnUse"><stop stop-color="#564341"/><stop offset=".5" stop-color="#564341"/><stop offset="1" stop-color="#845750"/></linearGradient><linearGradient id="u" x1="168.36" y1="169.67" x2="171.07" y2="171.77" gradientUnits="userSpaceOnUse"><stop stop-color="#C35C45"/><stop offset="1" stop-color="#B76455"/></linearGradient><linearGradient id="v" x1="161.69" y1="177.33" x2="165.01" y2="181.66" gradientUnits="userSpaceOnUse"><stop stop-color="#C35C45"/><stop offset="1" stop-color="#B76455"/></linearGradient><linearGradient id="w" x1="98.89" y1="182.94" x2="85.7" y2="205.23" gradientUnits="userSpaceOnUse"><stop stop-color="#AA6160"/><stop offset="1" stop-color="#B36F5F"/></linearGradient><linearGradient id="x" x1="150.69" y1="185.79" x2="154.07" y2="193.33" gradientUnits="userSpaceOnUse"><stop stop-color="#C35C45"/><stop offset="1" stop-color="#B76455"/></linearGradient><linearGradient id="y" x1="77.03" y1="171.07" x2="67.4" y2="188.13" gradientUnits="userSpaceOnUse"><stop stop-color="#AA6160"/><stop offset="1" stop-color="#B36F5F"/></linearGradient><linearGradient id="z" x1="67.61" y1="161.86" x2="59.66" y2="176.38" gradientUnits="userSpaceOnUse"><stop stop-color="#AA6160"/><stop offset="1" stop-color="#B36F5F"/></linearGradient><linearGradient id="A" x1="206.4" y1="112.28" x2="173.38" y2="145.75" gradientUnits="userSpaceOnUse"><stop stop-color="#FFCB87"/><stop offset=".1" stop-color="#FFCB87"/><stop offset=".4" stop-color="#FFBC9C"/><stop offset="1" stop-color="#FFBC9C"/></linearGradient><linearGradient id="B" x1="202.98" y1="103.52" x2="161.74" y2="147.95" gradientUnits="userSpaceOnUse"><stop stop-color="#FBC38C"/><stop offset=".3" stop-color="#F19675"/><stop offset=".7" stop-color="#F0876A"/><stop offset="1" stop-color="#ED8870"/></linearGradient><linearGradient id="C" x1="181.9" y1="118.32" x2="181.9" y2="124.41" gradientUnits="userSpaceOnUse"><stop stop-color="#FFFFFE"/><stop offset="1" stop-color="#fff"/></linearGradient><linearGradient id="D" x1="196.25" y1="109.1" x2="196.25" y2="124.68" gradientUnits="userSpaceOnUse"><stop stop-color="#FFFFFE"/><stop offset="1" stop-color="#fff"/></linearGradient><linearGradient id="E" x1="25.85" y1="71.7" x2="53.84" y2="168.15" gradientUnits="userSpaceOnUse"><stop stop-color="#FFCB87"/><stop offset=".2" stop-color="#FFCB87"/><stop offset=".7" stop-color="#FFBC9C"/><stop offset="1" stop-color="#FFBC9C"/></linearGradient><linearGradient id="F" x1="2.8" y1="102.54" x2="53.21" y2="152.22" gradientUnits="userSpaceOnUse"><stop stop-color="#FFCB87"/><stop offset=".3" stop-color="#F79E75"/><stop offset=".5" stop-color="#EF876D"/><stop offset="1" stop-color="#ED8870"/></linearGradient><linearGradient id="G" x1="50.01" y1="111.54" x2="50.61" y2="128.57" gradientUnits="userSpaceOnUse"><stop stop-color="#FFFFFE"/><stop offset="1" stop-color="#fff"/></linearGradient><linearGradient id="H" x1="32.47" y1="87.29" x2="33.6" y2="119.57" gradientUnits="userSpaceOnUse"><stop stop-color="#FFF9CE"/><stop offset="1" stop-color="#fff"/></linearGradient><filter id="c" x="50.11" y="60.81" width="17.81" height="31.21" filterUnits="userSpaceOnUse" color-interpolation-filters="sRGB"><feFlood flood-opacity="0" result="BackgroundImageFix"/><feBlend in="SourceGraphic" in2="BackgroundImageFix" result="shape"/><feColorMatrix in="SourceAlpha" values="0 0 0 0 0 0 0 0 0 0 0 0 0 0 0 0 0 0 127 0" result="hardAlpha"/><feOffset dy=".25"/><feGaussianBlur stdDeviation=".12"/><feComposite in2="hardAlpha" operator="arithmetic" k2="-1" k3="1"/><feColorMatrix values="0 0 0 0 0 0 0 0 0 0 0 0 0 0 0 0 0 0 0.25 0"/><feBlend in2="shape" result="effect1_innerShadow_2227_2807"/></filter><filter id="j" x="108.94" y="154.66" width="31.82" height="35.37" filterUnits="userSpaceOnUse" color-interpolation-filters="sRGB"><feFlood flood-opacity="0" result="BackgroundImageFix"/><feBlend in="SourceGraphic" in2="BackgroundImageFix" result="shape"/><feColorMatrix in="SourceAlpha" values="0 0 0 0 0 0 0 0 0 0 0 0 0 0 0 0 0 0 127 0" result="hardAlpha"/><feOffset dx="3.48"/><feComposite in2="hardAlpha" operator="arithmetic" k2="-1" k3="1"/><feColorMatrix values="0 0 0 0 0.513726 0 0 0 0 0.917647 0 0 0 0 0.815686 0 0 0 0.25 0"/><feBlend in2="shape" result="effect1_innerShadow_2227_2807"/></filter><filter id="I" x="34.77" y="136.79" width="20.23" height="62.21" filterUnits="userSpaceOnUse" color-interpolation-filters="sRGB"><feFlood flood-opacity="0" result="BackgroundImageFix"/><feBlend in="SourceGraphic" in2="BackgroundImageFix" result="shape"/><feColorMatrix in="SourceAlpha" values="0 0 0 0 0 0 0 0 0 0 0 0 0 0 0 0 0 0 127 0" result="hardAlpha"/><feOffset dx="4"/><feComposite in2="hardAlpha" operator="arithmetic" k2="-1" k3="1"/><feColorMatrix values="0 0 0 0 0 0 0 0 0 0 0 0 0 0 0 0 0 0 0.25 0"/><feBlend in2="shape" result="effect1_innerShadow_2227_2807"/></filter></defs></svg>